<?xml version="1.0" standalone="no"?>
<!DOCTYPE svg PUBLIC "-//W3C//DTD SVG 1.1//EN" "http://www.w3.org/Graphics/SVG/1.1/DTD/svg11.dtd" >
<svg xmlns="http://www.w3.org/2000/svg" xmlns:xlink="http://www.w3.org/1999/xlink" version="1.1">
<metadata>
Created by FontForge 20190801 at Wed Jul 17 11:45:53 2019
 By www-data
Copyright (c) 2008 by Rian Hughes / Device. All rights reserved.
</metadata>
<defs>
<font id="RoadkillAlternates" horiz-adv-x="299" >
  <font-face 
    font-family="RoadkillAlternates"
    font-weight="400"
    font-stretch="normal"
    units-per-em="1000"
    panose-1="2 0 5 8 8 0 0 2 0 4"
    ascent="800"
    descent="-200"
    x-height="637"
    cap-height="644"
    bbox="-46 -191 1041 864.8"
    underline-thickness="50"
    underline-position="-100"
    unicode-range="U+001D-FB02"
  />
<missing-glyph horiz-adv-x="110" 
 />
    <glyph glyph-name=".notdef" horiz-adv-x="110" 
 />
    <glyph glyph-name="glyph1" horiz-adv-x="500" 
 />
    <glyph glyph-name="nonmarkingreturn" horiz-adv-x="333" 
 />
    <glyph glyph-name="space" unicode=" " horiz-adv-x="110" 
 />
    <glyph glyph-name="exclam" unicode="!" horiz-adv-x="157" 
d="M117 517v-3h-4q-7 10 -7 12h3v1h8l1 -5q1 -3 3 -5h-4zM101 527l-1 -1q1 1 2 1h-1zM124 609h-4v-15h-3v-1h3v-15q1 -9 3 -14h-4q-1 -3 -1 -7v-8q1 -10 -3 -13q0 -1 -1 -1t-4 -1v7h-3q0 4 3 5l-2 8l-4 8q-2 -1 -12 -3l-1 -16q3 1 6 3l2 1l3 1v-2q1 -1 1 -2q-1 0 0 -3h-5
q-4 -1 -7 -1q0 -14 -1 -14v-3q4 -2 8 -2q2 -4 -2 -6l-3 -1l-3 -1v-11h8q3 6 16 6v-3l-1 -3h4l-2 -12l-2 -12h-12l-1 -5l-1 -3q-2 -5 -3 -10h8v9h3v-3h8q0 -3 -1 -7l-1 -4l-1 -4h-5l3 -5l3 -3q3 -5 5 -11q-5 -1 -13 -1h-6q-4 0 -8 -1v-5q4 -1 7 -3q3 0 5 1l3 1l4 1q1 -3 4 -3
q0 -2 -2 -6l-1 -3l-1 -4h1l1 1q1 0 1 -2l-1 -1h-1q-1 0 -1 -1l1 -1h1q2 -2 1 -4h-3v-4h-1v-3q1 -3 0 -7h-1q2 -3 4 -3q0 -8 -2 -19l-1 -10l-1 -9h3q0 -3 -1 -6l-1 -3l-1 -2h3l-1 -9q-3 -2 -3 -8h3q-2 -3 -3 -7h3l-1 -7h-3v-3h3v-10q0 -32 -5 -42v-18h3q0 -24 3 -35h-4l-1 -6
h-15l-17 1q-22 1 -34 -1q1 74 -2 194l-2 85v24q0 13 3 21q-3 4 -4 10l-1 10h4l-1 28h-4v11l1 12q0 14 2 24l-1 8v10q0 10 4 14v3h8v-3q4 0 11 1h14q17 1 24 2v-3l13 -1l13 -1v-13h4v-3h-4v-11h4zM127 5q-9 -2 -26 -3h-14l-13 -1q-19 5 -42 4v3h-1q0 8 1 11v11h4q1 2 -1 4
l-2 1l-1 2q-1 3 2 7l1 3l1 2h-4q-1 19 -4 39h-4q0 30 7 40h14l17 -1q20 0 24 5l37 -2l4 -13v-80q2 -4 2 -7v-2l-1 -2q0 -4 6 -7q-2 -9 -7 -14zM97 609v-3q5 1 7 3h-7zM112 603h-7q0 -4 -2 -6l-1 -3l-1 -4h11q0 1 1 1l3 2q-4 4 -4 10zM80 527h2l1 6zM99 446l-1 -3h1l1 5z
M104 387q-1 5 -6 12h-1l-1 -12h8zM104 374q-2 7 -15 10q-2 -4 -4 -10q6 -3 8 -6h3v3q1 0 1 1q-1 0 0 2h7zM94 330q-3 -3 -3 -4h3v4zM102 82h-6l1 -3q0 -1 1 -1v-4h4v8zM66 108v-8h-4v-6q9 3 10 14h-6zM80 74q0 3 -6 12l-1 1l-1 1h-2v-8h4v-6h6z" />
    <glyph glyph-name="quotedbl" unicode="&#x22;" horiz-adv-x="288" 
d="M263 614l-1 -10l-3 -1q-5 -21 -6 -38l-4 1q0 -1 2 -5t2 -7q0 -2 -2 -3t-2 -2v-2l4 1q0 -10 -4 -67q-1 -20 -2 -42q-1 -8 -1 -15q-1 -6 -1 -9l-1 -4l-5 1h-4q-6 0 -28 -6l-3 1h-2q-3 0 -6 -1t-5 -1q0 -1 -3 0q-3 0 -6 3q-9 7 -9 24q0 2 2 6q0 17 -7 90l-3 26q-2 15 -3 24
q-2 24 -2 30l8 25l36 10q3 -4 16 -4h10l10 1q14 1 17 1q6 -8 6 -19v-8zM119 543q-10 -78 -10 -95q2 -4 2 -6q0 -28 -19 -27q-2 0 -5 1l-2 1h-6l-3 -1q-22 6 -27 6q-6 0 -10 -1l-1 4q0 7 -2 61q-2 55 -2 63l4 -1l1 1v1q0 1 -2 2q-3 1 -3 3q0 3 2 7t2 5l-4 -1q0 17 -5 38l-3 1
v8l-1 7q0 11 7 22h8l9 -1q14 -1 20 -1q13 0 16 4l41 -3l3 -12q0 -7 -10 -86zM192 594q1 1 1 2l-5 -1v-6l4 -1l-1 4q1 1 2 1q-1 0 -1 1zM182 585h-3v8l-6 1q1 -11 10 -14zM232 484h-2l-1 -1q-7 -6 -7 -12h6l1 6h3v7zM212 489v-4l-1 -6l5 9zM205 502q-7 0 -11 -3l7 -2l-3 -7
l4 -1l4 11zM100 596l-5 1q1 -1 1 -2v-1l1 -1l-1 -4l4 1v6zM66 621v-8h-3l-1 -5q9 3 10 14zM80 589q0 6 -7 12l-1 1h-2v-7h3l1 -6h6zM190 484q-2 -4 -2 -6q0 -4 6 -9l2 4l-3 1l4 7zM70 575q8 6 8 8h-2l-3 -1h-2l1 -2q-5 -4 -10 -4q-4 0 -9 4l-3 -1l4 -10v-4h2q2 0 3 2l1 2v2
l4 2l5 -13l3 1l1 -4l-3 -1l2 -4l-4 -1l-3 7q-3 0 -4 -1l-1 1h-3q3 -9 9 -15l5 -5q3 -3 5 -7l4 2v2q-2 1 -3 5l-1 3v2q0 2 1 3l1 -3l4 1zM107 519l-2 3l-1 2l4 2l-6 14q-2 -4 -6 -15q-4 0 -10 1l-1 4q-3 -1 -4 -2l-1 -3q-1 -3 -4 -3t-3 3l-3 -1l1 -4h-2q-2 0 -3 2l-2 1l-1 1
h-1l4 -10l2 -2h4q-1 -1 -1 -3v-5q3 -1 6 -1h2q2 0 5 1q2 -2 4 -3l1 -2l-8 -1l-8 -1q3 -5 4 -5l2 1h3l3 -7l4 2l4 2l-2 3l5 2l-1 3l10 4l-1 3l-1 2q6 3 10 6zM96 482l-1 3l-7 -3l3 -7l-3 -1l2 -4q6 5 6 10v2zM74 488l-1 2l-4 -1l4 -9l1 2v6zM70 462l-1 -2l4 -11l4 1l-3 7l7 2
q-4 3 -11 3zM61 459l-6 -3l6 1v2z" />
    <glyph glyph-name="numbersign" unicode="#" horiz-adv-x="409" 
d="M387 362q-5 -2 -27 -3q-24 -2 -51 -3l-5 -26h1q-1 -3 -3 -7l-2 -10h2l-4 -6l-1 -6q23 -4 46 -2l9 1l6 1q7 1 9 1v-60l-1 -1l1 -1v-1h-83q-8 -36 -9 -42l-1 2h-12l2 6h-4l-1 -8q-3 -11 -1 -12q1 -1 5 -1l3 -1l4 -1q0 -1 2 -2l-6 -24l3 3l4 4h2v-4h3l-3 -6l-3 -7l-17 -54
q-11 2 -38 2l-21 -1q-11 -1 -16 -1q3 12 4 15q-1 13 3 25l2 5l2 6q2 7 4 16l8 43h3l1 4h-3l2 4h3q0 4 -1 8h3q1 8 -3 5l3 12h2v2l-1 2h-9v-3q-3 -1 -7 1l-2 1l-3 1v-3h-43l-1 -2l-2 -2h5v-13h-8l-1 -4h-3l1 6h-4l-3 -1q-1 -6 1 -6h1v-5h11l-2 -15l-3 -15h-4v-5l-1 -3
q-12 0 -13 8h-7l-17 -13l2 -1l3 -1q3 -2 0 -8q-4 0 -8 -3l-1 -4q1 0 3 -2l4 -5q4 -7 3 -12q3 0 7 -1l2 -1h2l-1 -4q0 -1 -1 -2l-1 -3q-7 5 -9 6l-4 -20q8 -1 10 -4q5 6 8 12q-3 1 -2 6h3l2 9q4 -2 4 -3v-15l-2 -7h4l-1 -3h-4v-5h4l-1 -3h-6q-6 -1 -14 -2l-12 -1l-1 -4
q-6 2 -15 3l-16 1l-1 -4h-8l1 4q-1 2 1 15l9 33h-4l4 13q3 7 7 13q-1 10 1 25l3 13l3 14l5 22q-48 0 -58 2v10q-2 8 0 24l1 14q1 7 1 12h70l5 19l4 20l4 21h-65v2l-1 1v14q1 7 0 9q0 7 3 17l2 7l2 6q2 0 9 1l7 1l9 1q24 4 48 3q8 36 12 68q2 16 4 26q3 17 8 41q11 -2 38 -1
h21q12 1 16 1l-1 -8h3q-2 -10 -10 -45l-4 -13l-3 -14q-3 -14 -5 -23l-5 -28h-2l-1 -4h3v-1h59q1 3 1 4l-1 2q-1 2 1 7h3v5l1 3q13 0 14 -8h6l3 15l-2 1l-3 1q-3 2 0 8q4 0 8 3l1 4h-1l1 2l1 3h-4l-3 1q-3 1 -4 1l1 4q0 1 1 2l1 3q7 -5 9 -6l4 20q-8 2 -10 4q-6 -9 -10 -21
q1 -1 1 -6h-2l-2 -9q-5 2 -5 3q-3 4 1 16l3 10q2 5 2 9h-4q3 6 3 5q0 1 2 6h2v1h-2v15h-4l1 3h4l4 17q6 1 14 2l12 1l1 4q6 -2 15 -3l16 -1l1 4h8l-1 -4l-2 -52h-4l-7 -36h4q-1 -4 -8 -14q1 -13 -2 -30q19 -1 41 0h22v-12l1 -12q1 -15 -1 -23v-10zM124 162q-2 -2 -4 -6
l-3 -7h-8l1 1h-3q1 2 11 16h3l-1 -4h4zM103 148q1 0 1 1v-1h-1zM299 330q0 3 1 3q0 1 -1 1l1 4h-3l-4 -4l-5 -4q0 -8 1 -12q12 3 13 5l2 7h-5zM294 313l-4 -12h3q4 4 5 6l2 6h-6zM220 356v3l-3 -1l-3 -1q-3 -2 -6 -1v3h-29q-4 -28 -7 -41q-2 -1 -5 -4l-2 -1h-9l-4 -13h2
q6 6 10 13h4q-3 -9 -3 -11v-2l32 1h32l3 1h-4l1 4l2 3l1 4h-1l1 5h-3l1 3l2 2l1 1l1 1v1h-1l-1 1q1 3 2 2h1q0 11 1 16q3 1 5 5l3 -1l2 -2q2 -1 5 -2q6 5 7 5l2 6h-40zM161 330q0 3 1 3q0 1 -1 1l1 4h-3l-4 -4l-5 -4v-12q14 3 17 12h-6zM237 146v-2l1 -2v-3l1 7h-2zM135 199
h-12l2 6h-4l-1 -8q-3 -11 -1 -12q1 -1 5 -1l3 -1l4 -1q0 -1 5 -3q-1 6 1 18zM84 148v-2l1 -2v-3l1 7h-2z" />
    <glyph glyph-name="dollar" unicode="$" horiz-adv-x="228" 
d="M219 67q-1 -1 -1 -3l-1 -4q-1 -6 -2 -7l-3 -9q-1 0 -2 -2q-1 -3 -2 -3q0 -1 -2 -3q-3 -1 -3 -3h-2v-4l-3 -2l-3 -2v-6l-4 -4h-8v-3q-1 -2 -3 -3h-5q-2 -5 -3 -6h-5l-2 -3q-1 -1 -1 -2h-6v-3h-4v-53q1 -2 1 -4v-3q0 -3 4 -5q-1 -6 -5 -9q-8 -1 -20 -2h-21q-16 3 -32 2v2
h-1l1 17v16h3q1 2 -1 4h-1l-1 1q-1 2 1 5l1 2l1 1h-3l-1 12q-1 7 -2 10h-1v4h-4l-5 3l-8 4l-11 7q0 1 -2 3l-4 5q-6 6 -8 6q-3 3 -7 13l-3 9q-1 3 -2 7q3 3 4 5q4 0 7 -1q4 -1 7 -3v7l12 7l13 7q1 2 2 3l1 3l-3 1l-4 2l-7 3l-1 5l-1 6h4q0 10 -2 16h2v1q4 2 6 -1l1 -4l1 -3
l2 2l2 1q2 2 4 5h11v-1q3 -3 4 -10l1 -7v-7q1 -19 7 -24q1 -3 4 -6l3 -3l4 -3q18 0 28 12q7 12 8 23q-1 5 -1 13v7l-1 8l-1 12l-3 13l-2 2l1 6l-2 2l1 7l-3 1q0 13 -5 30h-2v10l-3 4v7l-3 4v4h-4v10l-1 10l-4 5v12h-3l-4 6h-2l-2 8l-2 8l-1 4l-5 3l-1 5h-2l-1 7h-3l-2 9
l-4 2l-1 5l-2 -1l-2 11l-3 2l-3 12l-5 3l-6 15h-1v4h-3v8l-4 4q-1 6 -2 10l-1 3q-1 2 -1 5h-4q-1 4 -3 10q-1 6 -3 9l-6 17q-7 24 -7 25l-5 15v8h-3l2 13h-4l1 10h-2v8h-2l4 11h-4l2 9l-3 17q-1 9 1 23l2 11q1 6 1 8l8 9h1v5h3v6q1 0 7 4v4h1q4 4 10 12l3 4l7 4l6 2l8 5
q9 2 14 4q-1 11 -1 26v23q-5 8 0 12v5l-1 2q-1 2 1 4q8 1 22 2h11l10 1q6 8 35 0l-4 -14l4 -6v-6q-1 -1 -1 -8h-4q-1 -2 -1 -7v-7q1 -2 1 -13l1 -8v-4h4v-4l4 -1l4 -1q0 -1 1 -4q1 -2 2 -3h6l6 -1v-3q4 -4 13 -12v-7h5l4 -1q2 -8 6 -22h3v-16h2v-12h-2q0 -3 1 -9t1 -10h3
q0 -3 -1 -7l-1 -4l-1 -4l2 -6l3 -5q2 -7 2 -16h-32v-3h-12v3q-7 3 -17 1l-7 -2l-6 -2q-3 18 -3 36h3v17h-3q0 13 -12 28h-29v-1h-5q-3 -3 -6 -7q-3 -6 -4 -11l-3 -20l2 -13q2 -3 1 -11l-1 -6v-5h1l2 -9l3 -4v-5h3l-1 -8l3 -4l2 -6h2l-1 -9l5 -8l2 -7l1 -7q1 -9 3 -16l3 -4
l1 -11h3l1 -4l6 -9q2 -7 4 -12l2 -4q2 -3 3 -7l2 1l1 -8l3 -4l8 -13h3l1 -8h2q7 -15 11 -31h1v-5l5 -2v-5h3q3 -13 5 -16h1v-12h3l5 -10l4 -4v-7l4 -4v-14h4q1 -4 2 -12l2 -12h2v-4h2q3 -12 5 -33h2l-2 -8l2 -4v-4l3 -1l-2 -8l3 -4l-2 -8h1l-2 -20h3v-8l2 -9zM53 101
q-6 2 -8 8h8v-8zM43 101q-4 -5 -12 -6q-3 -3 -7 -4l-2 6l-3 6q4 2 5 10h10q-3 -6 -3 -10h8v-2h4zM27 60v-3h-3v7h-1l1 3v5h3v-8h4v-4h-4zM102 700h-7v-4h-4v-4q2 0 4 1l2 2l3 1l1 1l1 1v2zM110 670h-6v2h-5q2 -6 11 -7v5zM102 9q-1 3 -1 4l-1 2v-6h2zM70 45h-1v4
q-13 -1 -16 -16h-6v-4h14q3 7 9 12v4zM45 42q-1 4 -1 5l-1 2v-7h2z" />
    <glyph glyph-name="percent" unicode="%" horiz-adv-x="662" 
d="M621 83q0 -1 -2 1h-4q-1 -3 1 -6l1 -3l1 -2h-4q0 -22 -2 -31h-3l-6 -11l-7 -12l-6 -1l-5 -1l-5 -6l-4 -6l-6 1l-1 -3l-2 -2h-5v-3l-6 -2l-6 -2l-1 -1q-10 -2 -20 -2v-4h-5v-3q-8 -3 -23 0l-11 3l-5 1l-4 1l1 8l-14 -2q-8 -1 -13 -1l1 3h-12l-1 2l-2 3h-9v2q-1 2 -2 5h-6
q-8 8 -10 14l-8 2q-3 12 -3 19q-4 2 -7 2l1 11l-2 1h-3q-1 4 2 8l2 3l1 4l-1 1l-2 1q-3 2 -5 4q0 4 4 8l3 3l2 2h-1q-6 7 -7 12h8v5q-1 3 0 5h-4v5h-3v112h4v11h3v9h4l1 7q1 1 8 3q0 6 3 10l3 1l6 1v3q10 0 18 -4v3h4v3h-8l2 6l1 6l2 1h2q4 1 6 3v1h4v3l12 -1v4h12v3h14v1
q9 3 29 0l15 -3q6 -2 11 -3l10 -1v-4l9 -2l8 -2v-4l6 -1q1 -1 2 -3l1 -4h4q7 -5 9 -11l4 -1l3 -1l3 -5l2 -5q2 -7 4 -9v-12h-2v-4h2l-1 -12h4v-23h3q0 -5 -4 -5v-12h3l2 -84h4q1 -5 1 -12zM456 627q-5 -10 -10 -22l-7 -23h-3l-7 -23q1 -14 -7 -42l-7 -24q-5 -14 -7 -21
l-10 -43h-3l-2 -4h3l-3 -10h-3q0 -4 1 -8h-3q-2 -8 0 -11l-3 -12h-3v-5q1 -5 0 -8l-3 1l-5 -24l-6 -25q-2 -1 -5 -4q-2 -1 -3 0h-1v-1h5l-5 -12h1l-1 -5h3l-1 -3l-2 -2l-1 -1l-1 -1v-1h1l1 -1q-1 -3 -1 -2h-2q0 -6 -2 -16q-3 -1 -5 -4l-4 1l-2 2q-3 2 -5 2q-5 -4 -8 -5
l-2 -6q4 -1 8 -1l6 -1q7 0 13 -2q-3 -4 -5 -8l-5 -5q-6 -5 -9 -10h5q-2 -15 -3 -19h-8l-1 -4h-3l3 12h-4l-4 -1q-1 -5 0 -11q0 -6 -1 -12h12l-3 -15l-3 -15h-4l-1 -5l-1 -3q-13 1 -13 9h-8l-4 -15l2 -1l4 -1q3 -2 -1 -8q-4 0 -8 -3l-2 -4l-4 -16l4 -1l3 -1q3 -1 4 -1
q-2 -3 -1 -4q0 -1 -1 -2l-1 -3q-8 6 -10 7l-5 -20q9 -2 11 -5q3 4 7 11l3 5l3 5q-3 1 -2 6h3l2 9q5 -2 5 -3q3 -4 -2 -16l-3 -10q-2 -5 -2 -9h4q-4 -7 -8 -18l-7 -20h-3v-1h3l-5 -19l4 -1l-1 -3l-4 1l-4 -15h4l-1 -3h-4l-5 -17q-6 -1 -15 -1l-6 -1h-7l-1 -4q-12 3 -33 5
l-1 -4h-8l1 4q-2 5 1 19l4 12l3 11l6 30q4 18 7 30l4 -1l9 36h-4q5 16 12 26q-1 10 3 28l4 15l4 15l31 109q19 67 42 156l41 156q11 -3 40 -3h40l-2 -8h4zM268 424l-2 1l-4 1q-1 -3 2 -7l1 -3l1 -2l-4 1q0 -13 -2 -31h-3q-5 -8 -13 -24h-6l-5 -1l-5 -6l-4 -6h-6q-2 -4 -4 -5
h-5v-3l-6 -1l-6 -2v-1q-9 -3 -20 -2v-4h-5v-3q-8 -3 -23 0l-11 2q-6 2 -9 2v8l-13 -1l-13 -2v3l-12 1l-1 2l-2 3h-9v2q0 2 -1 4h-6q-7 8 -10 15l-6 1q-2 0 -3 1q-2 16 -2 19l-3 1h-4v11l-2 1h-3q0 4 3 8t3 7l-1 1l-2 1q-3 2 -5 4q-1 5 3 8l4 3l2 2h-1q-6 7 -7 12h8v5l-1 5
h-4v5h-3v113l4 -1l1 11h3v9h4v7q1 1 3 2l5 2q2 6 4 10h1l2 1q4 1 6 0v3q9 0 18 -3v3h4v3h-8l1 6l1 6l5 1q4 1 6 3v1l4 -1v3h12v4h12v3l14 -1v1q9 3 29 0q7 -1 15 -3l6 -2l5 -1h10v-4l9 -2l8 -3l-1 -4h6q1 -1 2 -3l2 -4h4q6 -4 9 -12l4 -1l3 -1l2 -5l2 -4q2 -6 5 -9v-12h-2
l-1 -4h2v-12h4l-1 -23h3q1 -5 -3 -5v-12h3l2 -85h4q1 -5 0 -12q-1 1 -3 1zM325 152l-3 -3l-2 -3q-3 -5 -4 -6h-8l1 1h-3q2 6 5 9l3 3l4 4l4 -1l-1 -4h4zM301 140q-1 0 -1 1q1 -1 1 0v-1zM369 397q0 -2 1 -5l2 5h-3zM356 335q0 2 1 3v1h-1l2 4h-3q-2 -2 -5 -4l-3 -1l-3 -2
q0 -8 1 -12q14 2 18 11h-7zM351 318l-5 -14h1q7 6 12 14h-8zM413 249v-12h1v12h-1zM537 214l-6 12l-6 12l-7 1l-6 1q-7 1 -10 2v-3l-15 1q-2 -2 -7 -6l-4 -3l-4 -3l-2 -5l-1 -5l-3 -12h4l1 -117h3l-1 -17h2v-5h2l1 -1q2 -2 3 -2l1 -2v-2q1 -3 2 -5q23 -5 48 5q1 5 3 5l1 37
h4zM61 591v-12h1v12h-1zM584 60v-6h5v6h-5zM185 555q-4 9 -12 25l-7 1h-6q-6 1 -10 3v-3h-15q-2 -2 -8 -6l-4 -3l-4 -2l-1 -5l-1 -5l-3 -12h4v-117h3v-17l2 -1v-5h2l1 -1q2 -2 3 -2v-2l1 -2q0 -3 1 -5q24 -5 49 6q1 4 3 4l1 37h4zM232 402l-1 -6h5l1 6h-5zM330 247v-6l1 6
h-1zM421 103q-4 -8 -8 -12v-2q6 2 12 6v8h-4zM69 444q-3 -6 -8 -11l-1 -2q7 1 13 5v8h-4zM320 192l-12 1l3 6h-4l-3 -8q-3 -11 -1 -12q1 -1 5 -1l4 -1l4 -1q0 -1 6 -4q-1 6 1 18zM404 78v-14h3l1 7v7h-4zM52 420v-14h3l1 7v7h-4zM279 141q1 -4 1 -5v-2l1 7h-2zM288 57l-1 1
v2h-11q-1 -4 0 -8q0 -4 -1 -9h7q2 9 7 12zM272 36q-1 3 -6 4l-1 -4h7z" />
    <glyph glyph-name="ampersand" unicode="&#x26;" horiz-adv-x="300" 
d="M289 -6l-1 4l-9 -1h-8q-9 -1 -16 -3l-1 4l-7 1h-6q-9 1 -16 2l-6 17h-4l-1 3h4l-5 13l-4 -1l-3 -2v-5q-6 -5 -15 -8q-4 -7 -6 -8q-8 -4 -14 -4v-3l-6 -1q-3 -1 -5 -3v-1h-12v-3q-9 -3 -23 -2q-12 1 -20 5v1q-4 2 -7 3h-2l-2 1v3h-7q0 4 -4 5h-5v4q-1 2 -3 3h-5q-2 4 -3 4
h-7q-4 6 -11 18l-12 20v42h-1q-2 5 -1 12l1 6l1 5q5 -4 11 -4v4q-7 3 -9 9l-1 6l-2 7v14l-3 1l-4 1q2 2 3 5v2l1 2h3q-4 9 -3 14q3 2 3 9h-3l1 12l2 12h-3v43h3v8h1l1 20l8 20q1 2 4 7l3 4l3 3l1 1h3q2 1 3 2q10 5 24 17q-9 23 -16 37l1 10l-5 9l-11 21h-3q-8 24 -12 60
q-5 33 -4 56q5 -2 4 6h-4v8h4v25h3q2 4 3 12t2 11l4 2l3 2v4l4 4q4 3 7 7l5 7h6l3 3l1 2h5l2 4l1 3q3 1 8 3l5 1l3 1l2 3q2 2 2 4q27 0 54 3v-3h15v-4l4 -1h4q5 -1 9 -2v-1h5q3 -4 3 -7l6 -1q4 -1 6 -3q1 0 4 -5l3 -3l5 -4l8 -7v-5h3v-7h3v-31q5 -5 12 -8l-1 -38
q-1 -22 -3 -37q-8 -3 -26 -3l-16 -1h-15q-3 4 -12 8q-3 10 -3 32l1 18v17l-2 2q0 1 -1 4q-2 1 -3 3l-1 2l-1 1h-7v3h-32q-1 -5 -9 -11q-7 -6 -12 -9q1 -2 2 -5l1 -7q2 -10 -1 -16h-2v-15h2q0 -7 1 -19l2 -19l68 -192q0 12 -1 33v33q-1 37 2 38q5 2 25 3q19 0 29 -2h28
q2 -9 3 -29v-34h-3q0 -2 -8 -2l-6 -1q-3 -1 -4 -3h-3l2 -172l3 -6h-3v-5l12 -31h4q11 -29 20 -60q1 -4 4 -11l5 -12q5 -14 3 -19l1 -4h-8zM105 342h-2l1 -1l1 -2v3zM223 223h-14l2 -4q1 -10 7 -21l6 -10l5 -8zM147 250l-1 1v2h-1l2 -6v3zM195 150q-4 3 -8 3q-4 6 -1 8l2 1
l2 1l-5 15h-8q1 -8 -12 -8l-2 3v2l-1 3q6 2 6 3q4 2 8 2l2 1h2q2 1 -2 12l-3 8h-4l3 -6h-12l-3 -2q3 -9 3 -18h-4l-4 15l-5 15h12q-1 4 -1 7l-1 4q0 6 -2 12l-4 1h-4l4 -12h-3l-1 4h-8q-2 4 -3 9l-1 5l-1 5h5q-2 3 -5 6l-5 5q-6 5 -11 13q5 2 13 2h6q3 0 7 1l-2 6q-4 1 -9 5
q-3 -1 -5 -2l-2 -2l-3 -1q-3 4 -6 5l-1 2l-1 2h-1v-26h-2v-39h-4q2 -16 4 -22h-4q-3 -9 -1 -30q2 -20 5 -27v-38h2v-16h2q0 -1 -1 -4l-1 -3l1 -1h1l2 -3q1 -1 2 -4h6l1 -3l1 -4h34q2 2 4 5l1 3l2 3h2v4h3v57q3 1 9 4v4h1l1 1v-1h6v2h3zM209 105l-3 1v-2l-1 -2q2 1 6 1z
M197 118l-1 -1q0 -1 -1 -3h-4l1 -1h1q1 1 4 0v5zM197 109l-2 -1l2 -2v3zM189 98v2l-1 2v-4h1zM192 84v2l-1 1v-3h1zM232 44q-4 -1 -5 -4h7zM223 47q-2 4 -2 5h-1q-2 -4 -3 -5h6zM178 146l1 -1h-8l-4 7q-3 4 -6 6h4l-1 4h4q12 -14 13 -16h-3z" />
    <glyph glyph-name="quotesingle" unicode="'" horiz-adv-x="158" 
d="M127 542q-10 -78 -10 -95q3 -6 0 -12l-2 -4l-1 -4q-2 -8 -6 -12q-8 -2 -12 -1l-4 1q-3 1 -8 0q-23 7 -37 5v3l-1 1q0 7 -2 61q-2 55 -2 63l4 -1q1 2 -1 3l-2 1l-1 2q-1 3 2 7l1 3l1 3l-4 -1q0 17 -5 38l-3 1q-1 26 6 37q4 0 13 -1l9 -1h8q20 -2 23 4l41 -3l3 -12
q0 -7 -10 -86zM108 595l-5 1l1 -3q0 -1 1 -1l-1 -4l4 1v6zM74 620v-8h-3l-1 -5q9 3 10 14zM88 588q0 3 -5 11q-2 0 -2 1q1 0 -1 1h-2v-7h3l1 -6h6zM78 574l2 1h1l1 1v1q3 2 4 5h-2l-2 -1q-2 0 -3 1l1 -3q-10 -7 -19 0l-3 -1l4 -10l-1 -1l1 -3q4 -1 5 2v2l1 2l4 2l5 -13l3 1
l1 -4l-3 -1l2 -4l-4 -1l-3 7q-4 -1 -7 0h-1q3 -9 9 -15l5 -5q3 -3 5 -7l4 2v2l-2 1q-3 9 -1 12l1 -3l4 1zM115 518l-2 3l-1 2l4 2l-6 14q-2 -4 -6 -15q-4 0 -10 1l-1 4q-6 -2 -5 -7q-7 -3 -7 2l-3 -1l1 -4q-3 -1 -5 1l-1 1l-2 2h-1l4 -10q3 -4 6 -2l-1 -2v-6q5 -2 13 0
q2 -2 4 -3l1 -2q-6 0 -16 -2q2 -5 9 -4l3 -7l4 2l4 2l-2 3l5 2l-1 3l10 4l-1 3l-1 2q6 3 10 6zM96 481l3 -7l-3 -1l2 -4q8 5 5 15zM81 489l-4 -1l4 -9v10zM78 461l1 -1l-2 -1l4 -11l4 1l-3 7l7 2q-4 3 -11 3zM69 458l-6 -3l1 -1l5 2v2z" />
    <glyph glyph-name="parenleft" unicode="(" horiz-adv-x="168" 
d="M95 677l-5 1l-6 1q4 14 4 21h7v-23zM88 626q0 7 -4 27h4v18h7v-31h-7q1 -5 3 -8l2 -2l2 -4h-7zM71 653v10h5v-10h-5zM76 640v4h4v-4h-4zM91 583q-2 5 -3 17v19h7v-36h-4zM95 571q-4 1 -5 1t-2 1h3l2 2q0 1 2 2v-6zM45 595q-1 1 -3 8h6v-8h-3zM93 527l-5 -1q0 2 -1 9v12
q0 14 4 18l4 4q0 -1 1 -7v-6l1 -7q1 -18 -1 -22h-3zM48 562q-1 1 -2 4l-1 4q1 -1 5 -1v-7h-2zM95 516q-3 -1 -7 -5h-8v5h8v3h7v-3zM48 545v5h2v-5h-2zM30 553v8h4v-8h-4zM96 459q-1 -3 -5 -7v4h-3l1 3l2 4h-3v5l2 -1l3 -1q2 -1 3 -2v-5zM140 -98q-31 2 -37 8h-4l1 5q1 3 3 5
q-3 1 -15 1h-9q-4 0 -7 1v2q-11 11 -16 24h-3v18q-5 16 -4 88v28l1 14v51q-1 50 -2 196l-1 55q-1 30 -1 52q-1 56 -1 88h5v-8h3v-3h3l-1 4l-1 3q-1 3 -1 4h3l3 6l3 5h6v1h4v-23h4v-1h-4v-10q1 -3 2 -12q1 -11 2 -20q1 -27 -4 -32v-20q3 1 4 3l3 2q2 2 5 3l4 -4v4l5 1h3v-9
q4 5 4 42v27q-1 16 -1 18v124q0 3 1 11l1 15q0 17 -5 22q1 9 12 17v2q8 8 18 9q2 3 26 3l10 -1h26l-1 -61h-44v-4h-7q-1 0 -2 -2l-2 -2q-3 -12 -7 -24v-57h-4v-34h4v-7h3q0 -3 -1 -12v-20q-1 -28 -2 -34v-53h3v-6h4q0 -5 -4 -6v-84h-3l2 -6l1 -6q0 -4 -3 -7q-1 -5 3 -8v-107
q1 -32 4 -40q-1 -10 -3 -58q0 -18 -1 -36v-49q0 -15 5 -20q2 -5 6 -7l3 -3l2 -2q3 0 22 1h20l2 -65q-21 -2 -48 0zM88 416q-1 4 -4 7l-1 -6q-1 -2 -3 -3q0 -14 8 -15l1 9q1 5 2 8h-3zM105 307h-2v69q0 43 -4 48q-3 -7 -4 -43q-2 -37 1 -46h3v-12h-3v-15h1l1 -1q2 -1 1 -4h-3
v-15h3l-1 -9l-2 -10h3v-47h-3v-10h3q0 -4 -1 -8l-2 -7h3q2 -6 2 -31q-1 -16 -2 -51q-2 -72 0 -75v-4h4v15h2v256zM91 245q-2 10 -7 13l-1 -6l-1 -7q-1 -8 2 -11v-12h4l3 4v19zM91 -10v18h4v28q-6 3 -7 4h-4v-12l-1 -14q0 -16 5 -20v-16h3l1 3l1 2q2 3 2 7h-4zM95 -49l-5 -1
l-6 -2v-15h4l1 -1h2l4 1v18z" />
    <glyph glyph-name="parenright" unicode=")" horiz-adv-x="168" 
d="M79 678l-6 -1v23h7q0 -7 4 -21zM92 653v10h5v-10h-5zM88 640v4h4v-4h-4zM84 653q-4 -20 -4 -27h-7l2 4l2 2q2 3 3 8h-7v31h7v-18h4zM126 603q-2 -7 -3 -8h-3v8h6zM134 553v8h4v-8h-4zM122 566q-1 -3 -2 -4h-2v7q4 0 5 1zM80 619v-19q-1 -12 -3 -17h-4v36h7zM118 545v5h2
v-5h-2zM80 573q-1 -1 -2 -1t-5 -1v6q2 -1 2 -2l2 -2h3zM123 538q0 -32 -1 -88q0 -22 -1 -52v-55q-2 -146 -3 -196v-51l1 -14v-28q1 -72 -4 -88v-18h-3q-5 -13 -16 -24v-2q-3 -1 -7 -1h-9q-12 0 -15 -1q2 -2 3 -5l1 -5h-4q-6 -6 -37 -8q-27 -2 -48 0l2 65h20q19 -1 22 -1l2 2
l3 3q4 2 6 7q5 5 6 20l-1 13v36q-1 18 -1 36q-2 48 -3 58q3 8 4 40v107q4 3 3 8q-3 3 -3 7l1 6l2 6h-3v84q-4 1 -4 6h4v6h3v53q-1 6 -2 34v20q-1 9 -1 12h3v7h4v34h-4v57q-4 12 -7 24l-2 2q-1 2 -2 2h-7v4h-44l-1 61h26l10 1q24 0 26 -3q11 -1 18 -9v-2q11 -8 12 -17
q-5 -5 -4 -22v-15q1 -8 1 -11v-152l-1 -17v-87q0 -124 4 -129v9h3l5 -1v-4l4 4q3 -1 5 -3l3 -2q1 -2 4 -3v20q-5 5 -13 119q-8 111 -6 119v10h-4v1h4v23h4v-1h25l3 -5l3 -6h3q0 -1 -1 -4l-1 -3l-1 -4h3v3h3v8h5zM77 282v-4q-4 4 -5 7v5q1 1 3 2l3 1l2 1v-5h-3l1 -2l1 -2
l1 -3h-3zM84 234q3 3 2 11l-1 7l-1 6q-5 -3 -6 -13l-1 -10v-9l3 -4h4v12zM80 190q-1 -1 -7 -4v-178h4v-18h-4q0 -4 2 -7l1 -2l1 -3h3v16q5 4 5 95v66l-1 13v22h-4zM84 -52l-5 2l-6 1v-18l4 -1h2l1 1h4v15z" />
    <glyph glyph-name="asterisk" unicode="*" horiz-adv-x="313" 
d="M286 541l-15 -10q-5 -3 -12 -8l-14 -9q-37 -24 -45 -31l12 -9l13 -9q14 -10 16 -12l-2 -1q1 -2 2 -2l2 1h1l2 -4q1 -2 2 -3l1 2q8 -6 20 -12l1 3q11 -7 16 -16q-2 -2 -6 -7l-6 -7q-7 -10 -5 -12l-15 -21l-7 4q-4 3 -31 30q-15 14 -22 21q-12 11 -19 17q0 -11 1 -33
q1 -23 1 -24h-2q-1 -2 1 -2l1 -1v-1q1 -1 -1 -4l-1 -2v-1h2q0 -10 3 -23l2 -1q0 -16 -4 -22q-2 0 -8 1h-9q-11 1 -13 -2l-23 2l-2 7q0 5 6 52q2 22 3 34q2 17 2 23v7l-11 -11l-12 -11q-14 -14 -18 -16l-1 3q-1 0 -1 -2l1 -1v-2l-5 -1q-2 0 -3 -1l2 -3l-15 -15l1 -3
q-10 -10 -18 -10q-1 2 -5 6l-5 9q-7 10 -10 9l-14 20l3 6l15 10q5 3 12 8l14 9q37 24 45 31l-12 9l-13 9q-14 10 -16 12l2 1q-1 2 -2 2l-2 -1h-1l-2 4q-1 2 -2 3l-1 -2q-8 6 -20 12l-1 -3q-11 7 -16 16q2 2 6 7l6 8q7 9 5 11l15 21l7 -4q4 -3 31 -30q14 -14 22 -21
q12 -12 19 -18q-1 14 -1 34q-1 18 -1 24h2q1 2 -1 2l-1 1v1q-1 1 1 4l1 2v1h-2q0 10 -3 23l-2 1q0 16 4 22q2 0 8 -1h9q11 -1 13 2l23 -2l2 -7q0 -5 -5 -52q-6 -47 -6 -57v-7l11 11l13 11q13 14 17 16l1 -3q1 0 1 2l-1 1v2l5 1q2 0 3 1l-2 3l15 15l-1 3q10 10 18 10
q1 -2 5 -6l5 -9q7 -10 10 -9l14 -20zM258 567l-2 -2h-2l-2 -1q5 -2 10 1zM169 614l-2 1q1 -2 0 -2q0 -1 1 -1l-1 -3l2 1v4zM150 629v-5h-2v-3q5 2 6 9zM158 609q0 4 -3 7q-1 0 -1 1q1 0 0 1h-2v-4h2l1 -5h3zM152 602h1l1 1h1q2 2 2 3h-4l1 -2q-6 -3 -12 0l-1 -1l2 -6h-1
l1 -1q2 -1 4 3l1 1l4 -8l2 1v-3h-2l2 -2l-3 -1l-2 4q-2 -1 -3 0h-1q2 -5 5 -9l3 -3l2 -4l3 1v1h-1q-3 6 -1 8l1 -1h2zM172 569v4l-2 7q-1 -2 -3 -9h-6v3q-4 -1 -3 -4q-4 -2 -4 1h-2l1 -3q-2 -1 -3 1l-1 1l-1 1l2 -6q1 -2 4 -1l-1 -2v-3q2 -1 8 0q0 -1 1 -2l1 -2h-4l-5 -1
q1 -2 5 -2l2 -5q2 2 4 3l-1 2l3 1v2l5 3q0 1 -1 2q2 1 2 3q1 2 2 2q-2 2 -3 4zM203 516l-3 -5l1 1l1 1l2 2zM206 505l-2 -4l-1 1l-1 -3q6 0 8 4zM162 546l2 -5l-2 -1l1 -2q6 3 4 9zM154 547v3l-2 -1l2 -5q1 1 0 3zM260 414l2 1l-3 2q-1 -6 4 -9l1 3zM196 459l3 -3q1 -1 2 -1
l1 3zM205 449l-1 -2l-2 2l-3 -3q2 -1 7 -1l2 1h1zM242 407q-1 0 -1 -1l-2 2l-1 -3l3 -2l2 3q-1 0 -1 1zM118 528l-1 -5l4 -1l-1 -1l3 -1q0 6 -5 8zM188 452l1 1l-3 1q0 -6 5 -8l1 5zM68 571l-2 -3q1 0 1 -1q1 0 1 1l2 -2l1 3zM111 518q-2 1 -3 1l-1 -3l6 -1zM148 471v2
q-2 1 -3 -1l-1 -1v-1l-2 -1l-3 8l-2 -1v2l2 1l-2 2l3 1l1 -4h5q-7 9 -11 16l-2 -1q1 -1 0 -1l1 -1q1 -6 0 -7v1h-2l7 -18q-2 -1 -3 -1v-1q-2 -1 -2 -2h4l-1 2q6 4 11 0h2zM61 559h-5l-1 -1l3 -3l1 2l3 -2l3 3q-2 1 -4 1zM46 566l-1 -3l4 -3l-2 -1l3 -2q1 6 -4 9zM155 430v-6
l2 1zM145 433l2 1l-1 2q-6 -3 -4 -9l5 1zM99 471l4 -2l2 4l1 -1l1 3q-6 0 -8 -4zM157 415h-2v4h-4q0 -2 3 -7q1 0 1 -1q-1 0 0 -1h2v5zM108 462l-1 -1l-2 -2l1 -1l3 5zM161 407q-5 -2 -6 -9l4 1v5h2v3zM99 463l-2 -3l2 -2v2l3 1zM142 415q0 1 -1 1l1 3l-2 -1v-3l2 -1
q-1 1 0 1zM107 448l2 2l-2 3q-1 -1 -2 -7v-1l1 -1l3 2zM47 409l4 -2l3 2h1l2 1q-4 3 -10 -1z" />
    <glyph glyph-name="plus" unicode="+" horiz-adv-x="302" 
d="M279 298q-6 -1 -28 -1h-73q-1 -59 -1 -94v-34q-5 0 -12 -1l-14 -1q-16 -2 -24 0h-10q-1 6 -3 131l-3 -2q-2 0 -5 1v3h-85v2l-1 1v14q1 7 0 9v20q0 12 1 17h18q22 -1 77 -1l-1 2l-1 2q-1 3 0 6h3v115h2l1 1h14q7 -1 9 0h20q12 0 17 -1v-33q-1 -38 -1 -93q92 -1 98 -1
q0 -8 2 -25q2 -18 2 -25zM170 431q-10 14 -7 25h-5v-8l-4 1l-3 1q-3 1 -4 1q-2 -2 -3 -4l-1 -4h5q4 -8 10 -9v-7q0 -3 5 4h7zM132 445h-4l-2 -4l-2 -5v-2h8v11zM146 408q-1 11 -12 12v-8h8v-4h4zM177 369v5l-1 4h-4v6h-3v11l-2 1h-3l-2 6l-1 5q-8 -4 -15 -4v4h-15l5 -5l6 -6
q-1 -5 -4 -10h-4q-1 -6 4 -8q1 -7 -4 -6v-3h4q0 -3 -2 -4l-3 -1l-2 -1v-2h11q4 3 4 6q2 -2 5 -3l3 -1q4 4 4 12q4 1 6 3h2l-3 -8l-2 -9q6 2 8 8h8zM130 396q-2 2 -6 3h-2l-2 1v-5h10v1zM149 384v2h-3q3 5 8 9v-7h7v-4h-12zM146 369v6h3v-6h-3z" />
    <glyph glyph-name="comma" unicode="," horiz-adv-x="158" 
d="M150 110q-2 -5 -14 -28q-5 -8 -12 -23l-14 -25q-37 -70 -43 -86q0 -4 -1 -6l-1 -3q-2 -3 2 -9q-4 -6 -10 -9q-8 1 -16 4l-8 3q-4 2 -9 3q-17 14 -32 18l1 3l-1 1q5 10 23 57q19 48 23 59l4 -2q2 2 0 4l-1 1v2q0 3 4 6l2 2l2 2l-4 1q6 16 9 35l-2 2q9 24 19 32q3 -1 12 -5
l13 -7q16 -7 21 -3l34 -17zM91 125l-3 -8l-3 2l-3 -5q9 0 15 9zM109 92q0 -3 -1 -4l1 -1l-2 -3l4 -1l2 6zM91 102l-1 1l-1 2l-1 1l-3 -7l3 -1l-2 -6l6 -2q1 2 -1 12zM90 39h-2q-2 1 -3 2v-3q-11 -3 -17 7h-4v-11h-1v-3q3 -3 5 -1l2 2l1 2h4v-14h3v-4h-3v-4h-4v8q-4 1 -7 3
h-1q0 -10 3 -17l3 -7l2 -8h4q0 2 1 2l-1 2q0 9 3 11v-3h4v31q3 1 3 0q1 0 1 1q5 1 6 3zM60 -12v-8h-3v-4q10 1 11 12h-8zM45 1v-10q2 2 3 6v2l1 2h-4zM52 -24h4v15l-5 -5l-6 -6q-4 1 -9 4v4q-6 1 -7 -4q-7 -1 -6 4h-3v-4q-3 0 -4 2l-1 3l-1 2h-1v-11q1 -4 5 -4q-2 -1 -3 -4
v-2l-1 -1q4 -4 12 -4q1 -3 3 -5v-2q-6 2 -16 4q1 -5 7 -7v-8l5 1h4v4h5v3h11v5l6 1l5 1q-4 8 -4 14zM38 -31v-7h-4v12h2v2q5 -2 9 -7h-7zM20 -26v2h6v-2h-6z" />
    <glyph glyph-name="hyphen" unicode="-" horiz-adv-x="218" 
d="M189 300q-13 0 -78 -1h-25l-22 -1h-32q0 5 -1 12l-1 14q-2 16 0 24v10q8 2 44 1l14 -1h34v-3l3 1l3 1q4 2 7 1v-3l54 3v-2l1 -1v-14q-1 -7 0 -9q0 -24 -1 -32z" />
    <glyph glyph-name="period" unicode="." horiz-adv-x="157" 
d="M127 5q-9 -2 -26 -3h-14l-13 -1q-19 5 -42 4v3h-1l1 25v26h4q1 2 -1 4l-2 1l-1 2q-1 3 2 7l1 3l1 2h-4q-1 19 -4 39h-4q0 30 7 40h14l17 -1q20 0 24 5l37 -2l4 -13v-109q2 -4 2 -7v-2l-1 -2q0 -4 6 -7q-2 -9 -7 -14zM102 111h-6l1 -3q0 -1 1 -1v-4h4v8zM66 137v-8h-4v-6
q9 3 10 14h-6zM80 103q0 3 -6 12l-1 1l-1 1h-2v-8h4v-6h6z" />
    <glyph glyph-name="slash" unicode="/" horiz-adv-x="248" 
d="M237 627q-8 -16 -15 -46h-3l-6 -23q2 -14 -6 -42l-6 -24q-4 -14 -6 -22l-9 -43h-3l-1 -4h3l-3 -10h-3q0 -4 1 -8h-3q-2 -8 1 -11l-3 -12h-3v-5q1 -5 0 -8h-3l-4 -24l-5 -25q-2 -1 -5 -4l-3 -1h4l-1 -5l-2 -3l-1 -4h1l-1 -5h3l-1 -3l-2 -2l-1 -1l-1 -1v-1h1l1 -1
q-1 -3 -1 -2h-2q0 -11 -1 -16q-3 -1 -5 -5l-4 1l-2 2q-3 2 -5 2q-5 -4 -8 -5l-2 -6q4 -1 8 -1h6q8 0 13 -2q-4 -8 -9 -13l-5 -5l-4 -6h5v-5l-1 -5q0 -5 -1 -9h-8l-1 -4h-3l3 12h-4l-4 -1q-1 -4 -1 -7l1 -5q0 -6 -1 -11h12l-2 -15l-3 -15h-4v-5l-1 -3q-13 0 -14 8h-8l-3 -15
l2 -1l4 -1q3 -2 -1 -8q-4 0 -8 -3l-1 -4q2 -1 0 -6l-2 -5l-2 -6q3 0 7 -1q3 -1 4 -1l-1 -4q0 -1 -1 -2l-1 -3q-6 5 -10 6l-4 -20q9 -2 11 -4q4 5 7 11l2 5l3 5q-3 1 -2 6h3l2 9q5 -2 5 -3q3 -4 -1 -16l-3 -10q-2 -5 -2 -9h4q-3 -7 -7 -18l-6 -20h-3v-1h3l-5 -20h4l-1 -3h-4
l-3 -15h4l-1 -3h-4l-4 -17q-7 -1 -15 -2l-13 -1l-1 -4q-7 2 -16 3h-8l-9 1l-1 -4h-8l1 4q-3 5 0 19l4 12q1 7 2 11q4 27 11 60h4l8 36h-4l4 13q3 7 7 13q-1 10 2 28l3 15l4 15l27 110q17 70 37 158l35 157q12 -2 40 -1h23q12 1 17 1l-2 -8h4zM123 148q-3 -3 -5 -6l-3 -7h-8
l1 1h-3q1 2 11 16h4l-1 -4h4zM99 136l1 -1q-1 0 -1 1zM159 394q0 -2 1 -5l2 5h-3zM148 332q0 3 1 3q0 1 -1 1l1 4h-3q-2 -2 -5 -4l-2 -2l-3 -2q0 -8 1 -12q14 3 18 12h-7zM143 315l-4 -15h1q7 7 11 15h-8zM125 243v-6l1 6h-1zM117 188h-12l2 6h-4l-2 -8q-3 -11 -1 -12
q1 -1 5 -1l4 -1l4 -1q0 -1 6 -3q-1 6 1 18zM78 135v-2l1 -2v-3l1 7h-2zM88 52v2h-11v-8q1 -4 0 -9h7q2 8 7 13q-2 2 -3 2zM74 30q-1 3 -6 4l-1 -4h7z" />
    <glyph glyph-name="zero" unicode="0" horiz-adv-x="274" 
d="M239 295v3h-3v4h7v-7h-4zM239 76q0 -4 1 -8l2 -5q2 -6 -3 -11v-15h-2q-2 -1 -5 -2v-7h-1v-5h-3l-2 -3l-2 -3h-4l-2 -3l-2 -3h-6v-3h-8l-2 -2l-2 -3h-5v-3l-18 -1q-11 -1 -19 -3v-1q-16 -5 -45 3q-10 3 -21 7q-8 3 -14 6v4l-6 1l-6 1l-3 3l-2 4q-4 5 -7 7l-2 2l-2 2
q-2 2 -4 2q-1 3 -2 8l-1 7q-6 12 -9 35q-4 26 1 43h2l-2 8v144q1 21 0 28h-3l1 7l2 7h2v3h-2v32h-3q2 4 3 5q0 6 -3 17h3q-1 7 -2 15l-1 13h3v42h2v1h-2q-2 12 -2 41q0 28 2 33l-2 12v7l-1 7q1 0 3 1l2 1l-1 5l-1 4h2v14h3q3 6 6 18h3v4h2l2 7q1 3 1 5l2 1l2 1l2 1l6 8l6 7
h6q0 2 2 4l2 2l2 2q7 0 18 2l9 3l10 2q24 6 39 1v-1h24v-4h4v-3h7v-3h9v-2l5 -4l5 -4q4 -5 9 -6l1 -3l1 -2l1 -3h4l1 -8q1 -5 2 -7l2 -1q2 -1 3 -3v-39q4 -14 4 -49l-1 -14v-38q0 -5 1 -12l2 -13q3 -18 1 -29h-4q0 -2 2 -7l2 -5v-6h-4v-28h-3v-12h-4q-3 -6 -4 -15q5 -1 8 -3
l3 -3l4 -2v-9q-7 0 -11 3v-6q0 -14 2 -41q2 -28 2 -42h3q1 -4 4 -12h-7q4 -18 0 -34h-4v-12q6 0 7 -3v-8h4v-10h-4q0 -3 2 -12l2 -8v-7q-1 -1 -2 -1h-1q-1 0 -1 -3h4v-35h-4zM166 107q0 12 -2 20h2v19h-2v4l1 2l1 2q2 2 0 6q0 3 -2 7h2v42h-2q0 4 -1 9l-1 8q5 20 4 62l-1 33
q-1 21 -1 31v25l1 25q0 29 -3 45v4h2v1h-2v52l1 3q1 3 1 5q-1 6 -2 17l-1 18q-2 24 -5 36q-3 1 -7 2l-10 2q-13 1 -18 -4q-8 -5 -9 -8h-3q3 -5 3 -12h-3v-32h-2q2 -4 2 -8v-117h-2v-10h2q3 -8 -2 -8q0 -4 1 -7t1 -5q0 -6 -2 -24h2v-32l1 -9l1 -11q2 -28 -2 -39h-2v-17
q5 -3 2 -8h-2v-23h2q3 -6 -2 -9v-25h2q0 -4 -2 -10h2v-70h3q1 -3 -1 -10l-2 -5q-1 -4 0 -7h4l2 -1h1v-11h1v-4q5 -2 7 -7h28v3h6q2 0 3 2l2 2l1 1v45h2zM117 514v3h-1l1 3v3q8 -4 4 -9h-4z" />
    <glyph glyph-name="one" unicode="1" horiz-adv-x="217" 
d="M87 493q-1 -5 -2 -8l-2 -2l-1 -3h-6v1h-3q1 4 2 9l1 7h8v-4h3zM207 4q-5 -2 -5 -3h-18l-1 -4l-1 -3q-5 -1 -8 1l-3 1l-3 1l-1 -1v-1q0 -1 -2 -1l-1 3q-1 2 -3 4q-4 2 -12 -2l-6 -3l-2 -1l-2 -1q-6 -1 -9 3q-7 1 -8 -3h-11v3l-4 -1l-4 -2v7q-5 1 -13 -2l-5 -3l-5 -2h-1
q-10 -3 -27 -1l-14 2q-8 2 -12 2v8h-2q0 40 6 53h35v1q3 4 11 4q2 14 1 50l-1 29v61h3v4h-3v12h2q-1 0 -1 2q-1 1 -1 2v4h3l-2 10q-1 5 -1 9q2 10 1 29l-1 16v18q2 1 3 1l1 1l2 2q1 2 1 1q1 0 1 2h-5q0 4 3 10h-3v7h-3q-1 3 3 4q0 3 -1 3h-1l-1 1l1 3l2 2q2 3 0 7h-3v8h3v3
h3v-8h2v15l-2 -2q-1 -2 -3 -2t-3 2l-1 2l-2 1q1 7 6 14l3 6q1 3 2 7h-5l-1 3l-1 5q-1 5 -1 8h8v3h3v-11q6 1 8 3v8h-3l-4 5l-3 3q-4 4 -6 10h-3q-2 3 0 8l2 3l1 2h-3v12h6q-1 4 -1 5l-2 2v3h12v1h1v16l3 1l-1 2l-2 1q-2 1 -1 6h1q1 4 1 8l-2 6q-2 6 1 10v9q-1 -2 -3 -4
q-2 -1 -5 -2l1 -3v-3q1 -4 -1 -14l-1 1h-2q-3 1 -4 4v2l-1 1h-6v-3l-10 -8q-7 -6 -11 -9q0 -5 -2 -9l-3 -1l-3 -1q-3 0 -6 -2h-9v1q-6 7 -5 31v21q1 13 1 18v23h2l2 3l1 2q2 3 3 7q1 0 15 8v8h8v3h4q-4 6 -4 8q3 1 4 2h2l2 1v8q6 0 9 3l2 2l4 3v8l7 1h7q8 1 13 2v2l17 -1
l17 -1v2h8v-2q4 -5 4 -19v-24q2 -21 4 -61h-4v-34h4l-1 -12q-1 -8 -3 -13q7 -21 6 -67v-19l-1 -19q-1 -24 -1 -34v-65l2 -5q1 -3 2 -4h-4v-114h4q0 -7 -4 -9v-52l4 -6v-20h8l1 -3l1 -4q1 -5 1 -11h4v12l1 1v2h9q12 0 17 -3q0 -1 1 -1q1 -1 3 -2l4 -2v-51zM40 574l-3 2l-2 2
q-5 -11 -6 -17q-1 -10 6 -16v-2h3v12l-2 2l-2 2q-3 3 -1 8q2 3 8 3q1 2 -1 4zM41 536l-4 2l-4 1v-8l4 -2l4 -1v8zM84 456v4q0 1 -1 1h-1v-5h2zM92 329h-1q-3 -3 -7 -13h7q1 3 0 3q0 1 1 2v8zM87 304h-3v-16h3v16zM95 279h-3l-1 1q-1 0 -4 1l-1 -2q0 1 -2 0l2 -7l1 -8h5l2 3
q0 1 1 2v10zM99 63h-12v3h-3v-8h15v5z" />
    <glyph glyph-name="two" unicode="2" horiz-adv-x="242" 
d="M224 531l2 -9l-4 -1l3 -11h-2l1 -8h-2l1 -10h-4l1 -13h-3l1 -8l-6 -15q-1 -6 -1 -10v-6q0 -5 -3 -17l-7 -17l-3 -9q-1 -6 -3 -10h-4q0 -3 -1 -5l-1 -3q-2 -4 -3 -10l-4 -4v-8h-3v-4h-1l-7 -15l-4 -3l-3 -12l-3 -2l-3 -11l-2 1l-1 -5l-3 -2l-2 -9h-3l-2 -7h-2l-1 -5l-5 -3
v-4l-2 -8l-2 -8h-2l-4 -6h-3v-12l-4 -5v-10l-1 -10h-4v-4l-3 -4v-7l-3 -4v-10h-2q-5 -18 -6 -30l-3 -1l2 -7l-3 -2l2 -6l-3 -2l2 -9h-2q-2 -26 -2 -45h-3v-24q2 -4 6 -4h5l1 -3l1 -1l1 -3h18q1 2 11 5l7 1q3 1 4 1v-3h17v3h19v-3h8v-4h11v4q9 0 17 -4l1 -4l1 -5l1 -12
q2 -16 -3 -21v-12q-3 -5 -21 -8q-19 -3 -31 0l-2 1h-3l-8 3q-10 2 -16 0q-2 -6 -8 -7h-32l-1 3l-1 4q-6 1 -6 -4q-5 -1 -10 -1h-7q-7 0 -12 -7h-4v8l-9 -1h-10q-12 0 -16 5q-5 0 -10 3v74h3l-1 22l4 4l-1 8h3l-1 20h1l-2 8l3 4l-2 8l3 1l-1 4l2 4l-2 8h2l1 8l1 7l4 18h2v4h2
l2 12q1 8 2 12h4v14l4 4v7l4 4l4 10h3v12h1q2 3 5 16h3l1 5l4 2l1 5h1q3 17 11 31h2l1 8h3l7 13l4 4l1 8l2 -1q7 20 8 23l7 9v4h3l1 11l4 4l2 9l1 7q1 8 3 14l4 8l-1 9h2l3 6l2 4v8h3l-1 5l4 4l-1 10h1v6l-1 6q-1 7 0 10h3l-1 12q1 2 1 12v14q-2 0 -1 5q1 4 0 4v7q-4 1 -7 3
l-2 3l-4 2l-34 -1q-6 -7 -9 -8q-2 -8 -3 -23v-49h-2v-2l-4 2l-3 2q-3 2 -8 1v-3q-11 -2 -29 0l-14 2q-8 1 -11 1l-1 13l-2 15q-2 18 -2 30q0 36 13 49q3 4 8 4q2 5 14 16q3 4 8 8l3 1h3q4 1 6 2v2q3 0 6 2l3 1l3 1v3q6 2 35 3q30 1 38 -1v-2h8v-3l6 -2q3 -2 4 -2v-2h7
q0 -2 4 -6h4l2 -3l2 -2h4q3 -4 4 -5h6q3 -5 8 -12l5 -6l3 -5v-7h4q2 -5 3 -28q1 -8 1 -17v-12zM164 65q-1 0 -2 2q5 -2 7 -4q-4 2 -5 2z" />
    <glyph glyph-name="three" unicode="3" horiz-adv-x="260" 
d="M231 162l-3 -1v-14l-2 -7l-1 -6q-2 -6 -9 -9v-4q6 0 11 4l1 -5l1 -6q1 -7 -1 -12h-1v-42q-3 -5 -11 -20l-12 -18h-7q-1 0 -3 -4h-5q-2 -1 -3 -3v-4h-5q-4 -1 -4 -5h-7v-3l-2 -1h-2q-3 -1 -7 -3v-1q-8 -3 -32 -5q-27 -1 -36 2v3h-12v1q-2 2 -5 3l-6 1v3q-6 0 -14 4
q-2 1 -6 8q-9 3 -15 8v5l-4 2l-4 1l-3 9l-3 9h-2v5h-3v30q-2 11 -3 28v15l-1 15q4 0 12 2v2q6 1 9 -2h40v-2h8v-4q6 -3 9 -4v-57h3v-4h2l2 -3l1 -3q2 -3 4 -5h34l1 4l1 3h6q1 3 2 4l2 3h1l1 1l-1 3q-1 3 -1 4h2v16h2v38q3 7 5 27q2 21 -1 30h-4q2 6 4 22h-4v39h-2v26
q-2 -2 -2 5l-8 2l-8 2q-11 3 -17 4h-13v-1q-8 0 -23 1l-1 3h-1q-6 43 0 64h13q8 1 15 2q20 2 25 6v3l7 6l7 5q0 2 2 7l2 6h2v58h2v4h-2l-1 23l-1 23h2v15h-2q-3 6 -1 16l1 7q1 3 2 5q-12 6 -16 20h-32v-3h-7l-1 -1l-1 -2q-1 -2 -3 -3q-1 -3 -1 -4l-2 -2v-17l1 -18
q0 -22 -3 -32q-9 -4 -12 -8h-15l-16 1q-18 0 -26 3q-2 15 -3 37l-1 38q7 3 12 8v31h3v7h3v5l8 7l5 4l3 3q3 5 4 5q2 2 6 3l6 1q0 3 3 7h5v1q4 1 9 2h4l4 1v4h15v3q27 -3 54 -3q0 -2 2 -4l2 -3l3 -1l5 -1q5 -2 8 -3l1 -3l2 -4h5l1 -2l3 -3h6l5 -7q3 -4 7 -7l4 -4v-4l3 -2
l4 -2q1 -3 2 -11l1 -6l2 -6h3v-25h4v-8h-4q-1 -8 4 -6v-48h1q3 -10 1 -46q0 -13 -1 -27q-1 -11 -1 -16v-13h-4v-5h-3v-11q-1 -2 -3 -3l-2 -1v-5q-7 -10 -18 -18q4 -11 15 -19q1 -2 2 -3l2 -1l2 -3l2 -5q2 -5 3 -8h4v-35h1v-8h3v-43h-3l2 -12l1 -12h-3q0 -7 3 -9q1 -5 -3 -14
h3l1 -2v-2q1 -3 3 -5zM44 114q-1 2 -1 3l-1 1v-5q3 1 4 0l2 1h-4zM51 106h-3l-6 3v-11q-8 2 -9 8q-4 -2 -9 -5l-3 -3l-4 -3v-3l4 -1l4 -1v-3q3 -1 5 0l4 2q4 2 10 -5h4v8h3v14z" />
    <glyph glyph-name="four" unicode="4" horiz-adv-x="287" 
d="M247 124h-22l-2 -11h1l4 3v-6h-5q1 -11 1 -34l1 -6v-7q0 -6 -1 -9q0 -12 3 -21q1 -4 1 -6v-3q-1 -2 5 -5q-2 -8 -6 -14l-12 -2l-12 -1h2v-7q7 2 16 7l1 -2l1 -1l1 -1q-2 -6 -3 -8q-41 0 -68 4q-2 28 -2 43q0 13 1 40t1 42v9l-4 -1l-3 -1q-4 -1 -5 -1v-4h-37q0 2 -2 5
t-3 3q-3 0 -4 -4q-5 -1 -10 -1h-7v-5h-4v4q-3 -2 -6 -7h-4v9l-9 -2l-10 -1q-4 0 -9 1l-6 3q-9 4 -12 4v86h4l1 27h3v13h4v12h3l1 17h4v7h3l4 20q3 13 5 22h2v4h4q0 5 1 13t1 11h2v6h4v12h4v23h4v12h4v8h3l1 19h4v7h3l1 7l2 8q1 11 2 17h3v8h4v9h2v8h3q0 13 3 20h2v14h4v6h2
v14h3q3 13 10 37l5 19l5 20h10v3q0 1 1 2v3h4l1 -2v-2h9q1 0 2 1v3h8q-1 -4 -1 -5h10v7h15q9 0 14 -2h1v-1q6 -1 6 -9q0 -4 -1 -7q1 -2 1 -6l2 -7l1 -8h-3v-5l-1 -12l-1 -13q-2 -14 -1 -22q1 0 3 1v-3h3v-12h-2l-1 -3q1 -3 3 -5l-1 -14q-1 -10 -2 -16h-1q2 -16 2 -27
q2 -12 4 -30v-14q1 -8 1 -12q-2 1 -5 1v-9h4l-1 -3h2v-5h-3l-1 -7v-8l-1 -1h4v-7h1v-7h-1v-20h-4q0 -5 4 -5v-15q0 -10 -1 -28v-30q-1 -38 1 -56v-16q0 -4 2 -7l2 -3q12 -2 17 -3v-2h12v2q20 0 20 -28q0 -38 -29 -38zM149 384v4q0 2 -1 3v-7h1zM153 294h-3l1 5v5q-1 0 -2 1
v5h4v2h-3v15h-1v10h1v13h-1l-1 7l2 2l1 10v10q-1 0 -3 1q-17 -53 -49 -157v-27q2 -2 3 -2h5l2 -1q2 -1 4 -5h17v2h18v3q3 3 3 12v6h-1v14l-1 9v5h4v23h-3v14h1q-2 6 -2 13v4h4v1zM78 127h-6l1 -3q0 -1 1 -1h2l2 1v3zM193 1zM173 4v-6h2v-3q2 -1 4 -1q4 0 4 8q-8 2 -10 2z
M165 5h-4v-3h4v3z" />
    <glyph glyph-name="five" unicode="5" horiz-adv-x="267" 
d="M237 614q0 -21 -9 -23l1 12l1 11h7zM242 570v4q5 0 9 3v-7h-9zM228 570v15h6v-15h-6zM122 643v4h16v-4h-16zM96 643q-5 -3 -17 -1q-11 2 -13 5h30v-4zM236 210q0 -8 -2 -9v-152h-4v-17q-4 -3 -10 -11l-5 -7l-5 -6v-2q-3 -1 -7 -1h-7q-9 1 -11 -1q-4 -3 -4 -4h4
q-2 -5 -4 -6q-13 -12 -54 -8q-38 4 -55 14q0 3 -2 5l-2 1l-2 2h-4v4l-5 4l-5 4q-5 5 -10 6q-4 8 -4 11h-3v9h-4v5h-1v19q-1 3 -2 4l-2 2q-2 2 1 11h3l-1 5l-1 4q-1 5 -1 8h-4q2 2 4 14h-4v11h4q0 6 -4 6q-1 7 2 15q2 8 5 11q1 2 3 5q1 2 2 3q7 0 25 2q19 3 21 5h15v-3
q4 -5 5 -30q0 -8 -1 -20v-17q1 -8 2 -13l1 -3l1 -3q2 -8 4 -21h3v-7h1l1 -1l2 -2q3 -3 4 -5q2 0 5 -2q9 1 26 9q6 13 6 41q1 26 -3 44q0 15 4 27v76l1 30v28h-1q-6 10 -7 11v4q-2 0 -7 1h-12q-17 1 -19 2q-6 -7 -6 -6q-3 0 -7 -10q-3 -11 -4 -11l-2 -9h-16l-17 -1
q-21 1 -25 7h-4v5h4v19q3 7 2 28v16q0 8 1 14h4q0 8 1 43v42h-1v17h1v37h3v21l4 6v28l4 6v50h4v11q3 1 2 -1l2 2h79l8 1q10 0 13 -2h33q23 -1 31 -4q2 -11 -1 -29l-2 -15q-1 -9 -1 -17q-5 2 -6 4h-82q-7 -8 -10 -8q0 -41 -5 -57v-37h-3v-22h-4q-1 -4 -1 -9l1 -10
q2 -12 -1 -16v-11h1q5 -5 16 -4h9q5 0 9 -2v-3h11v-2h20v-3h13v-4h5q4 -1 9 -5l3 -4l3 -4l3 -1l3 -2l1 -6l1 -7h4q0 -4 1 -7l2 -5h2l1 -10q1 -6 2 -11h4v-56h2v-15h-2q0 -6 2 -8l-1 -3l-1 -2q-1 -3 0 -7h2v-20h-2v-3h2zM202 218q0 19 -7 24l-2 -8l-1 -9q-1 -12 3 -15v-4h3
v12h4zM187 181l-1 7l-1 8h2q-1 3 -1 10l-1 12v35h2l-1 10l-1 9h2v4q-1 2 -1 8l-1 8h2q1 4 0 9l-1 6q-2 8 1 12q0 15 -6 19q0 -25 -1 -74t-1 -75q0 -3 -1 -13l-1 -16q0 -20 4 -25v-15h4v4q2 3 0 25q-1 11 -1 17q0 9 1 15h2zM64 332h2v4q-2 -2 -12 -4v8h-4q0 -19 -8 -24v-9
q1 3 10 2l7 -1q4 -1 5 -1l1 4l1 5q1 5 0 11q-4 0 -2 5zM198 124q-6 -2 -8 -4q-1 -7 1 -18l1 -8l1 -8v-5l-1 -5q-2 -6 -2 -10h3v-4h2v16h3v46zM193 35h-3v-18h3l2 -3q3 4 3 18q-4 2 -5 3zM56 318l-1 1h-1v1q-2 2 -3 2l-1 2h4v1l-1 1l1 1l2 -5q1 -3 2 -4h-2z" />
    <glyph glyph-name="six" unicode="6" horiz-adv-x="275" 
d="M248 163l-3 -1v-14l-2 -7l-1 -6q-2 -6 -9 -9v-4q6 0 11 4l1 -5l1 -6q1 -7 -1 -12h-1v-42q-3 -5 -11 -20l-12 -18h-7q-1 0 -3 -4h-5q-2 -1 -3 -3v-4h-5q-4 -1 -4 -5h-7v-3l-2 -1h-2q-3 -1 -7 -3v-1q-8 -3 -32 -5q-27 -1 -36 2v3h-12v1q-2 2 -5 3l-6 1v3q-6 0 -14 4
q-2 1 -6 8q-9 3 -15 8v5l-4 2l-4 1l-3 9l-3 9h-2v5h-3v73h-4l1 24q1 14 3 24h-4l1 10v10q1 12 3 21q0 10 -1 22v10l-1 9q-1 20 4 36q0 6 2 21q1 16 1 24q1 4 4 13l2 8l2 10q6 25 9 32l2 10l2 10h2v7h2q1 3 2 10l1 6l1 7h3v4h3l5 18l4 17q6 21 9 37l1 3q0 2 2 2v4h2v9h2l1 11
q1 7 3 12h2l1 1v3q1 5 2 5v8h3v8h2q3 7 3 19q3 2 4 2v12h1q7 5 12 13h35q20 0 33 -1v-4h1q-6 -26 -13 -65h-3v-4h-4l-1 -12q-1 -6 -2 -10h-1l-1 -4l-1 -4q-1 0 -2 -1v-10h-4v-8h-2q0 -1 -1 -3t-1 -4h-2q0 -1 1 -4l1 -3h-4l-1 -5v-4l-1 -7q-1 0 -2 -2t-2 -2v-19h-2v-8h-2v-7
q-1 0 -2 -2t-2 -2l-3 -14l-2 -14h-3v-3l-1 -4q-1 0 -1 -1q-1 -2 -2 -2v-9h-3q-1 -13 -5 -29h-3v-4l4 1l3 1q3 2 4 2v-4h12v4h18q10 -6 23 -12l25 -12l1 -4q1 -3 2 -5q7 -5 19 -17l2 -5l2 -6h3v-5h4v-35h1v-8h3v-43h-3q-1 -5 1 -7l1 -3l1 -2v-12h-3q0 -7 3 -9q1 -5 -3 -14h3
l1 -2v-2q1 -3 3 -5zM167 199q2 6 4 22h-4v39h-2v26q-2 -2 -2 5l-7 2l-7 1v4h-20l-4 1q-2 -3 -6 -6l-9 -6l-1 -6l-1 -6h-3v-22h-3l1 -86l2 -86q3 -1 6 -6l3 -4l3 -5h34l1 4l1 3h6q1 3 2 4l2 3h1l1 1l-1 3q-1 3 -1 4h2v16h2v38q3 7 5 27q2 21 -1 30h-4zM61 115q-1 2 -1 3l-1 1
v-5q3 1 4 0l2 1h-4zM68 107h-3l-4 4q-2 -6 -2 -12q-8 2 -9 8q-4 -2 -9 -5l-3 -3l-4 -3v-3l4 -1l4 -1v-3q3 -1 5 0l4 2q4 2 10 -5h4v8h3v14z" />
    <glyph glyph-name="seven" unicode="7" horiz-adv-x="220" 
d="M205 563v-12l-4 -3v-4h-3v-19h-3v-3q4 -2 3 -5h-3v-10h-2v-10l-3 -3v-15h-3q-2 -7 -3 -17l-1 -17q-2 -6 -6 -22l-4 -12l-3 -11q0 -4 1 -10v-9h-2l-2 -1v-12l-4 -4v-8h-3v-14l-1 -12q3 -2 1 -7h-2q-1 -1 -3 -1v-21h-1l-2 -1l-3 -1v-22h-2l-2 -12l-2 -12q-3 -8 -5 -19
l-4 -20q-4 -25 -9 -36v-17l-1 -18h-3v-11l-4 -3v-9l-3 -3v-16l-1 -16h-4v-21l-4 -12l-3 -12q-5 -14 -5 -23q-9 0 -13 -3v-2h-6l-1 -2v-2l-1 -2h-15v-3q-5 -1 -11 -1l-11 1q-13 2 -16 0q-7 1 -12 3q1 12 5 25l3 10l4 11l1 12q1 8 2 13l2 2l2 1l2 1l1 10l1 10h3v30l4 4v8h2v8
h2l1 11l3 4l1 8l2 4l1 7l2 4v18h2l1 15l3 2v12h3l1 16l2 2v19h2l1 14l2 2l1 16l3 2q0 10 2 28h2v15q3 7 7 23l3 12l4 11v13q2 5 4 16l2 9l2 7l12 4l2 7l1 8q0 9 -3 15h-1l-4 8h4l1 16v15h3q1 5 2 15q1 11 2 15h3q0 4 1 10v9l-10 -1l-12 -1q-14 -1 -25 -1q-30 -1 -35 4h-2
q-1 4 0 5l1 1l1 1q0 10 -20 19l1 13l1 11q0 13 -2 20q3 0 9 2l4 2l5 1v-2h14v2q6 0 6 -2h145v-74h-1z" />
    <glyph glyph-name="eight" unicode="8" horiz-adv-x="278" 
d="M244 466h4v-43h-4v-9h-3v-34q-3 -9 -12 -19q-9 -11 -16 -15q2 -9 10 -15l2 -2h3l1 -12l3 -1l2 -1q2 0 2 -1v-12h4v-5h1q6 -13 6 -39q0 -12 -1 -34q-2 -22 -2 -30q0 -52 -4 -88l1 -15h-1v-27h-4l-2 -6v-6q-1 -6 -5 -10l-2 -2l-2 -1v-5q-4 -4 -8 -7l-3 -2l-4 -3l-2 -6h-6
q-2 -1 -3 -3v-3h-5q-2 -1 -3 -3l-1 -3q-2 -1 -8 -2l-8 -3q-1 -1 -2 -3l-1 -2v-1h-20v-2q-3 -1 -11 -1q-14 0 -36 5q-8 2 -15 4t-10 3l-2 3l-1 2q-2 1 -6 2h-3l-3 1l-1 3l-2 3l-9 7l-8 7v6h-3v6h-3v30q-5 6 -11 11v51h3l-1 2l-1 3q-1 2 -2 3v110q0 22 4 37v17h2v8h4l1 6l1 5
h3v7q1 2 9 7l5 3l4 4h2l-20 17v6l-5 2v7h-4l-1 17l-1 18l-3 36h3l1 4l1 5v39h-2q-1 0 -1 1l-1 3l-1 3q-1 5 -1 8v4l1 3h3v65h2v5h4v6h2v8h3q1 3 5 5q1 0 3 2q1 3 15 14l1 2l1 2q2 3 5 5h2l3 1h8v4l6 2l6 1v4q2 0 12 1q11 1 22 1q31 1 37 -1v-1l6 -3l8 -2q9 -4 13 -6l2 -4h6
l1 -1v-2q1 -2 2 -3h5q1 -3 3 -6h5l9 -12q5 -7 9 -11v-6h4v-9h1v-38h3q2 -6 2 -9q0 -4 -2 -8l-1 -3l-1 -2l-1 -1h7v-33h4v-1zM167 474v3l1 10l2 10q3 13 1 22h-4v20h-4v21l-4 8q-6 3 -8 8h-34q-10 -6 -12 -23v-33q0 -7 -2 -23q-2 -15 -2 -23h4v-74h1v-5q2 0 4 -2t3 -5
q12 -1 50 7q0 29 8 79h-4zM167 223l-1 2v2q-1 3 -3 5q0 5 1 15l1 17q1 20 -6 26q-3 11 -13 18q-9 6 -21 9q-3 -2 -6 -3h-3l-3 -1v-4l-6 -5q-3 -2 -6 -3l-1 -16l-1 -17q-1 -21 -1 -35v-10h3v-3h-3v-40h3q0 -2 -1 -2q-2 1 -2 -2q-1 -6 1 -14l1 -6l1 -5v-67h4v-4q0 -1 2 -4
q2 -2 2 -4q4 0 8 -3q36 0 46 22q0 1 -1 5v7q-1 9 1 15v62h2l-2 2v41h4z" />
    <glyph glyph-name="nine" unicode="9" horiz-adv-x="270" 
d="M241 452v4h-1v1h5v-5h-4zM237 468q1 -19 2 -47l1 -46h-3l-1 -14l-3 -4v-12h-2v-11h-2l-1 -6l-3 -4v-7h-3v-13l-3 -2v-3h-2l-2 -5l-1 -5h-3q0 -2 4 -5l4 -3q0 -3 -1 -8l-1 -7l1 -16q1 -11 1 -15h-2l-2 -10v-5l-1 -5h-3v-4l-4 -2v-10q-1 -6 -1 -10l-3 -4v-4h-4v-8l-4 -4
l-1 -15l-3 -8v-11h-4v-6l-3 -2v-12h-1l-1 -2l-3 -8v-5h-3v-8h-2q0 -5 -1 -13l-2 -12h-3v-8h-2v-4l-4 -4v-8h-3v-10q-1 -7 -2 -12h-3v-9h-4q-2 -4 -5 -8l-6 -7h-17l-17 1q-19 0 -32 3v1h-4l4 15l4 14q5 16 8 29l3 6v5h4v12h1v11h3v6l4 3v8h2v6l3 3v7l3 1v7h2q2 4 3 10l1 9h2
v7h3q2 -6 12 -15t14 -9q2 0 5 2q2 1 4 1q0 3 2 7q1 3 1 5h-3v5h-4q0 3 3 4l2 1h2v15h2v18q-4 -3 -10 -3l-2 4l-2 4q-8 3 -18 0q2 11 7 24l4 11l4 11l1 7l1 6q1 6 5 10v3l-5 -1l-3 -1q-3 -1 -4 -1v3h-12v-3h-17l-24 12l-25 11q0 2 -1 5l-1 3q-4 5 -10 10l-12 7v6l-1 6h-3v5
h-4v35h-3v10h-1v43q3 1 1 8h-1v14q3 2 1 8h-1v9l1 3v4h-1q-2 1 -4 8l3 1l2 2v17h3q3 6 1 14l-2 6l-2 5q3 32 3 57h4v9h3v7q5 6 17 22h6l1 3l1 2h6l2 4l2 3h4l1 1l1 1q1 2 2 2q16 12 48 12h37v-1h12v-3q2 -2 6 -3h2l2 -1v-4h15l4 -6l3 -5q3 -1 7 -3l6 -5v-5q5 -3 10 -3
q3 -10 4 -18h4v-5h3v-58l1 -12v-11h-1q-1 -3 -3 -5l-2 -4q-3 -4 -4 -12q5 -1 14 -8v-4h-8zM237 547q-2 0 -5 2l-3 2q3 -8 4 -9v2h4v3zM168 387l-1 86l-1 86q-3 2 -6 7l-6 8h-35q0 -2 -1 -4l-2 -3h-6q0 -3 -1 -4l-2 -2l-2 -2l2 -3q1 -2 1 -3h-3v-17h-3v-39q-1 -3 -2 -10
q-1 -8 -1 -16q-2 -21 1 -30h2l-1 -11l-1 -12h2v-38h3v-24l2 -2q1 -1 1 -5l7 -1q4 -1 7 -3v-1h20l3 -3l7 6l7 6q0 2 2 7l1 7h4v20h2zM57 497h-4l1 3l2 4q3 5 1 9h-4l-2 -6l-1 -6q-1 -7 3 -12v-1h4v9z" />
    <glyph glyph-name="colon" unicode=":" horiz-adv-x="157" 
d="M122 390q0 -39 -3 -44q-4 0 -13 -1l-14 -1q-17 -2 -23 2l-8 5l-31 3q0 8 -1 53t-1 63l-2 4l-1 2q-2 3 -2 4q-1 3 4 8q1 3 0 6v3q-1 3 1 5q9 2 26 3h14l13 1q6 11 42 0l-4 -18l4 -8v-10q-1 -1 -1 -10h-4q-1 -3 -2 -10v-9q1 -3 2 -18q0 -5 1 -10v-5h4q1 -11 2 -15l1 -2
l1 -1h-5zM126 5q-9 -2 -26 -3h-14l-13 -1q-19 5 -42 4v3h-1l1 25v26h4q1 2 -1 4l-2 1l-1 2q-1 3 2 7l1 3l1 2h-4q-1 19 -4 39h-4q0 30 7 40h14l17 -1q20 0 24 5l37 -2l4 -13v-109q2 -4 2 -7v-2l-1 -2q0 -4 6 -7q-2 -9 -7 -14zM57 484h-8v-4h-6v-6q3 0 12 6l1 1l1 1v2z
M67 443h-8v4h-6q3 -9 14 -10v6zM101 111h-6l1 -3q0 -1 1 -1v-4h4v8zM65 137v-8h-4v-6q9 3 10 14h-6zM79 103q0 3 -6 12l-1 1l-1 1h-2v-8h4v-6h6z" />
    <glyph glyph-name="semicolon" unicode=";" horiz-adv-x="158" 
d="M122 390q0 -39 -3 -44q-4 0 -13 -1l-14 -1q-17 -2 -23 2l-8 5l-31 3q0 8 -1 53t-1 63l-2 4l-1 2q-2 3 -2 4q-1 3 4 8q1 3 0 6v3q-1 3 1 5q9 2 26 3h14l13 1q6 11 42 0l-4 -18l4 -8v-10q-1 -1 -1 -10h-4q-1 -3 -2 -10v-9q1 -3 2 -18q0 -5 1 -10v-5h4q1 -11 2 -15l1 -2
l1 -1h-5zM150 110q-2 -5 -14 -28q-5 -8 -12 -23l-14 -25q-37 -70 -43 -86q0 -4 -1 -6l-1 -3q-2 -3 2 -9q-4 -6 -10 -9q-8 1 -16 4l-8 3q-4 2 -9 3q-17 14 -32 18l1 3l-1 1q5 10 23 57q19 48 23 59l4 -2q2 2 0 4l-1 1v2q0 3 4 6l2 2l2 2l-4 1q6 16 9 35l-2 2q9 24 19 32
q3 -1 12 -5l13 -7q16 -7 21 -3l34 -17zM57 484h-8v-4h-6v-6q3 0 12 6l1 1l1 1v2zM67 443h-8v4h-6q3 -9 14 -10v6zM91 125l-3 -8l-3 2l-3 -5q9 0 15 9zM109 92q0 -3 -1 -4l1 -1l-2 -3l4 -1l2 6zM91 102l-1 1l-1 2l-1 1l-3 -7l3 -1l-2 -6l6 -2q1 2 -1 12zM90 39h-2q-2 1 -3 2
v-3q-11 -3 -17 7h-4v-11h-1v-3q3 -3 5 -1l2 2l1 2h4v-14h3v-4h-3v-4h-4v8q-4 1 -7 3h-1q0 -10 3 -17l3 -7l2 -8h4q0 2 1 2l-1 2q0 9 3 11v-3h4v31q3 1 3 0q1 0 1 1q5 1 6 3zM60 -12v-8h-3v-4q10 1 11 12h-8zM45 1v-10q2 2 3 6v2l1 2h-4zM52 -24h4v15l-5 -5l-6 -6q-4 1 -9 4
v4q-6 1 -7 -4q-7 -1 -6 4h-3v-4q-3 0 -4 2l-1 3l-1 2h-1v-11q1 -4 5 -4q-2 -1 -3 -4v-2l-1 -1q4 -4 12 -4q1 -3 3 -5v-2q-6 2 -16 4q1 -5 7 -7v-8l5 1h4v4h5v3h11v5l6 1l5 1q-4 8 -4 14zM38 -31v-7h-4v12h2v2q5 -2 9 -7h-7zM20 -26v2h6v-2h-6z" />
    <glyph glyph-name="less" unicode="&#x3c;" horiz-adv-x="188" 
d="M172 67q-27 -11 -37 -11q-2 0 -3 1l-23 1q-1 1 -2 4l-4 7l-5 11l-1 7v9h-4q-2 4 -2 6v2q0 2 -2 7h-3l-1 5l-1 5q-1 4 -2 6h-4l-1 15h-3v10h-4v7h-2q0 2 -1 7l-1 8h-4q-1 1 -3 17h-3v10h-2v12l-6 2l-23 69h-4l-1 5v9h-3v3q-5 14 -6 16q1 5 6 19v3h3l1 14h4l23 68l2 1l2 1
l2 1v12h2v10h3q2 15 3 17h4l1 8q1 5 1 7h2v7h4v10h3l1 6v7h4l1 4l2 5q3 7 8 14v8h4l1 16l5 11l4 7q1 3 2 4l23 1q1 1 3 1q10 0 37 -11v-13q-2 -1 -3 -5l-3 -8l-2 -6v-2l-3 -7l-1 -8q-3 -10 -5 -14h-3v-6h-3q-1 -5 -4 -16q-3 -12 -4 -17h-4v-5h-2l-1 -3l-1 -4q-1 -5 -1 -8h-3
v-8h-3v-9h-3v-8h-3v-8h-2q-2 -2 -4 -10h-2q-1 -2 -1 -6q-1 -5 -1 -7h-4q-4 -15 -11 -26v-18h-5l-1 -6q-3 -8 -3 -23v-10q1 -5 3 -10l1 -7h5v-18q7 -9 11 -25h4q0 -6 2 -14h2l1 -5q1 -3 3 -5h2v-8h3v-7h3v-10h3v-7h3l1 -8l2 -8h2v-4h4l4 -17l2 -8l2 -8h3v-6h3q10 -23 12 -32
l1 -4v-4q1 -5 4 -12v-13zM112 461h-2q-3 1 -7 2q1 7 9 15h-9v6l9 1h-2v4l-3 1l-2 1l-3 1v-3h-4v-11h4v-8q-7 -1 -12 -7q12 -1 13 -7h9v5zM82 461v-1h4v-3q1 1 3 4h-7zM80 449l1 -2l1 -1h4zM68 436h-9v-4h3q3 -3 6 -3v7zM78 353q-3 -2 -8 -2h-10q-10 0 -12 -11h-5q1 -8 19 -8
q3 4 8 5v7l6 -1q4 -1 6 -3q0 8 -4 13zM106 187q0 4 -1 7l-2 5q-2 5 -2 8q0 2 2 8l-1 2q-3 0 -3 -1l1 -1h-2q-2 1 -8 1q-6 1 -8 1q-1 5 -4 6h4v6h4v3q1 2 3 5q-3 0 -7 -4h-4l2 3l1 2l1 3h-4v3q-7 -1 -10 -11h-6q4 8 6 14q-2 0 -4 1q-3 1 -5 3q1 4 9 14h14q0 3 -2 5l-2 2
q-5 0 -8 8v-2h-4v-3q-15 -3 -18 -7q6 -2 8 -9q-2 1 -13 6v-4h-3q0 -2 4 -3l3 -9q2 -1 4 -4l1 -3l2 -2v-3h-3v-7h11v-3h-8q2 -5 2 -12h10v14h4q0 -7 -2 -8h2q8 -10 16 -16h3q-11 -7 -21 -7q1 -11 9 -17v-1h1q2 0 3 1l1 2h7l1 4v4h13v-4h3zM68 208q-3 0 -6 -3h-3v-4h9v7z
M89 175q-1 3 -3 5v-4h-4v-1h7zM80 188l1 2l1 1h4z" />
    <glyph glyph-name="equal" unicode="=" horiz-adv-x="309" 
d="M273 358l-1 -1v-2l-92 3v-3q-3 -1 -7 1l-3 1l-3 1v-3h-48l-23 -1q-58 -1 -66 1v10q-2 8 0 24l1 14q1 7 1 12h45q15 0 36 -1h39q107 -1 120 -1q1 -8 1 -32q-1 -2 0 -9v-14zM273 250l-1 -1v-2l-152 3v-3q-3 -1 -7 1l-3 1l-3 1v-3h-29l-12 -1q-28 -1 -36 1v10q-2 8 0 24
l1 14q1 7 1 12h45q15 0 36 -1h39q107 -1 120 -1q1 -8 1 -32q-1 -2 0 -9v-14z" />
    <glyph glyph-name="greater" unicode="&#x3e;" horiz-adv-x="188" 
d="M170 300v-3h-3l-1 -14h-4l-23 -68l-2 -1l-2 -1l-2 -1v-12h-2v-10h-3q-2 -15 -3 -17h-4l-1 -8q-1 -5 -1 -7h-2v-7h-4v-10h-3l-1 -6v-7h-4q-1 -2 -2 -8l-2 -10h-3q-2 -5 -2 -6v-1q0 -2 -2 -6h-4l-1 -16l-5 -11q-5 -10 -6 -11l-23 -1q-1 -1 -3 -1q-10 0 -37 11v13q2 1 4 5
l2 8l2 6v2l3 7l2 8q2 10 4 14h3v6h3q1 5 4 17q3 11 4 16h4v5h2l1 3l1 4q1 5 1 8h3v8h3v9h3v8h3v8h2q2 2 4 10h2q1 2 1 7q1 4 1 6h4q4 15 11 26v18h5l1 6q3 8 3 23v10q-1 5 -3 10l-1 7h-5v18q-7 9 -11 25h-4q0 6 -2 14h-2l-1 5q-1 3 -3 5h-2v8h-3v7h-3v10h-3v7h-3l-1 8l-2 8
h-2v4h-4l-4 17l-2 8l-2 8h-3v6h-3q-10 23 -12 32l-1 4v4q-1 5 -4 12v13q27 11 37 11q2 0 3 -1l23 -1q1 -1 2 -4l4 -7l5 -11l1 -7v-9q5 -7 6 -8v-1l1 -1q1 -1 4 -5l1 -5l1 -4q1 -5 2 -7h4l1 -15h3v-10h4v-7h2q0 -2 1 -7l1 -8h4q1 -1 3 -17h3v-10h2v-12l4 -1l2 -1l23 -69h4
l1 -5v-9h3v-3q5 -14 6 -16q-1 -5 -6 -19zM105 461h-7q2 -3 3 -5v4h4v1zM128 435h-9v-7q3 0 6 3h3v4zM147 375q0 2 -4 3l-3 9q-2 1 -4 5l-1 2l-2 2v3h3v7h-11v3h8q-2 5 -2 12h-10v-14h-4q0 7 2 8h-2q-8 10 -16 16h-3q11 7 21 7q-1 11 -9 17v1h-1q-2 0 -3 -1l-1 -2h-7v-4
q-1 -2 -1 -4h-13v4h-3q0 -4 1 -7l2 -5q2 -5 2 -8q0 -2 -2 -8l1 -2q3 0 3 1l-1 1h2q2 0 8 -1h4l4 -1q1 -5 4 -6h-4v-6h-4v-3q-1 -2 -3 -5q4 1 7 4h4l-2 -3l-1 -2l-1 -3h4v-3q7 1 10 11h6q-4 -8 -6 -14q2 0 4 -1q3 -1 5 -3q-1 -4 -9 -14h-14q0 -3 -2 -8l-2 -5q5 0 16 -2v2h4v3
q15 3 18 7q-6 2 -8 9q2 -1 13 -6v4h3zM144 296q-1 8 -19 8q-3 -4 -8 -5v-7l-6 1q-3 1 -6 3q0 -8 4 -13q3 2 8 2h10q10 0 12 11h5zM128 204h-3q-3 3 -6 3v-7h9v4zM106 189l-1 1h-4l6 -3zM105 176h-4v3q-1 -1 -3 -4h7v1zM84 180h-9v-5h2q3 -1 7 -2q-1 -7 -9 -15h9v-6
q-2 -4 -1 -6l1 -1l1 -1v3h4v11h-4v8q7 1 12 7q-12 1 -13 7zM106 446l-1 -1h-4l6 3z" />
    <glyph glyph-name="question" unicode="?" horiz-adv-x="237" 
d="M223 546l2 -26h-4v-8h-2v-8h-2v-19h-4v-13h-3v-8l-4 -10q-2 -6 -3 -11l-2 -3l-1 -3q-3 -6 -5 -18h-3v-14l-8 -10h-4v-4l-4 -17l-3 -4v-10h-2q-2 -6 -4 -11l-4 -9q-5 -10 -7 -18h-3l-2 -13l-3 -2v-6l-3 -2v-9h-2q-2 -7 -3 -18v-16h-3l2 -27q0 -1 1 -2l-3 -41q-1 -1 -1 -3
q-5 -1 -9 -1h-5q-3 0 -8 -7h-4l-7 8l-9 -1h-10q-12 0 -16 5q-5 0 -10 3v54h3l-2 20l4 4v8h3l-1 15h1v8l4 4v15h3v4l3 4v8h2l3 8l4 7q4 9 6 17h2v4h2l1 6l2 4l2 10h4l1 14l4 4v7l4 4l3 13q1 4 3 7l2 3q2 4 3 10h4v9h2l-3 12l3 4v8h3v5l4 4v10h1l1 4l2 4q2 6 2 13h3l-3 18l2 3
l1 5q2 7 -1 12h-2l-1 1h-2l3 14q-7 1 -8 4h-35q-6 -7 -9 -8q-2 -8 -3 -23v-28l-2 -11h-2v-2q-3 1 -6 -1l-2 -2q-2 -1 -5 -2v-3q-11 -2 -29 0l-14 2q-8 1 -11 1l-1 13l-2 15q-2 18 -2 30q0 36 13 49q3 4 8 4q2 8 8 13l5 4l6 4q3 4 8 8l3 1h3q4 1 6 2v2q3 0 6 2l3 1l3 1v3
q5 2 33 0q27 -1 35 -3v-2h8v-3l6 -2q3 -2 4 -2v-2h7q0 -2 4 -6h4l2 -3l2 -2h4q3 -4 4 -5h6l4 -7l3 -9q5 -12 7 -15v-7h4q2 -5 4 -21q2 -15 1 -22h-3zM150 49v-5l-1 -7l-1 -2l-2 -1q-2 -2 -1 -4h4q0 -9 1 -11v-11h-1v-3l-12 1l-10 1q-11 1 -20 -2h-13l-14 -1q-18 -1 -26 1
q-5 5 -7 14q6 3 6 7l-1 2v2q0 3 2 7v80l4 13l21 2q4 -5 32 -5h12l10 1h17q4 -7 1 -17l-2 -5l-2 -5q-2 -7 -2 -13h8q2 -20 1 -39h-4zM127 78v-8h4v4q1 0 1 1l1 3h-6zM135 50h-4v8h-6q1 -11 10 -14v6zM127 38h-2l-1 -1l-1 -1q-6 -9 -6 -12h6v6h4v8z" />
    <glyph glyph-name="at" unicode="@" horiz-adv-x="436" 
d="M347 600l-6 -1v26h7q0 -10 4 -24zM360 575v10h5v-10h-5zM356 562v4h4v-4h-4zM352 575q-4 -20 -4 -27h-7l2 4l2 2q2 3 3 8h-7v31h7v-18h4zM394 525q-2 -7 -3 -8h-3v8h6zM402 475v8h4v-8h-4zM390 488q-1 -3 -2 -4h-2v7q4 0 5 1zM348 541v-19q-1 -12 -3 -17h-4v36h7z
M386 467v5h2v-5h-2zM348 495q-1 -1 -2 -1t-5 -1v6q2 -1 2 -2l2 -2h3zM145 598v7h5v-7h-5zM345 377v-4q-4 4 -5 7v5q1 1 3 2l3 1l2 1v-5h-3l2 -4l1 -3h-3zM104 606v1h5v-1h-5zM144 573q-1 -2 -4 -5v5h4zM92 606q3 -1 1 -4l-1 -2l-1 -2v8h1zM391 460q0 -32 -1 -60l-1 -25v-23
q-2 -61 -3 -110v-51l1 -14v-28q1 -72 -4 -88v-18h-3q-5 -13 -16 -24v-2q-3 -1 -7 -1h-9q-12 0 -15 -1q2 -2 3 -5l1 -5h-4q-3 -3 -20 -5q-16 -2 -35 -3q-11 -1 -40 -1l-23 7l-5 25l-11 -11v-3l-5 -3l-5 -4v-1q-7 -3 -20 -3v-4h-5v-3q-8 -3 -18 -1l-7 2l-8 2v8l-13 -2l-13 -2
v3h-12l-1 2l-2 3h-9v2l-2 4h-6q-8 8 -10 14l-6 1q-2 0 -3 1q-3 12 -3 19l-3 1h-4v11l-2 1h-3q-1 4 2 8l2 3l1 4l-1 1l-2 1q-3 2 -5 4q-1 4 3 8l3 3l2 2h-1q-6 7 -7 12h8v5l-1 5h-4v5h-3l2 4l1 4q5 1 8 4l4 -4q1 4 4 6v3h-8v3l-8 2l-1 4v4q-1 4 -2 7h3v15q-4 -2 -3 5q3 2 3 6
h-3l2 3l1 2q-1 1 -3 2l-4 1v132q-1 6 -1 8h1v13l-1 12h1v8h4v1h-4v64l4 5v7l3 4v9h4v7q1 1 3 2l5 2q0 6 3 10h1l2 1l6 1v3q9 0 18 -3v3h4v3h-8l1 6l1 6l2 1h2q4 1 6 3v1h4v3h12l3 3l9 1l3 4l11 -1v1q29 -2 47 -31v28l11 3q3 0 8 2t8 1v-4h6l2 1l1 2q2 3 3 1h4q1 -1 3 -1l4 1
q5 1 6 -2l4 -1l3 -1q2 -2 2 -6l1 -7q0 -9 3 -12l-4 -40h-2v-4h2v-12h4v-23h3q1 -5 -3 -5v-12h3v-37l1 -1h1q1 -1 -1 -4h-1q0 -21 1 -70v-60q1 -6 1 -26q0 -21 -1 -30h4v-58h4q1 -5 1 -12l-3 1l-2 1h-4q-1 -3 2 -6l1 -3l1 -2h-4q0 -9 8 -27h33l2 2l3 3q4 2 6 7q5 5 6 20
l-1 13v36l1 18v18q1 49 0 58q3 8 1 40v13l-1 12q-1 14 -1 20v62q4 3 3 8q-3 3 -3 7l1 6l2 6h-9l2 84v6h4v6h1q-1 -17 -1 -37v-17h3v7h4v34h-4l2 52q-1 1 -2 -1t-1 -5l-2 5l-1 5q-2 7 -3 11l-2 2q-1 2 -2 2l-5 6l-12 3l-22 2v1l-80 3v-3q-3 -1 -7 1l-3 1l-3 1v-3h-6l-1 6
q8 0 12 13q9 -2 12 -3q1 4 3 7l1 2q1 2 1 4h3v3h-3q-1 7 -4 8h-3q-1 1 -3 4h-3l-2 -3l-2 -4q-6 0 -11 5v2h-5v3l-3 -1h-3q-4 -1 -6 -2v5q-5 1 -7 3l-2 2q-2 2 -4 3q0 -2 -2 -5l-3 -3v-3q1 -3 3 -4h-3v-3q-2 3 -5 5q-6 0 -13 -7v-2h-2v2q-3 -1 -7 -8h-2v10q-4 -1 -8 -3l-4 -2
l-5 -2q1 3 1 4l1 1v2h7l1 2v1l1 1l1 1v3h-7v-5q-5 0 -11 -3v3h-1v-3h-9v-2q-3 -1 -6 2h-4l-4 -1q-7 -1 -11 -1v-15q5 5 5 7h14l-1 -1l-1 -2h5q0 -10 1 -6v6l3 -2l2 -2q0 3 -1 7l-2 6h4l-1 -4v-3l6 -2q1 -3 -1 -5l-1 -2l-1 -1q-3 -2 3 -8v-1q2 -4 1 4h2v-4h4v4h4l4 -1
q4 -1 8 1v3h1v-3q4 0 7 1l2 1l2 1v-6h4v6l3 3l-1 3v3q-1 5 -2 7q2 2 6 3v-6h-3q1 -1 2 -5v-2l1 -3q3 1 8 1v4q1 3 3 4l1 -2l1 -2q1 -3 3 -4q-1 -4 -5 -7l2 -2l2 -2q3 -4 4 -4l-5 -5l-30 -1q-18 0 -28 -1q-32 0 -38 1l-6 7q-2 8 -2 30l1 18v14q7 0 38 1l14 1h15l33 1
q88 2 117 0l13 -1h30q18 0 20 -2q11 -1 18 -9v-2q11 -8 12 -17q-5 -5 -4 -24v-15q1 -9 1 -12v-124q0 -2 -1 -18v-28q0 -37 4 -42v9h3l5 -1v-4l4 4q3 -1 5 -3l3 -2q1 -2 4 -3v20q-6 5 -13 32q-8 27 -6 33v10h-4v1h4v23h4v-1h25l3 -5l3 -6h3q0 -1 -1 -4l-1 -3l-1 -4h3v3h3v8h5
zM227 629h-4v-6h4v6zM215 606h-3v1q0 -1 -1 0l-4 -4h8v3zM200 612q0 -1 -1 -5l2 2v1q-1 2 0 4q-1 -1 -1 -2zM55 459h-1v-12h1v12zM235 212h-6q2 -2 6 -3v3zM178 197q-2 24 -2 35l-7 196l-6 12l-7 12q-6 1 -13 3v-3h-15q-2 -2 -7 -6l-4 -3l-4 -3l-1 -5l-1 -5l-3 -12h4v-35
q2 0 1 -9q0 -1 -1 -1l-1 1q-1 0 1 -3h1v-10h-1v-7h-4q-1 -2 1 -4h2l1 -1v-82h1v-14h-1l1 -102h4q-2 -2 -3 -6l-1 -5l1 -20q1 -12 3 -21h3v-17h2v-5q2 0 3 -1l2 -2h1l1 -2v-2q1 -3 2 -5q17 -3 38 7q1 5 3 5v37h4l1 19l1 18l-1 10l-1 10q0 2 1 5l2 8q2 10 1 13h-2zM226 74h-5
v-6h5v6zM71 111h-4q-4 -8 -8 -12v-2q6 2 12 6v8zM51 86v-14h3l1 7v7h-4z" />
    <glyph glyph-name="A" unicode="A" horiz-adv-x="233" 
d="M87 650v5h4v-5h-4zM57 432v7h3l1 -2q0 -1 1 -1v-4h-5zM193 0q-10 -3 -25 0l-11 2q-6 2 -9 2q-2 6 -3 16l-2 15h4v10q-1 0 -3 2l-2 1l-3 1q2 7 3 14q1 8 0 14q-5 0 -5 4q-1 0 -5 -1l-7 -2q-12 -3 -16 -1v4q-5 0 -8 -2l-3 -1l-4 -1l-3 -37q-1 -23 -3 -37q-2 0 -9 1h-11
q0 -2 -5 -1v1h-23v4h-15q0 5 -6 3q-1 -2 -2 -5l-3 -3h-4q2 50 13 82v30q0 31 7 53q1 4 2 11v14q1 18 4 22v2h9q0 8 -6 12v5q7 -1 12 -5q3 6 3 12h-9v-4h-2l-2 8q-1 5 -2 7h-3q3 7 7 12q3 0 8 1q4 1 7 2v13h2q0 3 -1 6l-1 5q1 2 3 3l3 1v3q-12 0 -20 4v4q9 0 20 4q-1 2 -4 5
v3h-14v4h-2q-1 2 0 3h1l1 1v4q1 -2 4 -3l5 -1l1 5v4h9v3h3v3q-6 1 -10 4l-3 2l-6 2v11q5 -1 7 -2l2 -2l3 -1q4 8 4 9h3q3 8 0 18l-4 8l-3 6q5 1 8 5h5l3 12h-3q-4 18 -8 23v3h8v8l-4 -1l-4 -2v8h6v10h-10v1h-2q-1 4 3 7l3 2q1 1 1 3h-4q-2 4 -2 8q-1 6 0 11h2q4 8 4 16h-4
q-1 5 3 11l4 5l2 5h-4q0 6 4 9l1 13q1 9 1 14h3v18h3q-2 2 -3 8h3q-1 4 -2 10l-1 9h3v21h2q3 4 14 6t20 0v-4h4v4q16 0 25 -12h4l1 -8l1 -9h-2q0 -11 3 -33q3 -21 3 -33h2q1 -10 1 -28l5 -7l-1 -15h4v-13q0 -9 1 -14h1v-28l4 -7l-1 -16h4l1 -12v-11l4 -7l-1 -26h1v-12l1 -13
h4v-25q6 -21 8 -46q1 0 1 1l1 1q1 0 3 1v-10h-4l8 -81l9 -81h3q0 -14 1 -22h4v-28h1q3 -7 2 -20v-11l-1 -10q-10 0 -28 -4zM55 275q-4 1 -7 4h-2l1 3q1 3 1 5h7v-12zM162 188q-2 0 -5 2l-2 2l-2 2v19q-1 17 -1 18h-4q-3 8 -5 7h-1q-2 1 -4 4v3q-3 3 -6 8l-3 5l-4 5q0 2 -4 5
l-4 3l-2 4h-5q0 -32 -2 -47h-5q0 -8 -1 -23v-25q-1 -29 1 -42h11l12 1q14 2 17 7v4q4 3 5 6v6l4 4l3 3l7 7v12zM54 210l-4 3l-5 2q0 -10 2 -15h10v3q3 1 6 4q-5 1 -9 3zM69 179v3h-4q-2 -1 -4 -3v12h-12l2 -2l2 -2q2 -4 2 -8q-6 -1 -6 -5h3v-5h3l-2 -9v-4l-1 -3h3v-5l1 -4
q1 -4 0 -7h15v-3h4l-6 8q2 2 10 6l5 2l5 3q0 18 -20 26z" />
    <glyph glyph-name="B" unicode="B" horiz-adv-x="288" 
d="M256 156v-15q-1 -3 -2 -8l-1 -5q-2 -5 -9 -9v-4l6 2l5 2q6 -40 -13 -75q-18 -32 -48 -46q-18 -2 -29 -2v-3l-16 1l-16 2v-3q-7 -2 -18 -3l-19 -1l-9 1l-9 2q-10 1 -14 -3h-14v4q-3 3 -3 13l-1 8l-1 7h-3l1 33q1 19 2 33h3l-2 12v7l-1 7l1 20l2 20v20h-3v3h3v15h-3l1 3v4
q1 5 2 8h-3v87h-3l1 17q1 10 2 15q0 4 -3 7v11h3q1 5 -1 11l-1 5l-1 4q-2 5 1 17l2 9v5h-3v99h-4l1 9l1 8q2 10 2 16q-2 4 -3 4v7l-1 6h-1l-2 27l-1 27h-4q1 9 12 15v8h-4l2 10q2 6 2 10l9 2q5 1 9 1v-3l5 1l5 1q7 1 13 1v2l13 -1h7l8 -1v2h42v-2q5 -1 8 0l2 1l2 1v-2h21
l2 -4l2 -4l10 -2l10 -1l1 -2l2 -1q1 -1 1 -2q3 -2 6 -3h5l5 -6l3 -6l4 -2l3 -2v-4l4 -4q9 -13 11 -42v-50q0 -8 1 -26l2 -27q2 -34 0 -57q-3 -64 -33 -81q12 -5 18 -18l2 -3l2 -4q2 -3 3 -8l1 -4v-4q1 0 2 -2l2 -3v-29h1v-8h4v-43h-4q4 -9 4 -20h-4l2 -4l2 -3q1 -3 3 -4
q-4 -4 -7 -4zM177 419q1 10 0 27v58h-3l2 12l1 12h-3q-1 6 -1 12l1 6l1 5q2 12 -5 19q-3 11 -17 13q-6 1 -15 0h-17q-5 -15 -4 -57l1 -16l1 -16q1 -16 0 -23v-11l-1 -14q0 -17 3 -21q0 -7 -1 -21v-23q-1 -28 5 -41q32 0 47 9q2 3 3 8v4l1 3l1 10v45zM179 194v36h-2v25h-3v8
h-4v3q-1 2 -2 5q-30 5 -43 3q0 -9 -1 -28v-30q0 -36 4 -55l-1 -10l-2 -10h3l-1 -7v-8q-1 -10 -2 -15q1 -12 2 -30v-14l1 -13h8l10 1q10 0 14 3q8 3 8 6l1 3q0 2 1 5h4v8h3v19h2v38q3 7 4 26q2 21 -1 31h-3zM214 67q0 -10 -4 -22q3 2 6 9l2 7l2 6h-6z" />
    <glyph glyph-name="C" unicode="C" horiz-adv-x="267" 
d="M80 599l-5 1l-6 1q4 14 4 21h7v-23zM73 548q0 7 -4 27h4v18h7v-31h-7q1 -5 3 -8l2 -2l2 -4h-7zM56 575v10h5v-10h-5zM61 562v4h4v-4h-4zM76 505q-2 5 -3 17v19h7v-36h-4zM80 493q-4 1 -5 1t-2 1h3l2 2q0 1 2 2v-6zM30 517q-1 1 -3 8h6v-8h-3zM78 449l-5 -1q0 2 -1 9v12
q0 14 4 18l4 4q0 -1 1 -7v-6l1 -7q1 -18 -1 -22h-3zM33 484q-1 1 -2 4l-1 4q1 -1 5 -1v-7h-2zM80 438q-3 -1 -7 -5h-8v5h8v3h7v-3zM33 467v5h2v-5h-2zM81 421q-1 -3 -5 -7v4h-3l1 3l2 4h-3v5l2 -1l3 -1q2 -1 3 -2v-5zM15 475v8h4v-8h-4zM244 149q-4 -8 -4 -17q0 -3 1 -12
l2 -14q2 -19 1 -28h-4v-19h-4v-5h-3v-8h-1q-4 -5 -4 -12q-6 -1 -11 -6l-4 -4l-4 -4v-4h-7q-2 -2 -5 -8q-16 -10 -55 -14q-42 -4 -54 8h-4l1 5q1 3 3 5q-3 1 -15 1h-9q-4 0 -7 1v2q-11 11 -16 24h-3v18q-5 16 -4 53v30q1 19 1 28q0 54 -2 146l-2 73l-1 72h5v-8h3v-3h3l-1 4
l-1 3q-1 3 -1 4h3l3 6l3 5h6v1h4v-23h4v-1h-4v-10l2 -6l2 -6q1 -8 -4 -12v-20q3 1 4 3l3 2q2 2 5 3l4 -4v4l5 1h3v-9q4 5 4 22v13q-1 9 -1 12v124q0 3 1 11l1 15q0 17 -5 22q1 9 12 17v2q6 6 12 7q3 4 26 6q22 2 32 -1v-4h12v-1h11v-3h5v-4q10 -2 18 -4l1 -3v-3l5 -4l4 -4
q5 -5 9 -7q0 -5 4 -12h1l2 -8v-4l1 -5h4q0 -20 4 -37h1q2 -4 0 -10t-1 -10l1 -2l1 -2q1 -3 -1 -7h-1v-27q-1 -15 -4 -23q-2 0 -9 -2l-6 -2l-7 -1q-19 -5 -24 -3v4l-12 1l-11 2l-4 1q0 5 1 24v30q1 38 -5 44q-1 9 -5 15l-4 4q-2 2 -3 5h-23v-4h-7q-1 0 -2 -2l-2 -2
q-3 -12 -7 -24v-57h-4v-34h4v-7h3l-1 -12q-1 -8 -2 -14v-53h3v-6h4q0 -5 -4 -6v-54h-3l2 -6l1 -6q0 -4 -3 -7q-1 -5 3 -8v-92q1 -17 4 -25q-4 -30 -4 -47v-26q0 -15 5 -20q2 -5 6 -7l3 -3l2 -2q14 0 30 12q0 2 2 10l2 7l1 5v43h3v61h4v22q3 3 5 3q3 0 9 -1q7 0 14 -1
q19 -2 21 -5q31 0 25 -34h-1l1 -8v-9q-4 0 -1 -6q1 -2 1 -8h-1zM73 378q-1 4 -4 7l-1 -6q-1 -2 -3 -3q0 -14 8 -15l1 9q1 5 2 8h-3zM90 299h-2v54q0 28 -4 33q-3 -7 -4 -28q-2 -22 1 -31h3v-12h-3v-15h1l1 -1q2 -1 1 -4h-3v-15h3l-1 -9l-2 -10h3v-47h-3v-10h3q0 -4 -1 -8
l-2 -7h3q2 -6 2 -15q-1 -6 -2 -17q-2 -22 0 -25v-4h4v15h2v156zM76 237q-2 10 -7 13l-1 -6l-1 -7q-1 -8 2 -11v-12h4l3 4v19zM76 82v18h4v28q-6 3 -7 4h-4v-12l-1 -14q0 -16 5 -20v-16h3l1 3l1 2q2 3 2 7h-4zM80 43l-5 -1l-6 -2v-15l3 -1h4l4 1v18z" />
    <glyph glyph-name="D" unicode="D" horiz-adv-x="278" 
d="M243 123v-32l1 -1q1 -2 -1 -5v-12h-4v-9h-4v-6l-2 -4l-3 -5q-4 -6 -5 -10q-7 -4 -12 -8v-2h-5v-2h-7q0 -4 -3 -7h-5v-3h-12v-2h-8v-3h-11v-4l-3 1l-2 2q-3 2 -6 1v-4h-10v-2l-12 2v-2h-27v-2q-6 0 -8 1t-6 1v-2q-10 -3 -27 -2l-13 2l-6 1l-4 1v10l-1 12q-1 15 1 24h4
q1 5 -3 10l-3 4l-1 3h3v27h4q1 5 -4 8v54q0 1 1 1h1q2 0 2 3h-4v16q5 3 4 9h-4v29h-3q1 2 2 6l1 6h4q0 2 -2 4l-2 1v24h-3l2 8l1 8h-3l1 3l1 3l2 9q2 11 -1 19h-3v15q4 11 3 20h-3q-1 5 1 15l1 6q1 4 1 5h-3v41l1 2h1q1 0 1 2h-3v172h-1v12h-4v23h4l-2 1h-1q-1 -1 -1 1v17
q18 3 42 4v-4h23q20 0 56 -2l2 -3h7v-3h8v-3l6 -2q3 -1 4 -1v-3h5l2 -2h8l2 -3q1 -2 2 -3h4v-4q7 -4 8 -5q0 -9 -1 -15h-7q1 -3 2 -10l2 -12q12 1 20 9h6q-1 -5 -4 -6q2 -1 3 -2l3 -1q2 -5 2 -20v-8h4v-41h4l-1 -14q-1 -8 -3 -14h-6v4q-7 3 -12 4v3l-4 -1l-4 -2v3h-4v-3h-4
l3 -3l3 -1q5 -2 5 -4q2 -2 3 -5l2 -5q2 -5 10 -8l1 -3q0 -1 1 -2l1 -2v-1q0 -1 1 0v3q2 0 5 1q2 1 3 2q5 -23 0 -75v-26q4 -14 0 -23q-1 0 0 -5v-84h4v-2h-4q0 -4 2 -9q2 -4 2 -6l-1 -1l-1 -1q-2 -2 -2 -7h4q0 -9 -4 -13h4q0 -28 -4 -49q-2 -6 2 -10l2 -3q1 -3 0 -7h-4
q4 -4 4 -7h-4zM198 580h-5l2 -2q0 1 3 -1v3zM164 616q-3 1 -5 3t-6 3l-2 -2q3 -9 13 -12v8zM148 625h-9v3l-5 2l-5 1l-1 -3q-1 -2 -1 -3q5 0 11 -1l10 -2v3zM193 571v-8h4l1 4v4h-5zM164 597h-2q-2 3 -3 3h-1l-2 2l-3 -4l2 -2q1 -1 1 -3h8v4zM151 597h-3v1h3v10h-3v-3
q-2 1 -5 2l-4 1l-3 -3q3 5 5 11l-18 6l-19 6l-1 -4l-1 -4h2v-4h-2v-6h-3q-2 -1 -9 -12h5v-1q4 -1 5 0l1 1h3l-1 3v4q0 4 -1 5h8q0 -13 -3 -20h3v-1q4 -2 6 0l1 2l1 2h7q0 5 2 5l-1 3l-1 3q-2 3 0 6h2v4h6q-6 -7 -4 -12h4q2 -3 3 -9h15v4zM77 621l-5 1q5 -7 7 -8v2l3 4z
M189 508h-4v-9h4v9zM79 605h-7v-8h7v8zM66 605h-4q0 -3 2 -7v-1h2v8zM96 520q-6 -3 -12 -3l2 -5q1 -3 2 -4l1 -1q-1 0 0 -1h3q0 2 -3 8h7v6zM89 502q-3 1 -11 4v-7h11v3zM88 487h-4v-12h4v12zM78 486h-6q2 -2 2 -3t2 -1l1 -2l1 -1v7zM175 314l-2 134q0 12 -2 33l-2 16l-1 17
h2v3h-2v19h2q0 11 -6 19h-2v5h-2q-2 2 -4 8q-6 2 -14 6l-6 3l-7 3h-22l1 -11v-10q1 -11 3 -19q-5 -17 -5 -66q0 -48 5 -66v-12h-4q-3 -10 -1 -30q2 -18 5 -28q-2 -4 -3 -9v-5l-1 -5h4v-32h-4v-14h4v-84h1v-8l-1 -9v-42h1v-6l-1 -5h1q1 -7 -1 -7q-3 -7 1 -8v-7l-1 -8h1
q0 -8 1 -14q1 -8 3 -11q22 0 28 5q29 0 29 28v18q3 13 3 66t-1 133zM209 212h-8l2 -1l2 -1q3 -2 4 1v1zM209 204h-1v-5h1v5zM193 155h-7v-5h7v5zM214 108q-1 0 -5 1l2 -2h1q2 1 4 0q-1 1 -2 1zM231 85h-6v-4h6v4zM209 96q-1 0 0 1l-4 4v-8h3v3h1zM186 81h-1v-8h1v8zM181 39
h-5v-8h5v8zM170 23q0 3 -2 6v2q-4 2 -6 -2q-5 0 -6 2q-5 0 -8 -2v2h-4v-8h7v4q5 0 5 -4h14zM118 614l-1 -2l-1 -2v6q3 -1 5 -2h-3zM110 614v6h3v-6h-3z" />
    <glyph glyph-name="E" unicode="E" horiz-adv-x="214" 
d="M194 628q-8 3 -12 8h-1v4h1v2l2 -1l3 -2q2 -1 7 -3v-8zM200 20h-3q-2 -3 8 -6q0 -6 -1 -11h-128v2q-5 1 -10 0l-4 -1l-4 -1q-9 -4 -13 0l-4 1l-4 1v15h-3q-2 2 0 4l2 1l1 1v83h2q0 7 -2 9v116q0 30 -3 47v17h3v33h-3l1 13q1 8 2 14h-3l1 15q1 8 2 13v11h-3v9h3v3h-3v12h3
v3h-3v18l1 1h1q1 -1 1 2h-3v146l1 15q-1 17 -5 22q1 7 4 12h52v2h11v-2h8v-4q6 -1 8 4q4 1 9 -1l3 -2l3 -1q0 4 3 4h15v2h13v-2q3 0 8 1l7 1l1 -3q1 -1 2 -3q-4 -1 -3 -5h3v-3q1 0 3 2l2 1q3 -6 0 -12l6 1l6 2v-9l5 -1l5 -1v-21h1v-4l-1 -4h-46q-25 -1 -53 0l-1 -14l-1 -15
h2v-38h-2l1 -2l1 -2q2 -19 1 -45l-1 -21v-54q0 -26 3 -30v-6l29 3q19 2 29 3v-3l3 1l3 1q4 2 7 1v-3h10v-2l1 -1v-14q-1 -7 0 -9q0 -24 -1 -32q-8 0 -22 1l-23 1q-27 1 -39 -4v-60q3 -3 3 -9h-3q0 -7 1 -16l2 -15h-3l1 -17l2 -18h-3l1 -24l2 -25h-3q-2 -6 -1 -13l2 -7l1 -6
q3 -14 -4 -19l1 -2q0 1 1 -1v-3h8v-2l2 1l3 1q3 1 7 0v-2h11v-4h4v4h14v-4l4 1h4q6 1 8 3v-4h21q12 0 17 -3q0 -21 -8 -34zM177 619q-11 5 -15 12h-4l-4 -3v-15h-4v-2h9v11q5 -1 8 -4l3 -2l4 -3v4h3v2zM174 49q-4 -3 -5 -3q1 -5 3 -12l5 -12v-2h4v12h1v2h7v-8h3v8h2l1 5
q1 3 2 5q-8 0 -23 5zM162 32h-3q1 2 3 14h-8v-20h4v2h4v4z" />
    <glyph glyph-name="F" unicode="F" horiz-adv-x="204" 
d="M188 617v5h2v1h-2v9h5v-15h-5zM127 572v4h-15v20l4 19v1q1 0 3 2q1 -2 0 -9v-11l6 -1q3 0 5 -2v16q7 2 6 4v2q0 1 2 2q4 -4 14 -1v1h8q0 4 4 7l2 -3l2 -4h6v-1q5 -2 12 -3h11v-8l1 -12q0 -16 -1 -23h-70zM158 317l-4 -3v7q6 -3 7 -4h-3zM193 298q-3 0 -6 3l-2 -3l-1 -3
l-3 -5h-13q-11 0 -21 1q-27 1 -28 3q-2 4 -2 16q-3 0 -5 -1v-19l-2 -3q-2 -1 -3 -1v-6h-3q0 -9 3 -17h-3q0 -8 3 -19h-3v-12h3q-3 -19 -3 -38h4v-20h-1l1 -8v-9l-2 -2l-2 -1q0 -9 3 -20h1v-20q2 -21 3 -51l1 -52q-2 -1 -8 -1q0 -2 -3 -5q-7 -2 -17 -3l-17 -1q-14 5 -27 4v2
h-2l1 98v97h-2q0 1 2 11v8h-2q1 4 2 7v20h-1q-3 4 -3 12h2v4h2l-2 11l-2 11h2l1 4v8h-1v18h1v5l-1 1v27h-2l1 13l2 13l-2 1h-2q-4 2 -3 7q5 2 7 4v3l-1 3v23q-4 2 -6 4q5 -1 6 -3v53h-2q0 1 2 3v12h-2l1 2l1 3q0 37 -3 56l1 4v3h-4v9h4l1 1q1 4 1 10h-3q0 20 1 26v1h-4
q0 21 4 27h16v3h15v-3h4l4 3h6v-8h4v-7h2v15q4 -1 6 -3h4v-15h1q1 4 2 9v4l1 5h7l1 -29v-29h-4l-1 -7l-2 -7q-2 -9 -1 -16q0 -3 2 -2q2 0 2 -1h-4v-15h4q1 -7 -4 -9v-18h4q1 -5 2 -14v-16q-1 -21 1 -28v-68q-4 -1 -3 -8h3v-14q1 0 3 -2q32 2 40 2v-3h20v-5q-11 -3 -17 0
l-3 -4q0 -2 1 -5l2 -6h-3v-13h4l4 -1q4 -2 7 -1v18h5q0 9 3 14h8q-1 -1 -2 -4l-1 -4h3l1 -8v-8q1 -10 3 -17l4 4h4v-8zM74 598l-1 1h-1v1h-2v-8h4v6zM87 304q-4 0 -2 -2v-1h2v3zM46 329h-1q-1 2 -1 3v1q0 1 -2 4v-48l2 -1v-4h1v35h1v10zM78 127h-5v-4h1v-4h4v8z" />
    <glyph glyph-name="G" unicode="G" horiz-adv-x="263" 
d="M143 536v8h4q0 -2 1 -5l1 -3h-6zM246 143q1 -6 0 -14q-2 -8 -4 -12v-34h-2v-15h-2v-5h-4v-9h-3l-1 -5q-1 -4 -2 -6q-9 -4 -20 -16h-4l-3 -4l-1 -3q-2 -3 -4 -4h-3l-2 -3l-2 -3q-5 -2 -20 -2v-4h-10v-2h-27l-1 -2v-1q-2 -1 -5 0q-28 5 -49 16q-28 15 -32 35q-5 3 -3 14
l1 10q0 5 -1 9h-4v188h-3q1 4 3 19h-3v46l2 10l1 9h-3v26h-1q-2 5 -1 13l1 6l1 5v5q-1 3 -1 7q-3 6 1 8q2 7 -1 8l1 10v66h-1q-4 8 -4 18h4v9h1v31h3v12h4v8h3v8h1v8q1 2 4 3l3 1v7q5 2 11 8q0 1 1 3l3 2h4l2 4t2 3l6 1l5 2q0 1 3 5l7 1q5 1 9 2v2h9v3q9 3 39 0q11 -1 22 -3
q10 -1 13 -2v-3h5v-4h6l4 -1q2 -4 6 -7l3 -2l2 -2q2 -3 6 -6l7 -6v-7h3l2 -6l1 -6h4v-12h2v-8h2v-23h4v-20h-4q-1 -5 4 -5v-12h-4v-47l-2 -3h2q-1 -6 -4 -13h-54v3h-6l-2 1l-2 2l-2 2q-2 9 -2 28v17l1 18q-1 43 -11 52q-2 7 -6 9l-3 2q-2 1 -4 4h-10v-3q-4 -1 -19 -8l-2 -11
l-3 -11q-2 -13 -2 -25l1 -6l1 -7q2 -8 2 -14h-4v-5h-1v-32h1v-5h4q0 -5 -2 -13l-1 -7l-1 -7h4q0 -6 -4 -4v-42h4v-17h3q-2 -2 -3 -5v-74h-4q0 -2 2 -1q2 0 2 -2v-71l-1 -16q0 -19 4 -28v-22h-3q0 -4 3 -8h-3v-11h3q1 -6 -3 -8q-3 -7 -1 -21q1 -13 4 -17q0 -9 2 -21l7 -1
l8 -1q10 -1 14 2l4 2l2 1q2 2 5 3l3 9l4 11q3 13 0 23h-3l1 3v2q1 4 2 5h-3v161q-5 -3 -14 -1q-7 1 -13 5v44q-4 3 -2 9h2v12q3 0 12 1l6 1h5v-2q7 -2 29 -2q22 1 26 4h13q8 0 12 -2q4 -5 6 -16t0 -19q-5 -2 -4 -9h4v-26h-4q2 -5 4 -18h-4v-3h4v-116l-1 -1l-1 -1
q-3 -1 -2 -5h4zM149 154l1 2l2 2q2 3 7 4v-4h1v-4h-11zM72 -24v5h8v-5h-8z" />
    <glyph glyph-name="H" unicode="H" horiz-adv-x="282" 
d="M173 -2q-2 12 -1 33l1 18v43h-3v3h3q2 5 2 10v8q-1 9 4 13v3h8q-1 5 -2 7l5 5h5l-1 4q-7 3 -9 8h5v8q-9 -5 -11 -6q-3 4 -6 6v32l3 -1l2 -1q2 -1 4 -1q0 1 2 4q1 2 1 4h-8v3h-4q3 4 2 16v11l2 11v8h-4q2 8 4 12q-3 3 -6 12q-4 11 -3 14l2 1h3q0 2 -1 6l-2 2v3l4 1h3
q-2 2 -3 5l-1 6h-48v58l3 -1q1 0 2 -1h3q-3 -4 -1 -13l2 -8q0 -4 -1 -9l-1 -1h-1q-2 -2 -1 -4h3v-9l3 -2q1 0 2 -1q4 2 5 6v3l1 3q1 2 4 3l3 1l2 1h3v-8h5q0 12 4 19l-4 4h-17l-1 8l-1 7q1 1 1 0l1 2q5 0 17 -5q6 5 7 5v271l4 -1l7 -1q9 -1 15 -1q20 -2 24 2q13 0 18 -4v-6
l-1 -8q-2 -11 -2 -12h3v-12h4v-36h1q2 -2 1 -5q-4 -3 -2 -9h2v-47q0 -7 -1 -21v-24q-1 -28 3 -42q2 -7 1 -15l-2 -7l-1 -5h2v-40q4 0 4 -6q-5 -1 -4 -5h4v-20h-4v-23h4l-1 -17q-1 -10 -3 -18h4v-72h3q0 -2 -1 -6l-2 -7q-3 -11 0 -17h3q0 -2 1 -5v-3q-1 -2 -4 -4v-20h3v-20
l-1 -1h-1q-2 -2 -1 -5h3v-23h-3l1 -6l2 -6l-1 -11l-1 -11l-1 -24h4v-16h-79zM179 240q0 -1 -1 0h1zM121 309q-1 0 -4 -2l-4 -2q-3 -7 0 -29l1 -9l1 -7q1 -8 1 -9q0 -2 -1 -5q-2 -4 -2 -6q-2 -18 -1 -37q1 -23 4 -33v-21q0 -1 -1 -1h-1q-1 0 -1 -1h3v-66l-1 -29q0 -34 4 -53
h-12v4q-5 -2 -8 -4h-16l-17 1q-20 1 -28 -1l-2 79q-1 48 -1 80v81q0 3 2 6q1 4 1 6h-3v46q2 1 4 0v-1h1l2 2h-7q0 43 -4 75q3 0 5 1l1 1l1 1q1 5 -3 8q1 2 2 5l1 3h-7q2 5 3 11q1 5 1 9h3q-8 61 -8 221h12v4h33q19 -1 29 -4q1 -54 3 -122l4 -123q0 -6 2 -18q3 -2 6 -3v-37h2
v-21zM185 145l-2 -2q1 0 -1 -2q-9 1 -12 6h15v-2zM194 333l-2 3q0 1 -2 2q-4 6 -5 6l-1 2v1l-1 1l-1 2l-1 -3l-1 -3q-1 -4 -1 -6h11v-5h-8v-3h8v3h4zM215 251l-2 2q-1 2 -1 3l1 2l2 2l2 4l-3 1l-2 1q-3 2 -6 1t-7 -3l-4 -2q-4 -2 -10 5h-3v-5l5 -3q2 -4 -1 -14l-3 -8l-1 -9
h5v8q9 0 15 4l6 4q4 2 9 3zM195 201q-1 0 -2 6q0 5 1 9q1 0 1 4q-1 -1 -3 -1l-5 -1q3 -10 3 -20h5v3zM192 120l-7 1v-7h5v-2q3 -1 4 0l1 1v1l2 2q1 0 1 2zM206 251q-3 1 -4 0l-1 -1h-1l-2 2h4v3h4v-4zM194 240v11h1v-11h-1z" />
    <glyph glyph-name="I" unicode="I" horiz-adv-x="147" 
d="M120 5q-9 -2 -22 -3h-12l-12 -1q-18 5 -35 4v3h-1l1 25v26h4q1 2 -1 4l-2 1l-1 2q-1 3 2 7l1 3l1 2h-4v41h-1q1 5 3 16l1 8l1 7h-4v46h-1v15h-3q0 2 2 8l1 5v7h-3q3 7 3 11v20h-3v14h3v18h-3q0 3 1 9l1 4l1 5h-3v18h3q0 4 -1 5l-2 1v34l1 15q1 18 -1 26v110q-1 35 -4 50
q2 7 3 15l1 14h-4q0 30 7 40h13l14 -1q17 0 21 5h18v-4q9 -9 6 -42l-2 -14l-1 -13q-1 -15 1 -23h4l-1 -10q-1 -6 -3 -10h4v-11q-4 -1 -4 -5q3 -13 4 -34v-67h4q-2 -5 -3 -12l-1 -12h4v-34h-4q-1 -5 4 -5v-15q0 -11 -1 -29l-1 -30q-1 -36 2 -55v-16q0 -2 1 -7l1 -8
q0 -12 -2 -19v-56q1 -8 1 -21v-21q-1 -26 3 -38q2 -4 2 -6v-2l-1 -1q0 -2 6 -5q-2 -9 -7 -14zM66 620v-8h-4v-6q9 3 10 14h-6zM80 586q0 3 -6 12l-1 1l-1 1h-2v-8h4v-6h6zM78 127h-6l1 -3q0 -1 1 -1v-4h4v8z" />
    <glyph glyph-name="J" unicode="J" horiz-adv-x="256" 
d="M224 135l-2 -10l-2 -9v-26q-1 -17 -1 -27h-3v-5h-4q-1 -3 -1 -5v-5q1 -6 -2 -9q-2 -2 -5 -2v-7l-9 -8l-10 -9l-8 -1q-5 -1 -7 -2v-4h-7v-2h-8v-2h-19v-4q-9 -1 -19 -2h-10l-10 -1v3h-16v4h-10v2q-6 1 -12 5l-4 3l-5 3v3q0 2 -4 2h-4v4q-4 0 -10 6q-2 5 -4 11l-3 9
q-4 10 -5 19l-4 20l-2 12q-1 7 -2 11l2 35l2 9l2 57h16l6 3l39 -3q1 -4 2 -7v-50h2q0 1 1 8v15q1 21 3 23h-4v4h9v-28q-1 -25 -1 -39l2 -12l-1 -24l-3 -11l8 -18q4 -14 17 -14q4 0 11 3l11 4q0 5 2 15h3v16h3q-1 2 -3 10l1 3l1 3q2 4 1 7h-3v30h-3v3h3q0 2 -1 6l-2 2v4h3v11
h-3q0 4 2 13l1 7v15l-1 8q-2 11 -2 16q0 1 2 4q1 4 1 6h-3q0 1 2 5q1 3 1 6h-3q2 11 3 28l3 30l-3 1h-3q-1 4 3 7l-1 2l-1 2q-2 3 -1 7h3v23h3q1 5 -2 6l-3 1q-1 0 -1 1l1 3l1 4q2 5 1 10q0 1 -1 2h-1q-1 0 -1 1h3q2 15 1 41q-1 25 -4 37l2 18q1 12 1 17h-3l2 12l1 12
q1 27 0 49q0 27 -3 39q0 5 2 13q1 9 1 13q7 0 17 -2q3 5 8 2v-2h4v2h20v-2h34l-1 -11q-1 -7 -3 -12h4v-28h-4l1 -4l2 -4q3 -6 1 -12q-4 -13 -4 -41v-59q-1 -9 -1 -15q0 -2 1 -2q-1 -2 -1 -1v-2h1v-8q-1 -5 -1 -6h1v-62l-1 -26q0 -30 5 -49l-1 -12q-1 -7 -3 -12h4l-1 -9
q-1 -5 -3 -9q3 -12 2 -48v-26q0 -13 2 -20q2 -9 0 -21zM136 238q-3 -5 -8 -8v8h8zM47 -28v7h5v-7h-5zM162 385q-2 4 -2 5l-2 1v-2l-2 -2l-1 -2h7zM59 204v4h-3l-1 -4l-1 -3q-2 -4 -2 -9h7q0 -3 1 -5t3 -3q5 4 11 4q-2 11 -15 16zM36 202q-1 1 -2 1t-5 1v-2h7zM44 184
q-1 2 -5 4v-4h5zM56 169q-3 -1 -4 1q-1 0 -1 -2h1v-3h4v4zM39 181q-3 3 -6 3v-3h6zM63 176q-3 3 -2 4q0 1 -2 1q-3 3 -7 3v-4q-1 -2 -1 -4q-4 0 -15 -7q0 -1 3 -11h-3l-1 -2l-2 -3q3 -1 14 0v20h4v3h12zM75 150h-1l-1 2v2l-1 1l-1 2q-4 -7 -4 -18q4 -2 4 -9h3v4h1v16z
M59 134q-1 1 -2 1q-1 -1 -5 0v-1h7zM71 127h-4l-1 -6l-2 -6h7v12zM84 116l-2 2q-1 2 -7 4q0 -7 5 -12v-2h-11v-5q1 -3 3 -5q9 2 11 10q3 1 4 5zM52 130q-1 1 -5 4v-4h5zM75 87q-1 1 -2 4l-1 6h-3v1h-4v-17h7v6h3zM83 64q-2 5 -3 6v-2l-4 1l-4 1v-2h-3v-4q2 -1 3 -2l1 -2
q1 -2 7 -4v8h3z" />
    <glyph glyph-name="K" unicode="K" horiz-adv-x="236" 
d="M227 625l-18 -56q-1 0 -2 -3l-2 -2l-1 -3l2 -9q-1 -3 -3 -6l-1 -2l-2 -2l4 -6q0 -4 -3 -7l-2 -2l-2 -3l-1 -7l-2 -12l1 -1l-2 -4l-2 -3l-8 -24v-4l-4 -3l-4 -23q-4 0 -4 -1v-5l-9 -33v1l-1 -2l-3 -7h4v-3h-4l-3 -12l-6 -6q1 0 2 -2l1 -3l1 -2h-4v-5q-1 1 0 -1v-1h-1
l-4 -7q1 -1 -1 -4l-2 -3q-1 -1 0 -3l-4 -12q1 -6 6 -20h2v-8h2v-9h4v-9h4v-6h1v-8q-1 -4 0 -8h4v-5h2v-15h3l1 -11q1 -6 2 -11q2 -3 6 -3q0 -2 -1 -2l-1 1h-2q-2 -9 -3 -9h-3q-1 0 -4 -2v-1q-2 -2 -3 -2l-1 -2h6v-7h-14q-1 6 -3 10l-1 3q-1 2 -2 6h-10l-9 -1q-10 -1 -16 0
v-17l1 -8q1 -12 -1 -19v-48q2 -6 2 -28l-1 -9v-7l-1 -5v-10l1 -5l2 -4q2 -4 1 -6h-3q0 -6 2 -14q2 -6 2 -7l1 -2q1 -2 1 -4l2 -1q-1 -9 -5 -13v-10h-4v-3q-4 -2 -6 1l-2 3q-1 1 -4 1v-2h-45v-3h-12v5l-2 2q-1 1 -2 1q3 8 3 11h-7q1 6 4 13l2 5l2 5v5l-1 5h1v27h-1l1 18v17
h-1v4h1v7l-1 9h1v18l-1 2l-1 2q-1 3 1 7q1 5 1 12l-1 14q-1 19 1 29h-3q-1 2 1 6l1 4l1 5h-1v5h-2q2 4 2 8l1 9v14h-3v14h3v18h-3q0 3 1 9l1 4l1 5h-3v18h3q0 4 -1 5l-2 1v34l1 15q1 18 -1 26v110q-1 35 -3 50q1 7 2 15l1 14h-3q0 30 6 40h11l13 -1q15 0 18 5h8v1h8l2 -1v-1
q2 -1 5 -3v-3q-4 0 -5 1q5 -9 4 -34l-2 -21q-1 -13 -1 -21h4v-1l-4 -2v-8h4v-5q-1 -3 -1 -8h1v-21q-3 -1 -3 -5q3 -19 3 -47v-19h3l1 6q1 6 3 8l12 55l8 27v12h3v3h1q4 13 8 30l3 13l3 13q6 25 11 28q2 0 6 -1h8q12 -1 16 -2h5v3q14 0 33 -11v-5zM148 184v-1q-12 -4 -18 -4
q-1 0 -1 2q1 2 -1 2v-4h-7v5q7 0 12 -1v4q4 1 7 4l12 -4v-3h-4zM177 -4q0 1 -7 5v18h-2q2 2 2 4h-2q-1 4 -2 7v2l-1 3h-3v21q-1 1 -4 3q-3 1 -5 3v5h-1q-4 16 -4 25q-1 1 -3 2h-2l-1 1l-10 38l-11 38q34 5 49 2v10h-2q-2 2 -15 1v3q7 2 9 7h8v-3l3 -1l2 -1q3 -1 4 -2v-11h7
v-11h-12v3h-9q3 -6 6 -9q5 -4 11 -3q0 5 5 4l7 -7q2 -17 0 -24q4 0 8 -2q1 -6 4 -6v-18h3v-4l2 -2l3 -2v-8h3v-17h3q0 -3 1 -8t1 -6h3q0 -13 -8 -14v-3h8q2 -7 3 -9l3 -1l2 -2v-12l2 -1l2 -1q2 -1 3 -6q-37 -8 -63 -11zM194 625l-5 2l-6 2q-8 2 -10 3q-4 -2 -5 -9q5 0 19 -3
v1h6l1 2v2zM66 620v-8h-4v-6q9 3 10 14h-6zM80 586q0 3 -6 12l-1 1l-1 1h-2v-8h4v-6h6zM162 448h-3q0 -6 3 -9l4 8zM157 435q-5 -8 -3 -20h2l6 19q-4 0 -5 1zM198 56v5l-1 6h1v3q-2 0 -6 -1q-5 -2 -6 -2v-5q9 -3 11 -6h1zM202 45h-8q5 -9 15 -12q-3 6 -7 12zM182 56h-5
q1 -1 5 -2v2z" />
    <glyph glyph-name="L" unicode="L" horiz-adv-x="215" 
d="M212 23q0 -22 -2 -29h-31l-29 1q-34 0 -46 -2q-7 -3 -22 -2q-15 0 -20 3h-14q-8 1 -13 3q0 13 1 40l1 41h2q4 9 2 21l-2 11l-2 9q2 20 2 35h-2q0 3 -1 9t-1 10q3 0 4 3q3 5 -2 8q0 5 2 8q3 7 -2 7v36h-2q0 5 1 16q1 10 1 16q-3 2 -2 9h2v3h-2q-4 3 -4 13h6l-1 26
q-1 17 -1 27h2q2 18 2 27h-2v11h-2q0 6 1 16t1 15h-2v11h-4q-1 6 4 8v72h-4q2 2 4 5l-1 9q-1 5 -3 9h4v3h-4v3h4v17h-4v43h4v11h-4v38h49v1h12v-1h8q5 -15 7 -28q2 -18 -2 -33v-2l-1 -4q-1 -4 0 -9h1v-22h3q0 -1 -1 -3l-1 -4q-2 -6 -1 -10h3v-15q0 -3 -3 -8h3v-87h4l-1 -14
q-1 -8 -3 -14q2 -5 4 -18h-4q0 -5 4 -5v-71h4q-2 -9 -3 -20l-1 -21v-2l1 -2l1 -7q2 -9 2 -14h-4v-31h4q-2 -10 -3 -23l-1 -23q4 -16 5 -47l-1 -26v-25l6 -1q4 -1 6 -3l1 1l1 1q2 3 5 2l1 -2q1 -2 2 -3h12v1h9q7 -1 11 -1v-7l-6 -1q-2 -1 -3 -3q0 -2 1 -7v-9h8q0 8 3 12h5
q0 3 -4 8q5 4 7 7h25q0 -3 2 -6l2 -5h2l-1 -3l-1 -4q-2 -5 0 -9h2zM58 616h-12q-1 4 -3 5v-5h3v-3h2v-3h10v6zM195 39h-2v4q-11 -1 -12 -12h5q-1 -5 -5 -8v-2q5 0 14 6v12zM152 31v4h-2v-6q3 1 4 2h-2z" />
    <glyph glyph-name="M" unicode="M" horiz-adv-x="372" 
d="M317 1l-13 -1h-15q-17 5 -27 0v4h-3q0 2 1 7l2 8h-3q-1 3 2 18l2 11q0 6 -1 10q-5 17 -4 46v26l1 25l-1 10l-1 10q-1 13 -2 19l2 5l2 5q1 8 0 13q-5 0 -4 6q4 0 4 5h-4v81l-2 2l-2 1q0 1 1 1v10h3v13h-3l1 2l1 3q2 4 1 8l-1 1q-2 1 -2 3h3q5 14 1 33q-2 -11 -6 -20l1 -24
l-2 -5q-1 -4 0 -9v-7q0 -3 -2 -3v-20q-1 0 -1 -1q-1 -1 -2 -1v-5l-1 -6q-2 -3 -3 -3l1 -27h-1l-2 -7l-3 -7h-4q0 -1 2 -3l2 -6q3 -7 1 -12h-4q0 -13 -1 -23q1 -3 -2 -3l1 -20h-1v-9l-1 -9q1 0 -3 -3l1 -15l-1 -1q-1 -2 -2 -2v-3l-4 -3q5 -14 5 -28h-4l1 -17l-2 -4
q0 -5 2 -21h-3v-19l-1 -2q-1 -2 -3 -2q-1 -5 2 -14l2 -7v-2l1 -2l-1 -6v-5q-1 -6 -2 -10q-12 1 -29 0h-35v23h-1l1 7v19l-1 16q-1 0 -1 1l-1 1v26h-4v17q-1 10 -1 16q0 2 -2 2v24q-1 16 -1 24h-1v14q-2 0 -3 2l-1 2q-1 2 4 4q0 5 -4 7l1 2v3q1 4 3 7q-2 0 -3 3l-1 2v25l-1 3
q-1 3 -3 3q0 28 -3 42h-1v17h-4l3 10l2 10l-2 1h-3v14h-3q-1 3 1 5l1 2l1 3h-3v3h-3v4l2 4q2 5 0 8h-3q0 16 -1 23l-1 2v12l-1 10h-3q2 9 -1 14l-3 3h-2l-13 3l-4 -7h5v-2q3 -1 6 2q2 0 4 -1h1l2 -1q0 -5 -1 -9h-9v5q-5 -1 -6 -2h-1l-1 -1q0 -1 -6 -2q0 2 -3 3t-3 2h-2v8h-6
v-2h-2q0 -6 2 -9h2v-8h2v-4l4 -4l5 -4q-1 -4 3 -2h2q1 0 1 -2q3 -1 2 -7l-1 -4q-1 -2 0 -3q2 2 5 6l3 5h3v5q1 0 1 1q-1 0 0 3l-3 1l-3 1v6l1 1q1 0 1 1q6 0 7 -5l1 -4q1 -2 3 -3q-2 -13 -2 -114q1 -102 4 -113v-33h-4q0 -7 4 -9v-16h-4q-1 -6 1 -12l2 -5l1 -5q0 -4 -1 -19
v-13l-1 -13q-1 -32 5 -37q0 -10 -3 -14q-10 -2 -23 -3l-23 -1v4h-21v3h-2v-3q-1 -2 -4 -3l-5 -1l-1 3l-1 4q-2 5 1 11h1q1 5 1 22q0 18 -1 29q-2 45 0 103l3 70q0 4 3 7l3 3q1 2 2 5l-8 8q-3 11 -2 29q0 15 2 26q-1 4 -2 9l-1 7h3l-1 21l-2 5l11 4v4h5l-4 5l-6 4l-3 7v32
q0 2 1 10q1 9 1 18q1 27 -2 36h-1q1 0 1 2l2 18l9 2q3 0 7 -3q5 -3 5 -6l1 7q4 11 5 11q-2 4 -3 4h-2q-3 0 -7 2v4h-4q0 -9 -2 -11q-1 -1 -3 0l-3 1q-1 0 -3 -1v4q-1 3 0 10q1 6 4 11h8q7 -7 7 -8l4 6q2 2 -1 6l-2 2q-1 2 -1 3l-14 -6v2q-4 4 -6 20q-1 11 -1 27v59h18
q7 0 15 1h20v3l2 1l1 1h23v2h7v4h15v-4h2v4h12q5 -10 6 -20h-2v-2q0 -3 1 -3q1 1 1 0q0 -6 1 -43t1 -42q1 0 2 -2q0 -3 1 -3q0 -7 2 -19q2 -13 2 -18h2l1 -1q0 -9 1 -13h1v-30q2 0 3 -4q0 -4 1 -29t1 -31h4l-1 -5q-1 -4 -2 -7h4q0 -28 3 -55h5q0 11 3 24l2 10q1 4 2 6v11
l1 12h1v17q1 0 4 6q0 3 1 25v24l1 1h1q1 8 1 20l1 1l1 1q0 9 2 25l6 56v14l3 3q0 14 1 22h2q2 6 3 16l1 16h2l-1 4q-1 3 -1 5l3 1q3 1 5 1q5 5 20 3l12 -2q6 -1 10 -1l1 -1v-2q24 5 56 -2v-107h2q0 -2 -1 -2q-1 1 -1 -2v-20h2v-2h-2q-2 -11 -1 -29l1 -14l2 -12v-27l-1 -6
l-1 -4q-1 -5 0 -5h2q0 -5 -1 -15q-1 -9 -1 -12q0 -7 1 -23q1 -15 1 -23h3q1 -6 -3 -8v-18h3v-57h-3v-1h3q0 -6 -3 -7q0 -7 3 -5v-19l2 -1q1 -1 1 -3h-3v-71h3v-19q-6 0 -3 -5h3v-23h3v-3l-1 -1l-2 -1q-3 -2 -3 -4h3q0 -18 1 -45l1 -22l1 -23q-10 2 -25 1zM251 579h-2l2 -4
l1 -3zM246 565l-8 2v-8q7 0 15 -2v1q1 2 1 4zM252 474q-10 -2 -10 -21h-8q0 -2 1 -3v-2l6 1h5l-1 6h2v4q0 3 -1 5q4 2 6 4v6zM93 173h-4v2l-5 -1l-6 -1v2q-1 1 -8 3v-3h-4v-14h-10q0 -1 -1 -4q-1 -2 -1 -4l1 -1l1 -3l2 1h2q3 1 5 3v-7h3l6 -1l4 12q2 8 4 13h11v3zM68 139
q-2 -1 -3 -2v8h-3v-1h-4q0 -8 -1 -12h4q0 -4 1 -9l1 -4l1 -5h1q0 8 9 26zM71 102l-2 2q-3 3 -4 8q-6 -2 -8 -8l5 -1l3 -2q3 -1 8 -2zM66 61l-2 6h-4v-9h3l1 -1q1 0 4 -2zM54 50v-7l1 2q0 1 1 5h-2zM79 18h-8q0 10 3 14h-7q-2 0 -2 -1q0 1 -3 -1q-1 -10 1 -24l4 3l4 3
q5 3 8 -1v7zM59 14h-4v16h-4l-4 -16h4v-3h8v3z" />
    <glyph glyph-name="N" unicode="N" horiz-adv-x="286" 
d="M280 651q-4 2 -5 2t-2 2h-2v3h9v-7zM41 424q3 7 9 8q-3 -7 -9 -8zM244 1h-10v-1h-12v1h-20v-1h-24v1q-7 7 -3 13l2 3l1 3q1 3 0 8h-1v8h-3l-1 7v7q-1 7 -3 12h-4v25h-4v4q4 0 4 5q-2 1 -8 3q-1 4 1 10l2 4l1 3h-6q0 10 -2 15h-4v17h-2v12h-4v8h-2q-3 4 2 15l-3 1h-2v7h-3
l-2 13l-2 13l-3 12l-2 13q-2 14 1 26h-8v18h-4v2h-8v-5h1v-2l-1 -2q-1 -4 0 -8q0 -3 1 -2v-12l-1 -12h1v-3h-1v-32h-7v-8q11 -1 11 -11q-10 0 -16 -3q3 -5 5 -4h3q2 0 4 -1v-3h1q-1 -7 -5 -12q0 -2 1 -5l3 -6q3 -9 1 -14h-1v-16h1q2 -7 -2 -11l-2 -3q-1 -2 -1 -5h4v-9l1 -1
h1q2 -1 2 -2q0 -17 -3 -26h3q0 -7 -3 -12v-22h3v-18q-1 -11 -3 -18q-13 0 -35 -2l-17 -1l-16 -1v8h3q2 7 -3 7v46l1 3l1 3l1 2h-3v12h-2q0 3 2 5l4 5q6 5 5 6l-4 1l-5 2q-1 4 2 7l3 2q1 1 1 3q0 1 -3 1q-2 1 -3 1v12q4 1 6 4h2l1 1h-6v7l4 1l4 1l2 4t2 3l-5 1l-4 1l-1 -2v-2
q-1 -3 -2 -5l-2 1h-1l-1 1l-1 1q-6 8 8 13q12 4 27 4q-4 3 -11 4q-6 1 -13 1l1 5l1 6h-5q-1 8 -4 6q-2 -2 -4 6h8l9 -1v1h2v4q-2 1 -7 2l-7 1v3l-4 3q-2 1 -5 2v7h12v2l3 2h-6q-1 2 -3 12h6q0 11 11 15v4q-3 -2 -4 -2l-2 -2q-16 1 -19 16q1 0 2 3l2 2l2 2h5q1 1 -3 4l-3 3
q0 2 1 4l3 1l2 2q-1 1 -2 4l-1 5h3q1 3 2 7v4l1 4l-4 1h-4v16q5 1 17 1v4q-2 2 -2 1l-2 2q-4 -1 -6 -2l-3 -1q-3 -2 -10 -4v7q16 2 23 2l-1 3l-1 3l-1 3q0 3 5 6v3l-6 -2q-3 -1 -5 -1q2 3 5 4v4l-8 2l-9 2q0 2 2 4l1 1l1 3q3 1 5 3h12v3h-4q1 4 6 8v4q-7 -1 -14 -3l-5 -2
l-6 -2l1 5q0 2 1 3q16 8 35 11v7q-7 0 -12 4q6 8 6 16q-6 1 -8 8h8l-1 5l-1 5h-6v8q-7 -2 -9 -8h-6v5q-4 1 -6 3h-2q2 10 2 17h27v3q-6 2 -11 2l-5 -1q-4 -1 -7 -1v7q3 1 3 0q1 0 2 1h18v4q-13 4 -27 3q2 7 5 6h2q2 0 5 3v1h5v4h-11v8h-6q4 9 4 20h8v3h-8v4h-4v16h6v3h-8v19
l1 7v7q0 15 -1 26h11l-3 4l1 4q1 3 2 4h-5q-2 2 0 11h-6q1 4 2 7q4 4 13 3h8q5 0 8 1v1q8 2 19 2q12 0 16 -3q3 -4 3 -21v-13q1 -7 2 -11h4v-5h1v-15h3v-8h4v-14h4v-14h1v-9h3v-14h4v-7h3l1 -14v-14l4 -1q2 -1 3 -1v-23h3v-8h2q1 -5 1 -7q-1 -2 -3 -3q0 -3 4 -5l2 -2l2 -1
v-8q8 -15 -2 -20v-4h8l1 -15l1 -16q8 -6 12 -10l-4 -1q2 -4 3 -9v-5l1 -5h4l1 7l1 8q2 11 1 17q-3 2 -3 10l1 5l1 4q2 5 1 10h-3v9h-4q2 5 4 18h-4v23h4v36h-4q-1 4 4 5l-1 6v7q-1 8 -3 14q4 1 5 1t2 1h1q-9 20 -8 29h4l-1 11q-1 7 -3 12h4q-1 5 -4 8v32h4l-1 12q-1 6 -3 10
h-4v9h11v3l16 1h17q20 0 29 -4q0 -6 -1 -13v-17q-1 -24 1 -37l1 -5q1 -3 3 -6h-4l1 -2q1 -1 3 -2h-4v-12h4q0 -5 -4 -5v-18h4q-2 -2 -3 -4l-1 -4h4q-2 -5 -4 -19v-2l1 -3v-8q2 -12 3 -21q2 -30 0 -38h-4v-18h-3v-4l2 -1l3 -2q4 -2 5 -5q0 -6 -3 -8q-3 -7 3 -8q1 -5 -1 -10
l-1 -3l-1 -2h3v-23q-2 -14 -7 -17q4 -6 12 -8v-7l-8 -1h-7v-8h7q1 -6 3 -8l2 -3q2 -2 3 -5h-5l1 -7v-5l-2 -1l-2 -2q0 -3 3 -11h-10v-6h10q0 -11 2 -12h1l1 -1q3 -1 5 -4l-6 -2l-2 -2l-1 -1l1 -5v-6h-1v-1q2 -1 1 -7q-3 -1 -1 -4q0 -1 3 -2q2 -2 2 -5q-4 -1 -5 -3t0 -5l1 -3
v-4q-4 -1 -1 -8l2 -1l1 -1l2 -2v-38h4q1 -7 -4 -8q2 -12 4 -16h-4v-31h4v-43h1q2 -7 2 -21l-1 -9q-1 -5 -1 -6zM56 406h-23q1 4 2 7v1h6l6 -1q3 2 5 4q5 -4 6 -4q0 -7 -2 -7zM56 401q1 -4 0 -5l-2 -1l-2 -1v-4h-2l1 6l1 5h4zM40 390l-1 -1h-2l-4 -1q-5 0 -3 2h3v4h8v-4h-1z
M44 332q-3 1 -4 0l-1 1h2v3h3v-4zM139 283h-11v-9l5 1l3 1h3v7zM91 214h-12v-4h12v4zM101 168h-10v-4h10v4zM104 139h-8v-3h8v3zM81 135l-5 1l-1 -3l-1 -2v-4h2v-1q4 1 6 1q0 1 1 3l1 2l1 2z" />
    <glyph glyph-name="O" unicode="O" 
d="M266 94l-2 1h-4q-1 -3 2 -6l1 -3l1 -2h-4q0 -22 -1 -31h-3l-6 -12l-6 -12l-6 -1l-5 -1l-5 -6l-4 -6h-6l-1 -3l-2 -2h-5v-3l-6 -2l-6 -2v-1q-7 -3 -20 -3v-4h-5v-3q-8 -3 -23 -1l-11 2q-6 2 -9 2v8l-13 -2l-13 -2v3h-12l-1 2l-2 3h-9v2l-2 4h-6q-8 8 -10 14l-6 1
q-2 0 -3 1q-3 12 -3 19l-3 1h-4v11l-2 1h-3q-1 4 2 8l2 3l1 4l-1 1l-2 1q-3 2 -5 4q-1 4 3 8l3 3l2 2h-1q-6 7 -7 12h8v5l-1 5h-4v5h-3l2 4l1 4q5 1 8 4l4 -4q1 4 4 6v3h-8v3l-4 1h-1l-3 1l-1 4v4q-1 4 -2 7h3v15q-4 -2 -3 5q3 2 3 6h-3l2 3l1 2q-1 1 -3 2l-4 1q2 2 3 5l1 3
h3l-1 38q-1 22 -2 38h-4v2h4q1 6 -1 12l-2 5l-1 3h4v8h3q-2 8 -3 9h-4v3h4v24h-4q2 4 3 10l1 9h-4v7h-1v1h1v22h4v1h-4v61q-1 6 -1 8h1v13l-1 12h1v8h4v1h-4v69h4v11h3v9h4v7q1 1 3 2l5 2q0 6 3 10h1l2 1l6 1v3q9 0 18 -3v3h4v3h-8l1 6l1 6l2 1h2q4 1 6 3v1h4v3h12v4h12v3
h14v1q9 3 29 1q7 -1 15 -2q6 -2 11 -3h10v-4l9 -2l8 -2v-4h6q1 -1 2 -3l2 -4h4q7 -5 9 -11l4 -1l3 -1l3 -5l2 -4q2 -6 5 -9v-12h-2v-4h2v-12h4v-23h3q1 -5 -3 -5v-12h3v-37l1 -1h1q1 -1 -1 -4h-1v-44q4 -3 1 -8h-1v-49l1 -1l1 -1q1 -1 -1 -5h-1v-11h1l-1 -2l-1 -2
q-1 -4 1 -8q2 -8 1 -30l-1 -17q0 -8 1 -14h4q2 -4 -1 -5l-2 -1l-1 -1v-30q-1 -2 -1 -5h1v-16h4l-1 -2v-3q-1 -2 -3 -3v-45h4l-1 -6q-1 -4 -3 -6h4v-58h4q1 -5 1 -12zM54 584h-1v-12h1v12zM187 193l-1 18l-1 17q-4 69 -4 157l-1 84l-2 84q-8 16 -13 24l-7 1h-6q-6 1 -10 2v-3
h-15q-2 -2 -7 -6l-4 -3l-4 -3l-1 -5l-1 -5l-3 -12h4v-35q2 0 1 -9q0 -1 -1 -1l-1 1q-1 0 1 -3h1v-10h-1v-7h-4q-1 -2 1 -4h2l1 -1v-40h1v-14h-1q-2 -7 -1 -13l1 -5l1 -5v-16h-1v-35q0 -9 -1 -24l-1 -25q-1 -29 3 -44v-106h4q-2 -2 -3 -6l-1 -5l1 -20q1 -12 3 -21h3v-17h2v-5
q2 0 3 -1l2 -2h1l1 -2v-2q1 -3 2 -5q24 -4 48 7q1 5 3 5v37h4l1 19l1 18l-1 10l-1 10q0 2 1 5l2 8q2 10 1 13h-2zM244 208h-6q2 -2 6 -3v3zM235 70h-5v-6h5v6zM70 107h-4q-4 -8 -8 -12v-2q6 2 12 6v8zM50 82v-14h3l1 7v7h-4z" />
    <glyph glyph-name="P" unicode="P" horiz-adv-x="265" 
d="M248 450v-16l-1 -14v-69h-4v-10h-3q1 -1 2 -4l1 -5h-3q-4 -10 -5 -17h-3q-10 -8 -12 -17h-6v-4q-3 -4 -8 -4q-2 -2 -3 -5l-2 -3h-7q0 -4 -4 -7q-2 -1 -6 -2l-6 -1v-2l-3 -1l-3 -1q-4 -1 -6 -1v-3q-9 -2 -25 -3l-25 -2v-26h-3q3 -4 3 -8q0 -8 -3 -10q2 -8 3 -18v-67h4v-32
h-4q2 -5 3 -11l1 -10h-4v-40q0 -1 -2 -1l-3 -1v-24h5v-11q-6 0 -20 -1h-21q-26 -1 -38 4q0 21 1 52l2 53q2 63 -3 101q-2 6 2 6q0 6 -2 10q0 2 1 1v-1h1q0 7 -2 8v3h2v20h-2l1 12v7l1 7l-1 13v7l-1 8l1 1q1 2 1 4h-2v15h2v2h-2v23h2q0 3 -1 5q-1 1 -1 2v70h-3l1 5l2 5h-3
l1 3l2 2h-3l1 5q1 2 2 3v4h-3l1 5q1 2 2 3h-3v11h3v2l-1 3q-2 5 -2 7v14h3v3h-3v33h2l2 1q3 2 1 7l-2 1q-2 1 -3 2l1 7v8q1 10 2 15h-3v41h-4v8h41v-3h-9v-3h-2q0 -4 1 -9t1 -7q3 0 26 8v6l-3 1l-3 1q-4 1 -6 3h-2v3l16 1l15 1q19 1 31 -2h32v-3h10v-3h8v-2l7 -1q5 -1 8 -2
l1 -2v-5h7q2 -2 8 -11l5 -2l3 -3v-7h3l2 -4l1 -2l1 -3h3v-12h1v-9h4v-19h3v-29h4v-61h1zM194 581q-1 11 -12 12v-8h8v-4h4zM225 542v5l-1 4h-4v6h-3v11l-2 1h-3l-2 6l-1 5q-8 -4 -15 -4v4h-15l5 -5l6 -6q-1 -5 -4 -10h-4q-1 -6 4 -8q1 -7 -4 -6v-3h4q0 -3 -2 -4l-3 -1l-2 -1
v-2h11q4 3 4 6q2 -2 5 -3l3 -1q4 4 4 12q4 1 6 3h2l-3 -8l-2 -9q6 2 8 8h8zM179 601q-3 -1 -3 0l-2 -1q-9 0 -12 4h4v4h-33q-1 3 0 3q0 1 -1 1q-1 5 -4 7l-1 -5q-1 -2 -2 -3h3q5 -12 -7 -18v-4h12v-1h3q3 3 1 5l-2 2l-2 1v4h10v1h5v3h4v-3h4v-5h-8q-1 -4 -4 -7v-1q10 0 19 3
l7 3q5 1 9 2v5zM178 569q-2 2 -6 3h-2l-2 1v-5h10v1zM224 499q-10 14 -7 25h-5v-8l-4 1l-3 1q-3 1 -4 1q-2 -2 -3 -4l-1 -4h5q4 -8 10 -9v-7q0 -3 5 4h7zM186 513h-4l-2 -4l-2 -5v-2h8v11zM186 482q-1 4 -4 5v-5h4zM206 459h-5q1 -1 5 -4v4zM182 474v-12h4l1 6l2 6h-7z
M201 455h-7q1 -1 2 -1q1 1 5 0v1zM182 459h-3v-4h-1v-16h1l1 -2v-2l1 -1l1 -2q4 7 4 18q-4 2 -4 9zM206 436v-20h-4v-3h-12q3 -3 2 -4q0 -1 2 -1q3 -3 7 -3l1 4v4q4 0 15 7q0 1 -3 11h3l1 2l2 3q-3 1 -14 0zM220 408h-6q3 -3 6 -3v3zM201 421v3h-4v-4q3 1 4 -1q1 0 1 2h-1z
M51 573h-6q1 -4 3 -5v-7h3v12zM214 405h-5q1 -2 5 -4v4zM224 387h-7q1 -1 2 -1t5 -1v2zM168 387h-2q-1 3 1 2h1v20h-2v4h2v31q0 3 -1 2q-1 0 -1 1h2v20h-2l1 5l1 5v22h-2l1 4l1 4h-2q-1 7 2 9q1 7 -3 26q-5 17 -9 19q-4 8 -13 9h-8q-4 0 -7 3q-10 0 -17 -4v-158l-1 -19
q-1 -23 1 -28h2v-42l9 1h8l14 1q4 4 4 6h6l1 1l1 2l4 2l1 9l1 8h4v24h2v11zM194 397q0 3 -1 5t-3 3q-5 -4 -11 -4q2 -11 15 -16v-4h3l1 4l1 3q2 4 2 9h-7zM221 370l-2 2q-1 2 -7 4q0 -7 5 -12v-2h-11v-5q1 -3 3 -5q9 2 11 10q3 1 4 5zM56 507h-5q2 -2 5 -3v3zM212 341
q-1 1 -2 4l-1 6h-3v1h-4v-17h7v6h3zM60 487h-7q2 -1 7 -1v1zM220 318q-2 5 -3 6v-2l-4 1l-4 1v-2h-3v-4q2 -1 3 -2l1 -2q1 -2 7 -4v8h3zM197 557v2h-3q3 5 8 9v-7h7v-4h-12zM194 542v6h3v-6h-3z" />
    <glyph glyph-name="Q" unicode="Q" horiz-adv-x="300" 
d="M306 -7q-5 -3 -10 -7l-7 -8q-10 -10 -20 -12v-1l-1 -2q-1 -2 -4 -1v4l-4 2l-3 2q-4 2 -6 4v7l-4 1h-5q-1 2 -2 5l-1 6q-1 0 -9 4v6l-2 1l-2 1v4q-2 1 -8 -2l-5 -3q-2 -1 -3 -1v-2h-8v-4h-5v-4h-40l-4 -1l-5 -1l-11 -1q-13 -1 -21 3h-5v4h-11v4q-4 0 -12 2q-1 11 2 14
q-4 5 -10 2l-3 -1l-3 -1q-4 -1 -8 0q0 5 -8 6q-1 8 -9 16h-3v11h-4v8h-1v16h-3v25l-1 25h3v10h-3v7h-4q-1 4 1 8l2 3l1 3q-1 18 -1 52v24l-1 25q-5 0 -4 5h4v7h3v1h-3v21h3v2h-3v12l-1 11h3l-2 10q-1 6 -1 11h3l-2 10q-1 6 -1 9q3 3 3 8h-3q-1 5 -1 11v9h3q0 7 -3 11
q0 2 1 6l2 7v21l-2 1h-2q-4 1 -3 4q2 2 6 3v16h-3q7 9 3 16h-3q0 8 8 19h11v7q-2 2 -6 2h-5l-4 1q0 1 -2 5q-2 2 -3 6l1 1l1 1v2l1 2h5v5q-3 2 -4 1q-1 0 -1 2h-3q-2 5 2 7l2 2q1 1 0 4q-1 2 -4 4q-2 6 1 9l2 1q1 1 1 2v8l-1 8q0 1 2 2h1l1 1v8q1 1 7 4l1 8v9h3l3 4l5 5h4v1
h4v7q5 1 10 5l5 4l4 3h7v4h12v-4h4v4q3 -2 7 -3h4l4 -1q0 4 -1 8l9 1h9q12 1 20 3v2h1v-2h7v-4h14q1 -2 1 -4h14v-4q3 -2 7 -3l7 -1l2 -2l1 -2h6q1 -3 4 -6l5 -6h9q0 -1 2 -7h3q0 -1 1 -4l1 -3l1 -4l2 -1l2 -1l2 -1q1 -1 3 -6t3 -12q4 -17 -1 -22h-1v-4h9l-1 -3l-1 -4
q-2 -5 -2 -9h-4v-2h4l1 -23v-23h-4q2 -4 4 -18h-4v-17l2 -1h1q1 0 1 -2l-1 -3l-1 -3l-1 -2h4l-1 -2l-1 -4q-2 -6 -2 -11h4l-1 -9q-1 -5 -3 -9v-17l1 -18h4v-13h-4v-29h4q2 -5 0 -14l-2 -6q-1 -4 -1 -5q0 -24 1 -44q1 -26 4 -41q3 -5 -4 -8l1 -19v-23h4l-1 -18v-20
q-1 -23 -2 -38q0 -1 -1 -4l-2 -6q-3 -10 -1 -14h3v-6h1q2 -3 4 -8h-8q0 -3 2 -8l2 -8h-12q0 -9 -5 -14v-2q9 0 14 2q4 -8 4 -14q22 -2 32 -2l4 4h6v-12zM188 585q-2 1 -3 4l-1 4h-2q0 2 1 3q1 2 1 3h-12q0 -3 2 -5l1 -2q0 -2 1 -5h-4v-5h12v3h4zM206 566q3 -10 0 -15h-4
q0 -8 4 -9v-7h-4l2 -2l1 -1l1 -1l-2 -1l-2 -1q-1 -2 -3 -2v-2q11 0 15 2v4q4 0 6 -4q1 0 4 2l3 1l2 1v-6l4 1l5 1v10l1 9q0 9 1 16q-15 5 -34 4zM197 562q-4 0 -8 4v-7h8v3zM241 490l-1 5l-1 4q-1 6 -1 9h-4q1 1 2 4l2 5h-7v-9l-5 1l-6 1l-1 -3q-1 -3 -1 -5h4q3 -7 10 -8v-7
q4 1 7 3h2zM207 494q0 6 -1 12h-4q1 -4 -1 -6l-1 -2l-2 -1v-3h9zM207 436l-2 10q-2 6 -2 10q4 4 4 8h-4v23l-4 -1l-4 -1v-17h3v-7h2v-9h-2l1 -5v-4l1 -7h7zM233 429l-5 -1v-21h-4l2 -2h1q2 1 4 0q3 12 9 24h-7zM222 413v3h-2v-6q3 2 4 3h-2zM213 405q1 -5 3 -7t6 -3l1 5l1 5
h-11zM50 547q-1 5 -3 7v5h-1v-12h4zM215 393l-2 1l-3 1v-5h-6v-8l8 -5l8 -6q2 7 2 19q-4 1 -7 3zM66 522q-1 4 -4 5q-2 7 -8 8l4 -10h4v-3h4zM186 243q-1 49 -2 83q0 45 1 68h-2q-3 4 2 4q0 30 -1 43h2q1 5 -1 14l-2 7l-1 6q0 9 2 29q-2 5 -5 13q-2 9 -2 15l1 9v9
q0 12 -4 16v7q-4 6 -20 9q-15 2 -24 -1v-4h-5q-1 -1 -6 -8q-4 -7 -4 -8v-12h-3q-3 -19 -3 -55h4v-2h-4q0 -44 2 -130l-1 -19v-17q-1 -21 2 -31l-1 -8v-7q-1 -9 -3 -16h4v-8h4v-9l1 -10h-4v-19h4q-2 -11 -3 -24v-23l1 -22q1 -13 3 -22q-2 -2 -3 -8v-4l-1 -4h4q0 -1 -1 -5
l-1 -3l-1 -4q-2 -12 0 -18h4v-5q1 -3 3 -6q8 -3 11 -8l12 -1h10q12 0 18 7h3q-2 7 -7 10l-4 2q-3 1 -4 4v7h-4q-1 3 -8 12l-4 2l-1 2l-3 1q-2 3 -3 7v4l-1 4h-3l-1 3q-1 3 -1 5q7 3 12 13q19 5 28 24q2 -1 7 -2l4 -1l4 -1zM97 293l-1 32h-1l-1 -3l-2 -4q-2 -4 -1 -9l2 -1
q2 -2 2 -4h-4l1 -17v-15h-6v-8l4 -1h3q3 -1 4 -2v32zM74 276h-12v-4h12v4zM96 253q-4 0 -16 -4q0 -1 2 -2l2 -2h12v8zM97 234l-1 4h-4q1 -7 5 -8v4zM87 230h-12v-3h12v3zM66 235h-8l1 -2h8zM87 200h-6l2 -1q1 1 4 0v1zM59 222h-8v-4h8v4zM66 197q-3 1 -3 2l-4 -8v-1h4v-3
q2 3 4 3q1 1 2 3t2 2q-3 0 -5 2zM65 43q-2 9 -8 15v-11h4v-4h4z" />
    <glyph glyph-name="R" unicode="R" horiz-adv-x="275" 
d="M232 -8l-20 -1q-22 -1 -37 -4v5q-2 2 -1 10v7q-1 5 -3 9h-2v7h-2v17h-4v31h-4q0 2 -1 9l-1 10h-2v17h-2q0 2 -1 6q-1 3 -1 7h-4q0 1 1 6t1 7h-4v11h-1l-1 9l-1 9q-2 11 -2 17h-4v27l-2 1h-2v14h-4q0 6 4 16h-4q-7 25 -7 39q-3 -6 -2 -33v-21q1 -12 1 -16q0 -23 1 -68v-85
l1 -19q1 -22 6 -29q0 -10 -3 -15h-7l-6 1q-8 0 -15 -2v-4q-29 0 -52 4q0 1 1 5l1 3l1 4h-3q-1 3 -2 8l-1 9h3v42q-1 1 -3 10h3l-2 5l-1 4v91h3v4h-3v22h-3v4h3v12h-3v13h3q1 4 -3 5q0 2 2 6q1 4 1 5h-3q-1 8 3 8q1 7 -3 19h3v3h-3v47h-2v3h2l-1 6l-1 6q-1 6 0 9h2v23h-2
q0 13 2 45h-2q-1 4 0 9l1 4l1 3h-2q-1 8 -1 27l-1 14q0 8 -1 13l1 10l2 9h-3v22h-4l1 8v7q1 8 3 14v88q5 2 11 3h5l6 1v-4h15v4h40v-4q42 0 60 -3v-1h9v-5l6 -1l6 -1q7 -1 11 -4l1 -3q1 -1 3 -2h6l3 -5q1 -2 2 -3h7v-3l1 -1l2 -2l5 -4q12 -17 16 -56q2 -16 3 -36v-114h-3
v-11l-1 -12q-5 -1 -7 -3v-6h-4q-3 -5 -4 -11q-7 -4 -8 -9h-10q0 -2 -1 -4q-1 -3 -1 -4l-5 -1q-3 -1 -5 -2v-1h-5v-4l-3 -1h-4q-5 -1 -8 -2v-2h-3q2 -6 3 -15h4v-10h3v-16h1v-15q2 0 3 -2l1 -3v-11h3v-8q1 -5 4 -5v-10h1l1 -13q1 -7 3 -13h3v-12h3l1 -16q1 -11 1 -17
q3 -7 5 -17l5 -19q6 -25 11 -36l2 -23l3 -23l3 -11l4 -11q4 -13 4 -25h-20zM80 584q-2 4 -4 5v4h-2v-9h6zM175 439q0 6 1 21v22q0 27 -5 41v24h-2v12h-2v9h-4q-5 8 -21 11q-6 0 -15 1h-16l1 -50l2 -50q2 -62 2 -99q35 0 53 9q2 5 2 14h4v35z" />
    <glyph glyph-name="S" unicode="S" horiz-adv-x="232" 
d="M222 67q-1 -1 -1 -3l-1 -4q-1 -6 -2 -7l-2 -9q-1 0 -2 -2q-1 -3 -2 -3q0 -1 -2 -3q-3 -1 -3 -3h-2v-4l-3 -2l-3 -2v-6l-4 -4h-8v-3q-1 -2 -3 -3h-5q-2 -5 -3 -6h-5l-2 -3q-1 -1 -1 -2h-6v-3h-4v-4h-9v-3h-12v-1q-6 -3 -17 -1l-9 1l-3 1h-3l-12 2l-12 1v4h-4v3h-7
q-3 3 -11 8l-12 9v4q-4 4 -8 4q-3 3 -7 13l-3 9q-1 3 -2 7q3 3 4 5q4 0 7 -1q4 -1 7 -3v7l12 7l13 7q1 2 2 3l1 3l-3 1l-4 2l-7 3l-1 5l-1 6h4q0 10 -2 16h2v1q4 2 6 -1l1 -4l1 -3l2 2l2 1q2 2 4 5h11v-1q3 -3 4 -10l1 -7v-7q1 -19 7 -24q1 -3 4 -6l3 -3l4 -3q18 0 28 12
q7 12 7 23q0 16 -1 28l-1 12l-3 13l-2 2l1 6l-2 2l1 7l-3 1q0 10 -6 30h-2v10l-3 4v7l-3 4v4h-4v10l-1 10l-4 5v12h-3l-3 6h-2l-2 8l-2 8l-1 4l-5 3l-1 5h-2l-1 7h-3l-2 9l-4 2l-1 5l-2 -1l-2 11l-4 2l-2 12l-5 3l-6 15h-1v4h-3v8l-4 4q-1 6 -2 10l-1 3q-1 2 -1 5h-4l-2 5
l-1 5q-1 6 -3 9l-7 17q-2 7 -3 10v2l-1 1q0 1 -2 12l-5 15v8h-3l1 13h-4l1 10h-2l1 8h-2l3 11h-4l2 9l-2 17q-1 9 1 23l2 11q1 6 1 8l8 9h1v5h3v6q1 0 7 4v4h1q8 8 10 12h6q1 1 1 3l1 4h6q2 1 2 5h8v3l3 1l5 1q5 1 8 3v3h16l4 2h18v-2h23v-3q4 -2 12 -3l5 -1l5 -1q0 -1 1 -4
q1 -2 2 -3h6l6 -1v-3q4 -4 13 -12v-7h5l4 -1q2 -8 6 -22h3v-16h2v-12h-2q0 -3 1 -9t1 -10h3q0 -3 -1 -7l-1 -4l-1 -4l2 -6l3 -5q2 -7 2 -16h-32v-3h-12v3q-7 3 -17 1l-7 -2l-6 -2q-3 18 -3 36h3v17h-3q0 13 -12 28h-29v-1h-5q-3 -3 -6 -7q-3 -6 -4 -11l-3 -20l2 -13
q2 -3 1 -11l-1 -6v-5h1l2 -9l3 -4v-5h3l-1 -8l3 -4l2 -6h2l-1 -9l5 -8l2 -7l1 -7q1 -9 3 -16l3 -4l1 -11h3l1 -4l6 -9q2 -7 9 -23l2 1l1 -8l3 -4l8 -13h3l1 -8h2q7 -15 11 -31h1v-5l5 -2v-5h3q3 -13 5 -16h1v-12h3l4 -10l4 -4v-7l4 -4v-14h4q1 -4 2 -12l2 -12h2v-4h2
q5 -18 6 -33h2l-2 -8l2 -4l-1 -4l3 -1l-1 -8l3 -4l-2 -8h1l-2 -20h3v-8l2 -9zM53 101q-6 2 -8 8h8v-8zM43 101q-4 -5 -12 -6q-3 -3 -7 -4l-2 6l-3 6q4 2 5 10h10q-3 -6 -3 -10h8v-2h4zM27 60v-3h-3v7h-1l1 3v5h3v-8h4v-4h-4zM102 9q-1 3 -1 4l-1 2v-6h2zM70 45h-1v4
q-13 -1 -16 -16h-6v-4h14q3 7 9 12v4zM45 42q-1 4 -1 5l-1 2v-7h2z" />
    <glyph glyph-name="T" unicode="T" horiz-adv-x="211" 
d="M210 602q0 -17 -4 -25q-10 -1 -28 -1l-17 1h-17v-6h-4v-4h4l-1 -3l-1 -3q-2 -4 -2 -6h4v-218h-4l1 -5l2 -5q3 -6 1 -12h-4q0 -3 2 -7l2 -6h-4q0 -14 -2 -21h-24v-5h8v-3q4 -2 8 3q4 0 6 -1l2 -1l2 -1q0 -7 -2 -12h-12v7q-7 -1 -11 -4q-3 -1 -6 -4q-6 -7 -14 -8q0 4 1 8
l2 8h-3v11h-9v-3h-3q0 -8 3 -12h3v-12h2v-5q2 -1 4 -3q2 -1 3 -3h12q-1 -5 -3 -11l-2 -5l-2 -6q10 -4 11 -7q4 2 7 8l3 4l2 3h4v6l1 1q0 1 1 5l-4 1l-5 1v9l2 1l1 1q10 0 18 -5q-3 -16 -3 -43t3 -38v-33h-4q0 -7 4 -9v-16h-4q-1 -6 1 -12l2 -5l1 -5q0 -4 -1 -19v-13l-1 -13
q-1 -32 5 -37q0 -10 -3 -14q-10 -2 -23 -3l-23 -1v4h-21v3h-2v-3q-1 -2 -4 -3l-5 -1l-1 3l-1 4q-2 5 1 11h1q1 5 1 22q0 18 -1 29q-1 15 0 49v123l1 6v5q1 7 2 12h-3q-3 10 -1 30l2 14l1 7l1 5q-1 4 -2 9l-1 7h3v26h-3v8h-1v4h1v4h3v40q0 2 1 10q1 9 1 18q1 27 -2 36h-1
q1 0 1 2v16h22q2 0 4 -8h3q2 8 8 8q0 17 -4 22q-2 3 -16 9v5h-5q0 -15 -6 -20q-1 -1 -6 -4v4q-2 3 0 12q1 6 4 14h10l2 -3q1 -2 1 -3h5q2 2 3 5l1 4h-20v2q-5 4 -6 18v24h-69v59l103 2q69 1 103 1q2 -4 4 -5v-30zM91 577q-10 -2 -14 -2q0 -4 -1 -10t-1 -9h6v3q2 2 2 3l2 3
q1 2 6 2v10zM98 449q-6 8 -17 12v-8l4 -2l4 -2h9zM91 438h-10v-11h8v3h2v8zM98 404l-1 2v2l-1 1l-1 2v-7h3zM91 415q-6 0 -14 -4v-4q2 0 5 -1l4 -2q3 9 5 10v1zM123 338h-5v-5h5v5zM89 360v3l-1 5q-2 5 -2 8h-9l1 -7q1 -4 3 -8h-4q-3 -14 6 -19v-5h3v23h3zM126 306l-4 8v8
q-2 2 -3 1l-1 2h-12q-4 -10 4 -15v-4q2 3 5 4q3 2 7 0v-4h4zM112 276h-9q2 -6 9 -8v8zM112 153q1 3 -1 4l-1 1v4h-4l-1 -7q-1 -3 -2 -5q4 1 7 3h2z" />
    <glyph glyph-name="U" unicode="U" horiz-adv-x="282" 
d="M60 639h-2l-1 1l-1 1q2 0 6 -3zM42 629v-3h-4v3h-4v9l1 3h18v-8h3v-4h-14zM38 594v4h4v-4h-4zM50 556q5 -2 6 -4q-3 1 -6 4zM36 563q-4 -2 -6 -2v8h4q0 2 1 2t3 2q2 -7 4 -9q-3 0 -6 -1zM251 177q0 -6 -3 -10l-3 -4q-1 -3 -1 -7h4q2 -9 0 -32q-1 -23 -4 -26v-4h4v-20h-4
v-3h4q0 -8 -4 -8v-14h-2v-9q-1 -1 -4 -3q-3 -1 -5 -3v-6q-4 -3 -8 -4v-5h-7l-2 -3l-3 -4q-3 -5 -7 -8h-4l-1 -2q-1 -2 -3 -3l-3 -1h-5q-5 -1 -8 -3v-4h-5v-1h-17v-3q-9 -3 -22 -1q-11 1 -17 5h-2q-2 5 3 7h3l2 1q0 2 -1 4q-1 3 -1 4h-12v8h-2v4q-4 -3 -6 -10t-2 -14
q-6 3 -7 4h-4q-1 5 4 8l3 2l4 2v2q-4 1 -8 0l-3 -1l-1 -1q1 5 5 8v9h-4v4h-1v-7h-7q0 13 -8 15q-1 -3 -4 -6l-1 -4l-1 -5h2q2 -3 5 -5l2 -1h2q2 -2 3 -12h-8q-3 8 -5 8l-1 -1h-1q-2 0 -5 1q-2 5 -7 12l-4 5l-3 5q-1 2 -2 10l-2 16q-3 23 -1 28q3 1 1 8h-1l1 8v8h-1
q-3 15 -3 32h3v12h-3q-3 6 3 6q-3 12 -3 25h4q0 5 -2 10l-1 5l-1 5h4v9q-1 6 -1 10q4 -1 25 0v-9h10v-8h11v4h1q2 3 1 7l-1 3l-1 3h5l1 4v4q1 6 2 9h-3l-1 2v3q-1 2 -3 3l4 2l3 2v6q-2 1 -4 0h-1l-2 2q-6 0 -9 -2q-4 -3 -3 -10q3 0 0 -5v-1l-1 -1q0 -2 1 -6q3 0 0 -4v-8h-4
v-4h-4l2 8q1 5 2 7q-5 1 -12 1v8h12v4q-6 1 -20 11q-4 -12 -3 -15h3q0 -4 -3 -8q0 -2 3 -11h-6l-2 14l-2 14h-2q-1 1 -2 3q0 3 3 12h-3v5h-4v15h4q-2 6 -4 21h7v9h-2l-2 1q-3 1 -3 6q1 1 3 1l4 1q-6 6 -7 9q3 4 5 18q1 13 -1 20q-2 0 -4 1l-3 2l2 6l1 6h4v9h-7v9h7q0 9 3 15
h8v8h5v-8h10q2 5 6 3h2l3 -1q5 -2 9 -2v8h-4q-1 5 -4 6v4h-8v-5h-16v1h-6v4q-2 2 -5 2h-3l-4 1q2 6 4 8h11q-1 3 -7 16q2 1 4 3l3 3q2 5 3 5q2 2 4 2l2 -1q3 0 6 4q2 -1 4 -8q8 4 8 16q-4 0 -7 -2l-3 -2l-2 -1q-2 3 -3 7v3l-1 3h-2v24h-4l-1 2l-1 1q-2 -7 2 -12v-31h-4
l-4 -1l-3 -5l-2 -6h-3v11l-4 1h-3v22h-1q-1 1 1 7l1 5q0 3 -1 6h-1q0 10 8 15v4q4 -4 20 -4q-2 9 0 18h-9v6h5v6l-3 -1l-3 -1q-3 -2 -6 -2l-1 4l-1 3q-1 5 -2 9h14v-3h-6v-7h12v22l-2 -1h-2l-1 -1l-1 -1h-3v8q-9 0 -18 8v12q18 -2 29 -4v4q16 6 16 23q10 0 17 -2l5 -3l5 -2
v-31q0 -19 4 -29v-90q1 -26 2 -35v-64h3q0 -7 -3 -7q0 -4 2 -14l1 -8v-8h-3v-5h3q0 -3 -1 -2q-2 0 -2 -2q0 -1 2 -4l1 -4q-4 -3 -3 -10h3v-48l-1 -1l-1 -1q-2 -2 -1 -6h3v-5h3q-2 -7 -3 -17v-18h3v-36q-6 -3 -3 -10h3v-53h2v-63h4v-8q2 -1 4 -3l4 -4q32 0 35 19q3 3 3 19
l-1 13v138h3l-1 9l-2 4v4q4 15 2 51l-3 30q-1 18 -1 29v36q0 22 -3 31v5h3v19q-6 3 -3 9q3 3 3 7q-3 1 -3 5l1 5q1 2 2 3h-3l1 4v4q1 6 2 8h-3v35h-4l1 8q1 5 3 9q2 49 0 89l19 -1l20 -1q25 -2 40 -2q2 -2 3 -4l1 -4l-3 -1l-2 -1q-2 -2 -3 -2l1 -19l1 -20h2q3 -5 -2 -5v-47
h2v-15h-2v-19h2q0 -2 -1 -8q0 -6 -1 -8h2v-111h4v-72h3v-44h-3q-2 -7 0 -15l2 -5q1 -3 1 -4h-3v-30h3v-17h-3v-13h3zM107 -9v12q6 -3 9 -12h-9zM76 586h-6v-4h6v4zM80 561h-4l2 -1q0 -1 2 -1v2zM90 511l-2 2l-4 -3l-1 5q-1 2 -3 4h-4v-9q-4 -1 -4 -9q6 -1 8 -5h4q2 2 -4 8
l1 1l1 2q0 2 2 1v-4q4 1 7 4l1 2zM80 472q0 1 -8 3q0 2 -2 5v-5h2v-7h8v4zM58 475q-1 1 -1 2q0 -2 -1 -1l-3 -1v-3l4 -1q2 -1 5 -3q-1 5 -4 7zM84 424h-4q0 -1 4 -4v4zM80 416h-4v-10h4v10zM76 420h-8v-8h-6l2 -5h2l1 -1h1v6q1 2 2 3l2 1l2 1q0 -1 2 0v3zM96 361h-5v-5h5v5z
M91 379h-11q-3 0 -3 -1q1 -1 -1 -1l-7 1l-7 1q0 -2 2 -6v-2l6 1q3 1 6 1q-1 -3 -4 -5q1 -4 4 -7v-1h8v13h7v6zM80 356h-8v-4h4v-3h4v7zM218 198q2 -4 4 -5v2l3 3h-7zM72 335q-4 12 -4 33q-5 -2 -6 -3h-4v-9q5 -2 6 -4q-1 1 -4 2t-4 2v-4h-3v-3h9l-2 -5l-2 -6h10v-3h4z
M99 289q-5 2 -7 4l-1 1v2h1l2 1q3 1 5 4l-2 8l-3 7q-3 8 -3 16l-5 -1l-6 -1v-9q8 -4 11 -8h-7q0 1 -8 1q-1 -7 -3 -9l-1 -2l-2 -2q1 -2 2 -3l4 -3q4 -2 4 -6v-4h4v-7h-12q1 -1 2 -3l2 -6l4 1l4 1q5 2 7 6q2 1 2 2v2q0 2 6 4v4zM233 153h-11l-3 -4l-2 -4q3 -1 8 0l3 1l2 1v4
h3v2zM225 123v4h-3v-5q4 1 4 -1l2 2h-3zM76 264q-1 1 -2 4l-1 2l-1 3h-4q1 -4 0 -5l2 -2v-2h6zM92 207v3q0 1 -1 1v-4h1zM103 181q-4 12 -4 21h-7q3 -11 0 -21h11zM66 211l-4 1l-4 -2q0 -3 2 -4l2 -1l2 -1v-6h4v9l1 2q0 -1 1 1zM70 183l-1 3l-1 2q-2 3 -4 5q-1 -2 -2 -5v-5
h2v-2h4v2h2zM88 174v-3h-4v-12q7 -3 8 -8q5 1 5 7v6q-1 6 -1 10h-8zM69 176q-5 -1 -7 -2q0 -3 2 -5v-4q10 4 12 12zM84 122l-1 3q-1 3 -3 5h-10q1 -3 4 -5l3 -1l3 -2h4zM103 110q-7 0 -10 2l-3 1q-2 1 -6 2l-2 -6l-2 -7q-2 -8 -4 -11v-3h-6q1 -1 1 -2h1q2 1 4 0v2l6 2l4 2
q2 1 6 -4h4v14h7v8zM70 115q-1 5 -6 8l-2 -2v-6h2v-4h4v4h2zM153 19q-1 5 -3 6v-6h3zM84 88v-8h4q0 5 3 8h-7zM58 102q2 -3 4 -4v1l2 3h-6zM144 7l-2 8h-4v4h-2v-4q-8 -3 -9 -11q7 -1 9 -5h2v8h6zM88 67q-9 -2 -12 -4q0 -4 4 -14h8v18zM72 60h-2l1 -1h1v1zM91 102v-3h-3v8
q2 -1 4 -5h-1z" />
    <glyph glyph-name="V" unicode="V" horiz-adv-x="250" 
d="M236 623l-2 -7l-2 -5v-17l-1 -18h-3v-21l-1 -21h-1q0 -16 -1 -23l-1 -2h-2q-1 0 -1 -1l1 -3l1 -2q3 -3 2 -7h-4q0 -8 -2 -24q-1 0 -1 -1l-1 -2v-14l-1 -15h-3v-13q-1 -8 -1 -14l-1 -3q-1 -8 -1 -27h-3q-2 -4 0 -10l2 -5v-5h-3v-4h-3l1 -3l1 -2q2 -3 1 -7h-3v-16l-2 -1
l-3 -1l3 -12l2 -12h-4v-21h-1q-3 -17 -3 -46q-2 0 -3 -3l-1 -3v-25l-1 -2q-1 -3 -3 -3q2 -3 3 -7v-3l1 -2q-4 -2 -4 -7q5 -2 4 -4l-1 -2q-1 -2 -3 -2v-14h-1v-24q-1 -15 -1 -24q-2 0 -2 -2v-16q-1 -11 -1 -17h-4v-26l-1 -1q0 -1 -1 -1v-16l-1 -15q0 -1 1 -4v-7h-1v-23h-45
q-25 1 -38 0q-2 4 -3 10v5l-1 6l1 2v2l2 7q2 9 1 14q-2 0 -3 2l-1 2v19h-3q0 4 1 10v11l-2 5v19h-4q0 15 4 31l-4 3v4q-1 0 -2 2l-1 1v17q-4 3 -3 3v10l-1 10h-1v23q-3 0 -2 3q-2 22 -2 26h-4q-2 5 1 13l2 6q1 3 1 4h-4l-2 8l-3 7h-1v31q-1 0 -3 3v6l-1 6q-1 0 -2 2
q-1 1 -2 1v22q-2 0 -2 3q0 10 -1 18l-2 6v26q-10 21 -6 70q4 -3 8 -5q-1 -2 -1 -5v-4h2v-6h6l5 -1l1 2v3h-8q-1 19 -13 21v8h-6q-1 12 3 19q-2 1 -5 3q-3 1 -4 2q-2 2 -1 16l1 12v13h-7v5l8 2l7 2q8 3 17 3v8q-5 -2 -13 -4l-7 -2l-6 -2q-2 2 -3 8h-4v4h4q1 3 -4 8v10h4l3 4
l3 -4q-4 -3 -6 -8h3q2 -10 3 -14l4 1q2 1 4 3l4 8h-4v5h-3l-1 7v7q0 9 -3 11q-1 4 -1 5t-1 2q-4 -7 -6 -15h3q1 -2 1 -5h-2l-3 1l-3 1q-1 2 -2 6l-2 8q-2 11 -4 13q0 11 4 19q3 0 14 1l9 1l11 1q25 2 31 -3q2 0 5 -1l3 -1q0 -2 -1 -5l-1 -4h2l1 -16q1 -10 3 -16h2
q1 -8 1 -22l3 -3v-14l3 -54q2 -20 2 -29q1 0 1 -1l1 -2q0 -13 1 -23h2l1 -1l1 -9v-10q3 -45 4 -45v-19h2l1 -14v-13q1 -3 2 -7q1 -6 2 -11q3 -16 3 -28h6l2 32l2 32h4l-2 8l-1 6h4q0 6 1 35t1 34q2 5 4 5v34h1q1 5 1 15l1 1q1 1 2 1l1 18q1 11 1 18q1 0 2 3q0 2 1 2
q0 5 1 42t1 43q0 1 1 0q1 0 1 3v2h-2q1 10 6 20h12v-4h2v4h31v-4h7v-2h23l1 -1l2 -1q-1 -6 -4 -14zM68 623q-3 -4 -8 -1l-4 3l-4 3q-2 -14 -1 -24l3 -1l2 -1h7q-3 4 -3 14h8v7zM48 623h-8v-3h-4l4 -16h4v16h4v3zM45 584q-1 4 -1 5t-1 2v-7h2zM55 578h-1l-1 -1q-1 0 -1 -1h-3
v-9h4l2 6l2 6zM54 533l-3 -2l-5 -1q2 -6 8 -8q1 5 4 8l2 2l2 3q-5 -1 -8 -2zM54 520h-1l-1 -5l-1 -4q-1 -5 -1 -9h-4q1 -4 1 -12h4v-1h3v8q1 -1 3 -2l6 -1q-9 18 -9 26zM82 464h-11q-2 5 -4 13l-4 12h-6l-3 -1v-7q-2 2 -5 3h-2l-2 1l-1 -2q0 -1 -1 -2q0 -2 1 -4q1 -3 1 -4
h10v-14h4v-3q7 2 8 3v2l6 -1l5 -1v2h4v3zM95 413q0 13 -6 16l-2 3v-5q-2 -2 -6 -2h-3l-3 -1q7 -5 12 -6v-5h8zM89 352v-8h2l1 4l1 4h-4zM81 323v-2q0 -8 1 -12h1q0 2 1 6t1 8h-4zM70 309v12h-1q-4 -5 -2 -12h3zM71 305v-4h5l5 -1q0 3 1 5h-11zM70 298h-4v-1q0 -1 3 -1v-2h1
v4zM78 278l-2 8l-1 7h-4v-15h7z" />
    <glyph glyph-name="W" unicode="W" horiz-adv-x="405" 
d="M392 625q-4 -2 -6 -2q3 -8 4 -17v-8l1 -8h-5v-17h1v-3l-2 -1q-1 -1 -2 -3v-12h-4l1 -7l1 -6q1 -7 2 -10h-4v-12h-3v-23q-4 -12 -7 -36l-3 -18q-1 -10 -3 -17q1 -11 1 -27h-3v-23h-4v-23h-3v-12h-1q-4 -21 -4 -48q-4 -12 -9 -38l-4 -20l-5 -20v-49q-3 -8 -7 -23l-3 -12
l-2 -10v-20q-12 -39 -5 -88h-6v-8h-3v-4h-42q-28 2 -33 9l-1 1h-1q-2 1 -3 3v9l-1 10h5q0 56 -8 86v36h-4v30h-1v20h-3q-2 17 -3 44l-2 44h-3q-1 18 -2 40l-3 39h-3l-2 -30l-3 -31h-3v-18h-3v-15h-4v-23h-1v-31h-4q1 -5 1 -13v-14h-3v-16q-4 -16 -8 -51l-4 -27
q-2 -14 -4 -24v-38h1v-8h3v-5l-1 -5q0 -6 -1 -9h-5v-9h-4v-5q-32 0 -65 3q-1 5 -3 14l-2 8l-2 8h-2v28h-2v19h-4v19h-3v30h-2v25h-3v17h-3v46h-4q-1 11 -1 31h-2v12h-3v31q-5 14 -8 43l-3 22q-1 12 -4 21v35h-3v8q-1 6 -1 8h-2v23h-3v23h-3v25h-3v27h-3v23h-2q-1 14 -4 43
l-2 21l-2 21l15 3q12 1 23 2q30 1 35 -6h8l2 -23l2 -22q2 -26 2 -42h4v-60h1v-24h4v-24q2 1 3 1q0 -16 1 -24h4q0 -9 1 -25v-26h3v-38h4v-22h3v-5h1q1 -5 0 -9l-1 -2v-3q2 1 5 4h4q-3 5 0 24q-6 -2 -8 -4h-1v10q6 2 8 5l1 4q1 2 4 4q0 6 -1 15q-1 10 -1 12h2v5q-8 4 -4 13
l2 2l1 1l1 2v13h4v10h2q0 1 -1 7l-1 5l-1 6l2 14h4q0 5 -4 5v19h4v58q4 0 4 4v19q5 18 7 48q2 23 1 44h3v5q50 0 80 -5q1 -5 2 -18l1 -12l1 -12q3 -30 5 -45v-50h4v-26h2v-29h3v-13l1 -14h3v-32h2l1 -19l2 -19q2 -24 4 -41h2q2 -7 10 -9q-4 12 -4 18h4q0 6 1 16v32
q-1 12 -1 16l2 2q1 1 2 3v13h4v10h3q0 1 -1 4l-2 4q-3 7 -1 11h3q0 3 1 8l1 7h3v44h3q0 9 2 24q1 15 1 23v37h3l1 35q0 22 1 33h2v5h41v4h3v-4h15v-4h23v-2q2 0 4 -2q-2 -4 -5 -6zM284 284h-5q0 2 -4 5v-1h-2q1 -5 10 -14h1v10zM287 270l-2 -2v-2q0 -2 -1 -2q-1 1 -3 1l-6 1
v-2h4v-4h8v10zM269 69q-5 5 -8 11h-9l1 -4v-4q1 -4 3 -7h8v3h5v1z" />
    <glyph glyph-name="X" unicode="X" horiz-adv-x="245" 
d="M18 590q-1 -1 -2 -3t-1 -5h-3v-2h-4v9l5 1h5zM26 445q-1 1 -2 5v3l-1 2h2q2 0 5 -1v-9h-4zM230 -5v-3q-5 -1 -5 3h-49v4h-5v2q-4 4 -5 12l-1 7q0 4 -2 8h-3v11h-1q-2 4 -4 10l-2 5l-1 5h-2v27l-3 22l-4 22h-2v7h-4v14l-4 14l-4 15q-4 17 -4 31q-3 -3 -3 -13v-8
q-1 -4 -2 -7h-5v-18h-2v-14h-2v-14h-4v-7h-3v-16h-3q0 -6 -1 -17l-1 -15h-3v-23h-5v-17h-2v-12h-3l-2 -8v-8q0 -9 -3 -13q-7 -7 -39 -7h-25l-10 1h-7q1 11 5 24l3 11l4 11l1 13l2 12h3v8h2v12h3v11h3v12h4v10h2v12h2v11h4l1 12l2 13h1v14h4v8h4v15h3v7h1v10h4l1 18l2 18h4v4
h1v8h3v22h4v11h2v12h2v13h4v10h2l-34 151l-34 151q11 0 23 1l10 1h9q20 2 34 -2q2 -7 4 -23l1 -11l2 -12h2q1 -8 2 -21v-10l1 -9h3v-13h4l1 -16l1 -17h2l2 -13l1 -13q0 -15 5 -21v-6q3 4 3 13v8q0 5 1 10h4v22h2l2 17l1 16h3v13h2q0 6 2 19l1 10l1 11h3q1 8 3 23l1 12l1 11
q14 4 35 2h9l10 -1q13 -1 24 -1l-35 -151l-35 -151h4v-10h3v-13h1v-12h4v-11h4v-22h3v-8h1v-4h4l1 -18l2 -18h3v-10h2v-7h3v-15h3v-8h4v-14h1q1 -5 2 -13l1 -12h4v-11h3v-12h1q2 -5 3 -11l1 -11h3v-11h4v-12h1v-8h4v-12q1 -8 3 -13l3 -11l3 -11l6 -24h-15zM156 241
q-2 0 -4 2l-2 1l-1 1v4h-2q-2 7 1 12l2 2l2 2l-1 10l-2 9h-2v3h2l-2 8q-4 2 -9 3l-6 1q0 -12 3 -29q2 -18 5 -25h4v-7q5 -1 5 -2l-1 -8l-1 -7h2q3 -4 8 -5zM164 208h-7q3 -3 7 -4v4z" />
    <glyph glyph-name="Y" unicode="Y" horiz-adv-x="229" 
d="M24 561q4 -10 4 -14l-3 -1l-1 -1q-2 -1 -4 -1q-1 3 -3 8l-2 5l-2 4h-1v25l-2 1l-3 1q-3 2 -2 5h3q0 5 4 10l-5 1l-6 2v13q-1 10 -1 16h13l2 -4l2 -5q4 -8 7 -11v-5q-2 1 -2 0q-1 0 -2 1h-4q6 -19 8 -38q8 -4 10 -12h-10zM40 556v5h8q1 -1 1 -2q0 2 1 1v-4h-10zM48 515
q-1 -3 -1 -4l-1 -1v-4h-4v9h6zM50 485q5 -2 6 -2l2 -2q-6 2 -8 4zM224 600l-5 -15l-5 -12l-1 -19l-1 -20h-4v-9h-2v-19h-3v-3h3v-5h-3v-13h-3v-8h-4v-9h-1l-2 -20q-1 -12 -1 -20h-4v-15h-3v-13h-1v-25h-4v-18h-4v-16h-3v-13q-1 -10 -1 -16h-4v-18h-3v-5h-2v-16q0 -5 -2 -24
t-2 -40h-3q-1 -4 1 -6l1 -1l1 -1v-14l-1 -6l-1 -6q-2 -7 -1 -13l2 -6q1 -4 1 -5h-3v-6l2 -7l1 -13h-3q-3 -12 -1 -26q1 -13 4 -24q1 -7 -3 -16h3v-29h-3v-4h3v-28h-82v167q1 14 1 23q-1 29 -5 35q0 12 4 6v-3h3v5q-1 0 -3 2l-2 2l-2 1v25l-2 1l-2 1v23h-3l-3 20l-4 19h-1
q0 16 1 24q15 -4 22 -13h5q-3 3 -4 13l-3 1h-5v7h2l2 1h3q-6 2 -8 6l-2 2l-2 3v1h-3q-2 -1 -3 -2l1 -2q0 -2 -6 -4l-2 -2q-1 0 -6 -2l-1 5l-1 5l-1 13q-2 16 -1 26l2 1q-1 3 -4 5l-2 2l-2 1l-3 23l-3 24l-9 39l-9 38q14 -1 16 -12q1 1 4 2l6 1q-1 -6 -8 -9q0 -16 2 -24h14
v-4q-2 -1 -4 -4h-4v-14h-2q1 -16 10 -19l-2 -8l-1 -6q-2 -8 -1 -18h8v-9h5q2 -9 6 -13l4 -3q3 -2 5 -5q-9 -5 -12 -13h-3q-1 -4 1 -5l1 -1l1 -1l4 -5v8h16q-3 3 -2 13l1 8l1 8h-8l-1 9q-1 5 -3 9h-1q2 3 4 5l2 1l1 1q3 3 -2 13v1q3 0 4 2q0 2 -4 2l-4 4q3 3 4 9h-4v3h-8v2
h-3v4h3q3 4 4 5q4 0 8 -5q1 0 2 3q2 3 2 6q0 9 -9 9v13h-11v7q4 1 6 2l1 1l4 2v16h-3v3q4 0 3 6l-5 4l-5 3v7l-1 7h-4l-6 9l-6 8q6 2 8 4q0 19 -2 28h-12v1l-12 8q0 10 -1 16q3 1 11 1v-13h6l-1 3v2l-1 1v1l-2 2v3q1 -2 3 -3h3v4q6 1 15 4l6 2l6 2l9 -4l9 -4q0 -26 4 -55
q2 -21 7 -46v-23h3v-32h2v-30h3l2 -18v-17q1 -20 4 -28q1 -8 1 -10q0 -1 1 -4q3 21 8 59l5 31l4 33l3 10l6 63l-2 3l6 64q8 -4 22 0l12 3q6 2 10 2v-4l10 1q6 1 11 3v-4h14q0 -2 6 -5q0 -14 -5 -32zM89 366h-7q2 -2 7 -4v4zM59 388q-1 7 -5 8q1 -2 4 -5v-3h1zM108 196
q-7 1 -8 8h6q0 7 2 13h-2v2h-9v4q-5 -1 -8 -3l-2 -1l-3 -2l1 -23v-23h4q0 -8 3 -9h2v-4h3l1 4v5q1 6 2 8q2 2 4 3l4 1v17zM108 154q-2 0 -5 -3h-6v-2h11v5zM115 95h-9v-6q3 1 5 3h4v3zM97 75l-2 2q0 1 -1 2v-4h3zM97 67l-1 2v2l-1 1l-1 1v-6h3zM97 187v5h3v-5h-3z" />
    <glyph glyph-name="Z" unicode="Z" horiz-adv-x="221" 
d="M200 563v-15h-2v-6h-4v-17h-2v-3q3 -2 2 -5h-2q-2 -16 -2 -25h-4q-2 -9 -3 -23l-1 -24h-4v-11h-4v-11h-3v-12h-1q-4 -11 -4 -24l2 -1q2 -2 2 -4q-2 0 -4 -1q-2 -2 -3 -2v-14h-4v-8h-1v-19h-3q0 -6 3 -14q-2 0 -4 -1l-3 -2v-20h-2l-2 -1v-22h-4v-11h-3v-13q-3 -9 -6 -24
l-3 -12l-2 -11v-18h-4v-12h-1v-13h-4l-2 -17l-1 -18h-4v-16q-1 -11 -1 -15h-3l-1 -4v-5q-1 -5 -3 -10q66 0 89 4q0 -3 1 -17v-24q1 -32 -3 -36v-4q-5 -1 -6 4h-31q-53 0 -96 -4h-33q-3 6 -7 4v-4q-7 3 -12 4q4 22 4 35h3l-3 19q-1 10 -4 18l6 1h6v-1h3l1 10q1 6 3 10h2v15
l2 10l3 12q4 15 6 23v16h3v11h2v16q7 22 16 69l7 36q5 21 9 35q4 19 7 43h2v9h4v9h2v13h2v12h4v18h4v8h1v12h3q2 8 3 18l1 18h3l3 16l2 15q3 18 7 31h-49q0 -5 -8 -4v4l-12 -2q-8 -2 -13 -2q0 2 -1 3q-2 2 -2 3q-2 0 -9 -1l-5 -1h-6l2 12l1 12h-3v46l5 2l4 2q4 2 8 3v-4h15
v4q5 0 5 -4h147v-73h-3z" />
    <glyph glyph-name="bracketleft" unicode="[" horiz-adv-x="155" 
d="M181 681v-14q-1 -9 1 -15q-15 -9 -60 -9v-151q-2 -8 -1 -81v-42l1 -12v-51l-1 -1q-2 -1 -2 -5h3v-18h-3l1 -5l1 -4q1 -6 1 -9h-3v-72h3v-27h-3v-20q0 -4 3 -11h-3v-7l2 -5q1 -6 1 -8h-3v-15h-1v-46h-4l1 -7l2 -8q1 -11 2 -16h-1v-48h-4q0 -1 10 -1l7 -1h10q14 -1 30 -3
v-2l-2 -1q-3 -2 -2 -4h4l1 -26v-25h-1v-3q-15 1 -45 0q-33 -1 -43 -4l-12 1h-12q-12 1 -22 3q-5 5 -7 14q6 3 6 5l-1 1v2q0 2 2 6q4 12 4 80v56q-2 7 -1 19v8q1 5 1 7v16q3 19 2 89l-1 27v26q-1 29 -1 39v15q5 0 4 5h-4v145h4l-1 12q-1 7 -3 12h4v48l-1 19q0 22 2 34
q0 4 -4 5v11h4q-2 4 -3 10l-1 10h4q2 8 1 23l-1 13l-2 14q-3 33 6 42v4h18q4 -5 52 -5q14 0 35 1h23q7 -10 7 -40h-4zM92 693h-4v8h-6q1 -11 10 -14v6zM84 681h-2l-1 -1l-1 -1q-6 -9 -6 -12h6v6h4v8zM79 30v-8h4v4q1 0 1 1l1 3h-6z" />
    <glyph glyph-name="backslash" unicode="\" horiz-adv-x="248" 
d="M227 -16l-1 4l-9 -1h-8q-9 -1 -16 -3l-1 4l-13 1q-8 1 -15 2l-4 17h-4l-1 3h4l-3 15h-4l-1 3h4l-5 20h3v1h-3l-6 20q-4 11 -7 18h4q0 4 -2 9l-3 10q-4 12 -1 16q0 1 5 3l2 -9h3q1 -5 -2 -6l3 -5l2 -5q3 -6 7 -11q2 2 11 4l-4 20q-4 -1 -10 -6l-1 3q-1 1 -1 2l-1 4
q1 0 4 1q4 1 7 1l-2 6l-2 5q-2 5 0 6l-1 4q-4 3 -8 3q-4 6 0 8l3 1l2 1l-3 15h-8q-1 -8 -14 -8l-1 3v5h-4l-3 15l-2 15h12q-1 5 0 11v5q0 3 -1 7l-4 1h-4l3 -12h-3l-1 4h-8q-1 4 -1 9l-1 5v5h5l-4 6l-5 5q-5 5 -9 13q6 2 13 2h6q4 0 8 1l-2 6q-3 1 -8 5q-2 0 -5 -2l-2 -2
l-4 -1q-2 4 -5 5q-1 5 -1 16h-1q-1 -1 -2 2l1 1h1v1l-1 1l-1 1l-2 2l-1 3h3l-1 5h1l-1 4l-2 3l-1 5h4l-3 1q-3 3 -5 4l-5 25l-4 24h-3q-1 3 0 8v5h-3l-3 12q3 3 1 11h-3q1 4 1 8h-3l-3 10h3l-1 4h-3l-9 43q-2 8 -6 22l-6 24q-8 28 -6 42l-6 23h-3q-7 30 -15 46h4l-2 8
q5 0 17 -1h23q28 -1 40 1l35 -157q20 -88 37 -158l27 -110l4 -15l3 -15q3 -18 2 -28q4 -6 7 -13l4 -13h-4l8 -36h4q7 -33 11 -60q1 -4 2 -11l4 -12q3 -14 0 -19l1 -4h-8zM145 135l1 1q0 -1 -1 -1zM137 136l1 -1h-8l-3 7q-2 3 -5 6h4l-1 4h4q10 -14 11 -16h-3zM83 394l2 -5
q1 3 1 5h-3zM106 334l-2 2q-3 2 -5 4h-3l1 -4q-1 0 -1 -1q1 0 1 -3h-7q4 -9 18 -12q1 4 1 12zM102 315h-8q4 -8 11 -15h1zM120 243h-1l1 -6v6zM142 194h-4l2 -6h-12l-3 -2q2 -12 1 -18q6 2 6 3l4 1l4 1q4 0 5 1q2 1 -1 12zM165 135l1 -7v2l1 1v4h-2zM168 37q-1 5 0 9v8h-11
v-2q-1 0 -3 -2q5 -5 7 -13h7zM177 34q-5 -1 -6 -4h7z" />
    <glyph glyph-name="bracketright" unicode="]" horiz-adv-x="156" 
d="M120 703l1 -1v-2q0 -2 -2 -6q-4 -12 -4 -80v-56q2 -7 2 -19l-1 -8q-1 -5 -1 -7v-16q-3 -19 -2 -89l1 -27v-26q1 -29 1 -39v-15q-5 0 -4 -5h4v-145h-4l1 -12q1 -7 3 -12h-4v-48l1 -18q0 -23 -2 -35q0 -4 4 -5v-11h-4q2 -4 3 -10l1 -10h-4q-2 -8 -1 -23l1 -13l2 -14
q3 -33 -6 -42v-4h-18q-4 5 -52 5h-35q-21 -1 -23 -1q-7 11 -7 40h4v14q1 9 -1 15q15 9 60 9v151q2 8 1 81v42l-1 12v51l2 1q1 1 1 5h-3v18h3l-1 5l-1 4q-1 6 -1 9h3v72h-3v27h3v20q0 4 -3 11h3v7l-1 5q-2 6 -2 8h3v15h1v46h4l-1 7l-1 8q-2 11 -3 16h1v48h4q0 1 -10 1l-7 1
h-10q-14 1 -30 3v2l2 1q3 2 2 4h-4v26l-1 25h1v3q15 -1 45 0q33 1 43 4l12 -1h12q13 -1 22 -3q5 -5 7 -14q-6 -3 -6 -5zM77 608h-4v-4q-1 0 -1 -1l-1 -3h6v8zM76 -37v-6h-4v-8h2l1 1l1 1q6 9 6 12h-6zM74 -71q-1 11 -10 14v-6h4v-8h6z" />
    <glyph glyph-name="asciicircum" unicode="^" horiz-adv-x="251" 
d="M223 294q-3 -3 -6 -8t-6 -9q-1 -1 -41 17l-15 6q-8 4 -13 6q-13 6 -15 6l-1 4q-1 2 -2 3h-2q-2 -2 -2 -3q-1 -1 -15 -7l-7 -3l-7 -3l-15 -8q-40 -19 -41 -18q-3 4 -6 9l-2 3l-3 5l-2 5l-2 5q-3 6 -3 11l2 1v1q3 1 11 7q6 3 18 11q25 15 29 17h4q2 0 2 2v1l1 1q1 2 4 2
l2 -1h1l-1 3q7 4 13 8h3q8 6 12 8q1 0 1 2h8v-2q2 -1 5 -3l6 -3l5 -4q3 -2 5 -3h2q29 -20 36 -25v-3q5 2 7 0l1 -1v-1q0 -2 1 -2h4l7 -4l8 -4q9 -6 13 -6v-1l2 -1q0 -13 -6 -21zM219 309l1 2l-4 2v-2q3 -6 4 -6l3 2zM209 310q-5 2 -8 -4l4 -2l3 4l1 -1v3zM188 317l-2 -1
l2 -1l2 -1l2 -1zM190 303l-1 -1l-3 4l-4 -4q5 -4 10 -1zM124 354v1l-2 -1l-1 -2q2 0 3 -1q0 1 1 1zM103 325l-2 -3l1 -1l-1 -2l-1 1l-2 -2l-1 2l3 3q-2 3 -3 5q-4 -11 -9 -17l3 -2l1 1q1 0 1 1q2 4 4 3l-1 -2l1 -1l10 12zM58 317l-4 -4l2 1l2 1l2 1z" />
    <glyph glyph-name="underscore" unicode="_" horiz-adv-x="500" 
d="M470 -88v-10q-8 -2 -124 -2h-64l-18 -1h-46v3q-1 0 -5 -2q-3 -2 -5 -2l-1 1h-2v3h-175v1q0 1 -1 2l1 10v11l-1 2v20q0 12 1 17q14 0 219 -1l38 -1h38q40 0 67 -1h76v-9l2 -11q1 -13 1 -20t-1 -10z" />
    <glyph glyph-name="grave" unicode="`" horiz-adv-x="186" 
d="M169 687l-4 -6l-2 -5q-3 -5 -8 -10q-1 0 -3 1l-2 2l-4 1q-1 5 -4 4h-4q-2 1 -4 3q-7 3 -25 11q-14 5 -38 15q-52 20 -57 22l-6 6l8 28q4 0 11 12l4 10l2 4l2 4q7 0 28 -12h3q7 -11 17 -16v-4q6 2 8 0l1 -1l1 -2q0 -2 1 -2h6q1 -1 6 -3l4 -3l5 -2q13 -8 23 -13
q32 -16 38 -17v-1l2 -1q0 -17 -9 -25zM124 715l-2 -2l2 -1l2 -1l3 -1zM127 698l-1 -1l-4 4l-5 -4q6 -5 12 -1zM69 754l-1 5q-2 5 -7 10h-1q-1 -3 -2 -4l4 -4l-3 -3l-1 3l-2 -2l-1 2l1 1l-7 8l2 2q6 0 6 2l-1 2h-1l-5 5l-2 -2q1 -9 -6 -11l-2 1q0 -1 -2 -5q3 0 5 1h1q0 1 2 2
l14 -17l3 2l-2 1q3 2 6 -4q0 -1 1 -1l2 -1l2 2zM109 708l-1 -1l-1 1q-1 -3 -1 -7l3 3l4 -4l2 1zM46 760l-1 -3l-6 4l-2 -4q7 -2 13 2zM54 747l1 2l-5 3v-3q3 -7 5 -8l3 4zM43 751l-2 -2l1 -2l3 2zM47 731v1q-1 0 -2 2l-1 -3l5 -2l1 2h-3z" />
    <glyph glyph-name="a" unicode="a" horiz-adv-x="247" 
d="M243 9v-6l-19 -1l-19 -1l-1 -1v-2q0 -2 -2 -1v4h-4l-5 -1l-12 -1q-15 0 -19 4q-5 6 -3 13l1 3l1 3q0 5 -2 10h-2l-3 33q-2 22 -4 33l-2 3h-16q-9 0 -12 3h-19v-3h-2v-23q-2 -7 -3 -18l-2 -20q-2 -25 -7 -37q-37 -6 -77 0l3 44l4 43h1v22h4v27h3v24h3v23h2v23h3v17h3v36
q2 8 4 20l2 23q4 29 9 42v32h1v11h4v32h4v46h3v16h1v27h4v30q10 26 8 70h-5q0 12 4 20q1 2 4 2h3l3 1v2l8 1h8q9 0 12 3h21q13 0 16 -4h4v-8h5l2 -8l1 -9h-3v-6h-2v-31h2q1 -7 2 -17l1 -16h4v-22q5 -17 9 -42l7 -44q7 -60 15 -86v-24q2 -8 4 -20l3 -21q4 -27 8 -40v-26
l3 -18l3 -19q4 -24 6 -35v-24h4v-11h3l-1 -11l-2 -12h3v-15h3l2 -1l-1 -4v-17h5q0 -17 -4 -32q4 -3 7 -5h4v-3h-4zM116 570q-2 0 -7 2l-4 1l-4 1q0 -4 -2 -14q11 0 14 8h3v2zM123 363l-2 -3l-2 -4q4 -2 8 2h1v-10h3l2 6q1 3 2 4q-10 5 -12 5zM135 343q-2 2 -5 4h-2l-1 1v-5
h-6l-2 -1h-2q1 -5 1 -6t1 -3l5 -4q-1 2 -1 5v4l6 -1q3 -1 6 -4v10zM141 301q-1 4 -1 5v2l-2 2v-9h3zM140 175l-1 17l-1 16q1 1 2 7h-2v10h-4q-1 5 -1 15q-2 0 -4 2q-2 6 1 11l2 3l1 1v4h-3v16h3q1 7 -1 15l-2 6l-3 6q-5 12 5 19v5l-4 -1l-4 -1q-4 -1 -6 -3l-2 -21l-2 -23
q-3 -27 -7 -43q-1 -6 0 -16v-17q1 -22 -4 -28q2 -9 8 -10q2 -4 2 -10l4 1l4 2q6 2 11 2q0 1 -1 5t-1 7h1v3h9zM118 165v10h4v-10h-4z" />
    <glyph glyph-name="b" unicode="b" horiz-adv-x="288" 
d="M256 156v-15q-1 -3 -2 -8l-1 -5q-2 -5 -9 -9v-4l6 2l5 2q6 -40 -13 -75q-18 -32 -48 -46q-18 -2 -29 -2v-3l-16 1l-16 2v-3q-7 -2 -18 -3l-19 -1l-9 1l-9 2q-10 1 -14 -3h-14v4q-3 3 -3 13l-1 8l-1 7h-3l1 33q1 19 2 33h3l-2 12v7l-1 7l1 20l2 20v20h-3v3h3v15h-3l1 3v4
q1 5 2 8h-3v87h-3l1 17q1 10 2 15q0 4 -3 7v11h3q1 5 -1 11l-1 5l-1 4q-2 5 1 17l2 9v5h-3v99h-4l1 9l1 8q2 10 2 16q-2 4 -3 4v7l-1 6h-1l-2 27l-1 27h-4q1 9 12 15v8h-4l2 10q2 6 2 10l9 2q5 1 9 1v-3l5 1l5 1q7 1 13 1v2l13 -1h7l8 -1v2h42v-2q5 -1 8 0l2 1l2 1v-2h21
l2 -4l2 -4l10 -2l10 -1l1 -2l2 -1q1 -1 1 -2q3 -2 6 -3h5l5 -6l3 -6l4 -2l3 -2v-4l4 -4q9 -13 11 -42v-50q0 -8 1 -26l2 -27q2 -34 0 -57q-3 -64 -33 -81q12 -5 18 -18l2 -3l2 -4q2 -3 3 -8l1 -4v-4q1 0 2 -2l2 -3v-29h1v-8h4v-43h-4q4 -9 4 -20h-4l2 -4l2 -3q1 -3 3 -4
q-4 -4 -7 -4zM177 419q1 10 0 27v58h-3l2 12l1 12h-3q-1 6 -1 12l1 6l1 5q2 12 -5 19q-3 11 -17 13q-6 1 -15 0h-17q-5 -15 -4 -57l1 -16l1 -16q1 -16 0 -23v-11l-1 -14q0 -17 3 -21q0 -7 -1 -21v-23q-1 -28 5 -41q32 0 47 9q2 3 3 8v4l1 3l1 10v45zM179 194v36h-2v25h-3v8
h-4v3q-1 2 -2 5q-30 5 -43 3q0 -9 -1 -28v-30q0 -36 4 -55l-1 -10l-2 -10h3l-1 -7v-8q-1 -10 -2 -15q1 -12 2 -30v-14l1 -13h8l10 1q10 0 14 3q8 3 8 6l1 3q0 2 1 5h4v8h3v19h2v38q3 7 4 26q2 21 -1 31h-3zM214 67q0 -10 -4 -22q3 2 6 9l2 7l2 6h-6z" />
    <glyph glyph-name="c" unicode="c" horiz-adv-x="267" 
d="M56 576v10h5v-10h-5zM61 563v4h4v-4h-4zM30 518q-1 1 -3 8h6v-8h-3zM33 485q-1 1 -2 4l-1 4q1 -1 5 -1v-7h-2zM33 468v5h2v-5h-2zM15 476v8h4v-8h-4zM244 150q-4 -8 -4 -17q0 -3 1 -12l2 -14q2 -19 1 -28h-4v-19h-4v-5h-3v-8h-1q-4 -5 -4 -12q-6 -1 -11 -6l-4 -4l-4 -4
v-4h-7q-2 -2 -5 -8q-16 -10 -55 -14q-42 -4 -54 8h-4l1 5q1 3 3 5q-3 1 -15 1h-9q-4 0 -7 1v2q-11 11 -16 24h-3v18q-5 16 -4 53v15l1 15v28q-1 49 -2 146l-2 73l-1 72h5v-8h3v-3h3l-1 4l-1 3q-1 3 -1 4h3l3 6l3 5h6v1q2 0 4 -4q1 -3 2 -8q-1 6 -1 30l-1 17q3 1 5 3l2 2
q2 3 5 3l5 -4v4l-1 13v13h7l-2 7h-5q0 7 -4 27h4v18h3v7q-4 0 -7 1q4 14 4 21h6q4 1 14 8v2q6 6 12 7q3 4 26 6q22 2 32 -1v-4h12v-1h11v-3h5v-4q10 -2 18 -4l1 -3v-3l5 -4l4 -4q5 -5 9 -7q0 -5 4 -12h1l2 -8v-4l1 -5h4q0 -20 4 -37h1q2 -4 0 -10t-1 -10l1 -2l1 -2
q1 -3 -1 -7h-1v-27q-1 -15 -4 -23q-2 0 -9 -2l-6 -2l-7 -1q-19 -5 -24 -3v4l-12 1l-11 2l-4 1q0 5 1 24v30q1 38 -5 44q-1 9 -5 15l-4 4q-2 2 -3 5h-23v-4h-7q-1 0 -2 -2l-2 -2q-3 -12 -7 -24v-57h-4v-34h4v-7h3l-1 -12q-1 -8 -2 -14v-53h3v-6h4q0 -5 -4 -6v-54h-3l2 -6
l1 -6q0 -4 -3 -7q-1 -5 3 -8v-92q1 -17 4 -25q-4 -30 -4 -47v-26q0 -15 5 -20q2 -5 6 -7l3 -3l2 -2q14 0 30 12q0 2 2 10l2 7l1 5v43h3v61h4v22q1 1 2 1l1 2q3 0 9 -1q8 0 15 -1q20 -2 22 -5q31 0 25 -34h-1l1 -8v-9q-4 0 -1 -6q1 -2 1 -8h-1zM80 44l-5 -1l-6 -2v-15h4l1 -1
h2l4 1v18z" />
    <glyph glyph-name="d" unicode="d" horiz-adv-x="272" 
d="M240 130q-1 -8 -2 -21l-1 -21h-3v-8h-2v-7h-4v-5h-3q-2 -6 -9 -11h-4v-10q-10 -8 -16 -10v-4h-5q0 -5 -8 -7q-8 -1 -8 -4h-15l-1 -2l-1 -2q-1 -2 -2 -3h-13v-1h-29v-3h-4v3h-38v-3q-3 -1 -6 -1l-5 3q-6 2 -12 -2h-12v3q-3 5 -4 22v62h2l-1 8l-1 11q-1 13 -2 24
q-1 30 2 42h2q1 4 -1 6l-1 1v38q3 0 2 5h-2v7l1 5q1 6 1 9h-2v14h2v4l-2 5q-2 6 0 12h2q1 5 0 11l-1 5l-1 6v253l1 -1h1l1 -1l1 -1q0 6 1 8l-1 6v-6h-2v-4h-2v23q1 -2 3 -4l-3 20q3 8 11 12v3h-8q0 4 -2 4l-1 -1l-1 1l-2 7h4q4 -1 4 -2l6 -5v3q2 1 0 3l-1 2q1 1 3 2h9l-1 -6
q1 -3 8 0l2 4h3v2h40q32 2 44 -2l1 -2v-5q5 -2 7 3l7 -1l7 -2q7 -1 12 -2v-4l9 -3l8 -3q10 -12 14 -16q1 -2 7 -4v-4q3 -4 5 -4v-7h4q0 -8 2 -16h3q3 -9 4 -33t-1 -37h-3v-2h3q1 -9 1 -25l-1 -14v-15q-1 -6 -2 -15v-7l-1 -8q5 -17 5 -55l-1 -33q-1 -21 -1 -32v-152h2v-3h-2z
M144 618v-1l2 1h-2zM172 561zM86 609zM54 593v-4l3 2l3 2h-6zM168 285v12h3v3h-3v14l2 1l3 1v7h-5q1 3 3 4q1 5 2 6v7l-2 -1l-3 4v36l1 1l1 1q2 2 1 4h-3q1 7 3 12q0 1 1 1v10h-4q0 16 -1 20h1l2 2q0 1 1 2l1 -1v6h-4v7l-1 7h1q0 8 3 15h1l-1 6h-3v23h3v8q-1 4 -1 13l-1 8
l-1 7h-1v12l-3 4l-4 5q-4 6 -5 12q-12 1 -25 8l4 7h-18l-7 -8l-7 2v-8h-4v-19h4v-16h-4v-11q4 -16 4 -47v-26h3q0 -5 -3 -6q0 -4 3 -12q-4 -2 -3 -8h3v-20h-3v-11q0 -17 3 -31h-3v-23h-4l2 -3l1 -3l1 -3h3v-111q0 -37 -3 -59q-1 -5 3 -5v-75q1 -2 9 -4h8v1h22q4 1 8 7l3 4
q2 3 5 4q0 5 4 12l2 5l2 5v64h3q1 5 -3 9v65h3v25h1l2 6l1 6h-7zM175 260zM37 377v-26h1zM208 73zM205 57q-5 7 -5 15h-4q0 -3 -1 -7q-2 -5 -2 -8h12z" />
    <glyph glyph-name="e" unicode="e" horiz-adv-x="188" 
d="M155 637h-2v-4h-4v9q1 -1 7 -3zM32 412v1h3l3 2q3 1 5 1v-4h-11zM177 19q0 -17 -1 -20q-3 0 -2 1q1 0 0 1l-4 1v-3h-20q-8 2 -27 3q-20 1 -30 0v-3q-4 -1 -12 -1l-13 1q-17 3 -21 0q-10 0 -16 3q0 2 -2 8l-2 12q-2 15 1 22h3v5h1v13h4v2h-4v12h-1q-2 8 -1 21l1 10l1 9v14
l-1 13h1v19h4q-2 8 -4 12q6 0 4 5h-4q2 7 3 16v7l1 9h-4q6 27 7 47q-1 1 -3 2l-4 1v8h7l-1 3v3q-1 4 -2 6h3v4h-3l-1 6v7q-1 8 -3 13h11v4h-7q-3 3 -4 16v19h7v12h-6q6 1 4 14q0 4 -2 9l-2 5l-1 3q6 3 12 3v8h-8q5 4 11 4q-1 4 0 21h-4v4h12v9q-5 -4 -11 -1l-6 2l-6 2
q2 3 3 8l1 7l5 -2l4 -1q5 -2 10 -3l4 6h4l-2 4l-2 4q1 1 4 7h-4v4l-8 -4v4h-7v4l-1 -1h-2q-3 -1 -5 -3v4h-4v27q4 1 5 -1l2 2h4v3q-4 1 -5 -1l-1 -1l-1 -1h-4v10h-1l1 4l1 4q0 3 -1 5h-1l1 12v11h-1v3q4 1 1 7h-1v1h1q3 9 3 31q-1 21 -4 26q0 8 1 14q12 2 35 2h16q9 0 16 1
v-1l1 -1h1l1 -1q-3 -6 -3 -14h4v8h4v4h3q1 -2 0 -4l-1 -3q-3 -4 -2 -5h3q0 -1 3 -3l1 5l1 6q6 -2 10 -8l4 3l3 3q3 4 9 6q-2 -5 -4 -6v-4l6 -1l5 -1l1 3v3l3 -1l5 -1q5 -1 7 -2v4h4v8h2v3h2q2 -3 1 -7l-2 -2l-1 -2l3 -2l1 -1l2 -1v-35h-19q0 2 -7 2l-4 -1h-1l-3 -1l-3 1
l-3 1v-2q-3 0 -8 -1l-3 -2h-2v5h-3q-3 -1 -4 -5q-4 -1 -5 3q-2 0 -2 -1q0 -2 -1 -2h-15l-2 -2q0 -1 -1 -2l-1 -3q-1 -3 -1 -5l1 -1h1q1 -2 0 -4h-2v-4h3l2 -1q0 -3 -1 -12q-2 -10 -2 -15h-8v-6h8q-2 -7 0 -16q5 0 3 -7h-3q0 -5 3 -5l-1 -5q-1 -2 -2 -3l2 -5l1 -6l-1 -7v-8
q-1 -9 -2 -15h3l-1 -10l-2 -10h3v-15h3q0 -1 -3 -6t-3 -7h3v-7h3q0 -2 -1 -4l-2 -1v-15h-3q0 -9 6 -13h4v-10h1v-1l5 1h5v-1l13 1h12v-4h3l1 2l2 2h4l4 -1v1h15v-1h4v-18h1v-28h-1v-4q-5 -1 -7 4h-16v-4h-4q-3 2 -7 3l-7 1v-4h-19q-11 -1 -16 -4q0 -9 3 -12h4q1 -6 -2 -9
l-3 -2l-2 -1v-22h-3v11h-2v1h-23l3 -2l4 -2q6 -3 6 -8v-8q7 -1 18 -8l-1 -12q-1 -6 -2 -9h3v-13h4v-3h-4v-15h-3v-3h3v-20h4v-9l-2 -8q-2 -11 -2 -15h4v-36h-3q-2 -1 -1 -4h4v-17h-4v-15h4l1 -3v-3h10v-3h1v-5h4v-4h-4v-2h11l1 4v4h-1v6h8v-14l3 1l2 1h3v-8h3v12h4l1 2
q3 -6 3 -12q2 0 5 1l2 7l3 -4q3 0 6 1v1q1 1 1 3q-5 1 -6 1q1 3 3 5v3h8q0 -12 6 -14q0 -9 -1 -24zM84 577q-3 -1 -12 -1q-9 -1 -13 -1v-7l5 1h7q7 1 11 3l2 3v2zM84 557h-6l2 -2q0 2 4 1v1zM55 580q-3 0 -8 -1l-8 -2v-2h-3v-3l5 1q2 1 3 2v-7q4 1 7 4h4v8zM55 564h-4v-4h4
v4zM39 557v-5q12 0 20 -4l2 6q1 2 2 3h-24zM55 537h-4q0 -7 4 -8v8zM43 499q-2 2 -4 3h-2l-1 1v-9h3v4h4v1zM82 454q-1 4 -4 6v-6h4zM78 445h-15l-2 -2l-2 -3q3 -1 6 2h13v3zM120 348q-2 5 -4 7v-7h4zM47 377q-1 3 -3 4v-4h3zM63 274h-4v-12h4v12zM47 250h-4q1 -3 0 -3
q0 -1 1 -2v3h3v2zM123 37l-5 1l-6 1v-5h11v3z" />
    <glyph glyph-name="f" unicode="f" horiz-adv-x="208" 
d="M188 604v7h2v1h-2v15h5v-23h-5zM127 572v4h-15v20h4v1l1 1h1l1 1q1 -4 1 -15q8 -2 10 -4v12q7 2 6 4v2q0 1 2 2q4 -4 14 -1v1h8q0 4 4 7l2 -3l2 -4h6v-1q5 -2 12 -1l6 1l5 1v-8l1 -6q0 -7 -1 -14h-70zM158 317l-4 -3v7q6 -3 7 -4h-3zM193 298q-3 0 -6 3l-2 -3l-1 -3
l-3 -5h-13q-11 0 -21 1q-27 1 -28 3q-2 3 -2 23q0 19 2 29h5v-18q-1 -10 -4 -15q3 -2 5 -5l2 -3l3 -3v-1h2q2 10 2 23l-1 10l-1 12h4l5 2q5 1 9 1v-3h20v-5q-11 -3 -17 0l-3 -4q0 -2 1 -5l2 -6h-3v-13q10 0 15 1v15h5q0 9 3 14h8q-1 -1 -2 -4l-1 -4h3l1 -8v-8q1 -10 3 -17
l4 4h4v-8zM73 7h-35l1 121v120h-1q-3 4 -3 12h4l-2 13l-2 13h3v16h1v5l-1 7q-1 8 0 15h1v4h-1v16h-3q0 9 3 26l-7 8l7 4v34l-3 140v39h-4q0 21 4 27h16v3h15v-3h4q-3 -3 -3 -7v-6q2 -7 -1 -10q0 -3 1 -11q2 -9 3 -14q4 -14 4 20h-2l1 15l1 16h6v-8h4v-7h2v15q4 -1 6 -3h4
v-15h1q1 4 2 9v4l1 5h7l1 -29v-29h-4l-1 -7l-2 -7q-2 -9 -1 -16q0 -3 2 -2q2 0 2 -1h-4v-15h4q1 -7 -4 -9v-18h4q1 -5 2 -14v-16q-1 -21 1 -28v-68q-4 -1 -3 -8h3v-14q1 0 3 -1l2 -2v-56l-2 -3q-2 -1 -3 -1v-6h-3q0 -9 3 -17h-3q0 -8 3 -19h-3v-12h3q-3 -19 -3 -38h4v-20h-1
l1 -8v-9l-2 -2l-2 -1q0 -9 3 -20h1v-20q2 -21 3 -51l1 -52q-15 -3 -39 -4zM49 561l-2 -1l-1 -1h-4v-9h8zM54 486l-5 4l-3 -8h3v-7l1 3l4 5v3zM49 471l-3 -4h3v-4h1zM54 444h-4v-4l-1 -1v-3h5v8zM54 413h-4v-1h-1v-8h5v9z" />
    <glyph glyph-name="g" unicode="g" horiz-adv-x="268" 
d="M143 529v8h4q0 -2 1 -5l1 -3h-6zM246 136q1 -6 0 -14q-2 -8 -4 -12v-34h-2v-15h-2v-5h-4v-9h-3l-1 -5q-1 -4 -2 -6q-9 -4 -20 -16h-4l-3 -4l-1 -3q-2 -3 -4 -4h-3l-2 -3l-2 -3q-5 -2 -20 -2v-4h-10v-2h-27l-1 -2v-1q-2 -1 -5 0q-28 5 -49 16q-28 15 -32 35q-5 3 -3 14
l1 10q0 5 -1 9h-4v188h-3q1 4 3 19h-3v46l2 10l1 9h-3v26h-1q-2 5 -1 13l1 6l1 5v5q-1 3 -1 7q-3 6 1 8q2 7 -1 8l1 10v66h-1q-4 8 -4 18h4v9h1v31h3v12h4v8h3v8h1v8q1 2 4 3l3 1v7q5 2 11 8q0 1 1 3l3 2h4l2 4t2 3l6 1l5 2q0 1 3 5l7 1q5 1 9 2v2h9v3q9 3 39 0q11 -1 22 -3
q10 -1 13 -2v-3h5v-4h6l4 -1q2 -4 6 -7l3 -2l2 -2q2 -3 6 -6l7 -6v-7h3l2 -6l1 -6h4v-12h2v-8h2v-23h4v-20h-4q-1 -5 4 -5v-12h-4v-47l-2 -3h2q-1 -6 -4 -13h-54v3h-6l-2 1l-2 2l-2 2q-2 9 -2 28v17l1 18q-1 43 -11 52q-2 7 -6 9l-3 2q-2 1 -4 4h-10v-3q-4 -1 -19 -8l-2 -11
l-3 -11q-2 -13 -2 -25l1 -6l1 -7q2 -8 2 -14h-4v-5h-1v-32h1v-5h4q0 -5 -2 -13l-1 -7l-1 -7h4q0 -6 -4 -4v-42h4v-17h3q-2 -2 -3 -5v-74h-4q0 -2 2 -1q2 0 2 -2v-71l-1 -16q0 -19 4 -28v-22h-3q0 -4 3 -8h-3v-11h3q1 -6 -3 -8q-3 -7 -1 -21q1 -13 4 -17q0 -9 2 -21l7 -1
l8 -1q10 -1 14 2l4 2l2 1q2 2 5 3l3 9l4 11q3 13 0 23h-3l1 3v2q1 4 2 5h-3v167q-5 -3 -13 -1q-6 1 -12 5v44q-4 3 -2 9h2v12h5l6 1q8 1 10 1v-2q7 -2 29 -2q22 1 26 4h13q8 0 12 -2q4 -5 6 -16t0 -19q-5 -2 -4 -9h4v-26h-4q2 -4 3 -39v-26q1 -12 1 -14h-4v-3h4v-61l-1 -1
l-1 -1q-3 -1 -2 -5h4zM149 147l1 2l2 2q2 3 7 4v-4h1v-4h-11zM72 -31v5h8v-5h-8z" />
    <glyph glyph-name="h" unicode="h" horiz-adv-x="282" 
d="M173 -2q-2 12 -1 33l1 18v43h-3v3h3q2 5 2 10v8q-1 9 4 13v3h8q-1 5 -2 7l5 5h5l-1 4q-7 3 -9 8h5v8q-9 -5 -11 -6q-3 4 -6 6v32l3 -1l2 -1q2 -1 4 -1q0 1 2 4q1 2 1 4h-8v3h-4q3 4 2 16v11l2 11v8h-4q2 8 4 12q-3 3 -6 12q-4 11 -3 14l2 1h3q0 2 -1 6l-2 2v3l4 1h3
q-2 2 -3 5l-1 6h-48v58l3 -1q1 0 2 -1h3q-3 -4 -1 -13l2 -8q0 -4 -1 -9l-1 -1h-1q-2 -2 -1 -4h3v-9l3 -2q1 0 2 -1q4 2 5 6v3l1 3q1 2 4 3l3 1l2 1h3v-8h5q0 12 4 19l-4 4h-17l-1 8l-1 7q1 1 1 0l1 2q5 0 17 -5q6 5 7 5v271l4 -1l7 -1q9 -1 15 -1q20 -2 24 2q13 0 18 -4v-6
l-1 -8q-2 -11 -2 -12h3v-12h4v-36h1q2 -2 1 -5q-4 -3 -2 -9h2v-47q0 -7 -1 -21v-24q-1 -28 3 -42q2 -7 1 -15l-2 -7l-1 -5h2v-40q4 0 4 -6q-5 -1 -4 -5h4v-20h-4v-23h4l-1 -17q-1 -10 -3 -18h4v-72h3q0 -2 -1 -6l-2 -7q-3 -11 0 -17h3q0 -2 1 -5v-3q-1 -2 -4 -4v-20h3v-20
l-1 -1h-1q-2 -2 -1 -5h3v-23h-3l1 -6l2 -6l-1 -11l-1 -11l-1 -24h4v-16h-79zM179 240q0 -1 -1 0h1zM121 309q-1 0 -4 -2l-4 -2q-3 -7 0 -29l1 -9l1 -7q1 -8 1 -9q0 -2 -1 -5q-2 -4 -2 -6q-2 -18 -1 -37q1 -23 4 -33v-21q0 -1 -1 -1h-1q-1 0 -1 -1h3v-66l-1 -29q0 -34 4 -53
h-12v4q-5 -2 -8 -4h-16l-17 1q-20 1 -28 -1l-2 79q-1 48 -1 80v81q0 3 2 6q1 4 1 6h-3v46q2 1 4 0v-1h1l2 2h-7q0 43 -4 75q3 0 5 1l1 1l1 1q1 5 -3 8q1 2 2 5l1 3h-7q2 5 3 11q1 5 1 9h3q-8 61 -8 221h12v4h33q19 -1 29 -4q1 -54 3 -122l4 -123q0 -6 2 -18q3 -2 6 -3v-37h2
v-21zM185 145l-2 -2q1 0 -1 -2q-9 1 -12 6h15v-2zM194 333l-2 3q0 1 -2 2q-4 6 -5 6l-1 2v1l-1 1l-1 2l-1 -3l-1 -3q-1 -4 -1 -6h11v-5h-8v-3h8v3h4zM215 251l-2 2q-1 2 -1 3l1 2l2 2l2 4l-3 1l-2 1q-3 2 -6 1t-7 -3l-4 -2q-4 -2 -10 5h-3v-5l5 -3q2 -4 -1 -14l-3 -8l-1 -9
h5v8q9 0 15 4l6 4q4 2 9 3zM195 201q-1 0 -2 6q0 5 1 9q1 0 1 4q-1 -1 -3 -1l-5 -1q3 -10 3 -20h5v3zM192 120l-7 1v-7h5v-2q3 -1 4 0l1 1v1l2 2q1 0 1 2zM206 251q-3 1 -4 0l-1 -1h-1l-2 2h4v3h4v-4zM194 240v11h1v-11h-1z" />
    <glyph glyph-name="i" unicode="i" horiz-adv-x="145" 
d="M50 494h-1q1 0 2 -1zM45 493q0 -2 -7 -16h-4v4h-4q2 2 3 7l1 6h8v-1h3zM74 -4l-12 -1h-11q-12 -1 -17 -1v8h-4q2 9 3 23l1 23h3v23q-5 14 -4 43v23q1 15 1 22v43h3v4h-3v10h3q-1 4 -3 8h3q0 8 -3 11v12h3q-1 2 -2 5q-1 5 -1 8h3l-2 25l-1 24q2 1 4 4l3 1h-4q0 4 1 8v4h-1
v5h-3q-1 4 1 5l1 1l1 1q0 1 -1 1h-1l-1 1q0 3 1 2h2l-2 8l-1 8q3 1 4 5l4 -1l3 -2q3 -2 5 -2q4 4 7 5v6q-4 1 -8 1l-6 1q-7 0 -13 1q2 8 6 14l3 4l3 6h-5l-1 5l-1 5q-1 5 -1 9h8v4h3v-12q2 0 4 1h4q0 4 -1 7l-1 5q-2 5 -2 11h-12l-2 15l-1 15h4l-1 3v5q13 0 16 -8h8v15l-3 1
l-3 1q-4 2 -2 8q4 0 8 3v4q-2 1 -1 6v5l1 6h-4l-3 1l-5 1q1 4 0 4q0 1 1 2v3q9 -5 11 -6v20q-10 2 -12 4q-3 -5 -4 -11l-3 -10q3 -1 3 -6h-3v-9q-5 2 -5 3q-4 4 -3 16l1 10q0 5 -1 9h-4q2 7 3 18v10l1 10h3v1h-3v20h-4v3h4v15h-4v3h4v17q6 1 14 2l13 1v4q8 -2 17 -3h8l9 -1
v4h8v-4q4 -5 4 -19v-23l2 -30l2 -30h-4v-36h4l-1 -13q-1 -7 -3 -13q3 -10 4 -27v-141q0 -175 4 -315q-12 2 -41 2zM57 599h-7q2 -3 7 -4v4zM53 575q0 3 -1 5l-1 4q-2 3 -2 8h-7q0 -8 -4 -13q2 -2 3 -2t1 -2h11zM71 494q-1 4 -1 5l-1 2v-7h2zM61 443q0 11 -3 12h-2l-3 1
q-4 0 -8 2q0 1 -7 3q2 -4 3 -9l1 -9l3 -2h12v-6h4v8zM50 386v3q0 1 -1 1v-4h1zM50 329h-1q-5 -8 -7 -15h8v15zM57 309q-13 -3 -15 -12h7q1 -3 0 -3q0 -1 1 -1v-4h3q2 3 8 8q-2 8 -4 12zM53 235q0 1 -3 5v-5h3z" />
    <glyph glyph-name="j" unicode="j" horiz-adv-x="256" 
d="M224 135l-2 -10l-2 -9v-26q-1 -17 -1 -27h-3v-5h-4q-1 -3 -1 -5v-5q1 -6 -2 -9q-2 -2 -5 -2v-7l-9 -8l-10 -9l-8 -1q-5 -1 -7 -2v-4h-7v-2h-8v-2h-19v-4q-9 -1 -19 -2h-10l-10 -1v3h-16v4h-10v2q-6 1 -12 5l-4 2l-5 3l-2 2l-2 3h-4v4q-4 0 -10 6q-2 5 -4 11l-3 9
q-4 10 -5 19v9l-1 12q0 17 -1 24l-4 34l2 9l2 57h16l6 3l39 -3q1 -4 2 -7v-50h2q0 1 1 8v15q1 21 3 23h-4v4h9v-28q-1 -25 -1 -39l2 -12l-1 -24l-3 -11l8 -18q4 -14 17 -14q4 0 11 3l11 4q0 5 2 15h3v16h3q-1 2 -3 10l1 3l1 3q2 4 1 7h-3v30h-3v3h3q0 2 -1 6l-2 2v4h3v11h-3
q0 4 2 13l1 7v15l-1 8q-2 11 -2 16q0 1 2 4q1 4 1 6h-3q0 1 2 5q1 3 1 6h-3q2 11 3 28l3 30l-3 1h-3q-1 4 3 7l-1 2l-1 2q-2 3 -1 7h3v23h3q1 5 -2 6l-3 1q-1 0 -1 1l1 3l1 4q2 5 1 10q0 1 -1 2h-1q-1 0 -1 1h3q2 15 1 41q-1 25 -4 37l2 18q1 12 1 17h-3l2 12l1 12
q1 27 0 49q0 27 -3 39q0 5 2 13q1 9 1 13q7 0 17 -2q3 5 8 2v-2h4v2h20v-2h34l-1 -11q-1 -7 -3 -12h4v-28h-4l1 -4l2 -4q3 -6 1 -12q-4 -13 -4 -41v-59q-1 -9 -1 -15q0 -2 1 -2q-1 -2 -1 -1v-2h1v-8q-1 -5 -1 -6h1v-62l-1 -26q0 -30 5 -49l-1 -12q-1 -7 -3 -12h4l-1 -9
q-1 -5 -3 -9q3 -12 2 -48v-26q0 -13 2 -20q2 -9 0 -21zM136 238q-3 -5 -8 -8v8h8zM47 -28v7h5v-7h-5zM162 385q-2 4 -2 5l-2 1v-2l-2 -2l-1 -2h7zM59 204v4h-3l-1 -4l-1 -3q-2 -4 -2 -9h7q0 -3 1 -5t3 -3q5 4 11 4q-2 11 -15 16zM36 202q-1 1 -2 1t-5 1v-2h7zM44 184
q-1 2 -5 4v-4h5zM56 169q-3 -1 -4 1q-1 0 -1 -2h1v-3h4v4zM39 181q-3 3 -6 3v-3h6zM63 176q-3 3 -2 4q0 1 -2 1q-3 3 -7 3v-4q-1 -2 -1 -4q-4 0 -15 -7q0 -1 3 -11h-3l-1 -2l-2 -3q3 -1 14 0v20h4v3h12zM75 150h-1l-1 2v2l-1 1l-1 2q-4 -7 -4 -18q4 -2 4 -9h3v4h1v16z
M59 134q-1 1 -2 1q-1 -1 -5 0v-1h7zM71 127h-4l-1 -6l-2 -6h7v12zM84 116l-2 2q-1 2 -7 4q0 -7 5 -12v-2h-11v-5q1 -3 3 -5q9 2 11 10q3 1 4 5zM52 130q-1 1 -5 4v-4h5zM75 87q-1 1 -2 4l-1 6h-3v1h-4v-17h7v6h3zM83 64q-2 5 -3 6v-2l-4 1l-4 1v-2h-3v-4q2 -1 3 -2l1 -2
q1 -2 7 -4v8h3z" />
    <glyph glyph-name="k" unicode="k" horiz-adv-x="234" 
d="M226 621q-5 -5 -17 -11q-2 3 -3 6v5q-6 0 -18 3t-14 5q-5 1 -6 2l2 3h17v3q20 0 39 -11v-5zM209 602q-4 -1 -7 1l-2 1l-2 2h11v-4zM193 607l-1 -2l-2 -3h-11v4l4 1l3 1q4 2 8 2zM174 618h-2l-4 -1q-5 0 -3 4h3v1h2q2 -1 4 -1v-3zM190 581l-8 1q5 16 12 17q0 -4 1 -6l1 -3
q1 -4 2 -10q-2 1 -8 1zM198 555q1 1 1 3l-2 3l-3 4h8l3 -4l2 -3q0 -2 -1 -3h-8zM103 631q-3 0 -8 2l-4 1h-3v5h8l2 -1v-1q2 -1 5 -3v-3zM97 616l-1 -6h-12v4q-1 1 4 7v1q4 -1 11 -1q-1 -2 -2 -5zM71 621v8h1l1 -2l1 -3q1 -2 2 -3h-5zM95 589q-2 6 -3 10l-2 3q-1 1 -2 4
q4 1 11 3v-20h-4zM50 622q1 5 3 7q2 -1 5 -2h2l2 -1v-4h-12zM38 626v5l5 -1l5 -1v-3h-10zM97 578l-1 -4l-2 -1l-3 -1q-1 1 -2 4l-1 4q8 2 11 2q-1 -1 -2 -4zM176 456q-4 -2 -6 0l-1 1l-1 1h8v-2zM45 556q-2 0 -7 -4h-1v8h8v-4zM49 419l-1 -6h-10q1 11 12 12q0 -3 -1 -6z
M37 396v4q1 1 3 1l5 1v-6h-8zM177 -10q0 1 -7 5v18h-2q2 2 2 4h-2q-1 4 -2 7v2l-1 3h-3v21q-1 1 -4 3q-3 1 -5 3v5h-1q-4 16 -4 25q-1 1 -3 2h-2l-1 1l-10 38l-11 38h3l-6 13l-4 14q-6 14 -11 16q0 -6 2 -8h-2q0 -23 -15 -23q3 -6 11 -7l-2 -4l-1 -4h9v-19l-2 -1h-2
q-3 -2 -2 -7h4q0 -4 2 -20h2q2 -6 2 -28l-1 -9v-7l-1 -5v-2q-1 -4 0 -8l2 -6q2 -8 2 -9h-4v-20h4l1 -2l2 -2q1 -4 -1 -8h-2v-19h-4v-3q-4 -2 -6 1l-2 3q-1 1 -4 1v-2h-45v-3h-12v5l-2 2q-1 1 -2 1q3 8 3 11h-7q1 6 4 13l2 5l2 5v5l-1 5h1v27h-1l1 18v17h-1v4h1v7l-1 9h1v18
l-1 2l-1 2q-1 3 1 7q1 5 1 13l-1 15q-1 20 1 30h4v4h-4v8h-1l2 41l3 42l-4 27q0 16 2 20q0 6 2 10h-4v1l6 3l1 3l1 3l2 7l3 7q2 7 2 16l3 13v9l-3 3l-2 3q-3 3 -4 6h-9v6l-1 59v49h9q1 16 5 41h-9v5l5 -1l4 -1l1 3v3q3 -1 5 -1q2 4 3 5q2 -1 5 -2h2l2 -1v-2q7 0 9 1q0 3 3 0
l2 -2l1 -1v-30q3 -2 5 -4l1 -3l3 -3h3v1h7v-1l-9 -5q-4 -2 -6 -5h-2v-1q5 1 17 1v-5l-3 -1h-2q3 -2 4 -7h1v-18q-1 -1 -3 -1v-11q0 -9 -1 -23l-1 -11l-1 -10h2l4 1q-3 -9 0 -19h3l1 3l1 3h-1q1 4 2 7l1 1l1 2l4 17q3 10 6 17q2 6 4 9v7h3l5 26q4 11 7 22l3 9l2 8q6 17 8 23
v4h15v-7h-3l3 -3l3 -4q3 -4 5 -3q4 0 5 -1l3 -3h2q1 -4 4 -5q-1 -5 -2 -6l1 -4l2 -4q3 -6 2 -9q6 2 12 2l-1 -8l-2 -8q-2 -8 -7 -11v-3h-8v-2h-10q-2 -4 -6 -10q10 -3 23 -8q-7 -13 -9 -15q-5 -2 -7 -1v3l-2 2h-3q0 -6 -3 -9v-3l4 -1q3 -1 4 -3v4h4v-12h-12v-4h-9l1 -7v-5h8
q0 -1 2 -4q1 -3 1 -5h-5q-1 1 -2 3q-1 3 -2 3q-1 -1 -5 -1l-4 -4q-3 -3 -4 -5q-2 -2 0 -4h5v-6q11 -13 -5 -16q-1 0 -3 -2v-8q2 0 5 1l3 1l4 1l-1 -2l-2 -1q-1 -1 -1 -2v-4h4v-3q-3 0 -7 2l-3 1h-2q-7 -12 -4 -23h8q1 -1 2 -3l1 -3l1 -2h-4v-4q-2 2 -8 3h-4l-4 1
q2 -14 4 -19h-7l3 -17q2 -10 4 -17h2v-8h2v-9h4v-9h4v-6h1l1 -6v-5q1 -6 2 -10h4v-5h2v-15h3l1 -11q1 -6 2 -11q2 -3 6 -3q0 -2 -1 -2l-1 1h-2q-2 -9 -3 -9h-3q-1 0 -4 -2v-1q-2 -2 -3 -2l-1 -2h6v-8h8v-3l3 -1l2 -1q3 -1 4 -2v-11h7v-11h-12v3h-9q3 -6 6 -9q5 -4 11 -3
q0 5 5 4l7 -7q2 -17 0 -24q4 0 8 -2q1 -6 4 -6v-18h3v-4l2 -2l3 -2v-8h3v-17h3q0 -3 1 -8t1 -6h3q0 -13 -8 -14v-3h8q2 -7 3 -9l3 -1l2 -2v-12l2 -1l2 -1q2 -1 3 -6q-37 -8 -63 -11zM170 177h-2q-3 3 -7 3l-1 -12q6 0 10 -1v10zM56 216h-6q3 -3 6 -3v3zM198 50v5l-1 6h1v3
q-2 0 -6 -1q-5 -2 -6 -2v-5q9 -3 11 -6h1zM202 39h-8q5 -9 15 -12q-3 6 -7 12zM182 50h-5q1 -1 5 -2v2z" />
    <glyph glyph-name="l" unicode="l" horiz-adv-x="215" 
d="M212 23q0 -22 -2 -29h-31l-29 1q-34 0 -46 -2q-7 -3 -22 -2q-15 0 -20 3h-14q-8 1 -13 3q0 13 1 40l1 41h2q4 9 2 21l-2 11l-2 9q2 20 2 35h-2q0 3 -1 9t-1 10q3 0 4 3q3 5 -2 8q0 5 2 8q3 7 -2 7v36h-2q0 5 1 16q1 10 1 16q-3 2 -2 9h2v3h-2q-4 3 -4 13h6l-1 26
q-1 17 -1 27h2q2 18 2 27h-2v11h-2q0 6 1 16t1 15h-2v11h-4q-1 6 4 8v72h-4q2 2 4 5l-1 9q-1 5 -3 9h4v3h-4v3h4v17h-4v43h4v11h-4v38h49v1h12v-1h8q5 -15 7 -28q2 -18 -2 -33v-2l-1 -4q-1 -4 0 -9h1v-22h3q0 -1 -1 -3l-1 -4q-2 -6 -1 -10h3v-15q0 -3 -3 -8h3v-87h4l-1 -14
q-1 -8 -3 -14q2 -5 4 -18h-4q0 -5 4 -5v-71h4q-2 -9 -3 -20l-1 -21v-2l1 -2l1 -7q2 -9 2 -14h-4v-31h4q-2 -10 -3 -23l-1 -23q4 -16 5 -47l-1 -26v-25l6 -1q4 -1 6 -3l1 1l1 1q2 3 5 2l1 -2q1 -2 2 -3h12v1h9q7 -1 11 -1v-7l-6 -1q-2 -1 -3 -3q0 -2 1 -7v-9h8q0 8 3 12h5
q0 3 -4 8q5 4 7 7h25q0 -3 2 -6l2 -5h2l-1 -3l-1 -4q-2 -5 0 -9h2zM58 616h-12q-1 4 -3 5v-5h3v-3h2v-3h10v6zM195 39h-2v4q-11 -1 -12 -12h5q-1 -5 -5 -8v-2q5 0 14 6v12zM152 31v4h-2v-6q3 1 4 2h-2z" />
    <glyph glyph-name="m" unicode="m" horiz-adv-x="372" 
d="M317 1l-13 -1h-15q-17 5 -27 0v4h-3q0 2 1 7l2 8h-3q-1 3 2 18l2 11q0 6 -1 10q-5 17 -4 46v26l1 25l-1 10l-1 10q-1 13 -2 19l2 5l2 5q1 8 0 13q-5 0 -4 6q4 0 4 5h-4v81l-2 2l-2 1q0 1 1 1v10h3v13h-3l1 2l1 3q2 4 1 8l-1 1q-2 1 -2 3h3q5 14 1 33q-2 -11 -6 -20l1 -24
l-2 -5q-1 -4 0 -9v-7q0 -3 -2 -3v-20q-1 0 -1 -1q-1 -1 -2 -1v-5l-1 -6q-2 -3 -3 -3l1 -27h-1l-2 -7l-3 -7h-4q0 -1 2 -3l2 -6q3 -7 1 -12h-4q0 -13 -1 -23q1 -3 -2 -3l1 -20h-1v-9l-1 -9q1 0 -3 -3l1 -15l-1 -1q-1 -2 -2 -2v-3l-4 -3q5 -14 5 -28h-4l1 -17l-2 -4
q0 -5 2 -21h-3v-19l-1 -2q-1 -2 -3 -2q-1 -5 2 -14l2 -7v-2l1 -2l-1 -6v-5q-1 -6 -2 -10q-12 1 -29 0h-35v23h-1l1 7v19l-1 16q-1 0 -1 1l-1 1v26h-4v17q-1 10 -1 16q0 2 -2 2v24q-1 16 -1 24h-1v14q-2 0 -3 2l-1 2q-1 2 4 4q0 5 -4 7l1 2v3q1 4 3 7q-2 0 -3 3l-1 2v25l-1 3
q-1 3 -3 3q0 28 -3 42h-1v17h-4l3 10l2 10l-2 1h-3v14h-3q-1 3 1 5l1 2l1 3h-3v3h-3v4l2 4q2 5 0 8h-3q0 16 -1 23l-1 2v12l-1 10h-3q2 9 -1 14l-3 3h-2l-13 3l-4 -7h5v-2q3 -1 6 2q2 0 4 -1h1l2 -1q0 -5 -1 -9h-9v5q-5 -1 -6 -2h-1l-1 -1q0 -1 -6 -2q0 2 -3 3t-3 2h-2v8h-6
v-2h-2q0 -6 2 -9h2v-8h2v-4l4 -4l5 -4q-1 -4 3 -2h2q1 0 1 -2q3 -1 2 -7l-1 -4q-1 -2 0 -3q2 2 5 6l3 5h3v5q1 0 1 1q-1 0 0 3l-3 1l-3 1v6l1 1q1 0 1 1q6 0 7 -5l1 -4q1 -2 3 -3q-2 -13 -2 -114q1 -102 4 -113v-33h-4q0 -7 4 -9v-16h-4q-1 -6 1 -12l2 -5l1 -5q0 -4 -1 -19
v-13l-1 -13q-1 -32 5 -37q0 -10 -3 -14q-10 -2 -23 -3l-23 -1v4h-21v3h-2v-3q-1 -2 -4 -3l-5 -1l-1 3l-1 4q-2 5 1 11h1q1 5 1 22q0 18 -1 29q-2 45 0 103l3 70q0 4 3 7l3 3q1 2 2 5l-8 8q-3 11 -2 29q0 15 2 26q-1 4 -2 9l-1 7h3l-1 21l-2 5l11 4v4h5l-4 5l-6 4l-3 7v32
q0 2 1 10q1 9 1 18q1 27 -2 36h-1q1 0 1 2l2 18l9 2q3 0 7 -3q5 -3 5 -6l1 7q4 11 5 11q-2 4 -3 4h-2q-3 0 -7 2v4h-4q0 -9 -2 -11q-1 -1 -3 0l-3 1q-1 0 -3 -1v4q-1 3 0 10q1 6 4 11h8q7 -7 7 -8l4 6q2 2 -1 6l-2 2q-1 2 -1 3l-14 -6v2q-4 4 -6 20q-1 11 -1 27v59h18
q7 0 15 1h20v3l2 1l1 1h23v2h7v4h15v-4h2v4h12q5 -10 6 -20h-2v-2q0 -3 1 -3q1 1 1 0q0 -6 1 -43t1 -42q1 0 2 -2q0 -3 1 -3q0 -7 2 -19q2 -13 2 -18h2l1 -1q0 -9 1 -13h1v-30q2 0 3 -4q0 -4 1 -29t1 -31h4l-1 -5q-1 -4 -2 -7h4q0 -28 3 -55h5q0 11 3 24l2 10q1 4 2 6v11
l1 12h1v17q1 0 4 6q0 3 1 25v24l1 1h1q1 8 1 20l1 1l1 1q0 9 2 25l6 56v14l3 3q0 14 1 22h2q2 6 3 16l1 16h2l-1 4q-1 3 -1 5l3 1q3 1 5 1q5 5 20 3l12 -2q6 -1 10 -1l1 -1v-2q24 5 56 -2v-107h2q0 -2 -1 -2q-1 1 -1 -2v-20h2v-2h-2q-2 -11 -1 -29l1 -14l2 -12v-27l-1 -6
l-1 -4q-1 -5 0 -5h2q0 -5 -1 -15q-1 -9 -1 -12q0 -7 1 -23q1 -15 1 -23h3q1 -6 -3 -8v-18h3v-57h-3v-1h3q0 -6 -3 -7q0 -7 3 -5v-19l2 -1q1 -1 1 -3h-3v-71h3v-19q-6 0 -3 -5h3v-23h3v-3l-1 -1l-2 -1q-3 -2 -3 -4h3q0 -18 1 -45l1 -22l1 -23q-10 2 -25 1zM251 579h-2l2 -4
l1 -3zM246 565l-8 2v-8q7 0 15 -2v1q1 2 1 4zM252 474q-10 -2 -10 -21h-8q0 -2 1 -3v-2l6 1h5l-1 6h2v4q0 3 -1 5q4 2 6 4v6zM93 173h-4v2l-5 -1l-6 -1v2q-1 1 -8 3v-3h-4v-14h-10q0 -1 -1 -4q-1 -2 -1 -4l1 -1l1 -3l2 1h2q3 1 5 3v-7h3l6 -1l4 12q2 8 4 13h11v3zM68 139
q-2 -1 -3 -2v8h-3v-1h-4q0 -8 -1 -12h4q0 -4 1 -9l1 -4l1 -5h1q0 8 9 26zM71 102l-2 2q-3 3 -4 8q-6 -2 -8 -8l5 -1l3 -2q3 -1 8 -2zM66 61l-2 6h-4v-9h3l1 -1q1 0 4 -2zM54 50v-7l1 2q0 1 1 5h-2zM79 18h-8q0 10 3 14h-7q-2 0 -2 -1q0 1 -3 -1q-1 -10 1 -24l4 3l4 3
q5 3 8 -1v7zM59 14h-4v16h-4l-4 -16h4v-3h8v3z" />
    <glyph glyph-name="n" unicode="n" horiz-adv-x="301" 
d="M264 9q0 -1 -10 -15h-18l-17 1q-20 1 -30 6v5l1 1h2q2 1 3 2l-1 10q-1 6 -3 10h-2v21h-3v5h-3v16h-2q-2 3 -3 9l-1 12h-3l2 6q1 3 1 6h-3l-2 9l-2 9q-2 9 -8 13q4 12 4 18h-2l-1 1h-5v16h-4v8h-4q4 2 4 7h-4v4h-1l1 3l1 3q1 3 -1 6l-1 1l-2 2q-2 2 -5 3q-1 4 4 5
q0 7 -4 7v13h-2v11h-3v8h-3v10h-2v17h-4v6h-3v12h-2l1 8l1 9q-2 3 -9 5v4h7v4q-2 2 -5 3h-3l-3 1v-6l1 -6q0 -9 1 -16q0 -21 -2 -35q-2 -2 -3 -4l-1 -4h4v-40h3v-3h-3v-12h3v-11h-3v-12h3l-1 -2l-1 -3l-1 -3h3q-1 -7 -2 -20v-11l-1 -10h3v-40h-3l1 -8v-8q1 -9 2 -16l-2 -6
l-1 -7h3v-26q-1 -3 -2 -8l-1 -7q4 -4 4 -5q-8 -6 -11 -7q-4 -3 -31 -2q-10 0 -21 1l-8 1h-6q3 11 3 30h4q-2 3 -3 8v5l-1 3l1 4q1 2 3 3h-4v42q0 1 2 2q2 2 2 4h-4v13h4q-2 4 -3 8l-1 8h4v3h-4v8h-3q-1 5 2 7l3 1l2 1l-4 2v20l1 2l1 1q3 2 2 4l-3 1h-4q3 5 7 7q0 5 -4 5l1 3
v4q1 5 3 8h-4v19h-3l1 3l1 4q2 4 1 8h-3q3 8 3 17h-3v18h3v11h-3v15q4 3 3 9l-3 1q-4 2 -4 4h4q3 12 3 36h-3q0 4 1 7l3 6q3 5 3 9h-4v5q-1 3 -3 6h7l-3 13l-4 12h3l1 6q1 3 3 5h-4v16h-3q2 5 3 12v10h-3v27h-4v2h4v31h-4q2 3 3 9q1 4 1 8h-4v23h-1v3h1v43h-1v18h-3l2 16
l1 15q3 0 7 -1l6 -2v-1h5l8 1q10 2 10 3l17 1q9 0 15 -1q15 -2 18 -15h3q-1 -2 -2 -6l-1 -6h-4l1 -8l1 -7q2 -10 2 -15h3v-5h2q0 -5 2 -15q1 -9 1 -15h4v-15h2v-11h3q0 -3 2 -11l1 -6v-7h2v-4h4l-2 -7l-2 -7h4v-11l1 -2h1q1 0 1 -2h-1l-2 -1q-1 -1 0 -4l2 -2l2 -1
q8 -9 8 -26q1 0 3 -1q3 -2 5 -2q-2 -7 -4 -7h-3q-2 0 -5 -2v-3h-4v-1h10q0 -4 1 -9t1 -7q-3 0 -2 -4h2q4 -14 4 -19h6q-1 -3 -2 -7v-4l-1 -4h5v-11h3v-1h9l-1 12l-2 12h3q0 3 -3 6h3v12q-4 1 -5 4v1h2v23h3q0 6 -3 9v35h3q0 6 -3 9q-3 9 -2 29v15q1 8 0 13v11h2v15h-2
q-3 4 2 8l-2 8h2l-1 6l-1 6h-4q0 3 3 13l2 8q1 4 1 5l-1 11q-1 11 -1 16h10v1l17 1h19q20 1 30 -2q3 -34 3 -61v-17l-1 -15q-1 -18 1 -26q2 -5 0 -14l-1 -7l-2 -6v-18h3l-1 -5q-1 -3 -2 -4h3q3 -6 -3 -6v-50h-3q-1 -3 2 -17l2 -11q0 -7 -1 -11h-3q3 -15 3 -30h-3v-1h3v-19
h-3q3 -3 3 -8h-3v-11h3v-11q-3 -2 -3 -7h3v-62l2 -1l3 -1l3 -1q-1 -7 -8 -8l2 -17l1 -18l-1 -5q-1 -2 -2 -3h3v-56h4l-1 -14q-1 -8 -3 -14h4l-1 -4l-2 -5q-3 -8 -1 -13h4v-15h-4v-23h4v-16h8v-4h-8zM66 -40q-1 2 -2 5t-2 5q10 -4 12 -4v-6h-8zM116 342h-1v-3l1 -1v4zM96 267
q-2 -2 -2 -1l-2 -2h1v-3h3v6zM92 196l-2 1q-1 0 -5 1v-2h7zM96 24q-1 1 -2 1l-2 2v-3h4z" />
    <glyph glyph-name="o" unicode="o" 
d="M266 96l-2 1h-4q-1 -3 2 -6l1 -3l1 -2h-4q0 -22 -1 -31h-3l-6 -12l-6 -12l-6 -1l-5 -1l-5 -6l-4 -6h-6l-1 -3l-2 -2h-5v-3l-6 -2l-6 -2v-1q-7 -3 -20 -3v-4h-5v-3q-8 -3 -23 -1l-11 2q-6 2 -9 2v8l-13 -2l-13 -2v3h-12l-1 2l-2 3h-9v2l-2 4h-6q-8 8 -10 14l-6 1
q-2 0 -3 1q-3 12 -3 19l-3 1h-4v11l-2 1h-3q-1 4 2 8l2 3l1 4l-1 1l-2 1q-3 2 -5 4q-1 4 3 8l3 3l2 2h-1q-6 7 -7 12h8v5l-1 5h-4v5h-3l2 4l1 4q5 1 8 4l4 -4q1 4 4 6v3h-8v3l-4 1h-1l-3 1l-1 4v4q-1 4 -2 7h3v15q-4 -2 -3 5q3 2 3 6h-3l2 3l1 2q-1 1 -3 2l-4 1q2 2 3 5l1 3
h3l-1 38q-1 22 -2 38h-4v2h4q1 6 -1 12l-2 5l-1 3h4v8h3q-2 8 -3 9h-4v3h4v24h-4q2 4 3 10l1 9h-4v7h-1v1h1v22h4v1h-4v61q-1 6 -1 8h1v13l-1 12h1v8h4v1h-4v69h4v11h3v9h4v7q1 1 3 2l5 2q0 6 3 10h1l2 1l6 1v3q9 0 18 -3v3h4v3h-8l1 6l1 6l2 1h2q4 1 6 3v1h4v3h12v4h12v3
h14v1q9 3 29 1q7 -1 15 -2q6 -2 11 -3h10v-4l9 -2l8 -2v-4h6q1 -1 2 -3l2 -4h4q7 -5 9 -11l4 -1l3 -1l3 -5l2 -4q2 -6 5 -9v-12h-2v-4h2v-12h4v-23h3q1 -5 -3 -5v-12h3v-37l1 -1h1q1 -1 -1 -4h-1v-44q4 -3 1 -8h-1v-49l1 -1l1 -1q1 -1 -1 -5h-1v-11h1l-1 -2l-1 -2
q-1 -4 1 -8q2 -8 1 -30l-1 -17q0 -8 1 -14h4q2 -4 -1 -5l-2 -1l-1 -1v-30q-1 -2 -1 -5h1v-16h4l-1 -2v-3q-1 -2 -3 -3v-45h4l-1 -6q-1 -4 -3 -6h4v-58h4q1 -5 1 -12zM54 586h-1v-12h1v12zM187 195l-1 18l-1 17q-4 69 -4 157l-1 84l-2 84q-8 16 -13 24l-7 1h-6q-6 1 -10 2v-3
h-15q-2 -2 -7 -6l-4 -3l-4 -3l-1 -5l-1 -5l-3 -12h4v-35q2 0 1 -9q0 -1 -1 -1l-1 1q-1 0 1 -3h1v-10h-1v-7h-4q-1 -2 1 -4h2l1 -1v-40h1v-14h-1q-2 -7 -1 -13l1 -5l1 -5v-16h-1v-35q0 -9 -1 -24l-1 -25q-1 -29 3 -44v-106h4q-2 -2 -3 -6l-1 -5l1 -20q1 -12 3 -21h3v-17h2v-5
q2 0 3 -1l2 -2h1l1 -2v-2q1 -3 2 -5q24 -4 48 7q1 5 3 5v37h4l1 19l1 18l-1 10l-1 10q0 2 1 5l2 8q2 10 1 13h-2zM244 210h-6q2 -2 6 -3v3zM235 72h-5v-6h5v6zM70 109h-4q-4 -8 -8 -12v-2q6 2 12 6v8zM50 84v-14h3l1 7v7h-4z" />
    <glyph glyph-name="p" unicode="p" horiz-adv-x="263" 
d="M248 454v-16l-1 -14v-69h-4v-10h-3q1 -1 2 -4l1 -5h-3q-4 -10 -5 -17h-3q-10 -8 -12 -17h-6v-4q-3 -4 -8 -4q-2 -2 -3 -5l-2 -3h-7q0 -4 -4 -7q-2 -1 -6 -2l-6 -1v-2l-3 -1l-3 -1q-4 -1 -6 -1v-3q-9 -2 -25 -3l-25 -2v-26h-3q3 -4 3 -8q0 -8 -3 -10q2 -8 3 -18v-67h4v-32
h-4q2 -5 3 -11l1 -10h-4v-40q0 -1 -2 -1l-3 -1v-24h5v-11q-6 0 -20 -1h-21q-26 -1 -38 4q0 21 1 52l2 53q2 63 -3 101q-2 6 2 6q0 6 -2 10q0 2 1 1v-1h1q0 7 -2 8v3h2v20h-2l1 12v7l1 7l-1 13v7l-1 8l1 1q1 2 1 4h-2v15h2v2h-2v23h2q0 3 -1 5q-1 1 -1 2v70h-3l1 5l2 5h-3
l1 3l2 2h-3l1 5q1 2 2 3v4h-3l1 5q1 2 2 3h-3v11h3v2l-1 3q-2 5 -2 7v14h3v3h-3v33h2l2 1q3 2 1 7l-2 1q-2 1 -3 2l1 7v8q1 10 2 15h-3v41h-4v8h41v-3h-9v-3h-2q0 -4 1 -9t1 -7q3 0 26 8v6l-3 1l-3 1q-4 1 -6 3h-2v3l16 1l15 1q19 1 31 -2h32v-3h10v-3h8v-2l7 -1q5 -1 8 -2
l1 -2v-5h7q2 -2 8 -11l5 -2l3 -3v-7h3l2 -4l1 -2l1 -3h3v-12h1v-9h4v-19h3v-29h4v-61h1zM194 585q-1 11 -12 12v-8h8v-4h4zM225 546v5l-1 4h-4v6h-3v11l-2 1h-3l-2 6l-1 5q-8 -4 -15 -4v4h-15l5 -5l6 -6q-1 -5 -4 -10h-4q-1 -6 4 -8q1 -7 -4 -6v-3h4q0 -3 -2 -4l-3 -1l-2 -1
v-2h11q4 3 4 6q2 -2 5 -3l3 -1q4 4 4 12q4 1 6 3h2l-3 -8l-2 -9q6 2 8 8h8zM179 605q-3 -1 -3 0l-2 -1q-9 0 -12 4h4v4h-33q-1 3 0 3q0 1 -1 1q-1 5 -4 7l-1 -5q-1 -2 -2 -3h3q5 -12 -7 -18v-4h12v-1h3q3 3 1 5l-2 2l-2 1v4h10v1h5v3h4v-3h4v-5h-8q-1 -4 -4 -7v-1q10 0 19 3
l7 3q5 1 9 2v5zM178 573q-2 2 -6 3h-2l-2 1v-5h10v1zM224 503q-10 14 -7 25h-5v-8l-4 1l-3 1q-3 1 -4 1q-2 -2 -3 -4l-1 -4h5q4 -8 10 -9v-7q4 2 5 4h7zM186 517h-4l-2 -4l-2 -5v-2h8v11zM186 486q-1 4 -4 5v-5h4zM206 463h-5q1 -1 5 -4v4zM182 478v-12h4l1 6l2 6h-7z
M201 459h-7q1 -1 2 -1q1 1 5 0v1zM182 463h-3v-4h-1v-16h1l1 -2v-2l1 -1l1 -2q4 7 4 18q-4 2 -4 9zM206 440v-20h-4v-3h-12q3 -3 2 -4q0 -1 2 -1q3 -3 7 -3l1 4v4q4 0 15 7q0 1 -3 11h3l1 2l2 3q-3 1 -14 0zM220 412h-6q3 -3 6 -3v3zM201 425v3h-4v-4q3 1 4 -1q1 0 1 2h-1z
M51 577h-6q1 -4 3 -5v-7h3v12zM214 409h-5q1 -2 5 -4v4zM224 391h-7q1 -1 2 -1t5 -1v2zM168 391h-2q-1 3 1 2h1v20h-2v4h2v31q0 3 -1 2q-1 0 -1 1h2v20h-2l1 5l1 5v22h-2l1 4l1 4h-2q-1 7 2 9q1 7 -3 26q-5 17 -9 19q-4 8 -13 9h-8q-4 0 -7 3q-10 0 -17 -4v-158l-1 -19
q-1 -23 1 -28h2v-42l9 1h8l14 1q4 4 4 6h6l1 1l1 2l4 2l1 9l1 8h4v24h2v11zM194 401q0 3 -1 5t-3 3q-5 -4 -11 -4q2 -11 15 -16v-4h3l1 4l1 3q2 4 2 9h-7zM221 374l-2 2q-1 2 -7 4q0 -7 5 -12v-2h-11v-5q1 -3 3 -5q9 2 11 10q3 1 4 5zM56 511h-5q2 -2 5 -3v3zM212 345
q-1 1 -2 4l-1 6h-3v1h-4v-17h7v6h3zM60 491h-7q2 -1 7 -1v1zM220 322q-2 5 -3 6v-2l-4 1l-4 1v-2h-3v-4q2 -1 3 -2l1 -2q1 -2 7 -4v8h3zM197 561v2h-3q3 5 8 9v-7h7v-4h-12zM194 546v6h3v-6h-3z" />
    <glyph glyph-name="q" unicode="q" horiz-adv-x="300" 
d="M306 -7q-5 -3 -10 -7l-7 -8q-10 -10 -20 -12v-1l-1 -2q-1 -2 -4 -1v4l-4 2l-3 2q-4 2 -6 4v7l-4 1h-5q-1 2 -2 5l-1 6q-1 0 -9 4v6l-2 1l-2 1v4q-2 1 -8 -2l-5 -3q-2 -1 -3 -1v-2h-8v-4h-5v-4h-40l-4 -1l-5 -1l-11 -1q-13 -1 -21 3h-5v4h-11v4q-4 0 -12 2q-1 11 2 14
q-4 5 -10 2l-3 -1l-3 -1q-4 -1 -8 0q0 5 -8 6q-1 8 -9 16h-3v11h-4v8h-1v16h-3v25l-1 25h3v10h-3v7h-4q-1 4 1 8l2 3l1 3q-1 18 -1 52v24l-1 25q-5 0 -4 5h4v7h3v1h-3v21h3v2h-3v12l-1 11h3l-2 10q-1 6 -1 11h3l-2 10q-1 6 -1 9q3 3 3 8h-3q-1 5 -1 11v9h3q0 7 -3 11
q0 2 1 6l2 7v21l-2 1h-2q-4 1 -3 4q2 2 6 3v16h-3q7 9 3 16h-3q0 8 8 19h11v7q-2 2 -6 2h-5l-4 1q0 1 -2 5q-2 2 -3 6l1 1l1 1v2l1 2h5v5q-3 2 -4 1q-1 0 -1 2h-3q-2 5 2 7l2 2q1 1 0 4q-1 2 -4 4q-2 6 1 9l2 1q1 1 1 2v8l-1 8q0 1 2 2h1l1 1v8q1 1 7 4l1 8v9h3l3 4l5 5h4v1
h4v7q5 1 10 5l5 4l4 3h7v4h12v-4h4v4q3 -2 7 -3h4l4 -1q0 4 -1 8l9 1h9q12 1 20 3v2h1v-2h7v-4h14q1 -2 1 -4h14v-4q3 -2 7 -3l7 -1l2 -2l1 -2h6q1 -3 4 -6l5 -6h9q0 -1 2 -7h3q0 -1 1 -4l1 -3l1 -4l2 -1l2 -1l2 -1q1 -1 3 -6t3 -12q4 -17 -1 -22h-1v-4h9l-1 -3l-1 -4
q-2 -5 -2 -9h-4v-2h4l1 -23v-23h-4q2 -4 4 -18h-4v-17l2 -1h1q1 0 1 -2l-1 -3l-1 -3l-1 -2h4l-1 -2l-1 -4q-2 -6 -2 -11h4l-1 -9q-1 -5 -3 -9v-17l1 -18h4v-13h-4v-29h4q2 -5 0 -14l-2 -6q-1 -4 -1 -5q0 -24 1 -44q1 -26 4 -41q3 -5 -4 -8l1 -19v-23h4l-1 -18v-20
q-1 -23 -2 -38q0 -1 -1 -4l-2 -6q-3 -10 -1 -14h3v-6h1q2 -3 4 -8h-8q0 -3 2 -8l2 -8h-12q0 -9 -5 -14v-2q9 0 14 2q4 -8 4 -14q22 -2 32 -2l4 4h6v-12zM188 585q-2 1 -3 4l-1 4h-2q0 2 1 3q1 2 1 3h-12q0 -3 2 -5l1 -2q0 -2 1 -5h-4v-5h12v3h4zM206 566q3 -10 0 -15h-4
q0 -8 4 -9v-7h-4l2 -2l1 -1l1 -1l-2 -1l-2 -1q-1 -2 -3 -2v-2q11 0 15 2v4q4 0 6 -4q1 0 4 2l3 1l2 1v-6l4 1l5 1v10l1 9q0 9 1 16q-15 5 -34 4zM197 562q-4 0 -8 4v-7h8v3zM241 490l-1 5l-1 4q-1 6 -1 9h-4q1 1 2 4l2 5h-7v-9l-5 1l-6 1l-1 -3q-1 -3 -1 -5h4q3 -7 10 -8v-7
q4 1 7 3h2zM207 494q0 6 -1 12h-4q1 -4 -1 -6l-1 -2l-2 -1v-3h9zM207 436l-2 10q-2 6 -2 10q4 4 4 8h-4v23l-4 -1l-4 -1v-17h3v-7h2v-9h-2l1 -5v-4l1 -7h7zM233 429l-5 -1v-21h-4l2 -2h1q2 1 4 0q3 12 9 24h-7zM222 413v3h-2v-6q3 2 4 3h-2zM213 405q1 -5 3 -7t6 -3l1 5l1 5
h-11zM50 547q-1 5 -3 7v5h-1v-12h4zM215 393l-2 1l-3 1v-5h-6v-8l8 -5l8 -6q2 7 2 19q-4 1 -7 3zM66 522q-1 4 -4 5q-2 7 -8 8l4 -10h4v-3h4zM186 243q-1 49 -2 83q0 45 1 68h-2q-3 4 2 4q0 30 -1 43h2q1 5 -1 14l-2 7l-1 6q0 9 2 29q-2 5 -5 13q-2 9 -2 15l1 9v9
q0 12 -4 16v7q-4 6 -20 9q-15 2 -24 -1v-4h-5q-1 -1 -6 -8q-4 -7 -4 -8v-12h-3q-3 -19 -3 -55h4v-2h-4q0 -44 2 -130l-1 -19v-17q-1 -21 2 -31l-1 -8v-7q-1 -9 -3 -16h4v-8h4v-9l1 -10h-4v-19h4q-2 -11 -3 -24v-23l1 -22q1 -13 3 -22q-2 -2 -3 -8v-4l-1 -4h4q0 -1 -1 -5
l-1 -3l-1 -4q-2 -12 0 -18h4v-5q1 -3 3 -6q8 -3 11 -8l12 -1h10q12 0 18 7h3q-2 7 -7 10l-4 2q-3 1 -4 4v7h-4q-1 3 -8 12l-4 2l-1 2l-3 1q-2 3 -3 7v4l-1 4h-3l-1 3q-1 3 -1 5q7 3 12 13q19 5 28 24q2 -1 7 -2l4 -1l4 -1zM97 293l-1 32h-1l-1 -3l-2 -4q-2 -4 -1 -9l2 -1
q2 -2 2 -4h-4l1 -17v-15h-6v-8l4 -1h3q3 -1 4 -2v32zM74 276h-12v-4h12v4zM96 253q-4 0 -16 -4q0 -1 2 -2l2 -2h12v8zM97 234l-1 4h-4q1 -7 5 -8v4zM87 230h-12v-3h12v3zM66 235h-8l1 -2h8zM87 200h-6l2 -1q1 1 4 0v1zM59 222h-8v-4h8v4zM66 197q-3 1 -3 2l-4 -8v-1h4v-3
q2 3 4 3q1 1 2 3t2 2q-3 0 -5 2zM65 43q-2 9 -8 15v-11h4v-4h4z" />
    <glyph glyph-name="r" unicode="r" horiz-adv-x="271" 
d="M132 582v1l4 1q3 1 4 2v-4h-8zM178 505v-8h3q0 -4 4 -8h-4q0 -5 -1 -8l-1 -3l-1 -3l-2 -2l-3 -1q-1 4 -1 15l-1 8l-1 7l-1 1l-1 2q-3 2 -2 7l2 4l2 4h-4l-1 11q-1 7 -3 12h-1v6h-3v9q-2 1 -5 3l-3 2q0 1 1 3t1 4q-8 1 -9 4q8 6 9 9h2l-1 -2l-1 -3q-1 -4 0 -7q8 -6 21 -13
q0 -3 1 -9v-9h7v-20h4q2 -6 4 -15h-11zM209 456q2 -4 0 -7l-2 -2l-1 -2v-1h-3q0 6 3 12h3zM186 457q0 -2 -2 -8l-3 -9h-8q0 13 -3 16q0 8 3 12h8q-3 -6 -3 -12q2 1 4 0v-1h1l2 2h1zM260 9q-34 -16 -40 -12v1h-23q-1 1 -6 13q-4 10 -5 14v8h-1v10h-4v8h-3l-1 5v5q-1 5 -3 9
h-1v6h-3l-2 10l-2 10h-4v9h-1v8h-3v10h-4v8h-2l-1 8l-1 9h-4q-1 3 -2 9v6l-1 6h-3v12h-2v12l-2 1l-2 1l-2 1v11h-4v7h-1v9h-3v3q4 0 3 5l-4 1q-2 1 -3 2q0 1 -4 5l-1 -4v-5q-1 -6 1 -11v-46q3 -10 2 -32v-16q1 -8 2 -14l-1 -6v-5q-1 -6 -3 -10v-36q1 -2 2 -2h1q1 0 1 -1h-4
q-1 -6 0 -15l2 -13q2 -15 -2 -22l-2 -1v-1q-1 -1 -6 -1q-1 1 -26 -1h-18q-9 0 -13 1v3q-5 1 -12 4q5 16 0 34h-2l1 14l1 14h-2v12l9 14l8 14l12 6l-2 5l-2 5h4v1h12q0 1 3 4q3 4 5 5v7l-4 1l-4 1v16h2q0 3 2 8q1 5 1 7h-3l-2 4q-1 -1 -2 -5l-2 -6q-3 -9 -4 -9l-8 1h-8v-1
q-9 -10 -15 -12v13h-2q1 4 1 9v5l1 5h-2l1 12v7l1 7q0 40 -1 56l6 -1l6 -1v2h2l-2 -8l-2 -9q-1 -1 -5 -3l1 -3q1 -3 1 -5t-1 -2t-1 -3l6 1h6v11h-3v1h5q1 -4 1 -12h1v4q4 1 5 3v12h6v4h-4q2 11 2 12h2q-2 12 -2 18h-2l1 4l1 4h3v8l-2 2l-2 2l-5 5q-8 4 -12 0v-1q-6 -8 -7 -8
v-19h-4v15l-1 16h-1v4h1l-1 18h-2q-1 7 2 7v31q6 0 2 56v1l6 3l-7 125l-3 48h-4v17q1 11 4 14q3 4 15 6q13 2 21 -1v-1l3 1l2 1q3 1 7 -1v-1h17v1q5 2 17 1l9 -1q4 -1 6 -1l2 1l3 1q4 1 9 -1v-1h8v-4q4 -1 10 -3l9 -4v-1h5l1 -3l2 -4l12 -4l13 -4l2 -2l1 -3l3 -3h6
q2 -3 12 -21l4 -7l3 -6q4 -7 5 -9q3 -8 1 -24l-1 -12l1 -13h4l-2 -3l-1 -2l-1 -3h4q1 -4 1 -11l-1 -11q-1 -15 3 -19q0 -5 -1 -10l-1 -3l-1 -3h-5v-7q1 -2 5 -3v-16q0 -22 -7 -37l-3 -7l-3 -6q-5 -9 -8 -15h-6l-1 -5q-1 -4 -1 -7h-6l-6 -1q1 4 2 6l1 4q2 3 3 10q2 -1 6 -2
l6 -1q-1 4 -2 11t-2 11h15v8q-4 3 -5 4h-4q0 2 -1 8q0 5 -1 7h-9q0 2 1 4l1 2l1 2h-6q1 4 2 7l1 4q2 4 3 12l-6 3h-3v4l5 1h4l1 -3l1 -2q5 6 6 16h-11v4h-9q0 2 -10 7t-10 8h15l-1 2l-1 2q-2 3 -1 6l1 2l3 2q3 3 1 8q-1 0 -2 2l-3 2q0 2 1 1l1 -1l1 1v30h-9v3h6q0 3 -6 14
h-3l1 2l2 2q2 4 0 6h-3q-2 7 -3 7h-2q-3 0 -6 1l2 8q-2 0 -3 1q-2 1 -3 3l4 1q-2 3 -3 7v4l-1 4h-12l-9 1q-1 -8 -8 -6h-6q-3 0 -4 -4q-3 -1 -6 -3l-5 -2q-6 -3 -16 -3q-2 -12 -1 -39l1 -24v-26h-3q2 -5 3 -5q2 -25 3 -56v-28l1 -29h12v-3h3v3q15 0 34 12l2 11l3 11
q4 14 4 24q2 -2 8 -3v-16q6 0 9 12l1 5l1 4q1 5 4 7l2 -4v-3h-2l11 -4v-20l12 -20h-2v-4l-2 2l-3 2q-4 2 -7 0q-4 -6 -8 -8v-15l-9 -8q-1 -10 -6 -11h-3l-4 -1q-4 -1 -8 -3q0 -3 -2 -4l-3 -2q-4 -1 -3 -4q3 0 5 -1l2 -2q0 -3 3 -3v5l12 4q6 2 11 3q1 -5 4 -12l-12 -4l-5 -2
l-6 -2q0 -17 3 -25h1v-7h4v-20q1 -1 7 -3q2 -17 4 -28h4q0 -7 2 -15h2l1 -6q1 -3 3 -6h2v-11h3v-8h3v-11h3v-8h3q0 -3 1 -9l2 -10h2v-5h4l2 -9l2 -10q3 -13 4 -19h3v-6h3l3 -9l2 -9q2 -12 4 -17q1 -4 5 -4v-8l2 -9l1 -18q1 -2 5 -2v-16zM57 265v-6h-2q0 3 2 9h1v-3h-1z
M62 254v5h1v-5h-1zM57 242v5l1 1v2h1v-8h-2zM60 140v5h6v-5h-6zM51 131q-2 -1 -6 -2l-6 -1v8h4v4h8v-9zM54 119l-1 -2l-1 -2q-1 -3 -1 -8h-8v4h-4q2 3 3 6l1 7q5 -1 8 -5h3zM97 624l-1 2v-3l1 -4v5zM235 472q-2 -2 -9 -4v-11h4v3q4 2 5 4v8zM104 570h-5l1 -7h4v7zM143 353
h-5q1 -2 0 -2q0 -1 2 -2v3h3v1zM128 352h-4v-3h3v-4h1l4 8zM160 289l-6 -1v7q-5 1 -8 5q-18 0 -19 -8h5q2 -10 3 -12h15q8 -1 12 -3q4 5 4 15q-2 -2 -6 -3zM166 169l-1 -1l-1 -2l6 3h-4zM152 188q-3 0 -6 -3h-3v-4h9v7zM173 150l-1 2v2l-1 1l-1 2v-4h-4v-3h7zM195 124h-9v7
h9q-8 10 -9 17q4 1 7 2h2v8h-9q-1 -9 -12 -10q4 -7 11 -8v-9h-4v-12h4v-3l3 1l2 1l3 1v4h2v1zM92 150l-4 2l-5 1v-8q4 2 4 1q1 0 2 2h3v2zM100 54h-3l-1 -4l-1 -3v-4h5v11zM83 51h-3v4h-2v-12h5v8zM51 8q7 1 9 8q-7 -3 -9 -8z" />
    <glyph glyph-name="s" unicode="s" horiz-adv-x="232" 
d="M222 67q-1 -1 -1 -3l-1 -4q-1 -6 -2 -7l-2 -9q-1 0 -2 -2q-1 -3 -2 -3q0 -1 -2 -3q-3 -1 -3 -3h-2v-4l-3 -2l-3 -2v-6l-4 -4h-8v-3q-1 -2 -3 -3h-5q-2 -5 -3 -6h-5l-2 -3q-1 -1 -1 -2h-6v-3h-4v-4h-9v-3h-12v-1q-6 -3 -17 -1l-9 1l-3 1h-3l-12 2l-12 1v4h-4v3h-7
q-3 3 -11 8l-12 9v4q-4 4 -8 4q-3 3 -7 13l-3 9q-1 3 -2 7q3 3 4 5q4 0 7 -1q4 -1 7 -3v7l12 7l13 7q1 2 2 3l1 3l-3 1l-4 2l-7 3l-1 5l-1 6h4q0 10 -2 16h2v1q4 2 6 -1l1 -4l1 -3l2 2l2 1q2 2 4 5h11v-1q3 -3 4 -10l1 -7v-7q1 -19 7 -24q1 -3 4 -6l3 -3l4 -3q18 0 28 12
q7 12 7 23q0 16 -1 28l-1 12l-3 13l-2 2l1 6l-2 2l1 7l-3 1q0 10 -6 30h-2v10l-3 4v7l-3 4v4h-4v10l-1 10l-4 5v12h-3l-3 6h-2l-2 8l-2 8l-1 4l-5 3l-1 5h-2l-1 7h-3l-2 9l-4 2l-1 5l-2 -1l-2 11l-4 2l-2 12l-5 3l-6 15h-1v4h-3v8l-4 4q-1 6 -2 10l-1 3q-1 2 -1 5h-4l-2 5
l-1 5q-1 6 -3 9l-7 17q-2 7 -3 10v2l-1 1q0 1 -2 12l-5 15v8h-3l1 13h-4l1 10h-2l1 8h-2l3 11h-4l2 9l-2 17q-1 9 1 23l2 11q1 6 1 8l8 9h1v5h3v6q1 0 7 4v4h1q8 8 10 12h6q1 1 1 3l1 4h6q2 1 2 5h8v3l3 1l5 1q5 1 8 3v3h16l4 2h18v-2h23v-3q4 -2 12 -3l5 -1l5 -1q0 -1 1 -4
q1 -2 2 -3h6l6 -1v-3q4 -4 13 -12v-7h5l4 -1q2 -8 6 -22h3v-16h2v-12h-2q0 -3 1 -9t1 -10h3q0 -3 -1 -7l-1 -4l-1 -4l2 -6l3 -5q2 -7 2 -16h-32v-3h-12v3q-7 3 -17 1l-7 -2l-6 -2q-3 18 -3 36h3v17h-3q0 13 -12 28h-29v-1h-5q-3 -3 -6 -7q-3 -6 -4 -11l-3 -20l2 -13
q2 -3 1 -11l-1 -6v-5h1l2 -9l3 -4v-5h3l-1 -8l3 -4l2 -6h2l-1 -9l5 -8l2 -7l1 -7q1 -9 3 -16l3 -4l1 -11h3l1 -4l6 -9q2 -7 9 -23l2 1l1 -8l3 -4l8 -13h3l1 -8h2q7 -15 11 -31h1v-5l5 -2v-5h3q3 -13 5 -16h1v-12h3l4 -10l4 -4v-7l4 -4v-14h4q1 -4 2 -12l2 -12h2v-4h2
q5 -18 6 -33h2l-2 -8l2 -4l-1 -4l3 -1l-1 -8l3 -4l-2 -8h1l-2 -20h3v-8l2 -9zM53 101q-6 2 -8 8h8v-8zM43 101q-4 -5 -12 -6q-3 -3 -7 -4l-2 6l-3 6q4 2 5 10h10q-3 -6 -3 -10h8v-2h4zM27 60v-3h-3v7h-1l1 3v5h3v-8h4v-4h-4zM102 9q-1 3 -1 4l-1 2v-6h2zM70 45h-1v4
q-13 -1 -16 -16h-6v-4h14q3 7 9 12v4zM45 42q-1 4 -1 5l-1 2v-7h2z" />
    <glyph glyph-name="t" unicode="t" horiz-adv-x="211" 
d="M210 605q0 -17 -4 -25q-10 -1 -28 -1l-17 1h-17v-6h-4v-4h4l-1 -3l-1 -3q-2 -4 -2 -6h4v-218h-4l1 -5l2 -5q3 -6 1 -12h-4q0 -3 2 -7l2 -6h-4q0 -14 -2 -21h-24v-5h8v-3q4 -2 8 3q4 0 6 -1l2 -1l2 -1q0 -7 -2 -12h-12v7q-7 -1 -11 -4q-3 -1 -6 -4q-6 -7 -14 -8q0 4 1 8
l2 8h-3v11h-9v-3h-3q0 -8 3 -12h3v-12h2v-5q2 -1 4 -3q2 -1 3 -3h12q-1 -5 -3 -11l-2 -5l-2 -6q10 -4 11 -7q4 2 7 8l3 4l2 3h4v6l1 1q0 1 1 5l-4 1l-5 1v9l2 1l1 1q10 0 18 -5q-3 -16 -3 -43t3 -38v-33h-4q0 -7 4 -9v-16h-4q-1 -6 1 -12l2 -5l1 -5q0 -4 -1 -19v-13l-1 -13
q-1 -32 5 -37q0 -10 -3 -14q-10 -2 -23 -3l-23 -1v4h-21v3h-2v-3q-1 -2 -4 -3l-5 -1l-1 3l-1 4q-2 5 1 11h1q1 5 1 22q0 18 -1 29q-1 15 0 49v123l1 6v5q1 7 2 12h-3q-3 10 -1 30l2 14l1 7l1 5q-1 4 -2 9l-1 7h3v26h-3v8h-1v4h1v4h3v40q0 2 1 10q1 9 1 18q1 27 -2 36h-1
q1 0 1 2v16h22q2 0 4 -8h3q2 8 8 8q0 17 -4 22q-2 3 -16 9v5h-5q0 -15 -6 -20q-1 -1 -6 -4v4q-2 3 0 12q1 6 4 14h10l2 -3q1 -2 1 -3h5q2 2 3 5l1 4h-20v2q-5 4 -6 18v24h-69v59l103 2q69 1 103 1q2 -4 4 -5v-30zM91 580q-10 -2 -14 -2q0 -4 -1 -10t-1 -9h6v3q2 2 2 3l2 3
q1 2 6 2v10zM98 452q-6 8 -17 12v-8l4 -2l4 -2h9zM91 441h-10v-11h8v3h2v8zM98 407l-1 2v2l-1 1l-1 2v-7h3zM91 418q-6 0 -14 -4v-4q2 0 5 -1l4 -2q3 9 5 10v1zM123 341h-5v-5h5v5zM89 363v3l-1 5q-2 5 -2 8h-9l1 -7q1 -4 3 -8h-4q-3 -14 6 -19v-5h3v23h3zM126 309l-4 8v8
q-2 2 -3 1l-1 2h-12q-4 -10 4 -15v-4q2 3 5 4q3 2 7 0v-4h4zM112 279h-9q2 -6 9 -8v8zM112 156q1 3 -1 4l-1 1v4h-4l-1 -7q-1 -3 -2 -5q4 1 7 3h2z" />
    <glyph glyph-name="u" unicode="u" horiz-adv-x="276" 
d="M245 155q1 -3 -1 -14l-2 -9v-4l-1 -2v-23h2q3 -9 1 -27l-2 -14v-6l-1 -5q-28 6 -32 6l-1 -4q-1 -3 -3 -4h-3v-10h-2q-6 -4 -28 -4v-8q11 0 20 -11q8 2 13 7v4h9q6 4 9 4v-12q-17 -9 -37 -23h-31l-29 -1v1h-23v4h-15v3h-5l-1 1v2q-1 1 -3 2h-4v3h-6v4q-20 8 -24 16h-3l1 3
l1 2l1 3h-4l-2 7l-1 9q-3 11 -4 20q-3 25 0 40h3l-1 6q-1 3 -2 5h3l-1 2l-1 4q-2 6 -1 12h3q0 6 -4 8v65l1 2h1q1 -1 1 2q0 4 -3 12h3l-3 11l5 3v2h-2v21l2 10v26h-5l-2 18h3l4 10v1h-4v6h-3l3 14h-3l3 26h-3v40l3 18h-3v16h3l-3 23l2 9h-3v26h3l-3 18h3v20h-3v18h3l-3 11
l7 8h-4v5l5 -2v13h-1l-4 15h-3v15h3v4l10 1h10q2 -5 6 -1v1h13l13 1q15 0 22 -2v-46h4l-4 -12h4l3 -11l-7 -1v-7h-1l5 -37h-4v-11h4v-2h-4v-17h4v-4h-4l1 -23h4l-4 -28l4 -63l-4 -9v-24h4l-2 -29l4 -32q-8 -53 -4 -67h4q-2 -6 -3 -14v-7l-1 -7q0 -8 1 -19l1 -17
q1 -19 -1 -28v-24q1 -17 4 -22q0 -12 3 -16q7 -5 23 -10q7 1 23 10l1 19v20l-1 3l-1 2q-1 3 1 6q2 11 1 32l-1 18v18q4 2 4 4h-4v54q0 48 -1 73q-1 52 -1 157h-1q-1 4 0 19l1 11q0 6 -1 10h-1v21q3 1 1 8h-1q-2 7 -1 18l1 7l1 7v9l-1 8v18h1v19h-1v4h1v6l-1 7h79v-17
q5 -1 6 -3l-1 -4l-2 -4h-3v-11h3v-66h-3q0 -3 2 -2q1 0 1 -1v-20q-3 -15 -3 -42l1 -23v-65h-2l1 -8l1 -9h-2v-23h2v-17h-2l1 -7l1 -7h2q0 -2 -1 -8q0 -6 -1 -8q-4 1 -5 -1l-2 2h-2q-2 4 0 7l1 2l1 2h-2v9h-3l-6 -14l-6 -14q12 -4 15 -4l1 1v2q0 1 1 1v-4h7q3 -16 3 -37
l-1 -20v-31l2 -8l1 -16h-3v-16h3zM224 248q0 2 -2 4v-4h2zM224 225h-2q0 -7 2 -8v8zM46 381v-8l2 1zM211 223l-3 2q-2 4 0 23l-6 1h-6v-1h-3q3 -12 8 -15q0 -13 -5 -20h-3q-2 -3 -2 -4l1 -3q0 -2 -5 -5l2 -4q0 -1 2 -2q1 -2 5 -4q0 2 2 5l1 5l3 1q1 0 2 1h6v4q-3 1 -2 6h2
q3 3 3 8zM233 175h-5q1 -2 5 -4v4zM220 191h-10v-1l-2 -1l-2 -1q-3 -1 -5 -1v-8h3v-8l16 8v12zM208 171l1 -3q0 -1 1 -1q1 -2 6 -4l4 8h-12zM225 126h-8q3 -3 8 -5v5zM225 111q-9 2 -11 7v5h-3v3h-6v7h9v5q-17 0 -22 -3q-2 -5 -3 -11l-3 -9h2l1 -3l1 -2q2 -2 2 -3h10v-4h3
v-5q4 1 6 2l4 1q3 2 10 2v8zM44 213q7 0 9 4q1 4 -9 4v-8zM78 168l-2 3q-12 0 -16 -3q0 -2 4 -8h14v8zM65 142v-9h4l1 4l1 5h-6zM53 133q-1 1 -2 1l-2 1v-2h-4q2 -11 8 -12l4 12h-4zM98 98v2q-5 -1 -8 -2l-4 -2q-3 -3 -11 -4v6h8q-1 5 -3 9l-1 4l-2 4l-3 2l-3 1v-7h-8l1 -1
q1 0 5 -1l2 -6v-3q-8 1 -10 3q-2 5 -4 6v-6h4l-2 -2l-2 -3h4q0 -20 -4 -22q2 -12 8 -14q4 -7 14 -11q0 9 -2 11h2l3 7l2 5q2 6 4 10h10q0 9 1 14h-1zM141 39l-10 -1l-11 -1v-2h-2q1 -8 8 -8v-8q-7 -1 -11 -2l-3 -1q-2 -1 -6 -1v-8h14v-4q12 0 21 4q-1 2 -2 6l-2 6h12
q1 4 2 7v2l1 3q-8 2 -11 8zM106 43q-10 -3 -11 -8v-8h-7v-4h-13q3 -5 10 -8l7 -2l7 -2v8h4l3 4l3 3q4 4 6 9q-8 1 -9 8zM57 65q-1 2 -3 3l-2 1v-8h1v1h4v3zM69 49q-1 3 -4 5v-5h4zM83 81q-6 0 -8 5q4 -2 8 -2v-3zM77 76q-1 -4 -1 -5t-1 -2v-4h-4v11h6z" />
    <glyph glyph-name="v" unicode="v" horiz-adv-x="250" 
d="M236 627l-2 -7l-2 -5v-17l-1 -18h-3v-21l-1 -21h-1q0 -16 -1 -23l-1 -2h-2q-1 0 -1 -1l1 -3l1 -2q3 -3 2 -7h-4q0 -8 -2 -24q-1 0 -1 -1l-1 -2v-14l-1 -15h-3v-13q-1 -8 -1 -14l-1 -3q-1 -8 -1 -27h-3q-2 -4 0 -10l2 -5v-5h-3v-4h-3l1 -3l1 -2q2 -3 1 -7h-3v-16l-2 -1
l-3 -1l3 -12l2 -12h-4v-21h-1q-3 -17 -3 -46q-2 0 -3 -3l-1 -3v-25l-1 -2q-1 -3 -3 -3q2 -3 3 -7v-3l1 -2q-4 -2 -4 -7q5 -2 4 -4l-1 -2q-1 -2 -3 -2v-14h-1v-24q-1 -15 -1 -24q-2 0 -2 -2v-16q-1 -11 -1 -17h-4v-26l-1 -1q0 -1 -1 -1v-16l-1 -15q0 -1 1 -4v-7h-1v-23h-45
q-25 1 -38 0q-2 4 -3 10v5l-1 6l1 2v2l2 7q2 9 1 14q-2 0 -3 2l-1 2v19h-3q0 4 1 10v11l-2 5v19h-4q0 15 4 31l-4 3v4q-1 0 -2 2l-1 1v17q-4 3 -3 3v10l-1 10h-1v23q-3 0 -2 3q-2 22 -2 26h-4q-2 5 1 13l2 6q1 3 1 4h-4l-2 8l-3 7h-1v31q-1 0 -3 3v6l-1 6q-1 0 -2 2
q-1 1 -2 1v22q-2 0 -2 3q0 10 -1 18l-2 6v26q-10 21 -6 70q4 -3 8 -5q-1 -2 -1 -5v-4h2v-6h6l5 -1l1 2v3h-8q-1 19 -13 21v8h-6q-1 12 3 19q-2 1 -5 3q-3 1 -4 2q-2 2 -1 16l1 12v13h-7v5l8 2l7 2q8 3 17 3v8q-5 -2 -13 -4l-7 -2l-6 -2q-2 2 -3 8h-4v4h4q1 3 -4 8v10h4l3 4
l3 -4q-4 -3 -6 -8h3q2 -10 3 -14l4 1q2 1 4 3l4 8h-4v5h-3l-1 7v7q0 9 -3 11q-1 4 -1 5t-1 2q-4 -7 -6 -15h3q1 -2 1 -5h-2l-3 1l-3 1q-1 2 -2 6l-2 8q-2 11 -4 13q0 11 4 19q3 0 14 1l9 1l11 1q25 2 31 -3q2 0 5 -1l3 -1q0 -2 -1 -5l-1 -4h2l1 -16q1 -10 3 -16h2
q1 -8 1 -22l3 -3v-14l3 -54q2 -20 2 -29q1 0 1 -1l1 -2q0 -13 1 -23h2l1 -1l1 -9v-10q3 -45 4 -45v-19h2l1 -14v-13q1 -3 2 -7q1 -6 2 -11q3 -16 3 -28h6l2 32l2 32h4l-2 8l-1 6h4q0 6 1 35t1 34q2 5 4 5v34h1q1 5 1 15l1 1q1 1 2 1l1 18q1 11 1 18q1 0 2 3q0 2 1 2
q0 5 1 42t1 43q0 1 1 0q1 0 1 3v2h-2q1 10 6 20h12v-4h2v4h31v-4h7v-2h23l1 -1l2 -1q-1 -6 -4 -14zM68 627q-3 -4 -8 -1l-4 3l-4 3q-2 -14 -1 -24l3 -1l2 -1h7q-3 4 -3 14h8v7zM48 627h-8v-3h-4l4 -16h4v16h4v3zM45 588q-1 4 -1 5t-1 2v-7h2zM55 582h-1l-1 -1q-1 0 -1 -1h-3
v-9h4l2 6l2 6zM54 537l-3 -2l-5 -1q2 -6 8 -8q1 5 4 8l2 2l2 3q-5 -1 -8 -2zM54 524h-1l-1 -5l-1 -4q-1 -5 -1 -9h-4q1 -4 1 -12h4v-1h3v8q1 -1 3 -2l6 -1q-9 18 -9 26zM82 468h-11q-2 5 -4 13l-4 12h-6l-3 -1v-7q-2 2 -5 3h-2l-2 1l-1 -2q0 -1 -1 -2q0 -2 1 -4q1 -3 1 -4
h10v-14h4v-3q7 2 8 3v2l6 -1l5 -1v2h4v3zM95 417q0 13 -6 16l-2 3v-5q-2 -2 -6 -2h-3l-3 -1q7 -5 12 -6v-5h8zM89 356v-8h2l1 4l1 4h-4zM81 327v-2q0 -8 1 -12h1q0 2 1 6t1 8h-4zM70 313v12h-1q-4 -5 -2 -12h3zM71 309v-4h5l5 -1q0 3 1 5h-11zM70 302h-4v-1q0 -1 3 -1v-2h1
v4zM78 282l-2 8l-1 7h-4v-15h7z" />
    <glyph glyph-name="w" unicode="w" horiz-adv-x="405" 
d="M392 625q-4 -2 -6 -2q3 -8 4 -17v-8l1 -8h-5v-17h1v-3l-2 -1q-1 -1 -2 -3v-12h-4l1 -7l1 -6q1 -7 2 -10h-4v-12h-3v-23q-4 -12 -7 -36l-3 -18q-1 -10 -3 -17q1 -11 1 -27h-3v-23h-4v-23h-3v-12h-1q-4 -21 -4 -48q-4 -12 -9 -38l-4 -20l-5 -20v-49q-3 -8 -7 -23l-3 -12
l-2 -10v-20q-12 -39 -5 -88h-6v-8h-3v-4h-42q-28 2 -33 9l-1 1h-1q-2 1 -3 3v9l-1 10h5q0 56 -8 86v36h-4v30h-1v20h-3q-2 17 -3 44l-2 44h-3q-1 18 -2 40l-3 39h-3l-2 -30l-3 -31h-3v-18h-3v-15h-4v-23h-1v-31h-4q1 -5 1 -13v-14h-3v-16q-4 -16 -8 -51l-4 -27
q-2 -14 -4 -24v-38h1v-8h3v-5l-1 -5q0 -6 -1 -9h-5v-9h-4v-5q-32 0 -65 3q-1 5 -3 14l-2 8l-2 8h-2v28h-2v19h-4v19h-3v30h-2v25h-3v17h-3v46h-4q-1 11 -1 31h-2v12h-3v31q-5 14 -8 43l-3 22q-1 12 -4 21v35h-3v8q-1 6 -1 8h-2v23h-3v23h-3v25h-3v27h-3v23h-2q-1 14 -4 43
l-2 21l-2 21l15 3q12 1 23 2q30 1 35 -6h8l2 -23l2 -22q2 -26 2 -42h4v-60h1v-24h4v-24q2 1 3 1q0 -16 1 -24h4q0 -9 1 -25v-26h3v-38h4v-22h3v-5h1q1 -5 0 -9l-1 -2v-3q2 1 5 4h4q-3 5 0 24q-6 -2 -8 -4h-1v10q6 2 8 5l1 4q1 2 4 4q0 6 -1 15q-1 10 -1 12h2v5q-8 4 -4 13
l2 2l1 1l1 2v13h4v10h2q0 1 -1 7l-1 5l-1 6l2 14h4q0 5 -4 5v19h4v58q4 0 4 4v19q5 18 7 48q2 23 1 44h3v5q50 0 80 -5q1 -5 2 -18l1 -12l1 -12q3 -30 5 -45v-50h4v-26h2v-29h3v-13l1 -14h3v-32h2l1 -19l2 -19q2 -24 4 -41h2q2 -7 10 -9q-4 12 -4 18h4q0 6 1 16v32
q-1 12 -1 16l2 2q1 1 2 3v13h4v10h3q0 1 -1 4l-2 4q-3 7 -1 11h3q0 3 1 8l1 7h3v44h3q0 9 2 24q1 15 1 23v37h3l1 35q0 22 1 33h2v5h41v4h3v-4h15v-4h23v-2q2 0 4 -2q-2 -4 -5 -6zM284 284h-5q0 2 -4 5v-1h-2q1 -5 10 -14h1v10zM287 270l-2 -2v-2q0 -2 -1 -2q-1 1 -3 1l-6 1
v-2h4v-4h8v10zM269 69q-5 5 -8 11h-9l1 -4v-4q1 -4 3 -7h8v3h5v1z" />
    <glyph glyph-name="x" unicode="x" horiz-adv-x="245" 
d="M18 586q-1 -1 -2 -3t-1 -5h-3v-2h-4v9l5 1h5zM26 441q-1 1 -2 5v3l-1 2h2q2 0 5 -1v-9h-4zM230 -9v-3q-5 -1 -5 3h-49v4h-5v2q-4 4 -5 12l-1 7q0 4 -2 8h-3v11h-1q-2 4 -4 10l-2 5l-1 5h-2v27l-3 22l-4 22h-2v7h-4v14l-4 14l-4 15q-4 17 -4 31q-3 -3 -3 -13v-8
q-1 -4 -2 -7h-5v-18h-2v-14h-2v-14h-4v-7h-3v-16h-3q0 -6 -1 -17l-1 -15h-3v-23h-5v-17h-2v-12h-3l-2 -8v-8q0 -9 -3 -13q-7 -7 -39 -7h-25l-10 1h-7q1 11 5 24l3 11l4 11l1 13l2 12h3v8h2v12h3v11h3v12h4v10h2v12h2v11h4l1 12l2 13h1v14h4v8h4v15h3v7h1v10h4l1 18l2 18h4v4
h1v8h3v22h4v11h2v12h2v13h4v10h2l-34 151l-34 151q11 0 23 1l10 1h9q20 2 34 -2q2 -7 4 -23l1 -11l2 -12h2q1 -8 2 -21v-10l1 -9h3v-13h4l1 -16l1 -17h2l2 -13l1 -13q0 -15 5 -21v-6q3 4 3 13v8q0 5 1 10h4v22h2l2 17l1 16h3v13h2q0 6 2 19l1 10l1 11h3q1 8 3 23l1 12l1 11
q14 4 35 2h9l10 -1q13 -1 24 -1l-35 -151l-35 -151h4v-10h3v-13h1v-12h4v-11h4v-22h3v-8h1v-4h4l1 -18l2 -18h3v-10h2v-7h3v-15h3v-8h4v-14h1q1 -5 2 -13l1 -12h4v-11h3v-12h1q2 -5 3 -11l1 -11h3v-11h4v-12h1v-8h4v-12q1 -8 3 -13l3 -11l3 -11l6 -24h-15zM156 237
q-2 0 -4 2l-2 1l-1 1v4h-2q-2 7 1 12l2 2l2 2l-1 10l-2 9h-2v3h2l-2 8q-4 2 -9 3l-6 1q0 -12 3 -29q2 -18 5 -25h4v-7q5 -1 5 -2l-1 -8l-1 -7h2q3 -4 8 -5zM164 204h-7q3 -3 7 -4v4z" />
    <glyph glyph-name="y" unicode="y" horiz-adv-x="224" 
d="M28 591q-3 -1 -5 -2l-3 -3q-4 -2 -9 -2q0 5 -1 11v10q-1 11 1 20l8 1l9 2v-7h-12v-2l-1 -1q-1 0 -1 -1h5v-7h6v-5l-6 3h-3v-12h9v3h3v-8zM213 633v-20l-1 -20l-3 -1l-4 -1q-1 -3 -1 -6v-3q0 -2 -7 -7q2 -1 5 -4v-8l-1 -7l2 -1q1 -1 2 -3v-1h-3v-5l-1 -5h-7l1 -5
q1 -4 2 -7h4q0 -2 -3 -3l-2 -1h-2v-15h-3v-20l-3 -1q-1 -1 -2 -3v-8q-3 -1 -7 -2l1 -6l1 -6q2 -7 2 -11h-4v-6l-1 -6h-4v-20h-3v-9h-4v-13h-1v-15l-3 -1q-2 -1 -4 -3v-16h-3v-6h-1v-36h-4v-9h-4v-24h-2v-9h-2v-41q-5 -4 -4 -8h4v-12h-4v-4h4l-1 -14q-1 -9 -3 -15h-2
q1 -4 3 -10l2 -5l1 -5h-4v-8h-2q-1 -4 0 -7l1 -2l1 -3h-2v-8h2l-1 -19l-1 -19q1 -4 1 -9l1 -11q1 -16 0 -28q0 -14 -2 -38q1 0 3 -1l3 -2l-2 -1q0 -1 -2 -1q-4 -4 -8 0l-2 1l-3 1q-2 1 -6 0v-2q-9 -2 -20 -1l-10 1h-8q-5 -1 -11 -2l-11 -1q-3 4 -3 14h3v5h3v30h2v49
q-4 0 -2 4h2v30q-4 0 -2 4h2v8h3q2 4 0 10l-2 4l-1 2q5 2 7 3q1 5 -4 5v33h8v5h-8v19q1 0 3 1h3q1 3 0 5l-3 3q-4 3 -3 7h4l1 8v4l1 5h6v4q-8 3 -8 5l1 1v1q0 2 -1 5l-2 1l-1 1l-4 2q-1 2 -1 3v1q0 1 -4 4q1 9 5 9l-1 4q-1 3 -1 5q5 3 5 4q-3 3 -11 4l1 6l1 6q0 8 -2 15
l-1 1h-1l-2 3q-1 1 -2 4h6q0 6 -2 11l-2 5q-1 3 -2 7q-4 1 -6 3h-4l5 5l5 4h-6v4h3v3l4 -1q3 -1 5 -2v7h-12v13h-6q0 8 3 13q3 6 3 13h6v6h-12q0 1 1 4t1 5q-2 1 -4 3v5l-3 1q-2 1 -4 3l2 7l1 6h-3l3 3l-1 6l-2 6h5l4 1h9v19h3v5h2q4 5 4 11q-16 0 -20 7h-7l1 -3l2 -2
q1 -3 0 -6h-3v-4h3v-8q-2 0 -5 4h-3l2 2l1 2l-1 1l-2 1q-2 1 -3 2v11h3q0 3 -3 4h-2l-1 1v10h-3q0 3 2 8q1 6 1 8h9v7q-4 1 -4 0q-1 0 -2 1l3 1l3 1q4 2 9 2v8q7 3 8 9h-12l2 7l2 7q-5 1 -7 3l-2 4q1 0 9 2v9q7 0 14 2q8 3 12 7q6 0 7 -5l1 -4q1 -3 3 -4q0 -4 1 -10l1 -11
q2 -13 2 -15q-5 -3 -2 -8q1 0 3 -2l2 -2v-5l-1 -4q0 -6 -1 -9h3q0 -7 2 -19q2 -13 2 -18h2l1 -10v-11h3v-11h4q1 -6 1 -11h1q6 -36 10 -83h5q1 17 5 40l4 19l3 18v11l-1 10q1 0 3 2l2 1l1 1v48h4q1 9 1 27h6v11h-2q-1 33 2 49q14 -2 37 -1l18 2h17zM178 593h-11v-3
q-1 -2 -1 -3q3 -2 5 0l2 2l1 2h4v2zM194 551q0 1 -5 5l-2 -2l-1 -3h8zM144 531l-1 -1h-2v-15h4q2 6 4 17q-4 -1 -5 -1zM144 493q3 4 -1 4h-5v3h-6q4 -6 4 -11q4 2 6 4h2zM60 584q-11 -1 -15 -9h-4v-1h12q5 7 7 9v1zM145 472q0 -2 -1 -5t-1 -6q1 1 2 1v1q-1 2 0 4q5 1 6 5h-6
zM65 505l-1 3l-1 2v-4l-2 -1h4zM93 453h-5q1 -2 5 -4v4zM63 449h-10v-3h-2v-2h12v5zM80 415h-8q2 -3 8 -4v4zM82 249h-6l6 -2v2zM109 207h-11v-3h11v3zM93 215h-5q1 -1 5 -3v3zM82 196h-2v-10h2v10zM113 173h-3q-1 -6 -1 -15q-12 0 -16 4h-3q3 -5 3 -11q3 1 9 2l8 1v8h3v11z
M88 181h-6l1 -1v-1l1 -1h1l3 -4v7zM109 142h-7q1 -1 2 -1t5 -1v2zM82 169h-8v-7h8v7zM113 115q-1 0 -11 9q-1 -2 -4 -4q4 -6 7 -12h8v7z" />
    <glyph glyph-name="z" unicode="z" horiz-adv-x="228" 
d="M201 562v-15h-2v-6h-4v-17h-2v-3q3 -2 2 -5h-2q-2 -16 -2 -25h-4q-2 -9 -3 -23l-1 -24h-4v-11h-4v-11h-3v-12h-1q-4 -11 -4 -24l2 -1q2 -2 2 -4q-2 0 -4 -1q-2 -2 -3 -2v-14h-4v-8h-1v-19h-3q0 -6 3 -14q-2 0 -4 -1l-3 -2v-20h-2l-2 -1v-22h-4v-11h-3v-13q-3 -9 -6 -24
l-3 -12l-2 -11v-18h-4v-12h-1v-13h-4l-2 -17l-1 -18h-4v-16q-1 -11 -1 -15h-3l-1 -4v-5q-1 -5 -3 -10q66 0 89 4q0 -3 1 -17v-24q1 -32 -3 -36v-4q-5 -1 -6 4h-31q-53 0 -96 -4h-33q-3 6 -7 4v-4q-7 3 -12 4q4 22 4 35h3l-3 19q-1 10 -4 18l6 1h6v-1h3l1 10q1 6 3 10h2v15
l2 10l3 12q4 15 6 23v16h3v11h2v16q7 22 16 69l7 36q5 21 9 35q4 19 7 43h2v9h4v9h2v13h2v12h4v18h4v8h1v12h3q2 8 3 18l1 18h3l3 16l2 15q3 18 7 31h-49q0 -5 -8 -4v4l-12 -2q-8 -2 -13 -2q0 2 -1 3q-2 2 -2 3q-2 0 -9 -1l-5 -1h-6l2 12l1 12h-3v46l5 2l4 2q4 2 8 3v-4h15
v4q5 0 5 -4h147v-73h-3zM-46 103l2 -1h2l1 -1q1 0 2 -1q-5 1 -7 3z" />
    <glyph glyph-name="braceleft" unicode="{" horiz-adv-x="200" 
d="M126 677l-5 1l-6 1q4 14 4 21h7v-23zM119 626q0 7 -4 27h4v18h7v-31h-7q1 -5 3 -8l2 -2l2 -4h-7zM102 653v10h5v-10h-5zM107 640v4h4v-4h-4zM122 583q-2 5 -3 17v19h7v-36h-4zM126 571q-4 1 -5 1t-2 1h3l2 2q0 1 2 2v-6zM76 595q-1 1 -3 8h6v-8h-3zM124 527l-5 -1
q0 2 -1 9v12q0 14 4 18l4 4q0 -1 1 -7v-6l1 -7q1 -18 -1 -22h-3zM79 562q-1 1 -2 4l-1 4q1 -1 5 -1v-7h-2zM126 516q-3 -1 -7 -5h-8v5h8v3h7v-3zM79 545v5h2v-5h-2zM61 553v8h4v-8h-4zM127 459q-1 -3 -5 -7v4h-3l1 3l2 4h-3v5l2 -1l3 -1q2 -1 3 -2v-5zM171 -98q-31 2 -37 8
h-4l1 5q1 3 3 5q-3 1 -15 1h-9q-4 0 -7 1v2q-11 11 -16 24h-3v18q-5 16 -4 88v54q1 32 1 39l-2 110q-2 6 -3 10q-3 5 -4 5q-3 0 -11 19h-19q-21 3 -22 1q0 -1 -2 16q-1 9 -2 13q0 6 -1 6q-2 1 6 31l16 2l18 4l16 9q4 6 7 11q-2 120 -2 154h5v-8h3v-3h3l-1 4l-1 3q-1 3 -1 4
h3l3 6l3 5h6v1h4v-23h4v-1h-4v-10q1 -3 2 -12q1 -11 2 -20q1 -27 -4 -32v-20q3 1 4 3l3 2q2 2 5 3l4 -4v4l5 1h3v-9q4 5 4 42v27q-1 16 -1 18v124q0 3 1 11l1 15q0 17 -5 22q1 9 12 17v2q8 8 18 9q2 3 26 3l10 -1h26l-1 -61h-44v-4h-7q-1 0 -2 -2l-2 -2q-3 -12 -7 -24v-57
h-4v-34h4v-7h3q0 -3 -1 -12v-20q-1 -28 -2 -34v-53l-2 -14v-19l-7 -16q0 -5 -17 -17l-13 -11l17 -14q1 -2 8 -9q7 -8 8 -10q4 -10 9 -20v-100q1 -32 4 -40q-1 -10 -3 -58q0 -18 -1 -36v-49q0 -15 5 -20q2 -5 6 -7l3 -3l2 -2q3 0 22 1h20l2 -65q-21 -2 -48 0zM119 416
q-1 4 -4 7l-1 -6q-1 -2 -3 -3q0 -14 8 -15l1 9q1 5 2 8h-3zM126 -49l-5 -1l-6 -2v-15h4l1 -1h2l4 1v18z" />
    <glyph glyph-name="bar" unicode="|" horiz-adv-x="147" 
d="M110 541l3 -49q-2 -8 -1 -81v-42l1 -12v-51l-1 -1q-2 -1 -2 -5h3v-18h-3l1 -5l1 -4q1 -6 1 -9h-3v-72h3v-27h-3v-20q0 -4 3 -11h-3v-7l2 -5q1 -6 1 -8h-3v-15h-1v-46h-4l1 -7l2 -8q1 -11 2 -16h-1v-41h-4l1 -2l1 -3q3 -4 2 -7l-1 -2l-2 -1q-2 -2 -1 -4h4l1 -26v-25h-1v-3
q-17 1 -35 -4l-12 1h-12q-12 1 -22 3q-5 5 -7 14q6 3 6 5l-1 1v2q0 2 2 6q4 12 4 80v56q-2 7 -1 19v8q1 5 1 7v16q3 19 2 89l-1 27v26q-1 29 -1 39v15q5 0 4 5h-4v145h4l-1 12q-1 7 -3 12h4v48l-1 19q0 22 2 34q0 4 -4 5v11h4q-2 4 -3 10l-1 10h4q2 8 1 23l-1 13l-2 14
q-3 33 6 42v4h18q4 -5 21 -5l14 1h13q7 -10 7 -40h-4l1 -14q1 -8 3 -15q-8 -44 -4 -111zM83 693h-4v8h-6q1 -11 10 -14v6zM75 681h-2l-1 -1l-1 -1q-6 -9 -6 -12h6v6h4v8zM70 30v-8h4v4q1 0 1 1l1 3h-6z" />
    <glyph glyph-name="braceright" unicode="}" horiz-adv-x="199" 
d="M126 603q-2 -7 -3 -8h-3v8h6zM134 553v8h4v-8h-4zM122 566q-1 -3 -2 -4h-2v7q4 0 5 1zM118 545v5h2v-5h-2zM183 321q-1 -4 -2 -13q-2 -17 -2 -16q-1 2 -22 -1h-19q-8 -19 -11 -19q-1 0 -3 -5q-2 -4 -4 -10l-2 -110q0 -7 1 -39v-26l1 -28q0 -72 -5 -88v-18h-3
q-5 -13 -16 -24v-2q-3 -1 -7 -1h-9q-12 0 -15 -1q2 -2 3 -5l1 -5h-4q-6 -6 -37 -8q-27 -2 -48 0l2 65h20q19 -1 22 -1l2 2l3 3q4 2 6 7q5 5 6 20l-1 13v36q-1 18 -1 36q-2 48 -3 58q3 8 4 40v100q5 10 9 20q1 1 3 4l5 6q7 7 8 9l17 14l-13 11q-17 12 -17 17l-7 16v19l-2 14
v53q-1 6 -2 34v20q-1 9 -1 12h3v7h4v34h-4v57q-4 12 -7 24l-2 2q-1 2 -2 2h-7v4h-44l-1 61h26l10 1q24 0 26 -3q6 -1 19 -6t16 -8l14 -37l5 -118h4v-1h6l3 -5l3 -6h3q0 -1 -1 -4l-1 -3l-1 -4h3v3h3v8h5q0 -34 -2 -154q3 -5 7 -11l16 -9l18 -4l16 -2q8 -30 6 -31q-1 0 -1 -6z
M91 18h-7q-2 0 -3 1v2q1 1 -1 0l-7 -3v-51q0 -8 6 -3l6 6l6 5v43z" />
    <glyph glyph-name="asciitilde" unicode="~" horiz-adv-x="221" 
d="M203 307l-2 2q-1 0 -1 2l-2 2q-2 -1 -2 -4l-1 -3v-1l-3 3l-9 -10l-5 -4l-4 -4l-2 2q-9 -2 -20 -7l-3 3q-3 2 -4 2h-6q-4 -1 -6 -2l-4 4h-2l-3 -1l-2 3l-1 -1q-2 0 -5 2l-5 2q-7 2 -14 9l-2 -2l-3 2l-1 -1h-1l-1 1q-2 -2 -3 -2l-2 1q-2 0 -3 1l-3 -3l-1 1l-13 -16l-13 1
l-18 13q2 0 -7 10l-3 4l-3 3q-3 4 -2 4l-4 9q0 5 4 9l4 3l3 3h5l2 -1h1l2 3l1 3q0 4 3 6q1 -1 3 -2l6 7l4 -4q4 4 13 10q1 0 2 -1l4 -3q5 3 14 3l3 -4l4 3l5 -5q3 0 5 2l8 -6l1 1l1 -1h1l3 -2l3 -2l4 -2l4 -4l4 -2l6 -2q4 2 5 1l20 21l10 -5l37 -35l-3 -10l3 -2zM167 316
l-3 -3l2 -3l4 4zM88 359q-2 0 -6 -1l-3 -1l-3 -1l1 -7q1 -1 3 1l2 2q2 1 4 1l4 4zM64 355l-7 -8l1 -2q6 4 9 7z" />
    <glyph glyph-name="uni00A0" unicode="&#xa0;" horiz-adv-x="110" 
 />
    <glyph glyph-name="exclamdown" unicode="&#xa1;" horiz-adv-x="157" 
d="M134 558q0 -29 -7 -40q-3 0 -14 1h-17q-20 0 -24 -5l-37 2l-4 13v80q-2 4 -2 7v2l1 2q0 4 -6 7q2 9 7 14q9 2 26 3h14l13 1q19 -5 42 -4v-3h1v-11q-1 -2 -1 -11h-4q-1 -2 1 -4l2 -1l1 -2q1 -3 -2 -7l-1 -3l-1 -2h4q1 -19 4 -39h4zM126 84v-11l-1 -12q0 -14 -2 -24l1 -8
l1 -9q0 -11 -5 -15v-3h-8v3q-4 0 -11 -1h-13q-18 -1 -25 -2v3l-13 1l-13 1v13h-4v3h4v11h-4l1 3h4v15h3v1h-3v15q-1 9 -3 14h4q1 3 1 7v8q-1 10 3 13q0 1 1 1t4 1v-7h3q0 -4 -3 -5l2 -8l4 -8q2 1 12 3l1 16l-6 -2l-2 -2l-3 -1v2q-1 1 -1 2q1 0 0 3l5 1h7q0 14 1 14v3
q-4 2 -8 2q-2 4 2 6l3 1l3 1v11h-8q-3 -6 -16 -6v3l1 3h-4l2 12l2 12h12l1 5l2 3l2 10h-8v-9h-3v3h-8q0 3 1 8l1 3l1 4h5l-3 5l-2 3q-4 5 -6 11q6 1 13 1h6q4 0 8 1v5q-4 1 -7 3q-3 0 -5 -1l-3 -1l-4 -1q-1 3 -4 3q0 2 2 6l1 3l1 4h-1l-1 -1q-1 0 -1 2l1 1h1q1 0 1 1l-1 1
h-1q-2 2 -1 4h3v4h1v3q-1 3 0 7h1q-2 3 -4 3q0 8 2 19l1 10l1 9h-3q0 3 1 6l1 3l1 2h-3l1 9q3 2 3 8h-3q2 3 3 7h-3l1 7h3v3h-3v10q0 32 5 42v18h-3q0 24 -3 35h4l1 6h15l17 -1q22 -1 34 1q-1 -74 2 -194l2 -85v-24q0 -13 -3 -21q3 -4 4 -10l1 -10h-4l1 -28h4zM56 119h1l1 1
q-1 -1 -2 -1zM49 120v-1h-8l-1 5q-1 3 -3 5h4v3h4q7 -10 7 -12h-3zM88 566h-4v6h-6q0 -3 6 -12l1 -1l1 -1h2v8zM96 552q-9 -3 -10 -14h6v8h4v6zM62 564l-1 3q0 1 -1 1v4h-4v-8h6zM64 320v-4q3 3 3 4h-3zM65 278h-3v-3q-1 0 -1 -1q1 0 0 -2h-7q2 -7 15 -10q2 4 4 10
q-6 3 -8 6zM54 259q1 -5 6 -12h1l1 12h-8zM59 203l-1 -5l1 2l1 3h-1zM69 165h-4v-5h-12l-3 -2l-1 -6q-1 -4 -4 -8q8 2 8 3q4 2 8 2h5q3 1 3 9v7zM76 119l-1 -6l3 6h-2zM46 56q0 -1 -1 -1l-3 -2q4 -4 4 -10h7q0 4 2 7l1 2l1 4h-11zM61 40q-5 -1 -7 -3h7v3z" />
    <glyph glyph-name="cent" unicode="&#xa2;" horiz-adv-x="267" 
d="M80 600l-5 1l-6 1q4 14 4 21h7v-23zM73 549q0 7 -4 27h4v18h7v-31h-7q1 -5 3 -8l2 -2l2 -4h-7zM56 576v10h5v-10h-5zM61 563v4h4v-4h-4zM76 506q-2 5 -3 17v19h7v-36h-4zM80 494q-4 1 -5 1t-2 1h3l2 2q0 1 2 2v-6zM30 518q-1 1 -3 8h6v-8h-3zM78 450l-5 -1q0 2 -1 9v12
q0 14 4 18l4 4q0 -1 1 -7v-6l1 -7q1 -18 -1 -22h-3zM33 485q-1 1 -2 4l-1 4q1 -1 5 -1v-7h-2zM80 439q-3 -1 -7 -5h-8v5h8v3h7v-3zM33 468v5h2v-5h-2zM81 422q-1 -3 -5 -7v4h-3l1 3l2 4h-3v5l2 -1l3 -1q2 -1 3 -2v-5zM15 476v8h4v-8h-4zM244 150q-4 -8 -4 -17q0 -3 1 -12
l2 -14q2 -19 1 -28h-4v-19h-4v-5h-3v-8h-1q-4 -5 -4 -12q-6 -1 -11 -6l-4 -4l-4 -4v-4h-7q-2 -2 -5 -8q-3 -2 -8 -4l-5 -2l-6 -2v-59q1 -2 1 -4v-3q0 -3 4 -5q-1 -6 -5 -9q-8 -1 -20 -2h-21q-16 3 -32 2v2h-1l1 17v16h3q1 2 -1 4h-1l-1 1q-1 2 1 5l1 2l1 1h-3q-1 12 -3 26
h-3v2q-10 4 -11 6h-4l1 5q1 3 3 5q-3 1 -15 1h-9q-4 0 -7 1v2q-11 11 -16 24h-3v18q-5 16 -4 53v15l1 15v28q-1 49 -2 146l-2 73l-1 72h5v-8h3v-3h3l-1 4l-1 3q-1 3 -1 4h3l3 6l3 5h6v1h4v-23h4v-1h-4v-10l2 -6l2 -6q1 -8 -4 -12v-20q3 1 4 3l3 2q2 2 5 3l4 -4v4l5 1h3v-9
q4 5 4 22v13q-1 9 -1 12v124q0 3 1 11l1 15q0 17 -5 22q1 9 12 17v2l4 4q3 2 6 3q-1 11 -1 26v24q-5 8 0 12v5l-1 2q-1 2 1 4q8 1 22 2h11l10 1q6 8 35 0l-4 -14l4 -6v-6q-1 -1 -1 -8h-4q-1 -2 -1 -7v-7q1 -2 1 -13l1 -8v-4h4v-3h6v-3h5v-4q10 -2 18 -4l1 -3v-3l5 -4l4 -4
q5 -5 9 -7q0 -5 4 -12h1l2 -8v-4l1 -5h4q0 -20 4 -37h1q2 -4 0 -10t-1 -10l1 -2l1 -2q1 -3 -1 -7h-1v-27q-1 -15 -4 -23q-2 0 -9 -2l-6 -2l-7 -1q-19 -5 -24 -3v4l-12 1l-11 2l-4 1q0 5 1 24v30q1 38 -5 44q-1 9 -5 15l-4 4q-2 2 -3 5h-23v-4h-7q-1 0 -2 -2l-2 -2
q-3 -12 -7 -24v-57h-4v-34h4v-7h3l-1 -12q-1 -8 -2 -14v-53h3v-6h4q0 -5 -4 -6v-54h-3l2 -6l1 -6q0 -4 -3 -7q-1 -5 3 -8v-92q1 -17 4 -25q-4 -30 -4 -47v-26q0 -15 5 -20q2 -5 6 -7l3 -3l2 -2q14 0 30 12q0 2 2 10l2 7l1 5v43h3v61h4v22q1 1 2 1l1 2q3 0 9 -1q8 0 15 -1
q20 -2 22 -5q31 0 25 -34h-1l1 -8v-9q-4 0 -1 -6q1 -2 1 -8h-1zM126 700h-7v-4h-4v-4q2 0 4 1l2 2l3 1l1 1l1 1v2zM134 670h-6v2h-5q2 -6 11 -7v5zM73 379q-1 4 -4 7l-1 -6q-1 -2 -3 -3q0 -14 8 -15l1 9q1 5 2 8h-3zM90 300h-2v54q0 28 -4 33q-3 -7 -4 -28q-2 -22 1 -31h3
v-12h-3v-15h1l1 -1q2 -1 1 -4h-3v-15h3l-1 -9l-2 -10h3v-47h-3v-10h3q0 -4 -1 -8l-2 -7h3q2 -6 2 -15q-1 -6 -2 -17q-2 -22 0 -25v-4h4v15h2v156zM76 238q-2 10 -7 13l-1 -6l-1 -7q-1 -8 2 -11v-12h4l3 4v19zM175 27h-6l1 -3q0 -1 1 -1v-1h4v5zM139 53v-8h-4v-6q9 3 10 14
h-6zM76 83v18h4v28q-6 3 -7 4h-4v-12l-1 -14q0 -16 5 -20v-16h3l1 3l1 2q2 3 2 7h-4zM150 27l-2 1l-1 3l-1 1l-1 1h-2v-8h4v-1l5 -1zM80 44l-5 -1l-6 -2v-15h4l1 -1h2l4 1v18z" />
    <glyph glyph-name="sterling" unicode="&#xa3;" horiz-adv-x="287" 
d="M269 522q-1 -22 -3 -37q-8 -3 -26 -3l-16 -1h-15q-15 18 -15 36q0 7 1 20v19l-2 2q0 1 -1 4q-2 1 -3 3l-1 2l-1 1h-7v3h-32q-4 -14 -16 -20q4 -6 4 -18q0 -4 -2 -10h-2v-15h2l-1 -23l-1 -23h-2v-4h2v-58h2q1 -2 -1 -14l-1 -9v-6q1 -1 3 -1l4 1h4q2 0 3 -1v-3q6 -3 23 -3
h10l10 1h16q3 -10 3 -26q0 -19 -3 -38l-2 -3q-15 -2 -23 -1l-13 1q-20 1 -28 -1q-3 -1 -5 -3l-2 -2v-33h-2v-39h-4q2 -16 4 -22h-4q-2 -8 -2 -16q0 -29 6 -41v-38h2v-16h2q0 -1 -1 -4l-1 -3l1 -1h1l2 -3q1 -1 2 -4l-8 -7l5 1h8q3 0 3 -1h7q1 1 3 1l5 -1q3 -1 4 -1q2 0 3 1
l11 -1v4h3l4 -7q3 1 9 4v4h8v2h40q0 2 9 2v-2q8 -2 12 -2v-2l1 -3v-2q0 -1 -1 -2l2 -4h-3v-4h-2q0 -3 2 -10t2 -11q-1 0 -5 1h-11l-2 -1l2 -3v-1q-1 0 6 -2q12 1 11 1l-2 -3v-5q0 -4 -3 -5v-3h-1q0 -1 4 -3l2 -1l1 -2l-1 -1l-28 -1q-6 -3 -35 -4q-25 -2 -52 -2q-24 0 -30 2
v1q-2 1 -20 1q-6 1 -17 1h-20q-52 1 -53 3l3 1l-3 6q2 2 2 6l-2 5q3 0 5 5l-2 5l2 4l-5 20q1 2 8 3l8 1l8 1q20 0 18 4v37q-2 2 -2 7l1 8l1 8q5 -4 11 -4v4q-7 3 -9 9l-1 6l-2 7v14l-3 1l-4 1q2 2 3 5v2l1 2h3q-3 6 -3 11q0 2 2 4q1 2 1 8h-3l1 12l2 12h-3v43h3l1 43h4v1
q0 1 -8 1h-15l-8 -1h-6q-6 0 -6 1q1 1 1 4v8l-1 10q0 12 4 33l-2 2h1l2 -1q3 -1 4 -1q2 0 2 1v1l-1 1v5h21q15 0 15 1v11h-3v5h-4v13q-1 7 -2 25q-1 21 -1 38q0 16 2 26v48q5 0 5 6h-4v8h4v25h3q2 4 3 8l1 6q1 6 8 13v4q8 8 16 18h6l3 3l1 2h5q11 17 36 20q7 1 21 1h10l10 1
v-3h15v-4l8 -1l9 -2l5 -1q5 -6 12 -10q3 -2 8 -6q6 -5 15 -14v-5h3v-7h3v-31q5 -5 12 -8zM99 96l-1 -1q0 -1 -1 -3h-4l2 -1q1 1 2 1q1 -1 2 -1v5zM124 73l-4 3l-3 3q-5 3 -9 5q-1 -6 -9 -8v11l-9 -3v-14h3v-8h4q6 6 8 6h2l3 -1l6 -2v3l4 1l4 1v3z" />
    <glyph glyph-name="currency" unicode="&#xa4;" horiz-adv-x="274" 
d="M87 599l-5 1l-6 1q4 14 4 21h7v-23zM80 548q0 7 -4 27h4v18h7v-31h-7q1 -5 3 -8l2 -2l2 -4h-7zM63 575v10h5v-10h-5zM68 562v4h4v-4h-4zM83 505q-2 5 -3 17v19h7v-36h-4zM87 493q-4 1 -5 1t-2 1h3l2 2q0 1 2 2v-6zM37 517q-1 1 -3 8h6v-8h-3zM85 449l-5 -1q0 2 -1 9v12
q0 14 4 18l4 4q0 -1 1 -7v-6l1 -7q1 -18 -1 -22h-3zM40 484q-1 1 -2 4l-1 4q1 -1 5 -1v-7h-2zM87 438q-3 -1 -7 -5h-8v5h8v3h7v-3zM40 467v5h2v-5h-2zM88 421q-1 -3 -5 -7v4h-3l1 3l2 4h-3v5l2 -1l3 -1q2 -1 3 -2v-5zM22 475v8h4v-8h-4zM251 510v-27q-1 -15 -4 -23
q-2 0 -9 -2l-6 -2l-7 -1q-19 -5 -24 -3v4l-12 1l-11 2l-4 1q0 5 1 24v30q1 38 -5 44q-1 9 -5 15l-4 4q-2 2 -3 5h-23v-4h-7q-1 0 -2 -2l-2 -2q-3 -12 -7 -24v-57h-4v-34h4v-7h3l-1 -12q-1 -8 -2 -14v-53h3v-6h4q0 -5 -4 -6v-10q33 -1 74 -1h45q1 -8 1 -32q-1 -2 0 -9v-14
l-1 -1v-2l-83 3v-3q-3 -1 -7 1l-3 1l-3 1v-3h-10q-9 -1 -14 -1q-1 -2 -2 -3q-1 -5 3 -8v-92q1 -17 4 -25q-4 -30 -4 -47v-26q0 -15 5 -20q2 -5 6 -7l3 -3l2 -2q14 0 30 12q0 2 2 10l2 7l1 5l1 27h3v49h4v18l2 1l1 1h9q7 -1 14 -1q19 -2 21 -4q30 0 24 -28h-1l1 -6v-7
q-4 0 -1 -5q1 -2 1 -6h-1q-4 -7 -4 -14l2 -8l2 -10q3 -13 2 -21h-4v-19h-4v-5h-3v-8h-1q-4 -5 -4 -12q-6 -1 -11 -6l-4 -4l-4 -4v-4h-7q-2 -2 -5 -8q-16 -10 -55 -14q-42 -4 -54 8h-4l1 5q1 3 3 5q-3 1 -15 1h-9q-4 0 -7 1v2q-11 11 -16 24h-3v18q-5 16 -4 53v30q1 19 1 28
q-1 40 -3 122h-20q-10 0 -13 1v10q-2 8 0 24l1 14q1 7 1 12h30v54l-1 54h5v-8h3v-3h3l-1 4l-1 3q-1 3 -1 4h3l3 6l3 5h6v1h4v-23h4v-1h-4v-10l2 -6l2 -6q1 -8 -4 -12v-20q3 1 4 3l3 2q2 2 5 3l4 -4v4l5 1h3v-9q4 5 4 22v13q-1 9 -1 12v124q0 3 1 11l1 15q0 17 -5 22
q1 9 12 17v2q6 6 12 7q3 4 26 6q22 2 32 -1v-4h12v-1h11v-3h5v-4q10 -2 18 -4l1 -3v-3l5 -4l4 -4q5 -5 9 -7q0 -5 4 -12h1l2 -8v-4l1 -5h4q0 -20 4 -37h1q2 -4 0 -10t-1 -10l1 -2l1 -2q1 -3 -1 -7h-1zM95 351q0 30 -4 35q-3 -8 -5 -35h9zM80 378q-1 4 -4 7l-1 -6
q-1 -2 -3 -3q0 -14 8 -15l1 9q1 5 2 8h-3zM83 237q-2 10 -7 13l-1 -6l-1 -7q-1 -8 2 -11v-12h4l3 4v19zM97 291h-9v-11h3l-1 -9l-2 -10h3v-47h-3v-10h3q0 -4 -1 -8l-2 -7h3q2 -6 2 -15q-1 -6 -2 -17q-2 -22 0 -25v-4h4v15h2v148zM83 82v18h4v28q-6 3 -7 4h-4v-12l-1 -14
q0 -16 5 -20v-16h3l1 3l1 2q2 3 2 7h-4zM87 43l-5 -1l-6 -2v-15h4l1 -1h2l4 1v18z" />
    <glyph glyph-name="yen" unicode="&#xa5;" horiz-adv-x="249" 
d="M34 561q4 -10 4 -14l-3 -1l-1 -1q-2 -1 -4 -1q-1 3 -3 8l-2 5l-2 4h-1v25l-2 1l-3 1q-3 2 -2 5h3q0 5 4 10l-5 1l-6 2v13q-1 10 -1 16h13l2 -4l2 -5q4 -8 7 -11v-5q-2 1 -2 0q-1 0 -2 1h-4q6 -19 8 -38q8 -4 10 -12h-10zM50 556v5h8q1 -1 1 -2q0 2 1 1v-4h-10zM58 515
q-1 -3 -1 -4l-1 -1v-4h-4v9h6zM60 485q5 -2 6 -2l2 -2q-6 2 -8 4zM234 600l-5 -15l-5 -12l-1 -19l-1 -20h-4v-9h-2v-19h-3v-3h3v-5h-3v-13h-3v-8h-4v-9h-1l-2 -20q-1 -12 -1 -20h-4v-15h-3v-13h-1v-25h-4v-17h42q1 -8 1 -32q-1 -2 0 -9v-14l-1 -1v-2l-54 2v-8h-3v-5h-2v-16
q0 -5 -2 -24t-2 -40h-3q-1 -4 1 -6l1 -1l1 -1v-14l-1 -6l-1 -6q-2 -7 -1 -13l2 -6q1 -4 1 -5h-3q0 -4 2 -13l1 -13h-3q-3 -12 -1 -26q1 -13 4 -24q1 -7 -3 -16h3v-29h-3v-4h3v-28h-82v167q1 14 1 23q-1 29 -5 35q0 12 4 6v-3h3v5q-1 0 -3 2l-2 2l-2 1v25l-2 1l-2 1v23h-3
l-1 6l-1 7q-48 -2 -56 1v10q-2 8 0 24l1 14q1 7 1 12h39l-2 10l-1 12q-1 16 0 25l2 1q-1 3 -4 5l-2 2l-2 1l-3 23l-3 24l-9 39l-9 38q14 -1 16 -12q1 1 4 2l6 1q-1 -6 -8 -9q0 -16 2 -24h14v-4q-2 -1 -4 -4h-4v-14h-2q1 -16 10 -19l-2 -8l-1 -6q-2 -8 -1 -18h8v-9h5
q2 -9 6 -13l4 -3q3 -2 5 -5q-9 -5 -12 -13h-3q-1 -4 1 -5l1 -1l1 -1l4 -5v8h16q-3 3 -2 13l1 8l1 8h-8l-1 9q-1 5 -3 9h-1q12 18 1 29l2 3l2 3q1 3 -4 3v3h-8v2h-3v4h3q3 4 4 5q3 0 6 2q3 1 4 4t0 5q-2 2 -7 2v13h-11v7q4 1 6 2l1 1l4 2v16h-3v3q4 0 3 6l-5 4l-5 3v7l-1 7
h-4l-6 9l-6 8q6 2 8 4q0 19 -2 28h-12v1l-12 8q0 10 -1 16q3 1 11 1v-13h6l-1 3v2l-1 1v1l-2 2v3q1 -2 3 -3h3v4q6 1 15 4l6 2l6 2l9 -4l9 -4q0 -26 4 -55q2 -21 7 -46v-23h3v-32h2v-30h3l2 -18v-17q1 -20 4 -28q1 -8 1 -10q0 -1 1 -4q3 21 8 59l5 31l4 33l3 10l6 63l-2 3
l6 64q8 -4 22 0l12 3q6 2 10 2v-4l10 1q6 1 11 3v-4h14q0 -2 6 -5q0 -14 -5 -32zM99 366h-7q2 -2 7 -4v4zM69 388q-1 7 -5 8q1 -2 4 -5v-3h1zM82 364l-1 2l-2 3v1h-3q-2 -1 -3 -2l1 -2q0 -2 -6 -4l-2 -2h10l10 -1q-3 2 -4 5zM118 196q-7 1 -8 8h6q0 7 2 13h-2v2h-9v4
q-5 -1 -8 -3l-2 -1l-3 -2l1 -23v-23h4q0 -8 3 -9h2v-4h3l1 4v5q1 6 2 8q2 2 4 3l4 1v17zM118 154q-2 0 -5 -3h-6v-2h11v5zM125 95h-9v-6q3 1 5 3h4v3zM107 75l-2 2q0 1 -1 2v-4h3zM107 67l-1 2v2l-1 1l-1 1v-6h3zM107 187v5h3v-5h-3z" />
    <glyph glyph-name="brokenbar" unicode="&#xa6;" horiz-adv-x="147" 
d="M110 541l3 -49q-1 -6 -2 -46q0 -36 1 -75l-80 3v94h4l-1 12q-1 7 -3 12h4v48l-1 19q0 22 2 34q0 4 -4 5v11h4q-2 4 -3 10l-1 10h4q2 8 1 23l-1 13l-2 14q-3 33 6 42v4h18q4 -5 21 -5l14 1h13q7 -10 7 -40h-4l1 -14q1 -8 3 -15q-8 -44 -4 -111zM110 114v-15h-1v-46h-4
l1 -7l2 -8q1 -11 2 -16h-1v-41h-4l1 -2l1 -3q3 -4 2 -7l-1 -2l-2 -1q-2 -2 -1 -4h4l1 -26v-25h-1v-3q-17 1 -35 -4l-12 1h-12q-12 1 -22 3q-5 5 -7 14q6 3 6 5l-1 1v2q0 2 2 6q4 12 4 80v56q-2 7 -1 19v8q1 5 1 7v16q3 18 3 76q0 20 -1 48l-1 21v19l14 9l51 -7l12 -6l1 -5
l1 -4q1 -6 1 -9h-3v-72h3v-27h-3v-20q0 -4 3 -11h-3v-7l2 -5q1 -6 1 -8h-3zM83 693h-4v8h-6q1 -11 10 -14v6zM75 681h-2l-1 -1l-1 -1q-6 -9 -6 -12h6v6h4v8zM70 30v-8h4v4q1 0 1 1l1 3h-6z" />
    <glyph glyph-name="dieresis" unicode="&#xa8;" horiz-adv-x="250" 
d="M216 687q-11 -9 -41 0l-28 -1l-3 9l-2 27q-2 4 -2 15v16q1 7 4 9q7 1 19 1l11 -1h10q7 -1 16 -1l7 1h9v-2q3 -35 3 -46l3 -5q0 -14 -6 -22zM100 687q-5 -1 -19 -1h-11l-10 -1q-17 3 -32 2v3q-3 35 -3 45h-3q0 20 6 27h10l13 -1q15 0 18 4l28 -2l3 -9v-45q1 -2 1 -4v-3
q0 -2 5 -4q-2 -8 -6 -11zM153 698q-1 2 0 2q0 1 -1 1v3h-4v-6h5zM94 747q0 4 -4 9l-2 2h-1v-6h3v-5h4z" />
    <glyph glyph-name="copyright" unicode="&#xa9;" horiz-adv-x="600" 
d="M511 678l-6 -1v23h7q0 -7 4 -21zM524 653v10h5v-10h-5zM520 640v4h4v-4h-4zM516 653q-4 -20 -4 -27h-7l2 4l2 2q2 3 3 8h-7v31h7v-18h4zM558 603q-2 -7 -3 -8h-3v8h6zM566 553v8h4v-8h-4zM554 566q-1 -3 -2 -4h-2v7q4 0 5 1zM512 619v-19q-1 -12 -3 -17h-4v36h7zM550 545
v5h2v-5h-2zM512 573q-1 -1 -2 -1t-5 -1v6q2 -1 2 -2l2 -2h3zM509 282v-4q-4 4 -5 7v5q1 1 3 2l3 1l2 1v-5h-3l2 -4l1 -3h-3zM95 677l-5 1l-6 1q4 14 4 21h7v-23zM88 626q0 7 -4 27h4v18h7v-31h-7q1 -5 3 -8l2 -2l2 -4h-7zM71 653v10h5v-10h-5zM76 640v4h4v-4h-4zM91 583
q-2 5 -3 17v19h7v-36h-4zM95 571q-4 1 -5 1t-2 1h3l2 2q0 1 2 2v-6zM45 595q-1 1 -3 8h6v-8h-3zM93 527l-5 -1q0 2 -1 9v12q0 14 4 18l4 4q0 -1 1 -7v-6l1 -7q1 -18 -1 -22h-3zM48 562q-1 1 -2 4l-1 4q1 -1 5 -1v-7h-2zM555 538q0 -32 -1 -88q0 -22 -1 -52v-55
q-2 -146 -3 -196v-51l1 -14v-28q1 -72 -4 -88v-18h-3q-5 -13 -16 -24v-2q-3 -1 -7 -1h-9q-12 0 -15 -1q2 -2 3 -5l1 -5h-4q-6 -6 -37 -8q-27 -2 -48 0v2h-19l-23 -1l-24 -2v3h-30v-3l-10 1q-6 1 -11 2q-8 -3 -22 -3h-92v1q-21 -2 -45 0q-27 2 -33 8h-4l1 5q1 3 3 5
q-3 1 -15 1h-9q-4 0 -7 1v2q-11 11 -16 24h-3v18q-5 16 -4 88v28l1 14v51q-1 50 -2 196l-1 55q-1 30 -1 52q-1 56 -1 88h5v-8h3v-3h3l-1 4l-1 3q-1 3 -1 4h3l3 6l3 5h6v1h4v-23h4v-1h-4v-10q1 -3 2 -12q1 -11 2 -20q1 -27 -4 -32v-20q3 1 4 3l3 2q2 2 5 3l4 -4v4l5 1h3v-9
q4 5 4 42v27q-1 16 -1 18v124q0 3 1 11l1 15q0 17 -5 22q1 9 12 17v2q8 8 18 9q2 2 20 2h32v2q7 -2 17 -3h16v-3h17q11 4 31 4l17 -1h48v-3h3v3h7v-3q3 1 6 3v-3q6 0 8 3h9v-3q1 1 3 2q3 1 6 1v-3l18 2l18 1q1 -2 3 -3h7v4h26l10 1q24 0 26 -3q11 -1 18 -9v-2q11 -8 12 -17
q-5 -5 -4 -22v-15q1 -8 1 -11v-152l-1 -17v-87q0 -124 4 -129v9h3l5 -1v-4l4 4q3 -1 5 -3l3 -2q1 -2 4 -3v20q-5 5 -13 119q-8 111 -6 119v10h-4v1h4v23h4v-1h25l3 -5l3 -6h3q0 -1 -1 -4l-1 -3l-1 -4h3v3h3v8h5zM95 516q-3 -1 -7 -5h-8v5h8v3h7v-3zM48 545v5h2v-5h-2z
M30 553v8h4v-8h-4zM96 459q-1 -3 -5 -7v4h-3l1 3l2 4h-3v5l2 -1l3 -1q2 -1 3 -2v-5zM390 687l-3 1l-2 2q-2 1 -6 2v-6h11v1zM367 692v-5q-2 -1 -2 0q-1 0 -1 -1h-3v-2q4 -2 6 -6q6 1 9 3q-2 9 -9 11zM322 686v-2q1 0 3 2h-3zM516 234q3 3 2 11l-1 7l-1 6q-5 -3 -6 -13
l-1 -10v-9l3 -4h4v12zM479 571h-4v57q-4 12 -7 24l-2 2q-1 2 -2 2h-7v4h-44v3h-11q-143 0 -215 -2v-1h-44v-4h-7q-1 0 -2 -2l-2 -2q-3 -12 -7 -24v-57h-4v-34h4v-7h3q0 -3 -1 -12v-20q-1 -28 -2 -34v-53h3v-6h4q0 -5 -4 -6v-84h-3l2 -6l1 -6q0 -4 -3 -7q-1 -5 3 -8v-107
q1 -32 4 -40q-1 -10 -3 -58q0 -18 -1 -36v-49q0 -15 5 -20q2 -5 6 -7l3 -3l2 -2q3 0 22 1h20v-6l1 -1q8 4 13 4q0 -4 3 -4l-1 -4l-1 -2q-1 -2 -1 -3q2 -3 3 -6h6q1 5 1 11v5q0 3 1 6q6 -2 11 -5l3 -3l5 -2v3q12 4 15 4v-7h4v-3h-10l1 -3v-3q5 0 10 2l4 1q2 1 5 1v8
q14 4 24 4v-4h6q0 -9 -6 -12v-6h12v2l1 3q2 3 7 1q0 -3 2 -6h3q1 2 5 1l4 -1h5q0 2 1 5t1 5q2 -1 3 0l1 -1h3q-3 -5 -5 -9h17q0 6 3 10l-9 3l-9 2q0 -3 -4 -3v3h-8q2 3 3 3q3 4 13 3h8q4 0 7 1v3q9 -3 31 -3v-4h1v4h16v3h2v-3h12v3h2v-3h3v3h20q19 -1 22 -1l2 2l3 3q4 2 6 7
q5 5 6 20l-1 13v36q-1 18 -1 36q-2 48 -3 58q3 8 4 40v107q4 3 3 8q-3 3 -3 7l1 6l2 6h-3v84q-4 1 -4 6h4v6h3v53q-1 6 -2 34v20q-1 9 -1 12h3v7h4v34zM512 190q-1 -1 -7 -4v-178h4v-18h-4q0 -4 2 -7l1 -2l1 -3h3v16q5 4 5 95v66l-1 13v22h-4zM88 416q-1 4 -4 7l-1 -6
q-1 -2 -3 -3q0 -14 8 -15l1 9q1 5 2 8h-3zM516 -52l-5 2l-6 1v-18l4 -1h2l1 1h4v15zM393 -49q-1 -2 -2 -6h2v6zM388 -43q-7 0 -10 3l-1 -1v-1l-1 -1h-1v-9q3 0 6 2t7 2v5zM105 307h-2v69q0 43 -4 48q-3 -7 -4 -43q-2 -37 1 -46h3v-12h-3v-15h1l1 -1q2 -1 1 -4h-3v-15h3
l-1 -9l-2 -10h3v-47h-3v-10h3q0 -4 -1 -8l-2 -7h3q2 -6 2 -31q-1 -16 -2 -51q-2 -72 0 -75v-4h4v15h2v256zM91 245q-2 10 -7 13l-1 -6l-1 -7q-1 -8 2 -11v-12h4l3 4v19zM309 -65v-2l4 1q1 0 2 1h-6zM222 -48v-1l2 1h-2zM91 -10v18h4v28q-6 3 -7 4h-4v-12l-1 -14q0 -16 5 -20
v-16h3l1 3l1 2q2 3 2 7h-4zM95 -49l-5 -1l-6 -2v-15h4l1 -1h2l4 1v18zM244 563l-6 1l-6 1q4 14 4 20h8v-22zM236 513q0 7 -4 27h4v18h8v-31h-8q1 -5 4 -8l2 -2l2 -4h-8zM219 540v10h5v-10h-5zM224 527v4h4v-4h-4zM240 471q-3 5 -3 16l-1 10v9h8v-35h-4zM244 460q-3 1 -4 0
h-2l-2 1h4l2 2q0 1 2 2v-5zM193 483q-1 1 -3 8h6v-8h-3zM242 417l-6 -1v9l-1 10q0 14 5 19l4 4q0 -1 1 -7v-6l1 -7q1 -17 -1 -21h-3zM196 451q-1 1 -2 4l-1 4q1 -1 5 -1v-7h-2zM244 406q-2 -1 -8 -5h-8v5h8v3h8v-3zM196 434v5h2v-5h-2zM245 389q-1 -3 -5 -7v4h-4q1 1 4 7h-4
v5l6 -2q2 -1 3 -2v-5zM178 442v8h4v-8h-4zM410 169q-4 -8 -4 -16q0 -3 1 -11l2 -15q2 -18 1 -27h-4v-19h-4v-5h-3v-8h-1q-4 -5 -4 -11q-6 -1 -11 -6l-4 -4l-4 -3v-4h-7q-2 -2 -5 -8q-17 -10 -57 -14q-42 -4 -54 8h-4l1 5q1 3 3 5q-3 1 -15 1h-9q-5 0 -8 1v2q-11 11 -16 22
h-3v18q-5 16 -4 46l1 25v25q-1 48 -2 127l-2 59q-1 34 -1 65h5v-7h3v-3h3l-1 4l-1 3l-1 3h3l3 6l3 5h6v1h4v-22h4v-1h-4v-10l2 -6l2 -6q1 -8 -4 -12v-20q3 1 4 3l3 2q2 2 5 3l4 -4v4l6 1h3v-9q4 5 4 22v13q-1 9 -1 12v121q0 3 1 11l1 14q0 17 -5 21q1 9 12 17v2q6 6 12 7
q3 4 26 6t33 -1v-4h12v-1h11v-3h6v-4q10 -2 18 -4l1 -3v-3l5 -4l4 -4q5 -4 9 -6q0 -6 4 -11h1l2 -8v-4l1 -5h4q0 -20 4 -37h1q2 -4 0 -9q-2 -6 -1 -10l1 -2l1 -2q1 -3 -1 -7h-1v-26q-1 -15 -4 -23q-2 0 -9 -2l-6 -1l-7 -2q-18 -4 -24 -2v3q-6 0 -13 1l-11 2l-4 1q0 5 1 24
v29q1 37 -5 43q-1 9 -5 15l-4 4q-2 2 -3 5h-24v-4h-7q-1 0 -2 -2l-2 -2q-3 -12 -7 -24v-55h-4v-34h4v-6h3l-1 -12q-1 -8 -2 -14v-51h3v-6h4q0 -5 -4 -6v-30h-3l2 -6l1 -6q0 -4 -3 -7q-1 -5 3 -8v-80q1 -16 4 -24q-4 -28 -4 -46q0 -27 5 -32q2 -5 6 -7l3 -3l2 -2q15 0 31 12
q0 2 2 10l2 7l1 5v42h3v59h4v22q1 1 2 1l1 2q3 0 9 -1q8 0 16 -1q20 -2 22 -5q31 0 25 -34h-1l1 -8v-8q-4 0 -1 -6q1 -2 1 -8h-1zM308 -43v-3q-5 1 -7 2l-2 2l-4 2v4h3v3q3 -2 6 -3h5v-7h-1zM309 -48q0 -1 -1 -3l1 2v1zM236 348q-1 3 -4 6q-2 -7 -4 -8q0 -14 8 -15l2 9l2 8
h-4zM254 293h-2v42q0 16 -4 20q-3 -7 -4 -15q-2 -10 1 -19h3v-12h-3v-15h1l1 -1q2 -1 1 -4h-3v-15h3q0 -3 -1 -8l-2 -9h3v-37h-3v-10h3q0 -4 -1 -8l-2 -6h3q2 -6 2 -15q-1 -6 -2 -17q-2 -21 0 -24v-4h4v15h2v142zM240 233l-1 10q-1 10 -7 13v-10q-2 -12 0 -14v-12h4l4 4v9z
M240 104v17h4v15q-6 2 -8 4h-4v-10l-1 -9q0 -9 5 -13v-16h4l1 3l1 2q2 3 2 7h-4zM244 65l-6 -1l-6 -2v-14h4l2 -1q0 1 2 0l4 1v17z" />
    <glyph glyph-name="ordfeminine" unicode="&#xaa;" 
d="M269 216q0 -18 -1 -34q-51 -6 -69 0l-1 29l-11 -11v-3l-5 -3l-5 -4v-1q-7 -3 -20 -3v-4h-5v-3q-8 -2 -12 0l-4 2q-3 1 -6 1v8l-13 -2l-13 -2v3h-12l-1 2l-2 3h-9v2l-2 4h-6q-8 8 -10 14l-6 1q-2 0 -3 1q-3 12 -3 19l-3 1h-4v11l-2 1h-3q-1 4 2 8l2 3l1 4l-1 1l-2 1
q-3 2 -5 4q-1 4 3 8l3 3l2 2h-1q-6 7 -7 12h8v5l-1 5h-4v5h-3l2 4l1 4q5 1 8 4l4 -4q1 4 4 6v3h-8v3l-8 2l-1 4v4q-1 4 -2 7h3v15q-4 -2 -3 5q3 2 3 6h-3l2 3l1 2q-1 1 -3 2l-4 1v70q-1 6 -1 8h1v13l-1 12h1v8h4v1h-4v64l4 5v7l3 4v9h4v7q1 1 3 2l5 2q0 6 3 10h1l2 1l6 1v3
q9 0 18 -3v3h4v3h-8l1 6l1 6l2 1h2q4 1 6 3v1h4v3h12l3 3l9 1l3 4l11 -1v1q16 -1 30 -7q18 -8 27 -24v28l11 3h4l4 2q5 2 8 1v-4h6l2 1l1 2q2 3 3 1h4q1 -1 3 -1l4 1q5 1 6 -2l4 -1l3 -1q2 -2 2 -6l1 -7q0 -9 3 -12l-4 -40h-2v-4h2v-12h4v-23h3q1 -5 -3 -5v-12h3v-37l1 -1h1
q1 -1 -1 -4h-1q0 -22 1 -41v-71h4l-1 -6q-1 -4 -3 -6h4v-58h4q1 -5 1 -12l-3 1l-2 1h-4q-1 -3 2 -6l1 -3l1 -2h-4q0 -4 9 -24v-31zM244 395h-6q2 -2 6 -3v3zM54 580h-1v-12h1v12zM187 380l-1 18l-1 17l-7 134q-8 16 -13 24l-7 1h-6q-6 1 -10 2v-3h-15q-2 -2 -7 -6l-4 -3
l-4 -3l-1 -5l-1 -5l-3 -12h4v-35q2 0 1 -9q0 -1 -1 -1l-1 1q-1 0 1 -3h1v-10h-1v-7h-4q-1 -2 1 -4h2l1 -1v-70h1v-14h-1l1 -52h4q-2 -2 -3 -6l-1 -5l1 -20q1 -12 3 -21h3v-17h2v-5h2l1 -1q2 -2 3 -2l1 -2v-2q1 -3 2 -5q24 -4 48 7q1 5 3 5v37h4l1 19l1 18l-1 10l-1 10
q0 2 1 5l2 8q2 10 1 13h-2zM235 257h-5v-6h5v6zM70 294h-4q-4 -8 -8 -12v-2q6 2 12 6v8zM50 269v-14h3l1 7v7h-4z" />
    <glyph glyph-name="guillemotleft" unicode="&#xab;" horiz-adv-x="317" 
d="M302 68q-27 -11 -37 -11q-2 0 -3 1l-23 1q-1 1 -2 4l-4 7l-5 11l-1 16h-4q-3 7 -5 13q-2 4 -3 9q-3 8 -3 9h-4v7l-1 6h-3v10h-4v7h-2q0 2 -1 7l-1 8h-4q-1 2 -3 17h-3v10h-2v12l-2 1l-2 1l-2 1l-23 68h-4l-1 14h-3v3q-5 14 -6 19q1 2 6 16v3h3v9l1 5h4l23 69l6 2v12h2v10
h3q2 16 3 17h4l1 8q1 5 1 7h2v7h4v10h3l1 15h4q1 2 2 7l1 4l1 5l7 15h4v9l1 7l5 11q5 10 6 11l23 1q1 1 3 1q10 0 37 -11v-13q-3 -7 -4 -12v-4l-1 -4q-2 -9 -12 -32h-3v-6h-3l-2 -8l-2 -8l-4 -17h-4v-4h-2l-2 -8l-1 -8h-3v-7h-3v-10h-3v-7h-3v-8h-2q-2 -2 -3 -5l-1 -5h-2
q-2 -8 -2 -14h-4l-2 -9l-2 -9q-2 -12 -7 -19l-13 -35q0 -5 3 -14l2 -5l2 -7q3 -9 6 -19q7 -11 11 -26h4q0 -2 1 -6q0 -5 1 -7h2q2 -8 4 -10h2v-8h3v-8h3v-9h3v-8h3v-6l-1 -7q-1 -11 0 -13h2v-5h4q1 -5 6 -11t6 -11h3v-6h3q2 -4 5 -14l1 -8l3 -7v-2l2 -6l3 -8q1 -4 3 -5v-13z
M172 67q-25 -8 -35 -8q-2 0 -3 1l-25 -2q-1 1 -2 4l-4 7l-5 11l-1 7v9h-4l-4 15h-3l-1 5l-1 5q-1 4 -2 6h-4l-1 15h-3v10h-4v7h-2q0 2 -1 7l-1 8h-4q-1 1 -3 17h-3v10h-2v12l-6 2l-23 69h-4l-1 5v9h-3v3q-5 14 -6 16q1 5 6 19v3h3l1 14h4l23 68l2 1l2 1l2 1v12h2v10h3
q2 15 3 17h4l1 8q1 5 1 7h2v7h4v10h3l1 6v7h4q0 1 3 10q1 4 3 8q2 6 5 13h4l1 16l5 11l4 7q1 3 2 4l23 1q1 1 3 1q10 0 37 -11v-13q-2 -1 -3 -5l-3 -8l-2 -6v-2l-3 -7l-1 -8q-3 -10 -5 -14h-3v-6h-3q-1 -5 -4 -16q-3 -12 -4 -17h-4v-5h-2l-1 -3l-1 -4q-1 -5 -1 -8h-3v-8h-3
l-12 -10h-3l12 -7h-3v-8h-2q-2 -2 -4 -10h-2q-1 -2 -1 -6q-1 -5 -1 -7h-4q-4 -15 -11 -26v-18h-5l-1 -6q-3 -8 -3 -23v-10q1 -5 3 -10l1 -7h5v-18q7 -9 11 -25h4q0 -6 2 -14h2l1 -5q1 -3 3 -5h2v-8h3v-7h3v-10h3v-7h3l1 -8l2 -8h2v-4h4l4 -17l2 -8l2 -8h3v-6h3
q10 -23 12 -32l1 -4v-4q1 -5 4 -12v-13zM235 419l-6 -1v7q-5 1 -8 5q-18 0 -19 -8h5q2 -11 12 -11h10q5 0 8 -2q4 5 4 13q-2 -2 -6 -3zM234 402l-9 2v-4h3q3 -3 6 -3v5zM112 461h-2q-3 1 -7 2q1 7 9 15h-9v6l9 1h-2v4l-3 1l-2 1l-3 1v-3h-4v-11h4v-8q-7 -1 -12 -7
q12 -1 13 -7h9v5zM82 461v-1h4v-3q1 1 3 4h-7zM80 449l1 -2l1 -1h4zM68 436h-9v-4h3q3 -3 6 -3v7zM198 207q-3 0 -6 -3h-3v-4h9v7zM233 152v6h9q-8 8 -9 15q4 1 7 2h2v5h-9q-1 -6 -13 -7q5 -6 12 -7v-8h-4v-11h4v-3l3 1l2 1l3 1v4h2zM106 187q0 4 -1 7l-2 5q-2 5 -2 8
q0 2 2 8l-1 2q-3 0 -3 -1l1 -1h-2q-2 1 -8 1q-6 1 -8 1q-1 5 -4 6h4v6h4v3q1 2 3 5q-3 0 -7 -4h-4l2 3l1 2l1 3h-4v3q-7 -1 -10 -11h-6q4 8 6 14q-2 0 -4 1q-3 1 -5 3q1 4 9 14h14q0 3 -2 5l-2 2q-5 0 -8 8v-2h-4v-3q-15 -3 -18 -7q6 -2 8 -9q-2 1 -13 6v-4h-3q0 -2 4 -3
l3 -9q2 -1 4 -4l1 -3l2 -2v-3h-3v-7h11v-3h-8q2 -5 2 -12h10v14h4q0 -7 -2 -8h2q8 -10 16 -16h3q-11 -7 -21 -7q1 -11 9 -17v-1h1q2 0 3 1l1 2h7l1 4v4h13v-4h3zM68 208q-3 0 -6 -3h-3v-4h9v7zM89 175q-1 3 -3 5v-4h-4v-1h7zM80 188l1 2l1 1h4z" />
    <glyph glyph-name="uni00AD" unicode="&#xad;" horiz-adv-x="218" 
d="M189 300q-13 0 -78 -1h-25l-22 -1h-32q0 5 -1 12l-1 14q-2 16 0 24v10q8 2 44 1l14 -1h34v-3l3 1l3 1q4 2 7 1v-3l54 3v-2l1 -1v-14q-1 -7 0 -9q0 -24 -1 -32z" />
    <glyph glyph-name="registered" unicode="&#xae;" horiz-adv-x="600" 
d="M511 678l-6 -1v23h7q0 -7 4 -21zM524 653v10h5v-10h-5zM520 640v4h4v-4h-4zM516 653q-4 -20 -4 -27h-7l2 4l2 2q2 3 3 8h-7v31h7v-18h4zM558 603q-2 -7 -3 -8h-3v8h6zM566 553v8h4v-8h-4zM554 566q-1 -3 -2 -4h-2v7q4 0 5 1zM512 619v-19q-1 -12 -3 -17h-4v36h7zM550 545
v5h2v-5h-2zM512 573q-1 -1 -2 -1t-5 -1v6q2 -1 2 -2l2 -2h3zM509 282v-4q-4 4 -5 7v5q1 1 3 2l3 1l2 1v-5h-3l2 -4l1 -3h-3zM95 677l-5 1l-6 1q4 14 4 21h7v-23zM88 626q0 7 -4 27h4v18h7v-31h-7q1 -5 3 -8l2 -2l2 -4h-7zM71 653v10h5v-10h-5zM76 640v4h4v-4h-4zM91 583
q-2 5 -3 17v19h7v-36h-4zM95 571q-4 1 -5 1t-2 1h3l2 2q0 1 2 2v-6zM45 595q-1 1 -3 8h6v-8h-3zM93 527l-5 -1q0 2 -1 9v12q0 14 4 18l4 4q0 -1 1 -7v-6l1 -7q1 -18 -1 -22h-3zM48 562q-1 1 -2 4l-1 4q1 -1 5 -1v-7h-2zM555 538q0 -32 -1 -88q0 -22 -1 -52v-55
q-2 -146 -3 -196v-51l1 -14v-28q1 -72 -4 -88v-18h-3q-5 -13 -16 -24v-2q-3 -1 -7 -1h-9q-12 0 -15 -1q2 -2 3 -5l1 -5h-4q-6 -6 -37 -8q-27 -2 -48 0v2h-19l-23 -1l-24 -2v3h-30v-3l-10 1q-6 1 -11 2q-8 -3 -22 -3h-92v1q-21 -2 -45 0q-27 2 -33 8h-4l1 5q1 3 3 5
q-3 1 -15 1h-9q-4 0 -7 1v2q-11 11 -16 24h-3v18q-5 16 -4 88v28l1 14v51q-1 50 -2 196l-1 55q-1 30 -1 52q-1 56 -1 88h5v-8h3v-3h3l-1 4l-1 3q-1 3 -1 4h3l3 6l3 5h6v1h4v-23h4v-1h-4v-10q1 -3 2 -12q1 -11 2 -20q1 -27 -4 -32v-20q3 1 4 3l3 2q2 2 5 3l4 -4v4l5 1h3v-9
q4 5 4 42v27q-1 16 -1 18v124q0 3 1 11l1 15q0 17 -5 22q1 9 12 17v2q8 8 18 9q2 2 20 2h32v2q7 -2 17 -3h16v-3h17q11 4 31 4l17 -1h48v-3h3v3h7v-3q3 1 6 3v-3q6 0 8 3h9v-3q1 1 3 2q3 1 6 1v-3l18 2l18 1q1 -2 3 -3h7v4h26l10 1q24 0 26 -3q11 -1 18 -9v-2q11 -8 12 -17
q-5 -5 -4 -22v-15q1 -8 1 -11v-152l-1 -17v-87q0 -124 4 -129v9h3l5 -1v-4l4 4q3 -1 5 -3l3 -2q1 -2 4 -3v20q-5 5 -13 119q-8 111 -6 119v10h-4v1h4v23h4v-1h25l3 -5l3 -6h3q0 -1 -1 -4l-1 -3l-1 -4h3v3h3v8h5zM95 516q-3 -1 -7 -5h-8v5h8v3h7v-3zM48 545v5h2v-5h-2z
M30 553v8h4v-8h-4zM96 459q-1 -3 -5 -7v4h-3l1 3l2 4h-3v5l2 -1l3 -1q2 -1 3 -2v-5zM390 687l-3 1l-2 2q-2 1 -6 2v-6h11v1zM367 692v-5q-2 -1 -2 0q-1 0 -1 -1h-3v-2q4 -2 6 -6q6 1 9 3q-2 9 -9 11zM322 686v-2q1 0 3 2h-3zM516 234q3 3 2 11l-1 7l-1 6q-5 -3 -6 -13
l-1 -10v-9l3 -4h4v12zM479 571h-4v57q-4 12 -7 24l-2 2q-1 2 -2 2h-7v4h-44v3h-11q-143 0 -215 -2v-1h-44v-4h-7q-1 0 -2 -2l-2 -2q-3 -12 -7 -24v-57h-4v-34h4v-7h3q0 -3 -1 -12v-20q-1 -28 -2 -34v-53h3v-6h4q0 -5 -4 -6v-84h-3l2 -6l1 -6q0 -4 -3 -7q-1 -5 3 -8v-107
q1 -32 4 -40q-1 -10 -3 -58q0 -18 -1 -36v-49q0 -15 5 -20q2 -5 6 -7l3 -3l2 -2q3 0 22 1h20v-6l1 -1q8 4 13 4q0 -4 3 -4l-1 -4l-1 -2q-1 -2 -1 -3q2 -3 3 -6h6q1 5 1 11v5q0 3 1 6q6 -2 11 -5l3 -3l5 -2v3q12 4 15 4v-7h4v-3h-10l1 -3v-3q5 0 10 2l4 1q2 1 5 1v8
q14 4 24 4v-4h6q0 -9 -6 -12v-6h12v2l1 3q2 3 7 1q0 -3 2 -6h3q1 2 5 1l4 -1h5q0 2 1 5t1 5q2 -1 3 0l1 -1h3q-3 -5 -5 -9h17q0 6 3 10l-9 3l-9 2q0 -3 -4 -3v3h-8q2 3 3 3q3 4 13 3h8q4 0 7 1v3q9 -3 31 -3v-4h1v4h16v3h2v-3h12v3h2v-3h3v3h20q19 -1 22 -1l2 2l3 3q4 2 6 7
q5 5 6 20l-1 13v36q-1 18 -1 36q-2 48 -3 58q3 8 4 40v107q4 3 3 8q-3 3 -3 7l1 6l2 6h-3v84q-4 1 -4 6h4v6h3v53q-1 6 -2 34v20q-1 9 -1 12h3v7h4v34zM512 190q-1 -1 -7 -4v-178h4v-18h-4q0 -4 2 -7l1 -2l1 -3h3v16q5 4 5 95v66l-1 13v22h-4zM88 416q-1 4 -4 7l-1 -6
q-1 -2 -3 -3q0 -14 8 -15l1 9q1 5 2 8h-3zM516 -52l-5 2l-6 1v-18l4 -1h2l1 1h4v15zM393 -49q-1 -2 -2 -6h2v6zM388 -43q-7 0 -10 3l-1 -1v-1l-1 -1h-1v-9q3 0 6 2t7 2v5zM105 307h-2v69q0 43 -4 48q-3 -7 -4 -43q-2 -37 1 -46h3v-12h-3v-15h1l1 -1q2 -1 1 -4h-3v-15h3
l-1 -9l-2 -10h3v-47h-3v-10h3q0 -4 -1 -8l-2 -7h3q2 -6 2 -31q-1 -16 -2 -51q-2 -72 0 -75v-4h4v15h2v256zM91 245q-2 10 -7 13l-1 -6l-1 -7q-1 -8 2 -11v-12h4l3 4v19zM309 -65v-2l4 1q1 0 2 1h-6zM222 -48v-1l2 1h-2zM91 -10v18h4v28q-6 3 -7 4h-4v-12l-1 -14q0 -16 5 -20
v-16h3l1 3l1 2q2 3 2 7h-4zM95 -49l-5 -1l-6 -2v-15h4l1 -1h2l4 1v18zM370 28q-22 -1 -37 -4v4q-2 2 -1 9v6q-1 4 -3 8h-2v6h-2v15h-4v27h-4l-1 8l-1 9h-2v15h-2q0 2 -1 5t-1 6h-4q0 1 1 6q1 4 1 6h-4v9h-1l-2 16q-1 10 -1 15h-4v24l-2 1h-2v12h-4q0 6 4 14h-4q-7 21 -7 34
q-3 -6 -2 -29v-18q1 -11 1 -14l1 -60v-75l1 -16q1 -19 6 -25q0 -9 -3 -14h-7l-6 1q-8 0 -15 -1v-4q-28 0 -51 4l1 4l1 2l1 4h-3q-1 2 -2 7l-1 8h3v37q-1 2 -3 9h3l-2 4l-1 3v80h3v4h-3v19h-3v3h3v11h-3v11h3q1 4 -3 5q0 1 2 5l1 4h-3q-1 7 3 7q1 7 -3 17h3v3h-3v41h-2v3h2
l-1 5l-1 5q-1 6 0 8h2v20h-2q0 12 2 40h-2q-1 3 0 8l1 3l1 3h-2q-1 7 -1 24l-1 12q0 6 -1 11l1 8l2 9h-3v19h-4q2 20 4 25v77q5 2 11 3h5l6 1v-4h14v4h40v-4q41 0 59 -2v-1h9v-4l6 -1l6 -1q7 -1 11 -4l1 -2q1 -1 3 -2h6l2 -4q1 -2 2 -3h7v-3l8 -6q12 -15 16 -49q2 -14 3 -31
v-100h-3v-10l-1 -11q-5 0 -7 -2v-5h-4q-3 -5 -4 -10q-7 -4 -8 -8h-9q0 -2 -1 -4t-1 -3l-5 -1q-3 -1 -5 -2v-1h-5v-3l-3 -1h-4q-5 -1 -8 -2v-1h-3q2 -7 3 -14h4v-8h3v-14h1v-14q2 0 3 -2l1 -2v-10h3v-7q1 -4 4 -4v-9h1l1 -11q1 -7 3 -12h3v-10h3q0 -5 1 -14t1 -15l5 -15
l4 -16q6 -22 11 -32l2 -20l3 -20l3 -10l4 -9q4 -12 4 -23h-39zM308 -43v-3q-5 1 -7 2l-2 2l-4 2v4h3v3q3 -2 6 -3h5v-7h-1zM309 -48q0 -1 -1 -3l1 2v1zM239 547q-2 4 -4 5v3h-2v-8h6zM333 421q0 5 1 16l1 18q0 22 -5 33v19h-2v9h-2v7h-4q-5 7 -21 9q-6 1 -15 1h-16l2 -79
q2 -49 2 -79q35 0 53 7q2 5 2 12h4v27z" />
    <glyph glyph-name="macron" unicode="&#xaf;" horiz-adv-x="238" 
d="M208 706l-1 -1v-2l-92 3v-3q-3 -1 -7 1l-3 1l-3 1v-3h-18l-20 -1q-26 -1 -34 1v10q-2 8 0 24l1 14q1 7 1 12q14 0 88 -1h27q15 -1 25 -1h35q1 -8 1 -32q-1 -2 0 -9v-14z" />
    <glyph glyph-name="degree" unicode="&#xb0;" horiz-adv-x="295" 
d="M264 468q-1 0 -2 1h-4q-1 -3 1 -6l1 -3l1 -2h-4q0 -22 -2 -31h-3l-6 -11l-6 -12l-6 -1l-5 -1l-5 -6l-4 -6h-6q-2 -4 -4 -5l-5 1v-3l-6 -2l-6 -2v-1q-7 -3 -20 -3v-4h-5v-3q-8 -3 -23 0l-11 3l-5 1l-4 1v8l-13 -2l-13 -2v3l-12 1l-1 2l-2 3h-9v2l-1 4h-6q-8 8 -10 14l-6 1
q-2 0 -3 1q-3 14 -3 20l-3 1h-4l1 11l-2 1h-3q-1 4 2 8l2 3l1 4l-1 1l-2 1q-3 2 -5 4q-1 4 4 8l3 3l2 2h-1q-6 7 -7 12h8v5l-1 5h-4v5h-4v59h4v11h3l1 9h4v7l1 1l2 1q2 1 5 1q0 6 3 10h1l2 1l6 1v3q9 0 18 -3v3h4v3h-8l2 6l1 6l2 1h2q4 1 6 3v1l4 -1v3h12v4h12v3l14 -1v1
q9 3 29 1l15 -3q6 -2 11 -3h10v-4l9 -2l8 -3v-4h6q1 -1 2 -3l1 -4h4q7 -5 9 -11l4 -1l3 -1q3 -3 5 -9l2 -5l3 -5l-1 -12h-2v-4h2v-12h4l-1 -23h3q1 -5 -3 -5v-12h3l3 -31h4q1 -5 1 -12zM232 445h-5v-6h5v6zM179 545q-8 16 -13 25l-7 1h-6q-6 1 -10 2v-3l-15 1q-2 -2 -7 -6
l-4 -3l-4 -3l-1 -5l-1 -5l-3 -12h6v-64h3l-1 -17h2v-5q2 0 3 -1l2 -2h1l1 -2v-2q1 -3 2 -5q23 -5 48 5q1 3 2 4l2 1v37h4zM55 579l-1 -12h1l1 12h-1zM68 486h-4q-4 -8 -8 -12v-2q6 2 12 6v8zM47 462v-14l3 -1l1 7v7z" />
    <glyph glyph-name="uni00B2" unicode="&#xb2;" horiz-adv-x="237" 
d="M223 546l-6 -50l-5 -5l-1 -8h-2l-1 -8h-2l-2 -10l-4 -11l-21 -45l-7 -9l-3 -7l-9 -8q-15 -17 -28 -38q-9 -14 -16 -29h-4v-7l-3 -2l-2 -6l-4 -2v-9h-2q-5 -7 -5 -17v-7l-1 -8v-10l1 -10q2 -4 6 -4h5l1 -3l1 -1l1 -3h18q1 2 11 5l7 1q3 1 4 1v-3h17v3h19v-3h8v-4h11v4
q9 0 17 -4l1 -4l1 -5l1 -12q2 -16 -3 -21v-12q-3 -5 -21 -8q-19 -3 -31 0l-2 1h-3l-8 3q-10 2 -16 0q-2 -6 -8 -7h-32l-1 3l-1 4q-6 1 -6 -4q-5 -1 -10 -1h-7q-7 0 -12 -7h-4v8l-9 -1h-10q-12 0 -16 5q-4 0 -12 3v68l1 16l3 31l4 4l2 8h3l3 14h2v8l5 4l2 8h3v4l4 4l2 8h2
q12 27 22 36q2 2 3 4l8 9l-1 5l4 3l2 5l3 7l5 3l4 7l3 -1l2 4l25 39l2 10h2q0 11 5 19h3l8 38q2 2 2 14q0 11 -3 17q-2 0 -3 1h-2v7q-7 1 -8 4h-35q-6 -7 -9 -8q-2 -8 -3 -23v-49h-2v-2l-4 2l-3 2q-3 2 -8 1v-3q-11 -2 -29 0l-14 2q-8 1 -11 1l-1 13l-2 15q-2 18 -2 30
q0 36 13 49q3 4 8 4q2 5 14 16q3 4 8 8l3 1h3q4 1 6 2v2q3 0 6 2l3 1l3 1v3q6 2 35 3q30 1 38 -1v-2h8v-3l6 -2q3 -2 4 -2v-2h7q0 -2 4 -6h4l2 -3l2 -2h4q3 -4 4 -5h6q3 -5 8 -12l5 -6l3 -5v-7h4q2 -5 3 -25q1 -18 0 -26h-3zM169 243q-1 0 -2 2q5 -2 7 -4q-4 2 -5 2z" />
    <glyph glyph-name="uni00B3" unicode="&#xb3;" horiz-adv-x="260" 
d="M228 497v-8h-1v-35h-4q-1 -3 -3 -8l-2 -5l-2 -3l-2 -1q-1 -1 -2 -3q-11 -8 -15 -19q11 -7 18 -18v-5l2 -1q2 -1 3 -3v-11h3v-5h4v-17l1 -6l1 -11q2 -15 -1 -25h-1v-48q-5 2 -4 -6h4v-8h-4v-25h-3l-2 -6l-1 -6q-1 -8 -2 -11l-4 -2l-3 -2v-4l-4 -4q-4 -3 -7 -7l-5 -7h-6
l-3 -3l-1 -2h-5l-2 -4l-1 -3q-3 -1 -8 -2l-5 -2l-3 -1l-2 -3q-2 -2 -2 -4q-27 0 -54 -3v3h-15v4l-4 1h-4q-5 1 -9 2v1h-5q-3 4 -3 7l-6 1q-4 1 -6 3q-1 1 -4 5l-3 3l-5 4l-8 7v5h-3v7h-3v31q-5 5 -12 8l1 38q1 22 3 37q8 3 26 4h31q3 -4 12 -8q3 -10 3 -32l-1 -18v-17l2 -2
q0 -1 1 -4q2 -1 3 -3l1 -2l1 -1h7v-3h32q4 14 16 20q-1 2 -2 5l-1 8q-2 9 1 15h2v44h2v4h-2v15h-2l-2 7q-2 4 -2 6l-7 6l-7 5v3q-5 4 -25 6q-7 1 -15 2h-13q-6 21 0 64h1l1 3q15 1 23 1v-1h13q6 1 17 4l8 2l8 2q0 7 2 5v26h2v58h-2v16h-2q0 1 1 4l1 3l-1 1h-1l-2 3
q-1 1 -2 4h-6l-1 3l-1 4h-34q-2 -2 -4 -5l-1 -3l-2 -3h-2v-4h-3v-57q-3 -1 -9 -4v-4h-8v-2h-40q-3 -3 -9 -2v2q-8 2 -12 2l1 15v15q1 17 3 28v30h3v5h2l3 9l3 9l4 1l4 2v5q6 5 15 8q4 7 6 8q8 4 14 4v3l6 1q3 1 5 3v1h12v3q9 3 36 2q24 -2 32 -5v-1q4 -2 7 -3h2l2 -1v-3h7
q0 -4 4 -5h5v-3q1 -3 3 -4h5q2 -4 3 -4h7l12 -18q8 -15 11 -20v-28q0 -1 1 -6v-9q1 -3 1 -9q0 -5 2 -35h-3zM216 523v-4q2 -1 4 4h-4zM51 552h-3v8h-4q-6 -7 -10 -5l-4 2q-2 1 -5 0v-3l-4 -1l-4 -1v-3l4 -3l3 -2q5 -4 9 -6q1 6 9 8v-11l6 3h3v14zM46 531q-1 -1 -4 0v-5l1 1
q0 1 1 3h4z" />
    <glyph glyph-name="acute" unicode="&#xb4;" horiz-adv-x="186" 
d="M172 727q-3 -2 -10 -4l-5 -1l-3 -1q-2 -2 -4 -2h-3q-4 0 -5 -4q-2 -1 -20 -8q-6 -3 -17 -8l-20 -9q-52 -23 -54 -22q-5 5 -8 10l-2 5l-4 6q-9 8 -9 25l2 1v1q6 1 18 7l10 6l9 5h6q1 0 1 2v2l1 1q2 1 5 1l3 -1h1l-1 4q11 5 57 36h3q21 12 28 12l2 -4l2 -4l4 -10
q7 -12 11 -12l8 -28zM147 763l-6 -4l-1 3l-4 -1q6 -4 13 -2zM143 753l-2 -2l3 -2l1 2zM141 736q-1 -2 -2 -2v-1h-3l1 -2l5 2zM134 726l-1 3l-2 -2q-7 3 -6 12l-2 2l-5 -6h-1l-1 -1q0 -3 6 -3l2 -1l-7 -8l2 -1l-2 -2l-2 1l-1 -2l-3 2l4 4q0 1 -2 5h-1q-4 -5 -6 -11l-2 -4
q-1 -3 -3 -5l2 -2l2 1q1 0 1 1q4 5 6 4l-1 -2l2 -1l14 17q3 -1 2 -2h2q3 -2 4 -2q0 2 -1 3zM79 710l-1 -1l-1 1l-6 -7l2 -1l4 4l3 -3q0 4 -1 7zM62 717l-5 -5l3 1l2 1l2 1zM64 703l-4 -4l-1 1l-2 -2q6 -4 12 1zM25 712l-6 -2l2 -3l-4 -2l2 -3q3 2 6 7v3z" />
    <glyph glyph-name="paragraph" unicode="&#xb6;" horiz-adv-x="228" 
d="M195 628v-33h-2l1 -12l1 -13l-2 -1l-2 -1q-2 -4 1 -5l2 -1h1v-27h-2v-2h2v-12q0 -2 -1 -5l-1 -4h2v-9h-2l1 -3l1 -3h-2v-4l1 -3l1 -3h-2l1 -2l1 -2h-2l1 -4l1 -4h-2v-56q0 -1 -1 -2q-1 -2 -1 -4h2v-19h-2v-1h2v-12h-2q0 -2 1 -3l1 -1l-1 -6v-6l-1 -11l1 -11l1 -10h-2
l-1 -93h2v-3q-2 -1 -2 -8h1v1q1 1 1 -1q-2 -4 -2 -10q4 0 2 -6q-5 -38 -3 -146l1 -43v-21l1 -20q1 -47 1 -67q-12 -5 -38 -4h-21q-14 1 -20 1v11h5v24l-3 1q-2 0 -2 1v40h-4l1 10q1 6 3 11h-4v123h4v67q1 10 3 18q-2 1 -3 4v6q0 4 3 8h-3v100q-5 1 -9 1h-5q-5 0 -12 2v2
q-2 0 -4 1l-3 1l-3 1v1l-5 1q-3 1 -4 2q-4 1 -4 5h-5l-2 3l-2 4q-5 0 -7 3v3h-5q-1 7 -10 14h-2q-2 8 -4 13h-3l1 4q1 3 2 4h-3v8h-3v66l-1 13h1v49h3v24h3v15h3v7h1v10h2l2 4l2 3h2v6q1 1 3 2l4 2q3 6 6 9h6q0 2 1 3v2q3 1 7 2l5 1v1h6v3h9v2h26q10 2 25 2l12 -1l13 -1v-2
h-1q-3 -2 -10 -4v-5l6 -2l3 -2q5 -2 12 -3q0 2 1 6t1 7h-2v3h-7v2h33v-6h-3zM181 588v-9h3v5q1 1 2 4h-5zM124 604q-10 5 -6 15h3q-1 1 -2 3l-1 3q-1 -1 -3 -5q-1 0 -1 -1q1 0 0 -3h-27v-3h4q-3 -3 -10 -3l-2 1q0 -1 -2 0v-4l7 -2l6 -2q7 -3 15 -3v1l-3 6h-7v4h4v2h3v-2h4
v-1h8v-3l-1 -1l-1 -2q-2 -2 0 -4h2v1h10v3zM177 535v-2q3 1 4 2h-4zM174 519v-1q4 0 5 1h-5zM74 604q-9 -1 -10 -9h4v3h6v6zM86 588l-4 -1q-3 -1 -5 -2v-1h9v4zM77 558q-6 2 -6 5h3v3q-4 -1 -3 4q4 2 3 7h-3q-2 4 -3 8l9 9h-13v-3h-5q-4 1 -7 3l-1 -4l-1 -5h-2l-2 -1v-9h-3
v-5h-3v-3l-1 -4h7q1 -5 6 -6q-2 8 -4 13h2q1 -1 5 -2q0 -6 3 -10l1 1h2q2 1 3 3q0 -4 4 -5h9v1zM77 533l-1 4l-2 3h-3v-9h6v2zM74 519q-2 -1 -3 -4h3v4zM62 538l-1 3l-2 4l-3 -1l-3 -1l-3 -1v7h-4q2 -10 -6 -20h6q1 -2 4 -4v6q5 1 8 7h4zM62 577v-2h-10v4h6v5q4 -2 6 -7h-2z
M62 563v5h2v-5h-2z" />
    <glyph glyph-name="periodcentered" unicode="&#xb7;" horiz-adv-x="157" 
d="M127 255q-9 -2 -26 -3h-14l-13 -1q-19 5 -42 4v3h-1l1 25v26h4q1 2 -1 4l-2 1l-1 2q-1 3 2 7l1 3l1 2h-4q-1 19 -4 39h-4q0 30 7 40h14l17 -1q20 0 24 5l37 -2l4 -13v-109q2 -4 2 -7v-2l-1 -2q0 -4 6 -7q-2 -9 -7 -14zM102 361h-6l1 -3q0 -1 1 -1v-4h4v8zM66 387v-8h-4
v-6q9 3 10 14h-6zM80 353q0 3 -6 12l-1 1l-1 1h-2v-8h4v-6h6z" />
    <glyph glyph-name="cedilla" unicode="&#xb8;" horiz-adv-x="236" 
d="M178 -125v-4h-4q0 -7 -3 -15l-2 -2l-1 -3q-1 -3 -2 -4h-2l1 -4l-2 -1l-3 -2v-5l-6 -3l-6 -3l-1 -4v-4q-3 -1 -9 -2l-12 -2q-17 -3 -21 -5v-3q-4 0 -15 4l-8 3l-9 1v-3h-2l-1 1q-3 2 -6 1v-2q1 -1 1 -2q-1 0 0 -2h-10v4l-11 3v39l3 10h28q0 1 16 2h11q6 1 8 1q8 21 4 36
l-5 1l-4 1q0 1 -1 2q-2 1 -2 3h-4v1l-25 -1l-9 9l-4 21q1 -1 2 35q1 16 2 24q1 11 2 11l3 8q5 3 21 3h19l6 -6q3 0 1 -22q-1 -10 -1 -15q0 -7 2 -7l1 -1v-2l6 1v-6q10 0 19 -2l1 -3l1 -3q4 -1 7 -4l6 -4v-5h6v-7q2 -2 4 -2l2 -9h2v-4l2 -2q3 -4 2 -7v-7l1 -3l1 -4l3 -8
q2 -10 -1 -16h-2zM114 -169h-6v-4h6v4zM64 -145l-6 -2l-6 -3l3 -9h8q2 3 2 8v6h-1z" />
    <glyph glyph-name="uni00B9" unicode="&#xb9;" horiz-adv-x="217" 
d="M87 493q-1 -5 -2 -8l-2 -2l-1 -3h-6v1h-3q1 4 2 9l1 7h8v-4h3zM207 174q-5 -2 -5 -3h-18l-1 -4l-1 -3q-5 -1 -8 1l-3 1l-3 1l-1 -1v-1q0 -1 -2 -1l-1 3q-1 2 -3 4q-4 2 -12 -2l-6 -3l-2 -1l-2 -1q-6 -1 -9 3q-7 1 -8 -3h-11v3l-4 -1l-4 -2v7q-5 1 -13 -2l-5 -3l-5 -2h-1
q-10 -3 -27 -1l-14 2q-8 2 -12 2v8h-2q0 40 6 53h35v1q3 4 11 4v100l3 31h3l2 7l-2 -2q-1 -2 -3 -2t-3 2l-1 2l-2 1q1 7 6 14l3 6q1 3 2 7h-5l-1 3l-1 5q-1 5 -1 8h8v3h3v-11q6 1 8 3v8h-3l-4 5l-3 3q-4 4 -6 10h-3q-2 3 0 8l2 3l1 2h-3v12h6q-1 4 -1 5l-2 2v3h12v1h1v16
l3 1l-1 2l-2 1q-2 1 -1 6h1q1 4 1 8l-2 6q-2 6 1 10v9q-1 -2 -3 -4q-2 -1 -5 -2l1 -3v-3q1 -4 -1 -14l-1 1h-2q-3 1 -4 4v2l-1 1h-6v-3l-10 -8q-7 -6 -11 -9q0 -5 -2 -9l-3 -1l-3 -1q-3 0 -6 -2h-9v1q-6 7 -5 31v21q1 13 1 18v23h2l2 3l1 2q2 3 3 7q1 0 15 8v8h8v3h4
q-4 6 -4 8q3 1 4 2h2l2 1v8q6 0 9 3l2 2l4 3v8l7 1h7q8 1 13 2v2l17 -1l17 -1v2h8v-2q4 -5 4 -19v-24q2 -21 4 -61h-4v-34h4l-1 -12q-1 -8 -3 -13q7 -21 6 -67v-19l-1 -19q-1 -24 -1 -34v-18h4q0 -7 -4 -9v-52l4 -6v-20h8l1 -3l1 -4q1 -5 1 -11h4v12l1 1v2h9q12 0 17 -3
q0 -1 1 -1q1 -1 3 -2l4 -2v-51zM40 574l-3 2l-2 2q-5 -11 -6 -17q-1 -10 6 -16v-2h3v12l-2 2l-2 2q-3 3 -1 8q2 3 8 3q1 2 -1 4zM41 536l-4 2l-4 1v-8l4 -2l4 -1v8zM92 329h-1v-13q1 3 0 3q0 1 1 2v8zM95 279h-3l-1 1q-1 0 -4 1l-1 -2l1 -15h5l2 3q0 1 1 2v10zM99 233h-12v3
h-3v-8h15v5z" />
    <glyph glyph-name="ordmasculine" unicode="&#xba;" horiz-adv-x="294" 
d="M267 335v-8h-4v-1h4v-69h-4v-11h-3v-9h-4v-7q-1 -1 -3 -2l-5 -2q0 -5 -3 -10l-3 -1l-6 -1v-3q-9 0 -18 3v-3h-4v-3h8l-1 -6l-1 -6l-2 -1h-2q-4 -1 -6 -3v-1h-4v-3h-12v-4h-12v-3h-14v-1q-9 -3 -29 -1q-7 1 -15 2q-6 2 -11 3h-10v4l-8 2l-9 2v4h-6q-1 1 -2 3l-2 4h-4
q-7 5 -9 11l-4 1l-3 1l-3 5l-2 4q-2 6 -5 9v12h2v4h-2v12h-4v23h-3q-1 5 3 5v12h-3v37l-1 1h-1q-1 1 1 4h1v44q-4 3 -1 8h1v10h-4l1 2v3q1 2 3 3v45h-4l1 6q1 4 3 6h-4v58h-4q-1 5 -1 12l3 -1l2 -1h4q1 3 -2 6l-1 3l-1 2h4q0 22 1 31h3l6 12l6 12l6 1l5 1l5 6l4 6h6l1 3l2 2
h5v3l6 2l6 2v1q8 3 20 3v4h5v3q8 3 23 1l11 -2q6 -2 9 -2v-8l13 2l13 2v-3h12l1 -2l2 -3h9v-2l2 -4h6q8 -8 10 -14l6 -1q2 0 3 -1q3 -12 3 -19h4l3 -1v-11h3l2 -1q1 -4 -2 -8l-2 -3l-1 -4l1 -1l2 -1q3 -2 5 -4q1 -4 -3 -8l-3 -3l-2 -2h1q6 -7 7 -12h-8l1 -5v-5h4v-5h3l-2 -4
l-1 -4q-5 -1 -8 -4l-4 4q-1 -4 -4 -6v-3h8v-3l8 -2l1 -4v-4q1 -4 2 -7h-3v-15q4 2 3 -5q-3 -2 -3 -6h3l-2 -3l-1 -2q1 -1 3 -2l4 -1q-2 -3 -2 -25q-1 -21 1 -40l1 -8v-8h-1l1 -13v-12h-1zM69 570h-5v-6h5v6zM187 279v35q-2 0 -1 9q0 1 1 1l1 -1q1 0 -1 3h-1v10h1v7h4
q1 2 -1 4h-2l-1 1v40h-1l1 99h-4q2 2 3 6l1 5l-1 20q-1 12 -3 21h-3v17h-2v5h-2l-1 2q-2 1 -3 1l-1 2v2q-1 3 -2 5q-24 4 -48 -7q-1 -5 -3 -5v-37h-4l-1 -19l-1 -18l1 -10l1 -10q0 -2 -1 -5l-2 -8q-2 -10 -1 -13h2q2 -23 8 -172q8 -16 13 -24l7 -1h6q6 -1 10 -2v3h15
q2 2 7 6l4 3l4 3l1 5l2 5l2 12h-4zM77 439h-3v-7l-1 -7h4v14zM245 250h-1v-12h1v12zM61 426q-2 2 -6 3v-3h6zM69 414q-6 -2 -12 -6v-8h4q4 8 8 12v2z" />
    <glyph glyph-name="guillemotright" unicode="&#xbb;" horiz-adv-x="317" 
d="M297 302v-3h-3l-1 -14h-4l-23 -68l-2 -1l-2 -1l-2 -1v-12h-2v-10h-3q-2 -15 -3 -17h-4l-1 -8q-1 -5 -1 -7h-2v-7h-4v-10h-3l-1 -6v-7h-4l-3 -11q-2 -7 -5 -14q-3 -10 -8 -22l-5 -11q-5 -10 -6 -11l-23 -1q-1 -1 -3 -1q-10 0 -37 11v13q2 1 4 5l2 8l2 6v2l3 7l2 8
q2 10 4 14h3v6h3q1 5 4 17q3 11 4 16h4v5h2l1 3l1 4q1 5 1 8h3v8h3l12 10h3l-12 7h3v8h2q2 2 4 10h2q1 2 1 7q1 4 1 6h4q4 15 11 26v18h5l1 6q3 8 3 23v10q-1 5 -3 10l-1 7h-5v18q-7 9 -11 25h-4q0 6 -2 14h-2l-1 5q-1 3 -3 5h-2v8h-3v7h-3v10h-3v7h-3l-1 8l-2 8h-2v4h-4
l-4 17l-2 8l-2 8h-3v6h-3q-10 23 -12 32l-1 4v4q-1 5 -4 12v13q25 8 35 8q2 0 3 -1l25 2q1 -1 6 -11l5 -11l1 -7v-9h4l4 -15h3l1 -5l1 -4q1 -5 2 -7h4l1 -15h3v-10h4v-7h2q0 -2 1 -7l1 -8h4q1 -1 3 -17h3v-10h2v-12l6 -2l23 -69h4l1 -5v-9h3v-3q5 -14 6 -16q-1 -5 -6 -19z
M167 303v-3h-3v-9l-1 -5h-4l-23 -69l-6 -2v-12h-2v-10h-3q-2 -16 -3 -17h-4l-1 -8q-1 -5 -1 -7h-2v-7h-4v-10h-3l-1 -15h-4q-1 -2 -2 -6l-1 -5l-1 -5h-3q-2 -5 -2 -7v-2q0 -2 -2 -6h-4v-9l-1 -7l-5 -11q-5 -10 -6 -11l-23 -1q-1 -1 -3 -1q-10 0 -37 11v13q3 7 4 12v4l1 4
q2 9 12 32h3v6h3l2 8l2 8l4 17h4v4h2l2 8l1 8h3v7h3v10h3v7h3v8h2q2 2 3 5l1 5h2q2 8 2 14h4q4 16 11 25v18h5l1 7l3 20q0 15 -3 23l-1 6h-5v18q-7 11 -11 26h-4q0 2 -1 7q0 4 -1 6h-2q-2 8 -4 10h-2v8h-3v8h-3v9h-3v8h-3v6l1 7q1 11 0 13h-2v5h-4q-1 5 -6 11l-4 5l-2 6h-3
v6h-3q-2 4 -4 14l-2 8l-3 7v2l-2 6l-2 8q-2 4 -4 5v13q27 11 37 11q2 0 3 -1l23 -1q1 -1 6 -11l3 -7l2 -4l1 -16h4l4 -13h3l2 -10q1 -6 2 -8h4v-7l1 -6h3v-10h4v-7h2q0 -2 1 -7l1 -8h4q1 -2 3 -17h3v-10h2v-12l2 -1l2 -1l2 -1l23 -68h4l1 -14h3v-3q5 -14 6 -19q-1 -2 -6 -16
zM232 463h-7q2 -3 3 -5v4h4v1zM255 437h-9v-7q3 0 6 3h3v4zM274 377q0 2 -4 3l-3 9q-2 1 -4 5l-1 2l-2 2v3h3v7h-11v3h8q-2 5 -2 12h-10v-14h-4q0 7 2 8h-2q-8 10 -16 16h-3q11 7 21 7q-1 11 -9 17v1h-1q-2 0 -3 -1l-1 -2h-7v-4q-1 -2 -1 -4h-13v4h-3q0 -4 1 -7l2 -5
q2 -5 2 -8q0 -2 -2 -8l1 -2q3 0 3 1l-1 1h2l4 -1h4q6 0 8 -1q1 -5 4 -6h-4v-6h-4v-3q-1 -2 -3 -5q4 1 7 4h4l-2 -3l-1 -2l-1 -3h4v-3q7 1 10 11h6q-4 -8 -6 -14q2 0 4 -1q3 -1 5 -3q-1 -4 -9 -14h-14q0 -3 -2 -8l-2 -5q5 0 16 -2v2h4v3q15 3 18 7q-6 2 -8 9q2 -1 13 -6v4h3z
M102 463h-7q2 -3 3 -4v3h4v1zM82 472v8h4v11h-4v3l-3 -1l-2 -1l-3 -1v-4h-2l9 -1v-6h-9q8 -8 9 -15q-4 -1 -7 -2h-2v-5h9q1 6 13 7q-5 6 -12 7zM125 438h-9v-7q3 0 6 3h3v4zM98 448h4l1 1l1 2zM255 206h-3q-3 3 -6 3v-7h9v4zM233 191l-1 1h-4l6 -3zM232 178h-4v3
q-1 -1 -3 -4h7v1zM211 182h-9v-5h2q3 -1 7 -2q-1 -7 -9 -15h9v-6l-9 -1h2v-4l3 -1l2 -1l3 -1v3h4v11h-4v8q7 1 12 7q-12 1 -13 7zM107 216q-2 11 -12 11h-10q-5 0 -8 2q-4 -5 -4 -13q3 2 6 3l6 1v-7q5 -1 8 -5q18 0 19 8h-5zM233 448l-1 -1h-4l6 3z" />
    </font>
</defs>
</svg>
