<svg width="16" height="18" viewBox="0 0 16 18" fill="none" xmlns="http://www.w3.org/2000/svg">
<path fill-rule="evenodd" clip-rule="evenodd" d="M8.00003 0C7.26482 0 6.66881 0.59601 6.66881 1.33123V1.35761C3.60152 1.95872 1.28726 4.66157 1.28726 7.90494V9.92472C0.794926 10.0694 0.41683 10.4982 0.360934 11.0457L0.00703181 14.5122C-0.0679278 15.2464 0.464964 15.916 1.19728 16.0077C1.38875 16.0317 1.57489 16.0138 1.74675 15.9611C2.39969 17.1749 3.68179 18 5.1566 18H10.762C12.2461 18 13.5351 17.1645 14.1841 15.9381C14.3747 16.0084 14.5853 16.0352 14.8028 16.0079C15.5351 15.9161 16.0681 15.2464 15.9932 14.5122L15.6396 11.0457C15.5807 10.4682 15.1632 10.0227 14.6313 9.90359V7.90494C14.6313 4.69035 12.358 2.00674 9.33126 1.37411V1.33123C9.33126 0.596012 8.73525 0 8.00003 0ZM5.30213 6.41099C5.30213 6.00245 5.63332 5.67126 6.04185 5.67126H9.7434C10.1519 5.67126 10.4831 6.00245 10.4831 6.41099C10.4831 6.81953 10.1519 7.15072 9.7434 7.15072H6.04185C5.63331 7.15072 5.30213 6.81953 5.30213 6.41099ZM8.00055 10.1096C5.7949 10.1096 4.00686 11.8976 4.00686 14.1033V14.8438C4.00686 15.4975 4.53676 16.0274 5.19042 16.0274H10.8107C11.4643 16.0274 11.9942 15.4975 11.9942 14.8438V14.1033C11.9942 11.8976 10.2062 10.1096 8.00055 10.1096Z" fill="black"/>
</svg>
