<svg width="18" height="20" viewBox="0 0 18 20" fill="none" xmlns="http://www.w3.org/2000/svg">
<path d="M12.75 17.5H6.1875C4.97656 17.5 4 16.5234 4 15.3125V3.75H1.1875C0.640625 3.75 0.25 4.17969 0.25 4.6875V19.0625C0.25 19.6094 0.640625 20 1.1875 20H11.8125C12.3203 20 12.75 19.6094 12.75 19.0625V17.5ZM12.75 4.0625V0H6.1875C5.64062 0 5.25 0.429688 5.25 0.9375V15.3125C5.25 15.8594 5.64062 16.25 6.1875 16.25H16.8125C17.3203 16.25 17.75 15.8594 17.75 15.3125V5H13.6875C13.1406 5 12.75 4.60938 12.75 4.0625ZM17.4375 2.85156L14.8984 0.3125C14.7422 0.15625 14.4297 0 14.2344 0H14V3.75H17.75V3.51562C17.75 3.32031 17.5938 3.00781 17.4375 2.85156Z" fill="#F46324"/>
</svg>
