<svg width="84" height="30" viewBox="0 0 84 30" fill="none" xmlns="http://www.w3.org/2000/svg">
<path d="M68.0541 30.0002C65.01 27.4262 61.6163 24.3803 58.4041 21.077C55.3069 17.8938 51.7673 15.4785 51.3248 10.1589C50.8824 5.01091 54.2008 0.935402 58.8466 0.454922C62.9304 0.0259214 65.6869 1.59606 67.5143 4.18294C69.1558 2.01219 71.107 0.343382 74.6643 0.193232C79.1995 0.000181377 82.571 2.73291 83.6241 6.0877C83.9339 7.15707 84.0536 8.26979 83.978 9.37813C83.6019 14.6034 80.3057 17.8809 77.0979 20.9912C73.8901 24.1014 70.9035 27.143 68.0718 30.0002" fill="white"/>
<path d="M7.22087 0V7.49893H0V12.8271H7.22087V30H12.7206V12.8271H19.9415V7.49893H12.7206V0H7.22087Z" fill="white"/>
<path d="M45.564 8.5498H25.6226V13.878H45.564V8.5498Z" fill="white"/>
<path d="M45.564 16.1211H25.6226V21.4493H45.564V16.1211Z" fill="white"/>
</svg>
