<svg width="124" height="28" viewBox="0 0 124 28" fill="none" xmlns="http://www.w3.org/2000/svg">
<path d="M1.81219 2.36H1.33219C1.30552 2.25333 1.26552 2.18667 1.21219 2.16V2.36H1.33219V2.48H1.41219V2.6H1.81219V2.36ZM7.29219 25.44H7.21219V25.28C6.91885 25.3067 6.75885 25.4667 6.73219 25.76H6.93219C6.90552 25.8933 6.83885 26 6.73219 26.08V26.16C6.86552 26.16 7.05219 26.08 7.29219 25.92V25.44ZM5.57219 25.76V25.6H5.49219V25.84C5.57219 25.8133 5.62552 25.7867 5.65219 25.76H5.57219ZM5.69219 1.44L6.21219 1.4C6.47885 1.4 6.67885 1.38667 6.81219 1.36C6.99885 1.28 7.29219 1.24 7.69219 1.24C8.09219 1.26667 8.35885 1.32 8.49219 1.4H9.05219C9.26552 1.42666 9.43885 1.46666 9.57219 1.52C9.54552 1.84 9.51885 2.37333 9.49219 3.12L9.41219 4.76H9.33219C9.22552 4.97333 9.19885 5.25333 9.25219 5.6L9.33219 6L9.37219 6.4C9.31885 6.93333 9.29219 7.4 9.29219 7.8H9.37219C9.37219 7.88 9.38552 8 9.41219 8.16V8.56C9.33219 8.56 9.27885 8.6 9.25219 8.68C9.17219 8.81333 9.19885 8.92 9.33219 9C9.33219 9.13333 9.30552 9.24 9.25219 9.32C9.17219 9.50667 9.19885 9.6 9.33219 9.6L9.29219 11.04H9.37219C9.37219 11.1733 9.35885 11.3733 9.33219 11.64C9.30552 11.9067 9.29219 12.1333 9.29219 12.32C9.34552 12.3733 9.35885 12.4933 9.33219 12.68H9.25219V12.8H9.33219C9.43885 12.88 9.49219 13.0533 9.49219 13.32H9.25219L9.29219 14.32V15.44H9.21219C9.15885 15.92 9.11885 16.28 9.09219 16.52H9.17219V16.96H9.25219C9.25219 17.0933 9.23885 17.2933 9.21219 17.56C9.18552 17.8267 9.17219 18.04 9.17219 18.2H9.25219L9.21219 18.64H9.37219C9.39885 18.8 9.34552 18.9067 9.21219 18.96L9.17219 21.84H9.33219C9.27885 21.8667 9.22552 21.9333 9.17219 22.04L9.21219 22.4C9.23885 22.5333 9.26552 22.6533 9.29219 22.76H9.13219V22.88H9.29219V23H9.13219V23.68H9.29219L9.25219 25.4H9.09219V25.84H9.25219L9.21219 27.36H7.25219V27.4H6.77219V27.36H6.45219C6.34552 26.96 6.26552 26.5867 6.21219 26.24C6.15885 25.7333 6.18552 25.2933 6.29219 24.92L6.33219 24.8L6.37219 24.68C6.39885 24.5467 6.39885 24.4267 6.37219 24.32H6.33219V23.44H6.21219C6.21219 23.4133 6.22552 23.3733 6.25219 23.32L6.29219 23.16C6.34552 22.9733 6.35885 22.84 6.33219 22.76H6.21219L6.25219 22.16C6.25219 22.0533 6.29219 21.9467 6.37219 21.84H6.25219L6.33219 18.36H6.17219L6.21219 17.76C6.23885 17.5467 6.27885 17.3733 6.33219 17.24C6.27885 17.1067 6.22552 16.8667 6.17219 16.52H6.33219C6.35885 16.3867 6.31885 16.32 6.21219 16.32L6.25219 13.48H6.09219C6.14552 13.24 6.18552 12.96 6.21219 12.64L6.29219 11.84V11.76L6.25219 11.64L6.21219 11.4C6.15885 11.16 6.13219 10.9733 6.13219 10.84H6.29219L6.33219 9.6H6.17219C6.22552 9.33333 6.26552 9.01333 6.29219 8.64L6.37219 7.76C6.26552 7.30667 6.21219 6.66667 6.21219 5.84L6.25219 4.8L6.29219 3.84L6.05219 3.76C5.94552 3.73333 5.86552 3.70667 5.81219 3.68H5.77219L5.73219 3.76C5.67885 3.81333 5.61219 3.84 5.53219 3.84L5.49219 3.72C5.46552 3.66667 5.43885 3.64 5.41219 3.64H5.01219C4.98552 3.64 4.95885 3.66667 4.93219 3.72L4.89219 3.84C4.81219 3.84 4.74552 3.81333 4.69219 3.76L4.65219 3.68H4.61219C4.55885 3.70667 4.47885 3.73333 4.37219 3.76L4.13219 3.84V4.8L4.17219 5.84C4.14552 6.66667 4.07885 7.30667 3.97219 7.76L4.01219 8.64C4.03885 9.01333 4.07885 9.33333 4.13219 9.6H3.97219V10.84H4.13219C4.13219 10.9733 4.10552 11.16 4.05219 11.4L4.01219 11.64L3.97219 11.76V11.84L4.01219 12.64C4.03885 12.96 4.07885 13.24 4.13219 13.48H3.97219V16.32C3.86552 16.32 3.81219 16.3867 3.81219 16.52H3.97219C3.91885 16.8667 3.86552 17.1067 3.81219 17.24C3.86552 17.3733 3.90552 17.5467 3.93219 17.76L3.97219 18.36H3.81219V21.84H3.69219C3.77219 21.9467 3.81219 22.0533 3.81219 22.16V22.76H3.69219C3.66552 22.84 3.67885 22.9733 3.73219 23.16L3.77219 23.32C3.79885 23.3733 3.81219 23.4133 3.81219 23.44H3.69219V24.32H3.65219C3.62552 24.4267 3.62552 24.5467 3.65219 24.68L3.69219 24.8V24.92C3.79885 25.2933 3.82552 25.7333 3.77219 26.24C3.71885 26.5867 3.62552 26.96 3.49219 27.36H3.17219V27.4H2.69219V27.36H0.732188V25.84H0.892188V25.4H0.732188V23.68H0.892188V23H0.732188V22.88H0.892188V22.76H0.732188C0.785521 22.6533 0.825521 22.5333 0.852188 22.4L0.892188 22.04C0.838854 21.9333 0.785521 21.8667 0.732188 21.84H0.892188V18.96C0.758854 18.9067 0.705521 18.8 0.732188 18.64H0.892188V18.2H0.972188C0.972188 18.04 0.958854 17.8267 0.932188 17.56C0.905521 17.2933 0.892188 17.0933 0.892188 16.96H0.972188V16.52H1.05219C1.05219 16.28 1.02552 15.92 0.972188 15.44H0.892188C0.892188 15.1733 0.905521 14.8 0.932188 14.32L0.972188 13.32H0.732188C0.732188 13.0533 0.785521 12.88 0.892188 12.8H0.972188V12.68H0.892188C0.865521 12.4933 0.892188 12.3733 0.972188 12.32C0.972188 12.1333 0.958854 11.9067 0.932188 11.64C0.905521 11.3733 0.892188 11.1733 0.892188 11.04H0.972188V9.6C1.10552 9.6 1.13219 9.50667 1.05219 9.32C0.998854 9.24 0.972188 9.13333 0.972188 9C1.10552 8.92 1.13219 8.81333 1.05219 8.68C1.02552 8.6 0.972188 8.56 0.892188 8.56C0.892188 8.42667 0.905521 8.29333 0.932188 8.16C0.958854 8 0.972188 7.88 0.972188 7.8H1.05219C1.05219 7.4 1.02552 6.93333 0.972188 6.4L1.05219 6L1.13219 5.6C1.18552 5.25333 1.15885 4.97333 1.05219 4.76H0.972188L0.932188 3.12C0.905521 2.37333 0.892188 1.84 0.892188 1.52C1.02552 1.46666 1.19885 1.42666 1.41219 1.4H1.97219C2.10552 1.32 2.37219 1.26667 2.77219 1.24C3.17219 1.24 3.46552 1.28 3.65219 1.36C3.78552 1.38667 3.98552 1.4 4.25219 1.4L4.77219 1.44H5.69219ZM21.0697 23.16L20.9897 23.12H20.8297C20.803 23.2 20.8297 23.28 20.9097 23.36L20.9497 23.48L20.9897 23.56H20.8297C20.8297 24.1467 20.8164 24.56 20.7897 24.8H20.6697L20.4297 25.28L20.1897 25.76L19.9497 25.8L19.7497 25.84L19.5497 26.08L19.3897 26.32H19.1497L19.1097 26.44C19.083 26.4667 19.0564 26.4933 19.0297 26.52H18.8297V26.64L18.5897 26.72L18.3497 26.8V26.84C18.163 26.92 17.8964 26.96 17.5497 26.96V27.12H17.3497V27.24C17.1364 27.32 16.8297 27.3333 16.4297 27.28L15.9897 27.2C15.8297 27.1467 15.7097 27.12 15.6297 27.12V26.8L15.1097 26.88L14.5897 26.96V26.84H14.1097L14.0697 26.76L13.9897 26.64H13.6297V26.56C13.603 26.5067 13.5764 26.4533 13.5497 26.4H13.3097C13.0964 26.1867 12.963 26 12.9097 25.84L12.6697 25.8C12.6164 25.8 12.5764 25.7867 12.5497 25.76C12.4697 25.44 12.4297 25.1867 12.4297 25L12.3097 24.96H12.1497V24.52L12.0697 24.48H11.9497C11.923 24.3733 11.9497 24.2667 12.0297 24.16L12.1097 24.04L12.1497 23.88L12.1097 23.84L12.0297 23.8C11.9497 23.7467 11.883 23.6933 11.8297 23.64C11.803 23.5333 11.843 23.4267 11.9497 23.32L12.0697 23.2L12.1497 23.12H12.1097C11.9497 22.9333 11.8564 22.7733 11.8297 22.64H12.1497V22.44L12.1097 22.24H11.9497V22.04H11.8297L11.9097 21.88L11.9497 21.72C12.083 21.6933 12.1897 21.64 12.2697 21.56L12.4297 21.72C12.4564 21.6133 12.5097 21.5333 12.5897 21.48V21.36H12.2697V21.24L12.1097 21.2H12.0697L11.9497 21.16L11.9097 21V20.84C11.883 20.7333 11.8564 20.64 11.8297 20.56H11.9497V19.96C11.843 20.0133 11.803 19.9467 11.8297 19.76C11.9097 19.7067 11.9497 19.6267 11.9497 19.52H11.8297L11.9097 19.4L11.9497 19.32C11.923 19.2933 11.883 19.2667 11.8297 19.24L11.6697 19.2C11.723 19.1467 11.763 19.08 11.7897 19L11.8297 18.88H11.9497L11.9097 17.36C11.883 16.7733 11.8564 16.2667 11.8297 15.84H11.6697V15.76H11.8297C11.8564 15.6 11.843 15.44 11.7897 15.28L11.7097 15.08L11.6697 14.96H11.8297V14.64H11.9497C11.8964 14.4267 11.8564 14.3067 11.8297 14.28H11.6697V14.16H11.8297V13.2H11.6697C11.723 13.0933 11.763 12.96 11.7897 12.8L11.8297 12.44H11.6697V12.16H11.6297V12.12H11.6697V11.24H11.8297V11.2H11.6697V8.76C11.643 8.6 11.6297 8.49333 11.6297 8.44H11.6697V7.92L11.6297 7.44H11.6697V7.12H11.8297V7.08H11.6697V4.32H11.8297V3.88H11.9497V3.52H12.1097V3.24C12.1364 3.21333 12.1764 3.18667 12.2297 3.16L12.4297 3.08C12.4297 2.92 12.4697 2.78667 12.5497 2.68H12.5897L12.6697 2.64L12.9097 2.6V2.48C13.1497 2.48 13.3897 2.52 13.6297 2.6V2.48H13.7897V2.36H13.4697L13.5097 2.12L13.5497 1.88L13.6297 1.84H13.7097C13.8164 1.81333 13.8964 1.77333 13.9497 1.72V1.68H14.1097V1.56H14.5897V1.4H15.0697V1.28H15.6297V1.24C15.8697 1.16 16.2564 1.14667 16.7897 1.2C16.9764 1.22666 17.1764 1.25333 17.3897 1.28C17.5497 1.33333 17.6964 1.37333 17.8297 1.4H18.2297V1.56L18.5897 1.64L18.9097 1.72V1.88H19.1497C19.1764 1.90667 19.203 1.94667 19.2297 2L19.3097 2.16H19.4697C19.6564 2.29333 19.7764 2.44 19.8297 2.6L19.9897 2.64L20.1097 2.68L20.2297 2.88L20.3097 3.04C20.363 3.2 20.4297 3.32 20.5097 3.4V3.88H20.4297V4.04H20.5097V4.52H20.6697V5.44H20.7897C20.8164 5.57333 20.7764 5.64 20.6697 5.64V6.12H20.7897V7.6L20.8297 7.64H20.8697C20.8964 7.66667 20.883 7.72 20.8297 7.8H20.7897V9.56C20.8964 9.64 20.9097 9.74667 20.8297 9.88H20.7897V11.84L20.8297 11.88L20.8697 11.92C20.8964 11.9467 20.883 12.0133 20.8297 12.12H20.7897V12.56H20.8297L20.7897 12.64L20.7497 12.72C20.723 12.8267 20.7364 12.9333 20.7897 13.04C20.843 13.2533 20.8564 13.6533 20.8297 14.24L20.7897 14.92C20.7897 15.1333 20.803 15.32 20.8297 15.48H20.9897C21.043 15.5867 21.0297 15.6533 20.9497 15.68L20.8697 15.72L20.8297 15.76V16.96C20.803 17.0133 20.7897 17.08 20.7897 17.16H20.8297V17.8H20.9897L20.9497 17.88V18C20.923 18.0533 20.883 18.0933 20.8297 18.12V19.92H20.9897L20.9497 20.16C20.923 20.2667 20.883 20.3467 20.8297 20.4H20.9897V22.72H21.1497C21.1764 22.8533 21.1897 23.0133 21.1897 23.2L21.0697 23.16ZM12.5897 3.56H12.5497V4.04H12.5897V3.56ZM17.9097 19.2L17.8697 18.48L17.8297 17.8C17.723 15.96 17.6697 13.8667 17.6697 11.52L17.6297 8.16L17.5497 4.8C17.3364 4.37333 17.163 4.05333 17.0297 3.84L16.7497 3.8H16.5097C16.3497 3.77333 16.2164 3.74667 16.1097 3.72V3.84H15.5097C15.4564 3.89333 15.363 3.97333 15.2297 4.08L15.0697 4.2L14.9097 4.32L14.8697 4.52L14.8297 4.72L14.7097 5.2H14.8697V6.6C14.923 6.6 14.9364 6.72 14.9097 6.96C14.9097 6.98667 14.8964 7 14.8697 7L14.8297 6.96C14.803 6.96 14.8164 7 14.8697 7.08H14.9097V7.48H14.8697V7.76H14.7097C14.683 7.81333 14.6964 7.86667 14.7497 7.92H14.8297L14.8697 7.96V9.56H14.9097V10.12H14.8697C14.8164 10.3067 14.803 10.48 14.8297 10.64L14.8697 10.84L14.9097 11.04V11.68H14.8697V13.08C14.8697 13.32 14.8564 13.64 14.8297 14.04L14.7897 15.04C14.763 15.8133 14.803 16.4 14.9097 16.8V21.04H15.0697C15.0164 21.0933 14.9764 21.1733 14.9497 21.28L14.9097 21.48L14.9497 22.28C14.9764 22.6 15.0164 22.88 15.0697 23.12H15.1897V23.8H15.2697V24C15.323 24 15.363 24.0133 15.3897 24.04L15.4697 24.12H15.5097L15.5497 24.2V24.28C15.5764 24.36 15.603 24.4267 15.6297 24.48C16.2697 24.5867 16.9097 24.4933 17.5497 24.2C17.5764 24.0667 17.6164 24 17.6697 24V22.52H17.8297L17.8697 21.76L17.9097 21.04L17.8697 20.64L17.8297 20.24C17.8297 20.1867 17.843 20.12 17.8697 20.04L17.9497 19.72C18.003 19.4533 18.0164 19.28 17.9897 19.2H17.9097ZM20.1897 18.6H19.9497C20.003 18.6533 20.083 18.6933 20.1897 18.72V18.6ZM19.8297 24.12H19.6297V24.36H19.8297V24.12ZM13.2297 22.64H13.0697C12.963 22.8533 12.8564 23.0133 12.7497 23.12V23.2C12.9097 23.1467 13.0697 23.0667 13.2297 22.96V22.64ZM12.4297 23.64V24.2H12.5497L12.5897 23.92V23.64H12.4297ZM32.9028 19.64V19.68C32.5828 19.7867 32.3428 19.84 32.1828 19.84C32.1561 19.84 32.1428 19.8133 32.1428 19.76C32.1695 19.7067 32.1561 19.68 32.1028 19.68V19.84H31.8228V19.64C32.0095 19.64 32.1695 19.6533 32.3028 19.68V19.52C32.4095 19.4933 32.5028 19.44 32.5828 19.36L33.0628 19.52V19.64H32.9028ZM36.5828 26.72C35.5961 26.9333 34.7561 27.08 34.0628 27.16C34.0628 27.1333 33.9695 27.0667 33.7828 26.96V26.24H33.7028C33.7561 26.1867 33.7828 26.1333 33.7828 26.08H33.7028C33.6761 25.9733 33.6495 25.88 33.6228 25.8V25.72L33.5828 25.6H33.4628V24.76C33.4361 24.7333 33.3828 24.6933 33.3028 24.64C33.2228 24.6133 33.1561 24.5733 33.1028 24.52V24.32H33.0628C32.9561 23.8933 32.9028 23.56 32.9028 23.32C32.8761 23.2933 32.8361 23.2667 32.7828 23.24H32.7028L32.6628 23.2L32.2628 21.68L31.8228 20.16C32.7295 20.0267 33.3828 20 33.7828 20.08V19.68H33.7028C33.6495 19.6267 33.4495 19.6133 33.1028 19.64V19.52C33.2895 19.4667 33.4095 19.3733 33.4628 19.24H33.7828V19.36L33.9028 19.4L33.9828 19.44C34.0628 19.4667 34.1161 19.4933 34.1428 19.52V19.96H34.4228V20.4H33.9428V20.28H33.5828C33.6628 20.44 33.7428 20.56 33.8228 20.64C33.9561 20.7467 34.1028 20.7867 34.2628 20.76C34.2628 20.6267 34.3295 20.5733 34.4628 20.6L34.7428 20.88C34.7961 21.3333 34.7961 21.6533 34.7428 21.84C34.8495 21.84 34.9561 21.8667 35.0628 21.92C35.0895 22.08 35.1428 22.16 35.2228 22.16V22.88H35.3428V23.04L35.4228 23.12L35.5428 23.2V23.52H35.6628V24.2H35.7828C35.7828 24.28 35.7961 24.3867 35.8228 24.52C35.8495 24.6533 35.8628 24.7333 35.8628 24.76H35.9828C35.9828 25.1067 35.8761 25.2933 35.6628 25.32V25.44H35.9828C36.0361 25.6267 36.0761 25.7467 36.1028 25.8L36.2228 25.84C36.2495 25.8667 36.2761 25.8933 36.3028 25.92V26.4L36.3828 26.44L36.4628 26.48C36.5161 26.5067 36.5561 26.5867 36.5828 26.72ZM34.7428 2L34.5428 1.92L34.3028 1.84C34.0895 1.78667 33.9561 1.74667 33.9028 1.72C33.7961 1.77333 33.7295 1.89333 33.7028 2.08C33.8361 2.08 34.0895 2.12 34.4628 2.2V2.16H34.7028L34.7428 2.08V2ZM30.1828 3.56C30.1828 3.48 30.1028 3.32 29.9428 3.08L29.9028 3.04L29.8628 3H29.7828V3.32H29.9428V3.56H30.1828ZM33.4628 9.08H33.3428C33.3428 9.24 33.3828 9.36 33.4628 9.44L33.6228 9.12L33.4628 9.08ZM33.4628 9.64C33.3561 9.64 33.2895 9.62667 33.2628 9.6C33.1295 9.81333 33.0895 10.08 33.1428 10.4H33.2228L33.4628 9.64ZM34.9028 24.76V24.56L34.8628 24.32H34.9028V24.2C34.8495 24.2 34.7695 24.2133 34.6628 24.24C34.5295 24.2933 34.4495 24.32 34.4228 24.32V24.52C34.6628 24.6 34.8095 24.68 34.8628 24.76H34.9028ZM35.3428 25.68C35.2628 25.52 35.1695 25.36 35.0628 25.2H34.7428C34.8761 25.44 35.0761 25.6 35.3428 25.68ZM34.2628 24.76H34.0628C34.0895 24.7867 34.1561 24.8133 34.2628 24.84V24.76ZM29.8228 2.2C29.8495 2.49333 29.9828 2.68 30.2228 2.76V2.52H30.0628V2.2H29.8228ZM25.4228 24.84C25.5295 24.8133 25.5961 24.7867 25.6228 24.76H25.4228V24.84ZM28.3828 18.56L27.7428 20.44L27.0628 23.12L27.0228 23.16H26.9428C26.8895 23.1867 26.8495 23.2133 26.8228 23.24C26.8228 23.5067 26.7695 23.8533 26.6628 24.28H26.6228V24.48C26.5695 24.5333 26.5028 24.5733 26.4228 24.6C26.3428 24.6533 26.2895 24.6933 26.2628 24.72L26.2228 25.56H26.1028L26.0628 25.68V25.76C26.0361 25.84 26.0095 25.9467 25.9828 26.08H25.9028C25.9028 26.1333 25.9295 26.1867 25.9828 26.24H25.9028V26.96C25.7161 27.0667 25.6228 27.1333 25.6228 27.16C24.9295 27.08 24.0895 26.9333 23.1028 26.72C23.1295 26.5867 23.1695 26.5067 23.2228 26.48L23.3028 26.44L23.3828 26.4V25.88C23.4095 25.8533 23.4361 25.8267 23.4628 25.8L23.5828 25.76C23.6095 25.7067 23.6495 25.5867 23.7028 25.4H24.0228V25.28C23.8095 25.2533 23.7161 25.0667 23.7428 24.72H23.8628C23.8628 24.6933 23.8761 24.6133 23.9028 24.48C23.9295 24.3467 23.9428 24.24 23.9428 24.16H24.0628V23.48H24.1828V23.12L24.3028 23.04L24.3828 22.96V22.8H24.5028L24.7828 20.92C24.8628 20.92 24.9161 20.84 24.9428 20.68C25.0495 20.6267 25.1561 20.6 25.2628 20.6C25.2095 20.4133 25.3295 19.8533 25.6228 18.92L25.9028 18.64C26.0361 18.6133 26.1028 18.6667 26.1028 18.8C26.1828 18.8267 26.2628 18.8267 26.3428 18.8L26.3028 18.76V18.72C26.2228 18.6667 26.1695 18.64 26.1428 18.64H26.0228C25.9961 18.64 25.9561 18.52 25.9028 18.28H25.8228L25.7828 18.32C25.7561 18.32 25.7428 18.2933 25.7428 18.24C25.8228 18.24 25.8895 18.2133 25.9428 18.16V17.96H26.0228C26.0228 17.88 26.0361 17.7867 26.0628 17.68L26.1028 17.24H26.2228V16.64H26.3028V16.44H26.4628C26.4895 16.3333 26.4895 16.2267 26.4628 16.12V15.8H26.5028V15.56H26.6628V15.2H26.8228V14.84H26.9028V14.52H26.9828C27.1161 14.1467 27.1961 13.88 27.2228 13.72L27.0628 13.24C27.0895 13.1867 27.0895 13.1467 27.0628 13.12L26.9828 13C26.9295 12.92 26.9161 12.8667 26.9428 12.84L26.7828 12.56H26.7428V12.52C26.7695 12.4667 26.7695 12.4533 26.7428 12.48V12.28H26.5828L26.6228 12.2L26.6628 12.08C26.6895 12.0267 26.7161 12 26.7428 12L26.5028 11.76L26.3828 11.28H26.2228V11.16H26.3828L26.2628 10.88L26.2228 10.8V10.84L25.8628 9.52V9.32C25.8628 9.29333 25.8095 9.28 25.7028 9.28L25.5428 8.36L25.3828 8.24V8.08L25.0628 7.12L24.9828 7L24.9028 6.84L24.9428 6.8L24.8628 6.32L24.8228 6.04L24.7428 5.92L24.6628 5.84C24.5828 5.76 24.5428 5.66667 24.5428 5.56L24.7028 5.32L24.6228 5.24L24.5828 5.16C24.5295 5.08 24.4895 5 24.4628 4.92L24.5428 4.56L24.5028 4.44L24.4228 4.36C24.3961 4.28 24.3695 4.24 24.3428 4.24L23.6228 2V1.8C24.1295 1.50667 24.5695 1.36 24.9428 1.36V1.48H25.1428C25.2495 1.45333 25.4628 1.42666 25.7828 1.4H26.1028C26.2095 1.37333 26.2895 1.36 26.3428 1.36C26.4761 1.44 26.6228 1.81333 26.7828 2.48L26.9028 3L27.0228 3.52C27.1295 3.97333 27.2361 4.37333 27.3428 4.72H27.3828V4.84H27.5028V5.32L27.8228 6.4L28.3028 8.6C28.3295 8.62667 28.3561 8.68 28.3828 8.76V6.16C28.3561 5.22666 28.3161 4.56 28.2628 4.16C28.2895 3.97333 28.3161 3.77333 28.3428 3.56L28.3828 3H28.2628C28.2628 2.2 28.3428 1.66666 28.5028 1.4H28.5828C28.6628 1.34667 28.7295 1.30667 28.7828 1.28V1.24L28.8628 1.2H29.1828V1.24H29.5028C29.5561 1.32 29.6628 1.37333 29.8228 1.4C30.0095 1.37333 30.1295 1.32 30.1828 1.24H30.5028V1.2H30.8228L30.9028 1.24V1.28C30.9561 1.30667 31.0228 1.34667 31.1028 1.4H31.1828C31.3428 1.66666 31.4228 2.2 31.4228 3H31.3028L31.3428 3.56C31.3695 3.77333 31.3961 3.97333 31.4228 4.16C31.3695 4.56 31.3295 5.22666 31.3028 6.16V8.76C31.3295 8.68 31.3561 8.62667 31.3828 8.6L31.8628 6.4L32.1828 5.32V4.84H32.3028V4.72H32.3428C32.4495 4.37333 32.5561 3.97333 32.6628 3.52L32.7828 3L32.9028 2.48C33.0628 1.81333 33.2095 1.44 33.3428 1.36C33.3961 1.36 33.4761 1.37333 33.5828 1.4H33.9028C34.2228 1.42666 34.4361 1.45333 34.5428 1.48H34.7428V1.36C35.1161 1.36 35.5561 1.50667 36.0628 1.8V2L35.3428 4.24C35.3161 4.24 35.2895 4.28 35.2628 4.36L35.1828 4.44L35.1428 4.56L35.2228 4.92C35.1961 5 35.1561 5.08 35.1028 5.16L35.0628 5.24L34.9828 5.32L35.1428 5.56C35.1428 5.66667 35.1028 5.76 35.0228 5.84L34.9428 5.92L34.8628 6.04L34.8228 6.32L34.7428 6.8L34.7828 6.84L34.7028 7L34.6228 7.12L34.3028 8.08V8.24L34.1428 8.36L33.9828 9.28C33.8761 9.28 33.8228 9.29333 33.8228 9.32V9.52L33.4628 10.84V10.8L33.4228 10.88L33.3028 11.16H33.4628V11.28H33.3028L33.1828 11.76L32.9428 12C32.9695 12 32.9961 12.0267 33.0228 12.08L33.0628 12.2L33.1028 12.28H32.9428V12.48C32.9161 12.4533 32.9161 12.4667 32.9428 12.52V12.56H32.9028L32.7428 12.84C32.7695 12.8667 32.7561 12.92 32.7028 13L32.6228 13.12C32.5961 13.1467 32.5961 13.1867 32.6228 13.24L32.4628 13.72C32.4895 13.88 32.5695 14.1467 32.7028 14.52H32.7828V14.84H32.8628V15.2H33.0228V15.56H33.1828V15.8H33.2228V16.12C33.1961 16.2267 33.1961 16.3333 33.2228 16.44H33.3828V16.64H33.4628V17.24H33.5828L33.6228 17.68C33.6495 17.84 33.6761 17.9867 33.7028 18.12C33.7561 18.2 33.8361 18.24 33.9428 18.24C33.9428 18.2933 33.9295 18.32 33.9028 18.32L33.8628 18.28H33.7828C33.7295 18.52 33.6895 18.64 33.6628 18.64H33.5428C33.5161 18.64 33.4628 18.6667 33.3828 18.72V18.76C33.3295 18.8133 33.2895 18.84 33.2628 18.84L33.2228 18.92H33.4628V19.2H32.9028C32.8761 19.04 32.8361 18.9067 32.7828 18.8L32.7428 18.68C32.7161 18.6267 32.6895 18.5467 32.6628 18.44H32.2628L31.9028 18.48C31.6628 18.5067 31.4628 18.5067 31.3028 18.48V18.56H31.2628V19.16L31.3028 19.48C31.3295 19.8 31.3161 20.0533 31.2628 20.24V20.88C31.2895 20.9333 31.2895 20.9867 31.2628 21.04V22.16C31.3161 22.32 31.3428 22.6933 31.3428 23.28L31.3028 23.64V23.92L31.2628 24.12V24.52L31.3028 24.72L31.3828 24.88C31.4361 24.9867 31.4495 25.0667 31.4228 25.12H31.3028C31.3028 25.28 31.3295 25.4667 31.3828 25.68C31.4361 25.84 31.4628 25.9333 31.4628 25.96L31.5028 26.04C31.5295 26.0933 31.5428 26.1467 31.5428 26.2L31.6228 26.24C31.5961 26.48 31.5295 26.6533 31.4228 26.76V27.16H31.2628V27.28C31.1828 27.3333 31.1161 27.3333 31.0628 27.28H30.7028V27.16H28.9828V27.28H28.6228C28.5695 27.3333 28.5028 27.3333 28.4228 27.28V27.16H28.2628V26.76C28.1561 26.6533 28.0895 26.48 28.0628 26.24L28.1428 26.2C28.1428 26.1467 28.1561 26.0933 28.1828 26.04L28.2228 25.96C28.2228 25.9333 28.2495 25.84 28.3028 25.68C28.3561 25.4667 28.3828 25.28 28.3828 25.12H28.2628C28.2361 25.0667 28.2495 24.9867 28.3028 24.88L28.3828 24.72L28.4228 24.52V24.12L28.3828 23.92V23.64L28.3428 23.28C28.3428 22.6933 28.3695 22.32 28.4228 22.16V21.04C28.3961 20.9867 28.3961 20.9333 28.4228 20.88V20.24C28.3695 20.0533 28.3561 19.8 28.3828 19.48L28.4228 19.16V18.56H28.3828ZM42.6063 1.52H42.5263V1.68H42.3663V1.32C42.3929 1.34667 42.4863 1.38667 42.6463 1.44L42.6063 1.52ZM37.6863 10.52V10.48H37.8063L37.9263 10.4C38.0063 10.3733 38.0729 10.36 38.1263 10.36V10.52H37.6863ZM43.5263 25.28C43.5263 25.52 43.5129 25.84 43.4863 26.24C43.4863 26.6933 43.4729 26.96 43.4463 27.04C43.3663 27.04 43.3396 27.0267 43.3663 27C43.3929 27 43.3929 26.9867 43.3663 26.96L43.2063 26.92V27.04H42.4063C42.1929 26.9867 41.8329 26.9467 41.3263 26.92C40.7929 26.8933 40.3929 26.8933 40.1263 26.92V27.04C40.0196 27.0667 39.8596 27.08 39.6463 27.08L39.1263 27.04C38.6729 26.96 38.3929 26.96 38.2863 27.04C38.0196 27.04 37.8063 27 37.6463 26.92C37.6463 26.8667 37.6196 26.76 37.5663 26.6L37.4863 26.12C37.4329 25.72 37.4463 25.4267 37.5263 25.24H37.6463V25.04H37.6863V24.52H37.8463V24.44H37.6863V23.96H37.6463C37.5929 23.7467 37.5796 23.4667 37.6063 23.12L37.6463 22.72L37.6863 22.36V21.8L37.6463 21.28H37.6863V20.52H37.8463C37.7929 20.3067 37.7396 20.1467 37.6863 20.04C37.8463 20.04 37.8996 19.9733 37.8463 19.84H37.6863C37.7396 19.6533 37.7796 19.44 37.8063 19.2V18.92L37.8463 18.56H37.6863C37.8463 17.84 37.9396 17.2133 37.9663 16.68C37.9396 16.6533 37.8996 16.6267 37.8463 16.6L37.6863 16.56V16.24H37.9663L37.9263 16.12V16C37.8996 15.8933 37.8729 15.8133 37.8463 15.76H37.9663V15.6H37.8463L37.8063 15.36V15.08C37.7796 14.8667 37.7396 14.6933 37.6863 14.56H38.1263V14.4H37.8463C37.7663 14.32 37.7129 14.1067 37.6863 13.76V13H37.9663V12.52H37.7262C37.8863 12.4933 37.9396 12.3067 37.8863 11.96C37.8863 11.8533 37.8596 11.7333 37.8063 11.6L37.7262 11.4L37.6863 11.28C37.8463 11.2 38.0063 11.16 38.1663 11.16V10.84H37.8463C37.9796 10.7333 38.1263 10.68 38.2863 10.68C38.2596 10.5733 38.2596 10.2933 38.2863 9.84H38.1263V9.68H38.6063V9.32C38.4729 9.42667 38.3263 9.44 38.1663 9.36L37.9263 9.28L37.6863 9.2C37.7396 9.12 37.7796 9.01333 37.8063 8.88L37.8463 8.6L38.0463 8.68L38.2063 8.72C38.3396 8.77333 38.4729 8.81333 38.6063 8.84L38.7663 8.6H38.9263L38.8463 8.44L38.7663 8.28C38.7929 8.25333 38.8463 8.16 38.9263 8H38.7663V7.84L38.4463 8V7.84H38.1663V7.68L38.1263 7.72H38.0463C37.9663 7.74667 37.8996 7.78667 37.8463 7.84V7.68H37.6863V6.6C37.7929 6.57333 37.8596 6.58667 37.8863 6.64L37.9663 6.56H38.1263V6.44C38.0196 6.41333 37.9529 6.42667 37.9263 6.48L37.8863 6.52L37.8463 6.56H37.6863V6.16H37.6463L37.6863 6L37.7262 5.84C37.7262 5.76 37.7129 5.69333 37.6863 5.64H37.6463L37.6863 5.16V4.72H37.6463V4.6C37.7529 4.57333 37.7663 4.48 37.6863 4.32H37.6463V4.28H37.6863C37.7663 4.04 37.8063 3.62667 37.8063 3.04C37.7796 2.48 37.7263 2.13333 37.6463 2C37.6463 1.78667 37.6596 1.6 37.6863 1.44C38.0063 1.38667 38.4729 1.36 39.0863 1.36H39.7263C39.9663 1.36 40.1796 1.34667 40.3663 1.32V1.36L40.4063 1.4H40.4463L40.4863 1.44C40.4063 1.6 40.3663 1.78667 40.3663 2H40.5263V1.68H40.6863V1.52H40.8063C40.8329 1.57333 40.8329 1.62667 40.8063 1.68L40.7663 1.8C40.6863 1.90666 40.6596 1.97333 40.6863 2H40.8063C40.8063 2.02667 40.8463 2.06667 40.9263 2.12L40.9663 1.92L41.0063 1.68C41.1663 1.73333 41.2996 1.84 41.4062 2L41.5663 1.88L41.6862 1.76C41.7663 1.65333 41.8863 1.57333 42.0463 1.52C41.9929 1.65333 41.9396 1.73333 41.8863 1.76V1.92L42.1263 1.96L42.3263 2L42.3663 1.88V1.76L42.4863 1.8L42.6863 1.84C42.8196 1.86667 42.9129 1.89333 42.9663 1.92V1.76H43.1263V1.44H43.2063V1.32H43.2863C43.3396 1.4 43.3529 1.49333 43.3263 1.6L43.2463 1.68L43.2063 1.76L43.3263 1.84L43.3663 1.88L43.4463 1.92V3.32H42.6863C42.6863 3.26667 42.5929 3.24 42.4063 3.24L42.2463 3.28H42.2063L42.0863 3.32L41.9663 3.28L41.8463 3.24V3.32C41.7663 3.32 41.6596 3.33333 41.5263 3.36L41.4062 3.44H41.3263V3.24H41.2063C41.1263 3.26666 41.0729 3.33333 41.0463 3.44C40.9396 3.46667 40.8729 3.42667 40.8463 3.32C40.7929 3.32 40.7663 3.33333 40.7663 3.36C40.7663 3.41333 40.7529 3.44 40.7263 3.44H40.1263L40.0463 3.52C40.0463 3.54667 40.0329 3.57333 40.0063 3.6L39.9663 3.72C39.9396 3.8 39.9263 3.86666 39.9263 3.92L39.9663 3.96H40.0063C40.0329 4.01333 40.0329 4.06667 40.0063 4.12H39.9263V4.28H40.0463L40.1263 4.32C40.1263 4.4 40.1129 4.56 40.0863 4.8C40.0329 5.06667 40.0063 5.26667 40.0063 5.4H39.6863V5.64H40.0063C39.9529 5.82667 39.9529 6.04 40.0063 6.28C40.1396 6.28 40.1796 6.37333 40.1263 6.56H40.0063C40.0063 6.69333 40.0463 6.76 40.1263 6.76L40.0863 6.96C40.0596 7.01333 40.0329 7.05333 40.0063 7.08L40.0863 7.28L40.1263 7.52L40.0863 7.8V8.12C40.0596 8.36 40.0329 8.56 40.0063 8.72H40.1263L40.0863 9.12L40.0063 9.52H40.1263V10.12H40.2463C40.2463 10.1467 40.2063 10.2267 40.1263 10.36C40.0463 10.4933 40.0063 10.5867 40.0063 10.64H40.1263V10.92H40.2463C40.2463 10.9733 40.2329 11.0267 40.2063 11.08L40.1263 11.12V11.72H40.0063C40.0063 11.96 40.0863 12.1333 40.2463 12.24H40.4063V12.64H40.4463V12.68L40.6463 12.64H40.8463V12.68L41.3663 12.64H41.8463V12.8H41.9663L42.0063 12.72L42.0863 12.64H42.2463L42.4063 12.68V12.64H43.0063V12.68H43.1663V13.4H43.2063V14.52H43.1663V14.68C43.0329 14.7067 42.9396 14.6533 42.8863 14.52H42.2463V14.68H42.0863C42.0063 14.6267 41.9129 14.5867 41.8063 14.56L41.5263 14.52V14.68H40.7663C40.4729 14.7067 40.2596 14.76 40.1263 14.84C40.1263 15.08 40.1663 15.24 40.2463 15.32H40.4063C40.4329 15.48 40.4063 15.6 40.3263 15.68L40.2063 15.76L40.1263 15.8V16.68H40.0063V16.24H39.9263V16.2H39.0063L39.1263 16.28L39.2863 16.36C39.4463 16.44 39.5263 16.5467 39.5263 16.68V17C39.7129 17.0267 39.9529 17.1333 40.2463 17.32L40.2063 17.8C40.1796 17.96 40.1529 18.08 40.1263 18.16H40.2463V18.68H40.4063V18.8H40.2463V19.4H40.1263V19.52H40.2463V20.32H40.4063V20.68L40.3263 21C40.2729 21.2933 40.2463 21.4933 40.2463 21.6H40.4063V23.04H40.2863C40.2329 23.0667 40.2196 23.12 40.2463 23.2H40.4063V23.88H40.2463V24.48H40.4063L40.4463 24.6V24.72H40.8463V24.84H40.8863V25.04H41.0463V25.2H40.8863V25.28H41.3263L41.3663 25.12V24.96H41.3263V24.72H41.6463V25.28L41.7663 25.24L41.8463 25.2H41.9663V25.52H42.0863V25.04H42.2463L42.2862 24.96C42.3663 25.12 42.4063 25.28 42.4063 25.44C42.4596 25.44 42.5263 25.4267 42.6063 25.4L42.6863 25.12L42.8063 25.28C42.8863 25.28 42.9663 25.2667 43.0463 25.24V25.2C43.0729 25.1733 43.0863 25.1333 43.0863 25.08C42.9529 25.0533 42.8729 25.04 42.8463 25.04C42.8729 24.96 42.9129 24.8933 42.9663 24.84V24.72H43.2863C43.2863 25.04 43.3663 25.2267 43.5263 25.28ZM39.7663 3.92C39.6863 3.94667 39.5263 3.96 39.2863 3.96C39.0463 3.98666 38.8729 4 38.7663 4V4.28L38.9663 4.24H39.2463C39.4329 4.21333 39.5796 4.17333 39.6863 4.12L39.7663 4V3.92ZM39.7663 4.72H39.5263L39.6063 4.8C39.6063 4.74667 39.6596 4.73333 39.7663 4.76V4.72ZM38.6063 3.8C38.5263 3.8 38.4196 3.81333 38.2863 3.84L37.9663 3.92V4H37.8463V4.12L38.0463 4.08C38.0996 4.05333 38.1396 4.02667 38.1663 4V4.28C38.2729 4.25333 38.3663 4.2 38.4463 4.12H38.6063V3.8ZM38.6063 4.44H38.4463V4.6H38.6063V4.44ZM37.9663 4.72V4.92C38.2863 4.92 38.5529 4.97333 38.7663 5.08L38.8463 4.84C38.8729 4.78666 38.8996 4.74666 38.9263 4.72H37.9663ZM38.6063 5.52H38.4463C38.4463 5.70667 38.4996 5.81333 38.6063 5.84V5.52ZM38.1263 7.04C38.0729 6.98667 38.0196 6.94666 37.9663 6.92H37.8863L37.8463 6.88V7.24H37.9663V7.08H38.1263V7.04ZM39.6863 8.84C39.6596 8.73333 39.6063 8.65333 39.5263 8.6V8.84H39.6863ZM39.5263 9.2H38.9263L38.8463 9.28L38.7663 9.4C38.8463 9.42667 38.9263 9.4 39.0063 9.32H39.5263V9.2ZM41.2063 13.08C41.1529 12.9467 41.0996 12.8533 41.0463 12.8V13.08H41.2063ZM38.2863 11.92C38.2596 11.84 38.2196 11.7867 38.1663 11.76V11.92H38.2863ZM38.9263 16.04H38.7663V16.52H38.9263V16.04ZM38.2863 17H38.1263C38.1529 17.08 38.1529 17.12 38.1263 17.12C38.1263 17.1467 38.1396 17.1733 38.1663 17.2V17.08H38.2863V17ZM41.3263 25.52L41.1263 25.48L40.8863 25.44V25.64H41.3263V25.52ZM53.8653 8.84V9.48L53.8253 10.04V12.8H53.6653V13.2H53.5453C53.572 13.2267 53.5986 13.28 53.6253 13.36L53.6653 13.56H53.5453C53.4386 13.8267 53.372 14.0533 53.3453 14.24H53.2253C52.9586 14.4533 52.7986 14.68 52.7453 14.92H52.5053V15.08C52.4253 15.1867 52.3186 15.24 52.1853 15.24C52.132 15.2933 52.092 15.36 52.0653 15.44L51.9853 15.56H51.7053C51.7053 15.6667 51.652 15.76 51.5453 15.84C51.492 15.8667 51.412 15.8933 51.3053 15.92L51.0653 15.96V16.04L50.9453 16.08L50.8253 16.12C50.7186 16.1467 50.6386 16.16 50.5853 16.16V16.28C50.3453 16.3333 50.012 16.3733 49.5853 16.4L48.5853 16.48V17.52H48.4653C48.5453 17.6267 48.5853 17.7333 48.5853 17.84C48.5853 18.0533 48.5453 18.1867 48.4653 18.24C48.5186 18.4533 48.5586 18.6933 48.5853 18.96V21.64H48.7453V22.92H48.5853C48.6386 23.0533 48.6786 23.2 48.7053 23.36L48.7453 23.76H48.5853V25.36C48.5853 25.3867 48.5586 25.4 48.5053 25.4L48.3853 25.44V26.4H48.5853V26.84C48.4253 26.84 48.1586 26.8533 47.7853 26.88H46.9453C46.252 26.9067 45.7453 26.8533 45.4253 26.72C45.4253 26.16 45.4386 25.4667 45.4653 24.64L45.5453 22.52C45.5986 20.84 45.5586 19.4933 45.4253 18.48C45.372 18.32 45.3986 18.24 45.5053 18.24C45.5053 18.08 45.4786 17.9467 45.4253 17.84C45.4253 17.7867 45.4386 17.7733 45.4653 17.8V17.84H45.5053C45.5053 17.6533 45.4786 17.5467 45.4253 17.52V17.4H45.5053V16.6H45.4253L45.4653 16.12V15.84L45.5053 15.56L45.4653 15.04V14.76L45.4253 14.44L45.4653 14.4C45.492 14.3467 45.5053 14.2933 45.5053 14.24H45.4253V13.64H45.5053V13.56H45.4253V12.64H45.5053C45.5053 12.56 45.492 12.4933 45.4653 12.44C45.4386 12.4133 45.4253 12.3867 45.4253 12.36V9.56H45.3053L45.3453 9.36L45.4253 9.16H45.3053L45.3453 9.04C45.372 9.01333 45.3986 8.98667 45.4253 8.96H45.3053L45.3453 8.76C45.372 8.70667 45.3986 8.66667 45.4253 8.64V8.48H45.3053L45.3453 8.28C45.372 8.22667 45.3986 8.18667 45.4253 8.16H45.3053V7.72H45.4253V7.64L45.3853 7.52C45.332 7.38667 45.3053 7.29333 45.3053 7.24V6.68H45.4253V6.56H45.3053V5.24H45.3853L45.4653 5.2C45.5453 5.14667 45.5586 5.05333 45.5053 4.92L45.4253 4.88C45.372 4.85333 45.332 4.82667 45.3053 4.8L45.3453 4.52V4.2C45.372 3.93333 45.3986 3.73333 45.4253 3.6H45.3053V1.96H45.1453V1.64H46.7853V1.76H46.4253V1.88H46.3453C46.3453 1.98667 46.3586 2.10667 46.3853 2.24C46.412 2.37333 46.4253 2.46667 46.4253 2.52C46.5053 2.52 46.852 2.41333 47.4653 2.2V1.96L47.3453 1.92L47.2253 1.88C47.1186 1.85333 47.0386 1.81333 46.9853 1.76H46.9053V1.64L47.5453 1.6L48.1453 1.56C48.652 1.53333 49.0653 1.56 49.3853 1.64H50.6653V1.76H51.0653V1.88H51.3853V1.96L51.6653 2C51.7986 2.02667 51.9053 2.05333 51.9853 2.08L52.0253 2.16V2.36H52.3053C52.3586 2.41333 52.4653 2.56 52.6253 2.8L52.8253 2.88C52.8786 2.93333 52.9186 2.97333 52.9453 3V3.28H53.0653L53.1453 3.44L53.1853 3.52L53.2253 3.64H53.3453V4.12H53.3853V4.48H53.5453V5.24H53.6653V6.4H53.8253V8.84H53.8653ZM51.7053 3.6C51.6786 3.30667 51.5186 3.14667 51.2253 3.12V3.44H51.5453V3.6H51.7053ZM52.9453 5.16V4.96L52.9053 4.8H52.7453V4.56H52.6253V4.12L52.5453 4.08H52.4253L52.3453 3.84L52.3053 3.64C52.092 3.74666 51.892 3.8 51.7053 3.8V3.64H51.1053L51.3053 3.84L51.5453 4.08C51.5186 4.21333 51.4653 4.34667 51.3853 4.48H51.2253C51.1986 4.64 51.252 4.74667 51.3853 4.8C51.412 4.98667 51.3586 5.06667 51.2253 5.04V5.16H51.3853C51.3853 5.24 51.3586 5.29333 51.3053 5.32L51.1853 5.36L51.1053 5.4V5.48H51.5453C51.652 5.4 51.7053 5.32 51.7053 5.24C51.7586 5.29333 51.8253 5.33333 51.9053 5.36L52.0253 5.4C52.132 5.29333 52.1853 5.13333 52.1853 4.92C52.292 4.89333 52.372 4.85333 52.4253 4.8H52.5053L52.3853 5.12L52.3053 5.48C52.4653 5.42667 52.572 5.32 52.6253 5.16H52.9453ZM51.1053 2.8C51.0253 2.82667 50.9853 2.82667 50.9853 2.8L50.9053 2.84C50.6653 2.84 50.5053 2.78667 50.4253 2.68H50.5853V2.52H49.2653C49.2386 2.44 49.2386 2.4 49.2653 2.4C49.2653 2.37333 49.252 2.36 49.2253 2.36C49.1986 2.22666 49.1453 2.13333 49.0653 2.08L49.0253 2.28C48.9986 2.33333 48.972 2.37333 48.9453 2.4H49.0653C49.1986 2.72 49.1053 2.96 48.7853 3.12V3.28H49.2653V3.32H49.3853C49.4653 3.24 49.4786 3.17333 49.4253 3.12L49.3453 3.04L49.2653 3V2.84H49.6653V2.8H49.8653V2.68H50.0253V2.8H50.1853V3H49.8653C49.8386 3.10667 49.7853 3.2 49.7053 3.28V3.32C49.972 3.32 50.2253 3.28 50.4653 3.2L50.7453 3.08C50.8786 3.05333 50.9986 3.02667 51.1053 3V2.8ZM51.0653 4.08C51.012 4.02667 50.932 3.98666 50.8253 3.96H50.7453L50.6653 3.92V4.12H51.0653V4.08ZM52.9053 6.88C52.6386 6.50667 52.5453 6.17333 52.6253 5.88H52.4253V6.2L52.2653 6.16L52.1453 6.12C52.0653 6.09333 52.012 6.08 51.9853 6.08C51.932 6.13333 51.892 6.18667 51.8653 6.24L51.8253 6.4H52.0253C52.132 6.61333 52.2653 6.73333 52.4253 6.76V7.04C52.532 6.98667 52.5986 6.93333 52.6253 6.88H52.9053ZM51.3853 6.32H51.2253L51.1453 6.48L51.0653 6.68V6.76H51.3853V6.32ZM51.3853 7.56C51.3586 7.45333 51.3053 7.38667 51.2253 7.36V7.56H51.3853ZM52.1853 8.48H51.9853C52.012 8.50667 52.0786 8.56 52.1853 8.64V8.48ZM51.2253 7.88V8.36H51.3853L51.4253 8.12C51.452 8.04 51.4786 7.96 51.5053 7.88H51.2253ZM51.9853 8.64H51.7053C51.732 8.66667 51.7586 8.68 51.7853 8.68C51.812 8.65333 51.8786 8.65333 51.9853 8.68V8.64ZM51.3853 8.84C51.2786 8.78667 51.2253 8.66667 51.2253 8.48H51.1053V8.64H51.0653V9.28H51.1053L51.1453 9.36V9.44L51.1853 9.48L51.2253 9.56C51.332 9.37333 51.3853 9.13333 51.3853 8.84ZM52.7453 9.4C52.6653 9.37333 52.4786 9.37333 52.1853 9.4V10.2H52.0253V10.32H51.5453C51.6253 10.4 51.652 10.4533 51.6253 10.48C51.6253 10.5067 51.652 10.52 51.7053 10.52C51.7853 10.6 51.8786 10.64 51.9853 10.64L52.0253 10.48V10.32C52.132 10.32 52.332 10.2267 52.6253 10.04C52.6253 10.0133 52.5853 9.86667 52.5053 9.6H52.6253L52.6653 9.52L52.7453 9.4ZM52.7453 10.52H52.5053C52.5853 10.6 52.6653 10.64 52.7453 10.64V10.52ZM51.9853 10V9.88H51.8253V10.04C51.9053 10.0133 51.9586 10.0267 51.9853 10.08C52.012 10.08 52.0253 10.0533 52.0253 10H51.9853ZM45.9853 3.92H45.7453C45.772 4.02667 45.812 4.09333 45.8653 4.12V4.4H45.9853V3.92ZM52.5053 10.64H52.3053C52.332 10.6933 52.3986 10.7467 52.5053 10.8V10.64ZM52.9053 11.36H52.6253C52.652 11.3867 52.6786 11.4 52.7053 11.4C52.732 11.4 52.7986 11.4133 52.9053 11.44V11.36ZM50.6653 11.36H50.5853C50.5586 11.28 50.572 11.2533 50.6253 11.28H50.6653V10.48H50.5853V10.32H50.6653V9.08C50.6653 9 50.652 8.97333 50.6253 9C50.5986 9 50.5853 8.98667 50.5853 8.96H50.6653V8.16H50.5853L50.6253 7.96L50.6653 7.76V6.88H50.5853L50.6253 6.72L50.6653 6.56H50.5853C50.5586 6.37333 50.5853 6.25333 50.6653 6.2C50.692 6.01333 50.652 5.66667 50.5453 5.16C50.412 4.70667 50.292 4.45333 50.1853 4.4C50.0786 4.18667 49.9053 4.06667 49.6653 4.04H49.3453C49.2386 4.04 49.1453 4 49.0653 3.92C48.7986 3.92 48.572 3.97333 48.3853 4.08V10.4L48.3453 11.16C48.3186 11.7733 48.332 12.1467 48.3853 12.28H48.4653V13.96L48.8253 13.92H49.1453L49.7053 13.88C49.812 13.7733 49.8653 13.6933 49.8653 13.64H50.1053L50.1453 13.6L50.1853 13.52C50.2386 13.4933 50.292 13.4667 50.3453 13.44L50.3853 13.08L50.4253 12.76H50.5853V11.8H50.6653V11.36ZM51.7053 10.96C51.7053 10.88 51.692 10.8133 51.6653 10.76C51.6386 10.7067 51.5986 10.6667 51.5453 10.64C51.412 10.7467 51.2653 10.8 51.1053 10.8C51.1586 11.0933 51.3586 11.3067 51.7053 11.44V11.6H51.8253L51.8653 11.44L51.9053 11.32C51.9586 11.2133 51.9853 11.0933 51.9853 10.96H51.7053ZM52.9053 12.16C52.852 12.1067 52.812 12.0667 52.7853 12.04L52.7053 11.96C52.6786 11.9067 52.5853 11.8533 52.4253 11.8C52.4253 11.9867 52.492 12.1467 52.6253 12.28V12.36H52.1853V12.56C52.212 12.64 52.252 12.7067 52.3053 12.76C52.5453 12.7067 52.692 12.5733 52.7453 12.36C52.8253 12.3333 52.8786 12.2667 52.9053 12.16ZM46.1853 6.56H45.9853C46.0386 6.61333 46.1053 6.65333 46.1853 6.68V6.56ZM52.4253 13.2C52.3986 13.1733 52.372 13.12 52.3453 13.04L52.3053 12.8H52.1853V12.76H52.0253V13.44H52.3053V13.2H52.4253ZM46.3453 7.36H46.0653C46.1186 7.38667 46.212 7.4 46.3453 7.4V7.36ZM52.7453 14.12C52.692 13.9867 52.652 13.9067 52.6253 13.88V13.96L52.4653 13.92L52.3053 13.88V13.96H52.1853V14.12C52.2386 14.1467 52.2786 14.1733 52.3053 14.2L52.3453 14.28C52.372 14.3333 52.4653 14.3867 52.6253 14.44V14.12H52.7453ZM51.8253 4.56V4.48H51.7053C51.7853 4.34667 51.892 4.22667 52.0253 4.12V4.4H52.3053V4.56H51.8253ZM51.7053 5.16V4.92H51.8253V5.16H51.7053ZM62.8531 2.8C62.8531 3.25333 62.7998 3.58667 62.6931 3.8C62.4265 3.82666 62.0531 3.84 61.5731 3.84L60.8931 3.8H60.2131V4.04H60.0531V4.2H60.2131L60.1731 4.32L60.1331 4.44C60.0798 4.54667 60.0531 4.62667 60.0531 4.68H60.2131V13.4H60.0531L60.0931 13.6L60.1731 13.8C60.2531 13.96 60.2665 14.12 60.2131 14.28H60.0531C60.0531 14.36 60.0798 14.4533 60.1331 14.56L60.2131 14.8H60.0531C60.0531 15.1733 60.0265 15.4533 59.9731 15.64H59.0131V15.84H59.3331V15.96C59.4398 16.0133 59.5465 15.9733 59.6531 15.84C59.7598 15.84 59.8398 15.8533 59.8931 15.88L59.9731 15.92L60.0531 15.96C60.0531 16.1467 60.0265 16.3067 59.9731 16.44H59.4931V16.16C59.3065 16.1867 59.1598 16.24 59.0531 16.32C58.9731 16.3467 58.8931 16.4 58.8131 16.48C58.6531 16.6667 58.4665 16.7733 58.2531 16.8C58.2531 16.6933 58.2665 16.5867 58.2931 16.48L58.3731 16.16H58.2531V15.72H57.8931V15.84H57.7731C57.7731 16.0533 57.8131 16.2133 57.8931 16.32H58.0131V16.8H58.0931V17C58.1465 17.0267 58.1998 17.0667 58.2531 17.12C58.3065 17.1467 58.3465 17.1867 58.3731 17.24H58.8531C58.8265 17.3733 58.7865 17.52 58.7331 17.68L58.6531 17.88L58.5731 18.12C58.8398 18.2267 58.9865 18.32 59.0131 18.4C59.1198 18.3467 59.2131 18.24 59.2931 18.08L59.4131 17.92L59.4931 17.8H59.6531V17.56L59.6931 17.52C59.6931 17.4933 59.7065 17.4267 59.7331 17.32L59.5731 17.28L59.3731 17.24V16.88L59.4531 16.84L59.4931 16.8C59.7598 16.8 59.9998 16.8667 60.2131 17C60.1331 17.4267 60.0931 18 60.0931 18.72C60.0931 19.44 60.1331 19.9467 60.2131 20.24V21.56H60.0531C60.0531 21.7467 60.1065 21.8667 60.2131 21.92V22.56H60.0531C60.0265 22.72 60.0398 22.88 60.0931 23.04L60.1731 23.24L60.2131 23.44C60.2131 23.5467 60.1998 23.8 60.1731 24.2V24.72L60.1331 25.24C60.1065 26.0933 60.1731 26.5867 60.3331 26.72C60.3331 26.9867 60.2931 27.1733 60.2131 27.28C59.9465 27.3333 59.6398 27.3733 59.2931 27.4L58.3731 27.44V27.28H57.5331V27.16H57.4531V27.28C57.4265 27.3333 57.3731 27.3733 57.2931 27.4L57.0931 27.44L57.0531 27.32L57.0131 27.16C56.9598 27.0267 56.9731 26.88 57.0531 26.72H57.0931C57.1198 26.5867 57.1331 26.2933 57.1331 25.84C57.1331 25.36 57.1198 24.9733 57.0931 24.68C57.0665 24.28 57.0665 23.6267 57.0931 22.72V17.8L57.1331 17.56V17.36C57.1598 17.1733 57.1865 17.0133 57.2131 16.88H57.0931C57.0131 16.6133 56.9998 16.2133 57.0531 15.68L57.1331 15.12L57.1731 14.84L57.2131 14.64C57.1865 14.5333 57.1598 14.4133 57.1331 14.28L57.0931 14H57.2131V12.96H57.0931V12.64H57.0531V12.48H57.0931V12.32H57.2131V10.72C57.2131 10.6667 57.2265 10.5333 57.2531 10.32C57.2798 10.08 57.2931 9.84 57.2931 9.6C57.3198 8.88 57.2931 8.4 57.2131 8.16H57.1731C57.1998 8.16 57.2131 8.13333 57.2131 8.08V7.44H58.0931C58.1465 7.44 58.1998 7.54667 58.2531 7.76H58.3731C58.4265 7.54667 58.5331 7.44 58.6931 7.44C58.6931 6.98667 58.6398 6.69333 58.5331 6.56C58.4798 6.48 58.2665 6.36 57.8931 6.2V6H57.6931C57.6931 6.4 57.6131 6.66667 57.4531 6.8C57.4265 6.82667 57.3465 6.88 57.2131 6.96V6.8C57.1598 6.72 57.1598 6.56 57.2131 6.32C57.2398 6.16 57.2931 5.97333 57.3731 5.76H57.7731L57.8531 5.88C57.8798 5.93333 57.8931 5.97333 57.8931 6H58.0931C58.1465 5.94667 58.1865 5.88 58.2131 5.8L58.2531 5.64H57.4531V5.56C57.3198 5.45333 57.2398 5.21333 57.2131 4.84V3.88H54.4531V1.52L58.5731 1.44C60.4131 1.41333 61.7865 1.4 62.6931 1.4C62.7465 1.50667 62.7998 1.57333 62.8531 1.6V2.8ZM58.0931 3.8C57.8265 3.85333 57.6398 3.88 57.5331 3.88C57.5331 3.98667 57.5198 4.12 57.4931 4.28C57.4665 4.44 57.4531 4.56 57.4531 4.64H57.6931V4.52C57.7465 4.46667 57.7731 4.42667 57.7731 4.4L57.8531 4.28C57.8798 4.22667 57.9598 4.2 58.0931 4.2V3.8ZM58.3731 8.92C58.2131 8.70667 57.9865 8.54667 57.6931 8.44V8.76L57.8531 8.84L58.0131 8.92H58.3731ZM58.0931 9.36H57.6931V9.8H58.0131V9.68H58.0931V9.36ZM58.3731 10.72L58.3331 10.64V10.56L58.2931 10.52L58.2531 10.44V10.72H58.3731ZM58.0931 10.28C57.9331 10.28 57.7465 10.3333 57.5331 10.44V10.6C57.5865 10.6 57.6531 10.6133 57.7331 10.64L57.8931 10.72C57.9731 10.48 58.0398 10.3467 58.0931 10.32V10.28ZM59.3731 13.36H59.1731V13.56H59.3731V13.36ZM58.0131 12.48V12.36L57.9731 12.16C57.9198 12.0267 57.8931 11.92 57.8931 11.84H57.5331L57.5731 12.12C57.5998 12.2267 57.6398 12.3333 57.6931 12.44H57.5331C57.4531 12.8133 57.5331 13.0667 57.7731 13.2V13.4H57.8931V12.48H58.0131ZM59.4931 14.64L59.3331 14.32V14C59.2798 13.9467 59.2398 13.9333 59.2131 13.96L59.1731 13.88H58.6931C58.5865 14.1467 58.6398 14.3467 58.8531 14.48V14.64C58.9065 14.56 58.9731 14.5067 59.0531 14.48C59.1331 14.4267 59.2265 14.4267 59.3331 14.48V14.64H59.4931ZM58.9331 15.84H58.5731C58.6265 16 58.7465 16.1067 58.9331 16.16V15.84ZM58.9331 20.76C58.9598 20.68 58.9465 20.6267 58.8931 20.6L58.8531 20.56V20.4H58.6931L58.6531 20.68C58.6265 20.76 58.5998 20.8267 58.5731 20.88C58.6798 20.8533 58.7731 20.8133 58.8531 20.76H58.9331ZM73.4106 20.6C73.304 20.7067 73.2106 20.76 73.1306 20.76V21.36C73.104 21.44 73.0773 21.5467 73.0506 21.68L73.0106 21.88C72.9573 22.0133 72.8373 22.1333 72.6506 22.24V22.4L72.8906 22.32L73.0906 22.24C73.2506 23.3067 73.0773 24.3067 72.5706 25.24C72.0906 26.0933 71.4506 26.7067 70.6506 27.08C70.1706 27.1333 69.784 27.16 69.4906 27.16V27.28L68.8506 27.24L68.2106 27.16V27.28C68.024 27.3333 67.784 27.3733 67.4906 27.4L66.7306 27.44L66.3706 27.4L66.0106 27.32C65.744 27.2933 65.5573 27.3333 65.4506 27.44H64.8906V27.28C64.8106 27.2 64.7706 27.0267 64.7706 26.76L64.7306 26.44L64.6906 26.16H64.5706L64.6106 24.84C64.6373 24.3333 64.664 23.8933 64.6906 23.52H64.8106L64.7306 23.04V22.76L64.6906 22.48L64.7306 21.68L64.8106 20.88V20.08H64.6906V19.96H64.8106V19.36H64.6906L64.7306 19.24V19.08C64.7573 18.9467 64.784 18.84 64.8106 18.76H64.6906V15.28H64.5706L64.6106 14.6C64.6373 14.3333 64.664 14.1333 64.6906 14C64.6906 13.8933 64.6506 13.8 64.5706 13.72V13.28H64.6906C64.7173 13.1467 64.704 13 64.6506 12.84L64.6106 12.64L64.5706 12.48C64.5173 12.3467 64.5306 12.12 64.6106 11.8L64.6906 11.44V11.24H64.5706V7.28H64.4106L64.4506 6.92L64.4906 6.6C64.544 6.33333 64.5706 6.12 64.5706 5.96C64.5173 5.85333 64.4773 5.8 64.4506 5.8V5.52L64.4106 5.28H64.3706L64.2906 4.2L64.2506 3.12H64.0906C64.1173 2.88 64.2773 2.68 64.5706 2.52V2.2H64.4106L64.4906 1.8C64.544 1.64 64.5706 1.50667 64.5706 1.4L64.9306 1.32C65.064 1.29333 65.184 1.28 65.2906 1.28V1.4L65.4906 1.36L65.6906 1.32C65.8773 1.29333 66.0506 1.28 66.2106 1.28V1.2L66.7306 1.24H67.0106L67.3306 1.28V1.2H69.0106V1.28C69.144 1.30667 69.2506 1.30667 69.3306 1.28L69.4106 1.24L69.4906 1.2V1.28H70.3306L70.4106 1.44L70.4906 1.6L70.8906 1.68L71.2906 1.72L71.3306 1.8L71.4106 1.84C71.4373 1.86667 71.4506 1.89333 71.4506 1.92C71.5306 1.97333 71.6106 2.01333 71.6906 2.04H71.8906L72.0906 2.28C72.144 2.38667 72.184 2.46667 72.2106 2.52L72.3706 2.6L72.4906 2.68V2.84L72.6506 3C72.8906 3.34667 73.0373 3.90667 73.0906 4.68V6.68C73.0906 6.89333 73.104 7.24 73.1306 7.72L73.2106 8.8C73.264 9.70667 73.264 10.4667 73.2106 11.08C73.1306 12.7867 72.6906 13.8667 71.8906 14.32C72.2106 14.4533 72.4506 14.6933 72.6106 15.04L72.6906 15.16L72.7706 15.32C72.824 15.4 72.864 15.5067 72.8906 15.64L72.9306 15.8V15.96C72.9573 15.96 72.984 15.9867 73.0106 16.04L73.0906 16.16V17.32H73.1306V17.64H73.2906V19.36H73.1306C73.2373 19.6 73.2906 19.8667 73.2906 20.16H73.1306L73.2106 20.32L73.2906 20.44C73.3173 20.52 73.3573 20.5733 73.4106 20.6ZM69.9706 10.24C69.9973 9.97333 69.9973 9.61333 69.9706 9.16V6.84H69.8506L69.9306 6.36L69.9706 5.88H69.8506C69.824 5.72 69.8106 5.56 69.8106 5.4L69.8506 5.16L69.8906 4.96C69.944 4.64 69.8773 4.38667 69.6906 4.2C69.6106 3.90667 69.384 3.73333 69.0106 3.68C68.8506 3.65333 68.6506 3.65333 68.4106 3.68H67.7306C67.5973 4.08 67.544 4.84 67.5706 5.96L67.6106 6.6L67.6506 7.24C67.6773 7.66667 67.6773 7.97333 67.6506 8.16V8.6L67.6106 9.16C67.6106 9.61333 67.6506 9.89333 67.7306 10C67.7306 10.1867 67.7173 10.4667 67.6906 10.84V11.76C67.664 12.5067 67.7306 13.0533 67.8906 13.4C68.744 13.4 69.3706 13.28 69.7706 13.04C69.824 12.96 69.864 12.8533 69.8906 12.72V12.56L69.9306 12.44L69.9706 12.04V10.24ZM70.0506 19.24V17.8H69.9706V16.8H69.8506V16.48H69.6906V16.36C69.664 16.3067 69.6373 16.24 69.6106 16.16C68.8106 16.0267 68.2373 15.9867 67.8906 16.04C67.8906 16.28 67.8773 16.6533 67.8506 17.16V18.36C67.8506 19.32 67.904 20.0533 68.0106 20.56L67.9706 20.96L67.8906 21.36H68.0106L67.9706 21.64V21.96C67.944 22.2267 67.9173 22.4267 67.8906 22.56C67.9173 22.88 67.944 23.28 67.9706 23.76V24.32L68.0106 24.84H68.3306L68.7306 24.8C68.9973 24.8 69.184 24.76 69.2906 24.68C69.504 24.6 69.6106 24.52 69.6106 24.44L69.6506 24.32C69.6506 24.2667 69.664 24.2 69.6906 24.12H69.8506V23.8H69.9706V23.04H70.0506V21.52C70.1306 21.3333 70.184 20.9867 70.2106 20.48C70.264 19.92 70.2506 19.5067 70.1706 19.24H70.0506ZM71.4506 24.32C71.4506 24.5867 71.3973 24.88 71.2906 25.2C71.3706 25.1467 71.4506 25.0267 71.5306 24.84L71.6106 24.56L71.6906 24.32H71.4506ZM75.1341 3.56C75.1074 3.58667 75.0807 3.62667 75.0541 3.68C75.0274 3.73333 75.0141 3.8 75.0141 3.88H74.8941V3.96H74.7341V3.6L74.9341 3.56H75.1341ZM75.4541 9.36C75.4274 9.33333 75.4007 9.26667 75.3741 9.16V9.04L75.3341 8.96H75.4141C75.4674 8.96 75.5341 8.97333 75.6141 9V9.36H75.4541ZM82.2141 7.64C80.3474 15.4 79.4141 19.0933 79.4141 18.72C79.3341 18.8 79.2941 18.9733 79.2941 19.24V19.56C79.2674 19.6667 79.2407 19.76 79.2141 19.84H79.0141V20.56H78.9341V21.12H78.8541V21.68H78.6941V21.96H78.5741V22.6H78.4541C78.4541 22.76 78.4407 22.9867 78.4141 23.28L78.3741 23.88H78.2541V24.8H78.0541V25.48H77.9741V25.96H77.8541L77.7741 26.28V26.6C77.7741 26.84 77.7341 27.0133 77.6541 27.12C77.4674 27.3067 76.9474 27.4 76.0941 27.4H75.0941L74.6941 27.36H74.4141C74.4407 27.0667 74.5074 26.7467 74.6141 26.4L74.7341 25.96L74.8941 25.52L74.9341 25L75.0141 24.52H75.1341V24.2H75.2141V23.72H75.3341V23.28H75.4541V22.8H75.6141V22.4H75.6941V21.92H75.7741V21.48H75.9341L75.9741 21L76.0541 20.48H76.0941V19.92H76.2541V19.6H76.4141V19H76.5341V18.72H76.5741V18.32H76.7341L76.7741 17.6L76.8541 16.88H77.0141V16.72H77.0541V16.4H77.1741V15.52H77.3341V15.08H77.4141V14.6H77.4941V14.08H77.6541V13.68H77.7341L76.3741 7.64L75.0141 1.6C75.3074 1.6 75.6141 1.58666 75.9341 1.56L76.3341 1.52H76.6941C77.2274 1.46666 77.6807 1.49333 78.0541 1.6C78.1074 1.78667 78.1607 2.09333 78.2141 2.52L78.2541 2.96L78.3341 3.44H78.4141C78.4407 3.65333 78.4674 3.93333 78.4941 4.28V4.68L78.5341 5.04H78.6541V5.56H78.8141L78.8541 6.2L78.8941 6.88H78.9741L79.0541 7.4L79.0941 7.92C79.0941 8.32 79.1607 8.6 79.2941 8.76V9C79.3741 8.89333 79.4141 8.72 79.4141 8.48V8.16C79.4141 8.02667 79.4274 7.89333 79.4541 7.76H79.6141V6.88H79.6941L79.7741 6.2L79.8141 5.56H79.9341V5.04H80.0141C80.0141 4.88 80.0407 4.62667 80.0941 4.28L80.1341 3.88L80.1741 3.44H80.2941C80.3207 3.22667 80.3607 2.92 80.4141 2.52L80.4541 2.04L80.4941 1.6C80.8674 1.49333 81.3341 1.46666 81.8941 1.52H82.2541L82.6541 1.56C83.0007 1.58666 83.3207 1.6 83.6141 1.6L82.2141 7.64ZM94.7388 20.6C94.6321 20.7067 94.5388 20.76 94.4588 20.76V21.36C94.4321 21.44 94.4054 21.5467 94.3788 21.68L94.3388 21.88C94.2854 22.0133 94.1654 22.1333 93.9788 22.24V22.4L94.2188 22.32L94.4188 22.24C94.5788 23.3067 94.4054 24.3067 93.8988 25.24C93.4188 26.0933 92.7788 26.7067 91.9788 27.08C91.4988 27.1333 91.1121 27.16 90.8188 27.16V27.28L90.1788 27.24L89.5388 27.16V27.28C89.3521 27.3333 89.1121 27.3733 88.8188 27.4L88.0588 27.44L87.6988 27.4L87.3388 27.32C87.0721 27.2933 86.8854 27.3333 86.7788 27.44H86.2188V27.28C86.1388 27.2 86.0988 27.0267 86.0988 26.76L86.0588 26.44L86.0188 26.16H85.8988L85.9388 24.84C85.9654 24.3333 85.9921 23.8933 86.0188 23.52H86.1388L86.0588 23.04V22.76L86.0188 22.48L86.0588 21.68L86.1388 20.88V20.08H86.0188V19.96H86.1388V19.36H86.0188L86.0588 19.24V19.08C86.0854 18.9467 86.1121 18.84 86.1388 18.76H86.0188V15.28H85.8988L85.9388 14.6C85.9654 14.3333 85.9921 14.1333 86.0188 14C86.0188 13.8933 85.9788 13.8 85.8988 13.72V13.28H86.0188C86.0454 13.1467 86.0321 13 85.9788 12.84L85.9388 12.64L85.8988 12.48C85.8454 12.3467 85.8588 12.12 85.9388 11.8L86.0188 11.44V11.24H85.8988V7.28H85.7388L85.7788 6.92L85.8188 6.6C85.8721 6.33333 85.8988 6.12 85.8988 5.96C85.8454 5.85333 85.8054 5.8 85.7788 5.8V5.52L85.7388 5.28H85.6988L85.6188 4.2L85.5788 3.12H85.4188C85.4454 2.88 85.6054 2.68 85.8988 2.52V2.2H85.7388L85.8188 1.8C85.8721 1.64 85.8988 1.50667 85.8988 1.4L86.2588 1.32C86.3921 1.29333 86.5121 1.28 86.6188 1.28V1.4L86.8188 1.36L87.0188 1.32C87.2054 1.29333 87.3788 1.28 87.5388 1.28V1.2L88.0588 1.24H88.3388L88.6588 1.28V1.2H90.3388V1.28C90.4721 1.30667 90.5788 1.30667 90.6588 1.28L90.7388 1.24L90.8188 1.2V1.28H91.6588L91.7388 1.44L91.8188 1.6L92.2188 1.68L92.6188 1.72L92.6588 1.8L92.7388 1.84C92.7654 1.86667 92.7788 1.89333 92.7788 1.92C92.8588 1.97333 92.9388 2.01333 93.0188 2.04H93.2188L93.4188 2.28C93.4721 2.38667 93.5121 2.46667 93.5388 2.52L93.6988 2.6L93.8188 2.68V2.84L93.9788 3C94.2188 3.34667 94.3654 3.90667 94.4188 4.68V6.68C94.4188 6.89333 94.4321 7.24 94.4588 7.72L94.5388 8.8C94.5921 9.70667 94.5921 10.4667 94.5388 11.08C94.4588 12.7867 94.0188 13.8667 93.2188 14.32C93.5388 14.4533 93.7788 14.6933 93.9388 15.04L94.0188 15.16L94.0988 15.32C94.1521 15.4 94.1921 15.5067 94.2188 15.64L94.2588 15.8V15.96C94.2854 15.96 94.3121 15.9867 94.3388 16.04L94.4188 16.16V17.32H94.4588V17.64H94.6188V19.36H94.4588C94.5654 19.6 94.6188 19.8667 94.6188 20.16H94.4588L94.5388 20.32L94.6188 20.44C94.6454 20.52 94.6854 20.5733 94.7388 20.6ZM91.2988 10.24C91.3254 9.97333 91.3254 9.61333 91.2988 9.16V6.84H91.1788L91.2588 6.36L91.2988 5.88H91.1788C91.1521 5.72 91.1388 5.56 91.1388 5.4L91.1788 5.16L91.2188 4.96C91.2721 4.64 91.2054 4.38667 91.0188 4.2C90.9388 3.90667 90.7121 3.73333 90.3388 3.68C90.1788 3.65333 89.9788 3.65333 89.7388 3.68H89.0588C88.9254 4.08 88.8721 4.84 88.8988 5.96L88.9388 6.6L88.9788 7.24C89.0054 7.66667 89.0054 7.97333 88.9788 8.16V8.6L88.9388 9.16C88.9388 9.61333 88.9788 9.89333 89.0588 10C89.0588 10.1867 89.0454 10.4667 89.0188 10.84V11.76C88.9921 12.5067 89.0588 13.0533 89.2188 13.4C90.0721 13.4 90.6988 13.28 91.0988 13.04C91.1521 12.96 91.1921 12.8533 91.2188 12.72V12.56L91.2588 12.44L91.2988 12.04V10.24ZM91.3788 19.24V17.8H91.2988V16.8H91.1788V16.48H91.0188V16.36C90.9921 16.3067 90.9654 16.24 90.9388 16.16C90.1388 16.0267 89.5654 15.9867 89.2188 16.04C89.2188 16.28 89.2054 16.6533 89.1788 17.16V18.36C89.1788 19.32 89.2321 20.0533 89.3388 20.56L89.2988 20.96L89.2188 21.36H89.3388L89.2988 21.64V21.96C89.2721 22.2267 89.2454 22.4267 89.2188 22.56C89.2454 22.88 89.2721 23.28 89.2988 23.76V24.32L89.3388 24.84H89.6588L90.0588 24.8C90.3254 24.8 90.5121 24.76 90.6188 24.68C90.8321 24.6 90.9388 24.52 90.9388 24.44L90.9788 24.32C90.9788 24.2667 90.9921 24.2 91.0188 24.12H91.1788V23.8H91.2988V23.04H91.3788V21.52C91.4588 21.3333 91.5121 20.9867 91.5388 20.48C91.5921 19.92 91.5788 19.5067 91.4988 19.24H91.3788ZM92.7788 24.32C92.7788 24.5867 92.7254 24.88 92.6188 25.2C92.6988 25.1467 92.7788 25.0267 92.8588 24.84L92.9388 24.56L93.0188 24.32H92.7788ZM105.462 26.64V26.88L104.702 26.92L103.942 26.96L103.902 27V27.08C103.902 27.1333 103.876 27.1467 103.822 27.12V26.96H103.662L103.462 27L102.982 27.04C102.582 27.04 102.329 26.9867 102.222 26.88C102.089 26.72 102.049 26.5467 102.102 26.36L102.142 26.24L102.182 26.12C102.182 25.9867 102.156 25.8533 102.102 25.72H102.022L101.902 24.4C101.849 23.8133 101.796 23.3733 101.742 23.08L101.662 22.96H101.022C100.782 22.96 100.622 22.92 100.542 22.84H99.7822V22.96H99.7022V23.88C99.6489 24.0667 99.6089 24.3067 99.5822 24.6L99.5022 25.4C99.4489 26.0667 99.3555 26.56 99.2222 26.88C98.2355 27.04 97.2089 27.04 96.1422 26.88L96.2622 25.12L96.4222 23.4H96.4622V22.52H96.6222V21.44H96.7422V20.48H96.8622V19.56H96.9422V18.64H97.0622V17.96H97.1822V16.52C97.2355 16.3067 97.2889 16.04 97.3422 15.72L97.4222 14.8C97.5289 14.0267 97.6489 13.4667 97.7822 13.12V11.84H97.8222V11.4H97.9822V10.12H98.1422V8.28H98.2622V7.64H98.3022V6.56H98.4622V5.36C98.7289 4.66667 98.8355 3.73333 98.7822 2.56H98.5822C98.5822 2.24 98.6355 1.97333 98.7422 1.76C98.7689 1.70667 98.8222 1.68 98.9022 1.68H99.0222L99.1422 1.64V1.56L99.4622 1.52H99.7822C100.022 1.52 100.182 1.48 100.262 1.4H101.102C101.449 1.4 101.662 1.45333 101.742 1.56H101.902V1.88H102.102L102.182 2.2L102.222 2.56H102.102V2.8H102.022V4.04H102.102C102.129 4.22667 102.156 4.45333 102.182 4.72L102.222 5.36H102.382V6.24C102.516 6.69333 102.636 7.25333 102.742 7.92L103.022 9.68C103.209 11.28 103.409 12.4267 103.622 13.12V14.08C103.676 14.2933 103.729 14.56 103.782 14.88L103.902 15.72C104.009 16.44 104.116 16.9733 104.222 17.32V18.36L104.342 19.08L104.462 19.84C104.569 20.48 104.649 20.9467 104.702 21.24V22.2H104.862V22.64H104.982L104.942 23.08L104.862 23.56H104.982V24.16H105.102L105.182 24.2L105.142 24.36V25.04H105.342C105.342 25.4933 105.289 25.92 105.182 26.32C105.289 26.4 105.382 26.4667 105.462 26.52H105.622V26.64H105.462ZM100.382 4.2C100.329 4.2 100.236 4.17333 100.102 4.12L99.9422 4.08L99.7822 4.04C99.7822 4.14667 99.7555 4.33333 99.7022 4.6C99.9955 4.6 100.182 4.49333 100.262 4.28H100.382V4.2ZM101.142 12.68C100.876 12.5467 100.716 12.48 100.662 12.48L100.582 12.6L100.502 12.76C100.609 12.8133 100.716 12.7867 100.822 12.68H100.862V13.08H100.982L101.062 12.84C101.089 12.76 101.116 12.7067 101.142 12.68ZM101.142 13.28C101.089 13.2267 101.022 13.1733 100.942 13.12H100.862L100.822 13.08V13.28H100.582L100.502 13.32H100.422C100.449 13.4533 100.462 13.5333 100.462 13.56C100.462 13.5867 100.476 13.6267 100.502 13.68L100.702 13.84C100.676 13.7867 100.662 13.72 100.662 13.64V13.48L100.902 13.52C100.982 13.5467 101.062 13.6 101.142 13.68V13.28ZM101.382 14.96C101.356 14.8533 101.342 14.7867 101.342 14.76V14.68L101.262 14.6V14.96H101.382ZM101.342 20L101.302 19.32L101.262 18.68C101.289 18.6533 101.316 18.56 101.342 18.4H101.262V18H101.102C101.076 17.8667 101.062 17.6667 101.062 17.4C101.009 17.4 100.956 17.3733 100.902 17.32C100.849 17.16 100.862 17.0133 100.942 16.88L101.022 16.76L101.062 16.72V16.56H100.942V15.92H101.062C101.089 15.7333 101.076 15.5333 101.022 15.32L100.942 15.08L100.822 14.84C100.689 14.52 100.756 14.2667 101.022 14.08V13.88L100.862 13.92L100.702 13.96C100.596 13.9867 100.516 14.0267 100.462 14.08L100.382 14.92L100.302 15.84C100.222 16.56 100.129 17.1333 100.022 17.56C99.9955 17.72 99.9955 17.9333 100.022 18.2V18.88C100.049 19.4667 99.9955 19.84 99.8622 20C99.9155 20.24 100.022 20.3733 100.182 20.4C100.236 20.5067 100.262 20.64 100.262 20.8L100.422 20.76L100.582 20.68C100.742 20.6267 100.889 20.6 101.022 20.6C101.022 20.5733 101.009 20.5067 100.982 20.4C100.956 20.2933 100.942 20.2 100.942 20.12H100.982V20H101.342ZM100.462 20.4V20H100.622V20.4H100.462ZM114.025 2.8C114.025 3.25333 113.972 3.58667 113.865 3.8C113.598 3.82666 113.225 3.84 112.745 3.84L112.065 3.8H111.385V4.04H111.225V4.2H111.385L111.345 4.32L111.305 4.44C111.252 4.54667 111.225 4.62667 111.225 4.68H111.385V13.4H111.225L111.265 13.6L111.345 13.8C111.425 13.96 111.438 14.12 111.385 14.28H111.225C111.225 14.36 111.252 14.4533 111.305 14.56L111.385 14.8H111.225C111.225 15.1733 111.198 15.4533 111.145 15.64H110.185V15.84H110.505V15.96C110.612 16.0133 110.718 15.9733 110.825 15.84C110.932 15.84 111.012 15.8533 111.065 15.88L111.145 15.92L111.225 15.96C111.225 16.1467 111.198 16.3067 111.145 16.44H110.665V16.16C110.478 16.1867 110.332 16.24 110.225 16.32C110.145 16.3467 110.065 16.4 109.985 16.48C109.825 16.6667 109.638 16.7733 109.425 16.8C109.425 16.6933 109.438 16.5867 109.465 16.48L109.545 16.16H109.425V15.72H109.065V15.84H108.945C108.945 16.0533 108.985 16.2133 109.065 16.32H109.185V16.8H109.265V17C109.318 17.0267 109.372 17.0667 109.425 17.12C109.478 17.1467 109.518 17.1867 109.545 17.24H110.025C109.998 17.3733 109.958 17.52 109.905 17.68L109.825 17.88L109.745 18.12C110.012 18.2267 110.158 18.32 110.185 18.4C110.292 18.3467 110.385 18.24 110.465 18.08L110.585 17.92L110.665 17.8H110.825V17.56L110.865 17.52C110.865 17.4933 110.878 17.4267 110.905 17.32L110.745 17.28L110.545 17.24V16.88L110.625 16.84L110.665 16.8C110.932 16.8 111.172 16.8667 111.385 17C111.305 17.4267 111.265 18 111.265 18.72C111.265 19.44 111.305 19.9467 111.385 20.24V21.56H111.225C111.225 21.7467 111.278 21.8667 111.385 21.92V22.56H111.225C111.198 22.72 111.212 22.88 111.265 23.04L111.345 23.24L111.385 23.44C111.385 23.5467 111.372 23.8 111.345 24.2V24.72L111.305 25.24C111.278 26.0933 111.345 26.5867 111.505 26.72C111.505 26.9867 111.465 27.1733 111.385 27.28C111.118 27.3333 110.812 27.3733 110.465 27.4L109.545 27.44V27.28H108.705V27.16H108.625V27.28C108.598 27.3333 108.545 27.3733 108.465 27.4L108.265 27.44L108.225 27.32L108.185 27.16C108.132 27.0267 108.145 26.88 108.225 26.72H108.265C108.292 26.5867 108.305 26.2933 108.305 25.84C108.305 25.36 108.292 24.9733 108.265 24.68C108.238 24.28 108.238 23.6267 108.265 22.72V17.8L108.305 17.56V17.36C108.332 17.1733 108.358 17.0133 108.385 16.88H108.265C108.185 16.6133 108.172 16.2133 108.225 15.68L108.305 15.12L108.345 14.84L108.385 14.64C108.358 14.5333 108.332 14.4133 108.305 14.28L108.265 14H108.385V12.96H108.265V12.64H108.225V12.48H108.265V12.32H108.385V10.72C108.385 10.6667 108.398 10.5333 108.425 10.32C108.452 10.08 108.465 9.84 108.465 9.6C108.492 8.88 108.465 8.4 108.385 8.16H108.345C108.372 8.16 108.385 8.13333 108.385 8.08V7.44H109.265C109.318 7.44 109.372 7.54667 109.425 7.76H109.545C109.598 7.54667 109.705 7.44 109.865 7.44C109.865 6.98667 109.812 6.69333 109.705 6.56C109.652 6.48 109.438 6.36 109.065 6.2V6H108.865C108.865 6.4 108.785 6.66667 108.625 6.8C108.598 6.82667 108.518 6.88 108.385 6.96V6.8C108.332 6.72 108.332 6.56 108.385 6.32C108.412 6.16 108.465 5.97333 108.545 5.76H108.945L109.025 5.88C109.052 5.93333 109.065 5.97333 109.065 6H109.265C109.318 5.94667 109.358 5.88 109.385 5.8L109.425 5.64H108.625V5.56C108.492 5.45333 108.412 5.21333 108.385 4.84V3.88H105.625V1.52L109.745 1.44C111.585 1.41333 112.958 1.4 113.865 1.4C113.918 1.50667 113.972 1.57333 114.025 1.6V2.8ZM109.265 3.8C108.998 3.85333 108.812 3.88 108.705 3.88C108.705 3.98667 108.692 4.12 108.665 4.28C108.638 4.44 108.625 4.56 108.625 4.64H108.865V4.52C108.918 4.46667 108.945 4.42667 108.945 4.4L109.025 4.28C109.052 4.22667 109.132 4.2 109.265 4.2V3.8ZM109.545 8.92C109.385 8.70667 109.158 8.54667 108.865 8.44V8.76L109.025 8.84L109.185 8.92H109.545ZM109.265 9.36H108.865V9.8H109.185V9.68H109.265V9.36ZM109.545 10.72L109.505 10.64V10.56L109.465 10.52L109.425 10.44V10.72H109.545ZM109.265 10.28C109.105 10.28 108.918 10.3333 108.705 10.44V10.6C108.758 10.6 108.825 10.6133 108.905 10.64L109.065 10.72C109.145 10.48 109.212 10.3467 109.265 10.32V10.28ZM110.545 13.36H110.345V13.56H110.545V13.36ZM109.185 12.48V12.36L109.145 12.16C109.092 12.0267 109.065 11.92 109.065 11.84H108.705L108.745 12.12C108.772 12.2267 108.812 12.3333 108.865 12.44H108.705C108.625 12.8133 108.705 13.0667 108.945 13.2V13.4H109.065V12.48H109.185ZM110.665 14.64L110.505 14.32V14C110.452 13.9467 110.412 13.9333 110.385 13.96L110.345 13.88H109.865C109.758 14.1467 109.812 14.3467 110.025 14.48V14.64C110.078 14.56 110.145 14.5067 110.225 14.48C110.305 14.4267 110.398 14.4267 110.505 14.48V14.64H110.665ZM110.105 15.84H109.745C109.798 16 109.918 16.1067 110.105 16.16V15.84ZM110.105 20.76C110.132 20.68 110.118 20.6267 110.065 20.6L110.025 20.56V20.4H109.865L109.825 20.68C109.798 20.76 109.772 20.8267 109.745 20.88C109.852 20.8533 109.945 20.8133 110.025 20.76H110.105ZM113.782 0.679998H114.143V0.799999H114.062C114.036 0.853331 114.009 0.879998 113.982 0.879998C113.956 0.879998 113.889 0.906665 113.782 0.959999V0.679998ZM122.983 9.72C123.143 9.74667 123.263 9.85333 123.343 10.04C123.183 10.0133 123.063 9.90667 122.983 9.72ZM114.743 27C114.743 26.9733 114.729 26.8933 114.703 26.76L114.663 26.4C114.663 26.0267 114.689 25.7467 114.743 25.56H114.783V23.84H114.943V22.6H114.783C114.836 22.4933 114.889 22.28 114.943 21.96C114.809 21.9333 114.756 21.8267 114.783 21.64H114.943V20.12L115.023 20.04L115.063 20L115.143 19.96C115.223 19.7733 115.209 19.6667 115.103 19.64V19.48L115.143 19.36C115.169 19.28 115.169 19.2133 115.143 19.16C115.116 19.1067 115.049 19.0667 114.943 19.04C114.943 18.96 114.969 18.8933 115.023 18.84C115.103 18.8133 115.143 18.7867 115.143 18.76C115.196 18.68 115.183 18.6267 115.103 18.6C115.076 18.44 115.089 18.3467 115.143 18.32V18.28H115.103V18.04L115.143 17.84L115.103 17.8L115.023 17.72L114.783 17.64C114.836 17.56 114.903 17.5067 114.983 17.48L115.023 17.44H115.063C115.116 17.4133 115.143 17.2533 115.143 16.96H115.543V16.72H115.143C115.223 16.5067 115.263 16.36 115.263 16.28L115.183 16.2L115.103 16.16V15.96L115.143 15.68H114.943C114.969 15.6 115.009 15.5333 115.063 15.48L115.143 15.36C115.196 15.3067 115.236 15.2 115.263 15.04H115.543V14.72H115.263L114.943 14.68V14.4C115.156 14.3467 115.316 14.24 115.423 14.08C115.289 14 115.196 13.7733 115.143 13.4V12.48H115.263L115.223 12.4L115.183 12.28C115.129 12.1467 115.116 12.0133 115.143 11.88C115.303 11.8533 115.343 11.7467 115.263 11.56C115.183 11.5067 115.143 11.4 115.143 11.24C115.169 11.16 115.236 11.0933 115.343 11.04L115.463 10.96L115.543 10.92V10.76H115.423V10.04H115.263C115.209 9.82667 115.209 9.32 115.263 8.52C115.289 8.28 115.329 8 115.382 7.68V7.36L115.423 7.24V7.16C115.369 6.78667 115.316 6.53333 115.263 6.4H115.423L115.382 6.24C115.356 6.18667 115.316 6.13333 115.263 6.08H115.423V5.36C115.316 5.36 115.263 5.29333 115.263 5.16H115.423V4.68H115.263C115.316 4.65333 115.356 4.62667 115.382 4.6L115.423 4.52H115.263C115.316 4.44 115.356 4.36 115.382 4.28L115.423 4.08C115.476 3.73333 115.489 3.24 115.463 2.6V1.92C115.436 1.73333 115.423 1.56 115.423 1.4C115.663 1.29333 116.049 1.24 116.583 1.24H117.263L117.903 1.28V1.4H118.343V1.76H118.183C118.129 1.86667 118.089 2 118.063 2.16L118.023 2.64H118.183V3.92C118.103 4 118.049 4.10667 118.023 4.24H118.183C118.129 4.37333 118.089 4.53333 118.063 4.72L118.023 5.16H118.183C118.209 5.4 118.103 5.78667 117.863 6.32H117.903C117.929 6.34667 117.956 6.36 117.983 6.36C118.009 6.36 118.076 6.37333 118.183 6.4C118.129 6.56 118.089 6.74667 118.063 6.96V7.24L118.023 7.48C118.156 7.50667 118.209 7.57333 118.183 7.68H118.023V9.12H118.183V10.04H118.023C118.076 10.3867 118.129 10.6267 118.183 10.76H118.023V11.12H117.903C117.876 11.2533 117.889 11.3867 117.943 11.52L117.983 11.68L118.023 11.88C118.023 12.0933 117.983 12.2267 117.903 12.28C117.876 12.44 117.889 12.6667 117.943 12.96L117.983 13.28L118.023 13.56H118.183L118.223 13.36V13.16C118.249 13.0267 118.289 12.9067 118.343 12.8L118.183 12.76C118.289 12.6533 118.449 12.52 118.663 12.36L118.703 11.72L118.743 11.12H119.062V10.96C118.796 10.8267 118.769 10.56 118.983 10.16V9.84L119.062 9.8L119.143 9.72C119.249 9.66667 119.303 9.6 119.303 9.52C119.249 9.49333 119.209 9.45333 119.183 9.4C119.183 9.34667 119.196 9.25333 119.223 9.12H119.303V8.8H119.423V7.88C119.449 7.88 119.489 7.86667 119.543 7.84L119.703 7.8V7.24L119.743 6.68H119.863V6.4H120.023V5.84H120.143V5.48H120.183V4.92H120.343V4.36H120.503V4.04H120.623V3.44H120.663V3.24H120.823C120.849 3.13333 120.876 2.98667 120.903 2.8V2.28C120.903 1.82666 120.943 1.54666 121.023 1.44C121.129 1.36 121.343 1.32 121.663 1.32C121.956 1.32 122.209 1.34667 122.423 1.4V1.44C122.503 1.46667 122.609 1.48 122.743 1.48H123.063C123.303 1.45333 123.476 1.49333 123.583 1.6C123.609 1.68 123.636 1.77333 123.663 1.88H123.423C123.476 2.12 123.476 2.26667 123.423 2.32H123.223C123.249 2.34666 123.276 2.4 123.303 2.48L123.343 2.64L123.223 2.8H123.663C123.636 3.09333 123.623 3.44 123.623 3.84V4.12L123.663 4.4V5.16H123.343V5.28H123.583V5.92H123.423V6.08H123.103V6.2H123.423C123.423 6.49333 123.476 6.76 123.583 7H123.343V7.32H122.903V7.48H123.103V7.52C123.183 7.6 123.249 7.64 123.303 7.64H123.383C123.463 7.61333 123.529 7.69333 123.583 7.88C123.209 7.85333 122.849 7.89333 122.503 8V8.16H123.223C123.249 8.18667 123.276 8.2 123.303 8.2C123.303 8.17333 123.343 8.17333 123.423 8.2V8.48C123.343 8.48 123.249 8.46667 123.143 8.44L122.943 8.4C122.809 8.4 122.663 8.42667 122.503 8.48V8.6H123.583C123.583 8.78667 123.609 9.01333 123.663 9.28H123.583C123.529 9.33333 123.449 9.37333 123.343 9.4V9.6H123.103C123.049 9.44 122.929 9.33333 122.743 9.28V9.6H122.503L122.463 9.8L122.423 10H122.743C122.689 10.1867 122.583 10.2933 122.423 10.32C122.423 10.5333 122.503 10.7467 122.663 10.96C122.529 11.0667 122.369 11.12 122.183 11.12V11.4C122.689 11.48 123.156 11.6267 123.583 11.84C123.609 11.8667 123.623 11.9067 123.623 11.96L123.663 12.16L123.423 12.08L123.223 12C123.036 11.9467 122.849 11.9067 122.663 11.88V12.04C122.796 12.1467 122.876 12.2533 122.903 12.36H122.743V12.48H123.223C123.276 12.5333 123.343 12.5733 123.423 12.6L123.463 12.72L123.503 12.76C123.556 12.8133 123.583 12.8667 123.583 12.92L123.223 13L122.903 13.08V13.24C122.983 13.2667 123.049 13.32 123.103 13.4C123.049 13.4 122.983 13.3867 122.903 13.36L122.663 13.28V13.4C122.796 13.48 122.863 13.56 122.863 13.64L122.823 13.76L122.783 13.88L122.743 14C122.929 14 123.236 14.0267 123.663 14.08V14.36C123.476 14.3067 123.343 14.2533 123.263 14.2L123.143 14.16C123.089 14.1333 123.009 14.1067 122.903 14.08L122.823 14.16C122.823 14.1333 122.796 14.1467 122.743 14.2V14.36C123.063 14.36 123.289 14.3733 123.423 14.4V15.04H123.263L123.103 15.08L123.143 15.24V15.4C123.169 15.5067 123.196 15.6 123.223 15.68H123.343L123.303 15.88C123.276 15.96 123.249 16.0133 123.223 16.04L123.303 16.12L123.423 16.16C123.449 16.2133 123.463 16.2667 123.463 16.32L123.343 16.44C123.236 16.52 123.196 16.5733 123.223 16.6H123.423L123.503 16.68L123.583 16.76C123.609 16.84 123.636 16.88 123.663 16.88C123.583 17.28 123.329 17.4933 122.903 17.52L122.823 17.44C122.796 17.44 122.743 17.4133 122.663 17.36V17.52C122.956 17.6267 123.103 17.8267 123.103 18.12H123.343C123.289 18.3867 123.249 18.5467 123.223 18.6H122.983L123.103 18.68V18.76H123.583V19.04C123.503 19.0667 123.436 19.0933 123.383 19.12L123.223 19.24V19.36L122.943 19.4C122.809 19.4267 122.716 19.4533 122.663 19.48V19.64H122.743V19.68L123.103 19.64H123.423C123.369 19.8533 123.316 19.9333 123.263 19.88C123.183 19.8267 123.129 19.9067 123.103 20.12H122.903L122.943 20.36L122.983 20.56C122.796 20.56 122.623 20.5733 122.463 20.6C122.276 20.6267 122.129 20.68 122.023 20.76C122.423 20.76 122.783 20.8133 123.103 20.92C123.476 21.0533 123.583 21.2267 123.423 21.44L123.383 21.48L123.343 21.52H123.303L123.223 21.56C123.196 21.5067 123.169 21.44 123.143 21.36V21.28L123.103 21.2L122.943 21.24L122.743 21.28C122.769 21.3067 122.796 21.3467 122.823 21.4C122.849 21.4533 122.876 21.5067 122.903 21.56L123.063 21.6L123.223 21.64V21.92H122.983L123.023 21.96H123.103C123.156 22.04 123.236 22.0933 123.343 22.12V22.6C123.316 22.6 123.276 22.6133 123.223 22.64C123.143 22.64 123.103 22.6533 123.103 22.68C123.103 22.7333 123.116 22.7733 123.143 22.8L123.263 22.88C123.343 22.96 123.369 23.0533 123.343 23.16L123.143 23.24L122.983 23.28C122.956 23.3067 123.023 23.3867 123.183 23.52L123.343 23.72C123.396 23.7733 123.423 23.84 123.423 23.92H123.343V24.4H123.223L123.263 24.48L123.303 24.6L123.343 24.72V26.56C123.209 26.56 123.169 26.6533 123.223 26.84H123.343V27.16L122.703 27.12L122.023 27.08C121.436 27.0267 120.969 27 120.623 27C120.569 26.8133 120.529 26.5733 120.503 26.28V25.56H120.623V24.68C120.543 24.5467 120.503 24.3867 120.503 24.2H120.623C120.543 23.96 120.503 23.6133 120.503 23.16C120.503 23.1333 120.529 23.1067 120.583 23.08H120.623L120.663 23.04V22.68H120.823C120.823 22.6 120.809 22.5333 120.783 22.48L120.703 22.36C120.596 22.2533 120.569 22.1067 120.623 21.92H120.663V21.28H120.623C120.569 21.1467 120.583 20.96 120.663 20.72L120.783 20.48C120.809 20.4 120.823 20.3333 120.823 20.28C120.716 20.1467 120.649 19.9867 120.623 19.8H120.663V19.68C120.716 19.6533 120.769 19.64 120.823 19.64H120.943C120.996 19.6667 121.063 19.6133 121.143 19.48C120.983 19.4 120.769 19.36 120.503 19.36C120.503 19.0933 120.649 18.9467 120.943 18.92V18.6H120.663V17.32H120.623V17.2H120.663L120.623 16.72V16.24C120.649 16.2667 120.663 16.24 120.663 16.16C120.689 16.0533 120.689 15.9467 120.663 15.84L120.623 15.76V15.68H120.663V15.48H120.343V15.56H120.183V16.28H119.863C119.943 16.6 119.956 16.9467 119.903 17.32L119.823 17.84L119.703 18.32L119.623 18.84L119.543 19.36H119.423V19.64H119.342L119.223 19.68C119.356 19.9733 119.383 20.1733 119.303 20.28H119.223V20.6H119.062V21.08H118.983V21.76H118.823C118.769 21.8933 118.743 22.0933 118.743 22.36H118.503L118.543 22.48L118.623 22.64C118.676 22.8 118.689 22.9333 118.663 23.04C118.503 23.0933 118.396 23.1333 118.343 23.16C118.343 23.2933 118.396 23.36 118.503 23.36V23.52H118.343V24.52H118.183C118.129 24.6533 118.089 24.8133 118.063 25V25.28L118.023 25.56H117.903V25.88H117.863C117.836 26.0133 117.836 26.12 117.863 26.2L117.903 26.32L117.983 26.44C118.089 26.6 118.049 26.7733 117.863 26.96V27H116.903V26.96H116.103V27H115.623V26.96H115.223L114.743 27ZM122.663 10.48C122.689 10.48 122.769 10.4267 122.903 10.32C122.956 10.3733 123.023 10.4267 123.103 10.48L123.343 10.44H123.583V10.48C123.609 10.56 123.636 10.6533 123.663 10.76H122.743C122.689 10.76 122.663 10.6667 122.663 10.48ZM122.903 10.96L122.943 11.16L122.983 11.4H122.903V11.24L122.823 11.2L122.743 11.16C122.716 11.1333 122.716 11.0667 122.743 10.96H122.903ZM123.343 11.4V11.24H123.663V11.4H123.783C123.836 11.4533 123.796 11.48 123.663 11.48L123.503 11.44H123.423L123.383 11.4H123.343ZM123.223 13.56H123.343V13.68H123.423L123.383 13.72C123.356 13.6933 123.303 13.6933 123.223 13.72V13.56ZM119.423 15.96H119.543L119.663 16L119.863 16.04V15.68H119.423V15.96ZM121.343 18.6H121.823V18.44H121.343V18.6ZM120.943 20.44H121.343V20.28H120.943V20.44ZM120.823 21.56H121.143V21.44H120.823V21.56ZM121.583 21.64L121.623 21.72L121.663 21.8C121.689 21.8533 121.703 21.8933 121.703 21.92C121.756 21.92 121.836 21.9333 121.943 21.96V21.92H122.023V21.76L121.983 21.68L121.943 21.56L121.743 21.6L121.583 21.64Z" fill="white"/>
</svg>
