<svg aria-hidden="true" style="position: absolute; width: 0; height: 0; overflow: hidden;" version="1.1" xmlns="http://www.w3.org/2000/svg" xmlns:xlink="http://www.w3.org/1999/xlink">
<defs>
<symbol id="icon-Backpack" viewBox="0 0 28 32">
<path d="M14.222 0c1.307 0 2.367 1.060 2.367 2.367v0.076c5.381 1.125 9.422 5.896 9.422 11.61v3.553c0.946 0.212 1.688 1.004 1.793 2.030l0.629 6.163c0.133 1.305-0.814 2.496-2.116 2.659-0.387 0.049-0.761 0.001-1.1-0.124-1.154 2.18-3.445 3.666-6.084 3.666h-9.965c-2.622 0-4.901-1.467-6.062-3.625-0.306 0.094-0.636 0.125-0.977 0.083-1.302-0.163-2.249-1.353-2.116-2.659l0.629-6.163c0.099-0.973 0.772-1.736 1.647-1.993v-3.591c0-5.766 4.114-10.571 9.567-11.64v-0.047c0-1.307 1.060-2.367 2.367-2.367zM9.426 11.397c0 0.726 0.589 1.315 1.315 1.315h6.581c0.726 0 1.315-0.589 1.315-1.315s-0.589-1.315-1.315-1.315h-6.581c-0.726 0-1.315 0.589-1.315 1.315zM14.223 17.973c-3.921 0-7.1 3.179-7.1 7.1v1.316c0 1.162 0.942 2.104 2.104 2.104h9.992c1.162 0 2.104-0.942 2.104-2.104v-1.316c0-3.921-3.179-7.1-7.1-7.1z"></path>
</symbol>
<symbol id="icon-Close" viewBox="0 0 32 32">
<path d="M22.065 16l9.097-9.097c1.116-1.116 1.116-2.926 0-4.044l-2.022-2.022c-1.116-1.116-2.926-1.116-4.044 0l-9.097 9.097-9.097-9.097c-1.116-1.116-2.926-1.116-4.044 0l-2.022 2.022c-1.116 1.116-1.116 2.926 0 4.044l9.097 9.097-9.097 9.097c-1.116 1.116-1.116 2.926 0 4.044l2.022 2.022c1.116 1.116 2.927 1.116 4.044 0l9.097-9.097 9.097 9.097c1.116 1.116 2.927 1.116 4.044 0l2.022-2.022c1.116-1.116 1.116-2.926 0-4.044l-9.097-9.097z"></path>
</symbol>
<symbol id="icon-Dot" viewBox="0 0 32 32">
<path d="M32 16c0 8.837-7.163 16-16 16s-16-7.163-16-16c0-8.837 7.163-16 16-16s16 7.163 16 16z"></path>
</symbol>
<symbol id="icon-logo" viewBox="0 0 29 32">
<path d="M0.178 0h28.8v32h-28.8v-32z"></path>
</symbol>
<symbol id="icon-Play" viewBox="0 0 32 32">
<path d="M16 32c8.836 0 16-7.164 16-16s-7.164-16-16-16c-8.837 0-16 7.163-16 16s7.163 16 16 16zM13.081 8.599l10.645 6.29c0.938 0.575 0.938 1.936 0 2.51l-10.645 6.29c-0.968 0.575-2.177-0.121-2.177-1.27v-12.581c0-1.24 1.3-1.754 2.177-1.24z"></path>
</symbol>
<symbol id="icon-Vector" viewBox="0 0 41 32">
<path d="M13.974 30.738l-13.371-13.372c-0.803-0.803-0.803-2.106 0-2.909l2.909-2.909c0.803-0.803 2.106-0.803 2.909 0l9.008 9.008 19.293-19.293c0.803-0.803 2.106-0.803 2.909 0l2.909 2.909c0.803 0.803 0.803 2.106 0 2.909l-23.657 23.657c-0.803 0.803-2.106 0.803-2.909 0z"></path>
</symbol>
</defs>
</svg>
