<svg aria-hidden="true" style="position: absolute; width: 0; height: 0; overflow: hidden;" version="1.1" xmlns="http://www.w3.org/2000/svg" xmlns:xlink="http://www.w3.org/1999/xlink">
<defs>
<symbol id="icon-time" viewBox="0 0 32 32">
<path d="M16 0.5c-8.563 0-15.5 6.938-15.5 15.5s6.938 15.5 15.5 15.5c8.563 0 15.5-6.937 15.5-15.5s-6.937-15.5-15.5-15.5zM21.75 20.063l-1.25 1.563c-0.187 0.25-0.437 0.437-0.813 0.437-0.187 0-0.437-0.125-0.562-0.25l-4.188-3.125c-0.625-0.437-0.937-1.125-0.937-1.937v-9.75c0-0.5 0.437-1 1-1h2c0.5 0 1 0.5 1 1v9l3.625 2.687c0.187 0.187 0.375 0.438 0.375 0.75 0 0.25-0.125 0.5-0.25 0.625z"></path>
</symbol>
<symbol id="icon-telegram" viewBox="0 0 37 32">
<path d="M36.396 4.128c0.479-2.236-0.799-3.115-2.236-2.556l-31.785 12.219c-2.156 0.878-2.076 2.076-0.319 2.635l8.066 2.476 18.847-11.819c0.879-0.639 1.757-0.24 1.038 0.319l-15.253 13.736-0.559 8.385c0.878 0 1.198-0.319 1.677-0.799l3.913-3.833 8.226 6.069c1.517 0.879 2.635 0.399 3.035-1.358l5.351-25.476z"></path>
</symbol>
<symbol id="icon-mobile" viewBox="0 0 20 32">
<path d="M17 0h-14c-1.688 0-3 1.375-3 3v26c0 1.687 1.313 3 3 3h14c1.625 0 3-1.313 3-3v-26c0-1.625-1.375-3-3-3zM10 30c-1.125 0-2-0.875-2-2 0-1.063 0.875-2 2-2 1.063 0 2 0.937 2 2 0 1.125-0.938 2-2 2z"></path>
</symbol>
<symbol id="icon-map" viewBox="0 0 35 32">
<path d="M17.28 0c-4.2 0-7.56 3.42-7.56 7.56 0 3.42 4.92 9.54 6.78 11.82 0.42 0.42 1.080 0.42 1.5 0 1.86-2.28 6.84-8.4 6.84-11.82 0-4.14-3.42-7.56-7.56-7.56zM17.28 10.080c-1.44 0-2.52-1.080-2.52-2.52 0-1.38 1.080-2.52 2.52-2.52 1.38 0 2.52 1.14 2.52 2.52 0 1.44-1.14 2.52-2.52 2.52zM1.2 12.96c-0.72 0.3-1.2 1.020-1.2 1.8v15c0 0.72 0.66 1.2 1.26 0.9l8.34-3.78v-13.98c-0.54-0.96-1.020-1.86-1.32-2.76l-7.080 2.82zM17.28 21.6c-0.9 0-1.68-0.36-2.22-1.020-1.2-1.38-2.46-2.94-3.54-4.62v10.92l11.52 3.84v-14.76c-1.14 1.68-2.4 3.24-3.6 4.62-0.54 0.66-1.32 1.020-2.16 1.020zM33.24 9.72l-8.28 3.72v17.28l8.34-3.3c0.72-0.3 1.26-1.020 1.26-1.8v-15c0-0.72-0.72-1.2-1.32-0.9z"></path>
</symbol>
<symbol id="icon-mail" viewBox="0 0 41 32">
<path d="M40.090 11.476c-1.837 1.438-4.153 3.194-12.299 9.104-1.597 1.198-4.552 3.833-7.347 3.833-2.875 0-5.75-2.635-7.427-3.833-8.146-5.91-10.462-7.667-12.299-9.104-0.319-0.24-0.719 0-0.719 0.399v16.292c0 2.156 1.677 3.833 3.833 3.833h33.222c2.076 0 3.833-1.677 3.833-3.833v-16.292c0-0.399-0.479-0.639-0.799-0.399zM20.444 21.778c1.837 0.080 4.472-2.316 5.83-3.274 10.621-7.667 11.42-8.385 13.816-10.302 0.479-0.319 0.799-0.878 0.799-1.517v-1.517c0-2.076-1.757-3.833-3.833-3.833h-33.222c-2.156 0-3.833 1.757-3.833 3.833v1.517c0 0.639 0.24 1.198 0.719 1.517 2.396 1.917 3.194 2.635 13.816 10.302 1.358 0.958 3.993 3.354 5.91 3.274z"></path>
</symbol>
<symbol id="icon-instagram2" viewBox="0 0 32 32">
<path d="M16 7.938c-4.381 0-7.872 3.56-7.872 7.872 0 4.381 3.491 7.872 7.872 7.872 4.313 0 7.872-3.491 7.872-7.872 0-4.313-3.559-7.872-7.872-7.872zM16 20.943c-2.807 0-5.134-2.259-5.134-5.134 0-2.807 2.259-5.065 5.134-5.065 2.807 0 5.065 2.259 5.065 5.065 0 2.875-2.259 5.134-5.065 5.134zM25.994 7.664c0-1.027-0.822-1.848-1.848-1.848s-1.848 0.821-1.848 1.848c0 1.027 0.822 1.848 1.848 1.848s1.848-0.821 1.848-1.848zM31.197 9.512c-0.137-2.464-0.685-4.655-2.464-6.435s-3.97-2.327-6.435-2.464c-2.533-0.137-10.131-0.137-12.664 0-2.464 0.137-4.586 0.685-6.435 2.464-1.78 1.78-2.327 3.97-2.464 6.435-0.137 2.533-0.137 10.131 0 12.664 0.137 2.464 0.685 4.586 2.464 6.435 1.848 1.78 3.97 2.327 6.435 2.464 2.533 0.137 10.131 0.137 12.664 0 2.464-0.137 4.655-0.684 6.435-2.464 1.78-1.848 2.327-3.97 2.464-6.435 0.137-2.533 0.137-10.131 0-12.664zM27.911 24.845c-0.479 1.369-1.574 2.396-2.875 2.943-2.054 0.822-6.845 0.616-9.036 0.616-2.259 0-7.051 0.205-9.036-0.616-1.369-0.547-2.396-1.574-2.943-2.943-0.821-1.985-0.616-6.777-0.616-9.036 0-2.19-0.205-6.982 0.616-9.036 0.548-1.301 1.574-2.327 2.943-2.875 1.985-0.821 6.777-0.616 9.036-0.616 2.19 0 6.982-0.205 9.036 0.616 1.301 0.479 2.327 1.574 2.875 2.875 0.822 2.054 0.616 6.845 0.616 9.036 0 2.259 0.205 7.051-0.616 9.036z"></path>
</symbol>
<symbol id="icon-instagram" viewBox="0 0 31 32">
<path fill="#fff" style="fill: var(--color1, #fff)" d="M15.442 7.75c-4.402 0-7.91 3.714-7.91 8.214 0 4.571 3.508 8.214 7.91 8.214 4.333 0 7.91-3.643 7.91-8.214 0-4.5-3.577-8.214-7.91-8.214zM15.442 21.321c-2.82 0-5.159-2.357-5.159-5.357 0-2.929 2.27-5.286 5.159-5.286 2.82 0 5.090 2.357 5.090 5.286 0 3-2.27 5.357-5.090 5.357zM25.484 7.464c0-1.071-0.825-1.929-1.857-1.929s-1.857 0.857-1.857 1.929 0.825 1.929 1.857 1.929c1.032 0 1.857-0.857 1.857-1.929zM30.712 9.393c-0.137-2.571-0.688-4.857-2.476-6.714s-3.989-2.429-6.466-2.571c-2.545-0.143-10.18-0.143-12.725 0-2.476 0.143-4.608 0.714-6.466 2.571-1.788 1.857-2.339 4.143-2.476 6.714-0.138 2.643-0.138 10.571 0 13.214 0.138 2.571 0.688 4.786 2.476 6.714 1.857 1.857 3.989 2.429 6.466 2.571 2.545 0.143 10.18 0.143 12.725 0 2.476-0.143 4.677-0.714 6.466-2.571 1.788-1.929 2.339-4.143 2.476-6.714 0.138-2.643 0.138-10.572 0-13.214zM27.41 25.393c-0.481 1.429-1.582 2.5-2.889 3.071-2.063 0.857-6.878 0.643-9.079 0.643-2.27 0-7.085 0.214-9.079-0.643-1.376-0.571-2.407-1.643-2.958-3.071-0.825-2.071-0.619-7.071-0.619-9.428 0-2.286-0.206-7.286 0.619-9.429 0.55-1.357 1.582-2.429 2.958-3 1.995-0.857 6.809-0.643 9.079-0.643 2.201 0 7.016-0.214 9.079 0.643 1.307 0.5 2.339 1.643 2.889 3 0.825 2.143 0.619 7.143 0.619 9.429 0 2.357 0.206 7.357-0.619 9.428z"></path>
</symbol>
<symbol id="icon-facebook" viewBox="0 0 17 32">
<path fill="#fff" style="fill: var(--color1, #fff)" d="M16.021 18l0.873-5.75h-5.548v-3.75c0-1.625 0.748-3.125 3.242-3.125h2.556v-4.938c0 0-2.306-0.438-4.488-0.438-4.551 0-7.543 2.813-7.543 7.813v4.438h-5.112v5.75h5.112v14h6.234v-14h4.675z"></path>
</symbol>
<symbol id="icon-burger2" viewBox="0 0 32 32">
<path d="M16 32c8.837 0 16-7.163 16-16s-7.163-16-16-16c-8.837 0-16 7.163-16 16s7.163 16 16 16zM23.2 11.429c0 0.289-0.23 0.522-0.514 0.522h-13.371c-0.284 0-0.514-0.234-0.514-0.522v-1.306c0-0.289 0.23-0.522 0.514-0.522h13.371c0.284 0 0.514 0.234 0.514 0.522v1.306zM23.2 16.653c0 0.289-0.23 0.522-0.514 0.522h-13.371c-0.284 0-0.514-0.234-0.514-0.522v-1.306c0-0.289 0.23-0.522 0.514-0.522h13.371c0.284 0 0.514 0.234 0.514 0.522v1.306zM23.2 21.878c0 0.289-0.23 0.522-0.514 0.522h-13.371c-0.284 0-0.514-0.234-0.514-0.522v-1.306c0-0.289 0.23-0.523 0.514-0.523h13.371c0.284 0 0.514 0.234 0.514 0.523v1.306z"></path>
</symbol>
<symbol id="icon-Backpack" viewBox="0 0 28 32">
<path d="M14.222 0c1.307 0 2.367 1.060 2.367 2.367v0.076c5.381 1.125 9.422 5.896 9.422 11.61v3.553c0.946 0.212 1.688 1.004 1.793 2.030l0.629 6.163c0.133 1.305-0.814 2.496-2.116 2.659-0.387 0.049-0.761 0.001-1.1-0.124-1.154 2.18-3.445 3.666-6.084 3.666h-9.965c-2.622 0-4.901-1.467-6.062-3.625-0.306 0.094-0.636 0.125-0.977 0.083-1.302-0.163-2.249-1.353-2.116-2.659l0.629-6.163c0.099-0.973 0.772-1.736 1.647-1.993v-3.591c0-5.766 4.114-10.571 9.567-11.64v-0.047c0-1.307 1.060-2.367 2.367-2.367zM9.426 11.397c0 0.726 0.589 1.315 1.315 1.315h6.581c0.726 0 1.315-0.589 1.315-1.315s-0.589-1.315-1.315-1.315h-6.581c-0.726 0-1.315 0.589-1.315 1.315zM14.223 17.973c-3.921 0-7.1 3.179-7.1 7.1v1.316c0 1.162 0.942 2.104 2.104 2.104h9.992c1.162 0 2.104-0.942 2.104-2.104v-1.316c0-3.921-3.179-7.1-7.1-7.1z"></path>
</symbol>
<symbol id="icon-close" viewBox="0 0 32 32">
<path d="M22.065 16l9.097-9.097c1.116-1.116 1.116-2.926 0-4.044l-2.022-2.022c-1.116-1.116-2.926-1.116-4.044 0l-9.097 9.097-9.097-9.097c-1.116-1.116-2.926-1.116-4.044 0l-2.022 2.022c-1.116 1.116-1.116 2.926 0 4.044l9.097 9.097-9.097 9.097c-1.116 1.116-1.116 2.926 0 4.044l2.022 2.022c1.116 1.116 2.927 1.116 4.044 0l9.097-9.097 9.097 9.097c1.116 1.116 2.927 1.116 4.044 0l2.022-2.022c1.116-1.116 1.116-2.926 0-4.044l-9.097-9.097z"></path>
</symbol>
<symbol id="icon-dot" viewBox="0 0 32 32">
<path d="M32 16c0 8.837-7.163 16-16 16s-16-7.163-16-16c0-8.837 7.163-16 16-16s16 7.163 16 16z"></path>
</symbol>
<symbol id="icon-logo" viewBox="0 0 29 32">
<path d="M0.178 0h28.8v32h-28.8v-32z"></path>
</symbol>
<symbol id="icon-play" viewBox="0 0 32 32">
<path d="M16 32c8.836 0 16-7.164 16-16s-7.164-16-16-16c-8.837 0-16 7.163-16 16s7.163 16 16 16zM13.081 8.599l10.645 6.29c0.938 0.575 0.938 1.936 0 2.51l-10.645 6.29c-0.968 0.575-2.177-0.121-2.177-1.27v-12.581c0-1.24 1.3-1.754 2.177-1.24z"></path>
</symbol>
<symbol id="icon-vector" viewBox="0 0 41 32">
<path d="M13.974 30.738l-13.371-13.372c-0.803-0.803-0.803-2.106 0-2.909l2.909-2.909c0.803-0.803 2.106-0.803 2.909 0l9.008 9.008 19.293-19.293c0.803-0.803 2.106-0.803 2.909 0l2.909 2.909c0.803 0.803 0.803 2.106 0 2.909l-23.657 23.657c-0.803 0.803-2.106 0.803-2.909 0z"></path>
</symbol>
<symbol id="icon-close" viewBox="0 0 32 32">
<path d="M21.882 16l8.822-8.822a2.772 2.772 0 000-3.921l-1.96-1.961a2.772 2.772 0 00-3.921 0l-8.822 8.822-8.822-8.822a2.772 2.772 0 00-3.921 0L1.297 3.257a2.772 2.772 0 000 3.921L10.119 16l-8.822 8.822a2.772 2.772 0 000 3.921l1.961 1.961a2.774 2.774 0 003.921 0l8.822-8.822 8.822 8.822a2.774 2.774 0 003.921 0l1.96-1.961a2.772 2.772 0 000-3.921L21.882 16z"/>
</symbol>
<symbol id="icon-burger" viewBox="0 0 32 32">
<path d="M16 32c8.837 0 16-7.163 16-16s-7.163-16-16-16c-8.837 0-16 7.163-16 16s7.163 16 16 16zM22.686 11.951h-13.371c-0.284 0-0.514-0.234-0.514-0.522v-1.306c0-0.289 0.23-0.522 0.514-0.522h13.371c0.284 0 0.514 0.234 0.514 0.522v1.306c0 0.289-0.23 0.522-0.514 0.522zM22.686 17.176h-13.371c-0.284 0-0.514-0.234-0.514-0.522v-1.306c0-0.289 0.23-0.522 0.514-0.522h13.371c0.284 0 0.514 0.234 0.514 0.522v1.306c0 0.289-0.23 0.522-0.514 0.522zM22.686 22.4h-13.371c-0.284 0-0.514-0.234-0.514-0.522v-1.306c0-0.289 0.23-0.522 0.514-0.522h13.371c0.284 0 0.514 0.234 0.514 0.522v1.306c0 0.289-0.23 0.522-0.514 0.522z"></path>
</symbol>
</defs>
</svg>
